<svg width="46" height="69" viewBox="0 0 46 69" fill="none" xmlns="http://www.w3.org/2000/svg">
<path d="M3.36621 10.4768C4.68387 10.3621 5.8577 11.1163 6.2793 12.1243L6.32715 12.259L7.72949 16.1809L7.73242 16.1897L7.73535 16.1975C7.77569 16.3032 7.78201 16.378 7.77148 16.4524L7.77051 16.4631L7.76855 16.4749L6.42969 28.1624L0.935547 13.4944C0.498908 12.2317 1.43096 10.6404 3.36328 10.4768H3.36621ZM16.1807 3.16333C18.4102 2.92329 19.9575 4.53215 19.8066 6.06763L19.0811 13.4124C19.0752 13.4714 19.0604 13.5032 19.0488 13.5208L19.0459 13.5256L11.5029 25.095L13.416 5.74829V5.74731C13.5394 4.49364 14.6351 3.34075 16.1797 3.16235L16.1807 3.16333Z" fill="#003501" stroke="#003501" stroke-width="1.64921"/>
<path d="M34.6055 0.825195C35.8998 0.896193 36.6726 1.24825 37.1396 1.65723C37.6075 2.06692 37.8543 2.60806 37.9551 3.2168C38.0573 3.83478 38.002 4.49111 37.8887 5.05273C37.773 5.62607 37.6128 6.02623 37.5605 6.12305L37.5557 6.13184C37.2589 6.69812 31.7824 15.5877 28.8115 20.4209C28.8102 20.423 28.8083 20.4249 28.8047 20.4268C28.8005 20.4288 28.7928 20.4312 28.7812 20.4307L27.9121 20.3848V20.4395C24.1702 20.4873 21.2261 21.6824 18.9912 22.8916C22.3277 17.2974 30.0807 4.79227 31.3252 3.01465C32.7516 0.992212 34.1509 0.829488 34.6055 0.825195Z" fill="#003501" stroke="#003501" stroke-width="1.64921"/>
<path d="M31.8919 43.654C31.8919 43.654 40.7317 50.7498 33.8874 59.4409C31.0343 63.0635 26.0701 64.8583 21.139 64.0108C9.89139 62.0997 8.02777 51.4976 8.02777 51.4976C6.39505 41.6432 12.5961 35.4448 12.5961 35.4448C23.4809 23.3969 42.0015 30.177 42.0015 30.177" stroke="#003501" stroke-width="7.76777" stroke-linecap="round"/>
</svg>
