<svg width="203" height="65" viewBox="0 0 203 65" fill="none" xmlns="http://www.w3.org/2000/svg">
<path d="M33.754 56.4645C33.8291 56.4645 33.9041 56.4861 33.9792 56.5293C34.0649 56.5725 34.1293 56.6265 34.1829 56.6806L37.3354 61.4885H36.9172L40.1126 56.6806C40.2198 56.5293 40.3485 56.4537 40.52 56.4645C40.6487 56.4645 40.7559 56.5185 40.8524 56.605C40.9489 56.6914 40.9918 56.8102 40.9918 56.9507V64.3733C40.9918 64.5138 40.9489 64.6218 40.8524 64.7191C40.7559 64.8163 40.638 64.8595 40.4986 64.8595C40.3592 64.8595 40.2412 64.8163 40.1447 64.7191C40.0482 64.6218 40.0053 64.503 40.0053 64.3733V57.8583L40.3056 57.9231L37.4962 62.2341C37.4533 62.2881 37.389 62.3421 37.3139 62.3745C37.2496 62.4177 37.1852 62.4393 37.1102 62.4393C37.0351 62.4393 36.9708 62.4177 36.8958 62.3745C36.8207 62.3313 36.767 62.2881 36.7134 62.2341L33.9363 57.9231L34.1829 57.6098V64.3733C34.1829 64.5138 34.14 64.6218 34.0542 64.7191C33.9684 64.8163 33.8505 64.8595 33.7218 64.8595C33.5931 64.8595 33.4752 64.8163 33.3894 64.7191C33.3144 64.6218 33.2715 64.503 33.2715 64.3733V56.9507C33.2715 56.821 33.3144 56.713 33.4002 56.6157C33.4967 56.5077 33.6146 56.4645 33.754 56.4645ZM46.9215 57.7286L44.1229 64.5894C44.0907 64.6867 44.037 64.7623 43.9513 64.8163C43.8762 64.8703 43.7904 64.9028 43.7047 64.9028C43.5545 64.9028 43.4473 64.8595 43.3723 64.7839C43.2972 64.7083 43.2651 64.611 43.2651 64.4922C43.2651 64.4382 43.265 64.3733 43.2865 64.3085L46.3746 56.7454C46.4175 56.6373 46.4711 56.5509 46.5569 56.5077C46.6426 56.4537 46.7392 56.4321 46.8464 56.4321C46.9536 56.4321 47.0394 56.4645 47.1252 56.5185C47.211 56.5725 47.2753 56.6481 47.3075 56.7454L50.3849 64.2329C50.4063 64.2977 50.4171 64.3625 50.4171 64.4274C50.4171 64.5678 50.3742 64.6867 50.2777 64.7731C50.1812 64.8487 50.074 64.8919 49.956 64.8919C49.8595 64.8919 49.7737 64.8595 49.6987 64.8055C49.6236 64.7515 49.5592 64.6651 49.5163 64.5678L46.6856 57.707H46.9429L46.9215 57.7286ZM44.7126 62.6338L45.1201 61.6938H48.6585L48.8408 62.6338H44.7233H44.7126ZM58.5342 64.9028C58.3948 64.9028 58.2768 64.8379 58.1803 64.7191L55.0171 60.6566L55.7462 59.9111L58.9738 64.0708C59.0488 64.1789 59.081 64.2869 59.081 64.3949C59.081 64.557 59.0167 64.6759 58.8987 64.7623C58.7915 64.8487 58.6736 64.8919 58.5449 64.8919L58.5342 64.9028ZM58.502 56.4645C58.6306 56.4645 58.7379 56.5185 58.813 56.6157C58.8988 56.7238 58.9416 56.8318 58.9416 56.9399C58.9416 57.0479 58.8987 57.156 58.8022 57.2532L53.5374 62.2665L53.4516 61.1536L58.116 56.6374C58.2339 56.5185 58.3626 56.4537 58.502 56.4537V56.4645ZM53.1406 64.8812C52.9905 64.8812 52.8726 64.8379 52.7868 64.7407C52.701 64.6435 52.6581 64.5246 52.6581 64.3949V56.9831C52.6581 56.8426 52.701 56.7238 52.7975 56.6374C52.894 56.5401 53.012 56.4969 53.1514 56.4969C53.3015 56.4969 53.4194 56.5401 53.5052 56.6374C53.591 56.7238 53.6339 56.8426 53.6339 56.9831V64.3949C53.6339 64.5354 53.591 64.6435 53.4945 64.7407C53.4087 64.8379 53.2907 64.8812 53.1406 64.8812ZM62.0512 56.4753H66.2867C66.4261 56.4753 66.5333 56.5185 66.6298 56.605C66.7263 56.6914 66.7692 56.8102 66.7692 56.9399C66.7692 57.0695 66.7263 57.1884 66.6298 57.2748C66.5333 57.3505 66.4153 57.3937 66.2867 57.3937H62.4479L62.5552 57.1884V60.2244L62.4373 60.0948H65.7505C65.8899 60.0948 65.9972 60.138 66.0937 60.2244C66.1902 60.3109 66.2331 60.4189 66.2331 60.5594C66.2331 60.6998 66.1902 60.8079 66.0937 60.8943C65.9972 60.9699 65.8792 61.0132 65.7505 61.0132H62.4801L62.5659 60.9051V64.0168L62.4909 63.9304H66.2867C66.4261 63.9304 66.5333 63.9736 66.6298 64.0708C66.7263 64.1681 66.7692 64.2761 66.7692 64.3949C66.7692 64.5354 66.7263 64.6434 66.6298 64.7299C66.5333 64.8163 66.4153 64.8595 66.2867 64.8595H62.0512C61.9118 64.8595 61.8046 64.8163 61.708 64.7191C61.6223 64.6218 61.5794 64.503 61.5794 64.3733V56.9507C61.5794 56.8102 61.6223 56.7022 61.708 56.6157C61.8046 56.5185 61.9225 56.4753 62.0512 56.4753ZM76.8056 56.4753C77.2453 56.4753 77.6313 56.5833 77.9852 56.7994C78.339 57.0155 78.607 57.3072 78.8108 57.6854C79.0145 58.0636 79.1218 58.4849 79.1218 58.9711C79.1218 59.4573 79.0145 59.8679 78.8108 60.2568C78.607 60.6458 78.339 60.9483 77.9852 61.1644C77.6313 61.3913 77.2453 61.4994 76.8056 61.4994H74.393L74.4788 61.3589V64.3841C74.4788 64.5246 74.4359 64.6326 74.3502 64.7299C74.2644 64.8271 74.1572 64.8703 74.0178 64.8703C73.8784 64.8703 73.7604 64.8271 73.6746 64.7299C73.5996 64.6326 73.5567 64.5138 73.5567 64.3841V56.9615C73.5567 56.821 73.5996 56.713 73.6854 56.6266C73.7819 56.5293 73.8998 56.4861 74.0285 56.4861H76.8164L76.8056 56.4753ZM76.8056 60.581C77.063 60.581 77.2989 60.5053 77.4919 60.3649C77.6849 60.2244 77.8458 60.03 77.9637 59.7815C78.0817 59.533 78.146 59.2628 78.146 58.9819C78.146 58.6794 78.0817 58.4093 77.9637 58.1824C77.8458 57.9555 77.6849 57.7718 77.4919 57.6314C77.2882 57.4909 77.063 57.4153 76.8056 57.4153H74.393L74.4788 57.2856V60.7214L74.393 60.6026H76.8056V60.581ZM82.1027 56.4753H86.3381C86.4775 56.4753 86.5848 56.5185 86.6813 56.605C86.7778 56.6914 86.8207 56.8102 86.8207 56.9399C86.8207 57.0695 86.7778 57.1884 86.6813 57.2748C86.5848 57.3505 86.4668 57.3937 86.3381 57.3937H82.4994L82.6067 57.1884V60.2244L82.4887 60.0948H85.802C85.9414 60.0948 86.0486 60.138 86.1451 60.2244C86.2416 60.3109 86.2845 60.4189 86.2845 60.5594C86.2845 60.6998 86.2416 60.8079 86.1451 60.8943C86.0486 60.9699 85.9307 61.0132 85.802 61.0132H82.5316L82.6173 60.9051V64.0168L82.5423 63.9304H86.3381C86.4775 63.9304 86.5848 63.9736 86.6813 64.0708C86.7778 64.1681 86.8207 64.2761 86.8207 64.3949C86.8207 64.5354 86.7778 64.6434 86.6813 64.7299C86.5848 64.8163 86.4668 64.8595 86.3381 64.8595H82.1027C81.9633 64.8595 81.856 64.8163 81.7595 64.7191C81.6737 64.6218 81.6309 64.503 81.6309 64.3733V56.9507C81.6309 56.8102 81.6737 56.7022 81.7595 56.6157C81.856 56.5185 81.974 56.4753 82.1027 56.4753ZM96.8892 60.6782C96.8892 61.2941 96.7928 61.8667 96.589 62.3961C96.3853 62.9147 96.1172 63.3685 95.7526 63.7683C95.3988 64.1572 94.9699 64.4598 94.4766 64.6759C93.9834 64.892 93.4473 65 92.8682 65C92.2892 65 91.7424 64.892 91.2492 64.6759C90.7666 64.4598 90.3484 64.1572 89.9838 63.7683C89.63 63.3793 89.3512 62.9255 89.1475 62.3961C88.9437 61.8667 88.8472 61.2941 88.8472 60.6782C88.8472 60.0624 88.9437 59.4789 89.1475 58.9603C89.3512 58.4309 89.6192 57.9771 89.9838 57.5882C90.3377 57.1992 90.7666 56.8967 91.2492 56.6806C91.7424 56.4645 92.2785 56.3564 92.8682 56.3564C93.458 56.3564 93.9834 56.4645 94.4766 56.6806C94.9699 56.8967 95.3988 57.1992 95.7526 57.5882C96.1065 57.9771 96.3853 58.4309 96.589 58.9603C96.782 59.4789 96.8892 60.0516 96.8892 60.6782ZM95.8599 60.6782C95.8599 60.0191 95.7312 59.4465 95.4632 58.9387C95.2058 58.4309 94.8627 58.0419 94.4123 57.7502C93.9727 57.4585 93.4473 57.3181 92.8682 57.3181C92.2892 57.3181 91.7638 57.4585 91.3135 57.7502C90.8739 58.0419 90.52 58.4309 90.2626 58.9387C90.0053 59.4465 89.8766 60.0191 89.8766 60.6782C89.8766 61.3373 90.0053 61.9099 90.2626 62.4177C90.52 62.9255 90.8631 63.3145 91.3135 63.6062C91.7638 63.8979 92.2892 64.0384 92.8682 64.0384C93.4473 64.0384 93.9727 63.8979 94.4123 63.6062C94.8519 63.3145 95.2058 62.9255 95.4632 62.4177C95.7205 61.9099 95.8599 61.3265 95.8599 60.6782ZM102.68 56.4753C103.119 56.4753 103.505 56.5833 103.859 56.7994C104.213 57.0155 104.481 57.3072 104.685 57.6854C104.888 58.0636 104.996 58.4849 104.996 58.9711C104.996 59.4573 104.888 59.8679 104.685 60.2568C104.492 60.6458 104.213 60.9483 103.859 61.1644C103.505 61.3913 103.119 61.4994 102.68 61.4994H100.267L100.353 61.3589V64.3841C100.353 64.5246 100.31 64.6326 100.224 64.7299C100.138 64.8271 100.02 64.8703 99.8916 64.8703C99.7523 64.8703 99.6343 64.8271 99.5485 64.7299C99.4735 64.6326 99.4306 64.5138 99.4306 64.3841V56.9615C99.4306 56.821 99.4735 56.713 99.5592 56.6266C99.6558 56.5293 99.7736 56.4861 99.9023 56.4861H102.69L102.68 56.4753ZM102.68 60.581C102.937 60.581 103.173 60.5053 103.366 60.3649C103.57 60.2244 103.72 60.03 103.838 59.7815C103.956 59.533 104.02 59.2628 104.02 58.9819C104.02 58.6794 103.956 58.4093 103.838 58.1824C103.72 57.9555 103.559 57.7718 103.366 57.6314C103.173 57.4909 102.937 57.4153 102.68 57.4153H100.267L100.353 57.2856V60.7214L100.267 60.6026H102.68V60.581ZM112.094 63.9304C112.233 63.9304 112.341 63.9736 112.437 64.0708C112.534 64.1573 112.577 64.2653 112.577 64.4058C112.577 64.5462 112.534 64.6543 112.437 64.7407C112.341 64.8271 112.223 64.8703 112.094 64.8703H107.977C107.837 64.8703 107.73 64.8271 107.633 64.7299C107.548 64.6326 107.505 64.5138 107.505 64.3841V56.9615C107.505 56.821 107.548 56.713 107.644 56.6266C107.741 56.5293 107.859 56.4861 107.998 56.4861C108.137 56.4861 108.245 56.5293 108.341 56.6266C108.438 56.713 108.48 56.8318 108.48 56.9615V64.1464L108.245 63.9304H112.094ZM115.386 56.4753H119.621C119.761 56.4753 119.868 56.5185 119.965 56.605C120.061 56.6914 120.104 56.8102 120.104 56.9399C120.104 57.0695 120.061 57.1884 119.965 57.2748C119.868 57.3505 119.75 57.3937 119.621 57.3937H115.783L115.89 57.1884V60.2244L115.772 60.0948H119.085C119.225 60.0948 119.332 60.138 119.428 60.2244C119.525 60.3109 119.568 60.4189 119.568 60.5594C119.568 60.6998 119.525 60.8079 119.428 60.8943C119.332 60.9699 119.214 61.0132 119.085 61.0132H115.815L115.901 60.9051V64.0168L115.826 63.9304H119.621C119.761 63.9304 119.868 63.9736 119.965 64.0708C120.061 64.1681 120.104 64.2761 120.104 64.3949C120.104 64.5354 120.061 64.6434 119.965 64.7299C119.868 64.8163 119.75 64.8595 119.621 64.8595H115.386C115.247 64.8595 115.139 64.8163 115.043 64.7191C114.957 64.6218 114.914 64.503 114.914 64.3733V56.9507C114.914 56.8102 114.957 56.7022 115.043 56.6157C115.139 56.5185 115.257 56.4753 115.386 56.4753ZM127.385 56.4753C127.524 56.4753 127.631 56.5185 127.728 56.6157C127.824 56.7022 127.867 56.821 127.867 56.9615V64.3733C127.867 64.5138 127.814 64.6218 127.717 64.7191C127.621 64.8163 127.503 64.8595 127.374 64.8595C127.224 64.8595 127.106 64.8163 127.02 64.7191C126.934 64.6218 126.891 64.503 126.891 64.3733V56.9615C126.891 56.821 126.934 56.7022 127.031 56.6157C127.127 56.5185 127.245 56.4753 127.385 56.4753ZM132.875 56.4753C133.014 56.4753 133.132 56.5185 133.218 56.6157C133.314 56.7022 133.357 56.821 133.357 56.9615V64.3733C133.357 64.5138 133.314 64.6218 133.218 64.7191C133.121 64.8163 133.003 64.8595 132.864 64.8595C132.725 64.8595 132.617 64.8163 132.521 64.7191C132.424 64.6218 132.381 64.503 132.381 64.3733V56.9615C132.381 56.821 132.424 56.7022 132.521 56.6157C132.628 56.5185 132.746 56.4753 132.875 56.4753ZM127.331 60.138H132.885V61.078H127.299L127.331 60.138ZM139.287 57.7286L136.488 64.5894C136.456 64.6867 136.402 64.7623 136.317 64.8163C136.242 64.8703 136.156 64.9028 136.07 64.9028C135.92 64.9028 135.813 64.8595 135.738 64.7839C135.663 64.7083 135.63 64.611 135.63 64.4922C135.63 64.4382 135.63 64.3733 135.652 64.3085L138.74 56.7454C138.783 56.6373 138.836 56.5509 138.922 56.5077C139.008 56.4537 139.105 56.4321 139.212 56.4321C139.319 56.4321 139.405 56.4645 139.491 56.5185C139.576 56.5725 139.641 56.6481 139.673 56.7454L142.75 64.2329C142.772 64.2977 142.782 64.3625 142.782 64.4274C142.782 64.5678 142.74 64.6867 142.643 64.7731C142.547 64.8487 142.439 64.8919 142.321 64.8919C142.225 64.8919 142.139 64.8595 142.064 64.8055C141.989 64.7515 141.925 64.6651 141.882 64.5678L139.051 57.707H139.308L139.287 57.7286ZM137.089 62.6338L137.496 61.6938H141.035L141.217 62.6338H137.099H137.089ZM148.283 56.4753C148.723 56.4753 149.109 56.5833 149.463 56.7994C149.817 57.0155 150.085 57.3072 150.288 57.6854C150.492 58.0636 150.599 58.4849 150.599 58.9711C150.599 59.4573 150.492 59.8679 150.288 60.2568C150.095 60.6458 149.817 60.9483 149.463 61.1644C149.109 61.3913 148.723 61.4994 148.283 61.4994H145.871L145.956 61.3589V64.3841C145.956 64.5246 145.913 64.6326 145.828 64.7299C145.742 64.8271 145.624 64.8703 145.495 64.8703C145.356 64.8703 145.238 64.8271 145.152 64.7299C145.077 64.6326 145.034 64.5138 145.034 64.3841V56.9615C145.034 56.821 145.077 56.713 145.163 56.6266C145.259 56.5293 145.377 56.4861 145.506 56.4861H148.294L148.283 56.4753ZM148.283 60.581C148.541 60.581 148.776 60.5053 148.969 60.3649C149.173 60.2244 149.323 60.03 149.441 59.7815C149.559 59.533 149.624 59.2628 149.624 58.9819C149.624 58.6794 149.559 58.4093 149.441 58.1824C149.323 57.9555 149.162 57.7718 148.969 57.6314C148.776 57.4909 148.541 57.4153 148.283 57.4153H145.871L145.956 57.2856V60.7214L145.871 60.6026H148.283V60.581ZM156.368 56.4753C156.808 56.4753 157.194 56.5833 157.548 56.7994C157.901 57.0155 158.17 57.3072 158.373 57.6854C158.577 58.0636 158.684 58.4849 158.684 58.9711C158.684 59.4573 158.577 59.8679 158.373 60.2568C158.18 60.6458 157.901 60.9483 157.548 61.1644C157.194 61.3913 156.808 61.4994 156.368 61.4994H153.956L154.041 61.3589V64.3841C154.041 64.5246 153.998 64.6326 153.913 64.7299C153.827 64.8271 153.709 64.8703 153.58 64.8703C153.441 64.8703 153.323 64.8271 153.237 64.7299C153.162 64.6326 153.119 64.5138 153.119 64.3841V56.9615C153.119 56.821 153.162 56.713 153.248 56.6266C153.344 56.5293 153.462 56.4861 153.591 56.4861H156.379L156.368 56.4753ZM156.368 60.581C156.625 60.581 156.861 60.5053 157.054 60.3649C157.258 60.2244 157.408 60.03 157.526 59.7815C157.644 59.533 157.708 59.2628 157.708 58.9819C157.708 58.6794 157.644 58.4093 157.526 58.1824C157.408 57.9555 157.247 57.7718 157.054 57.6314C156.861 57.4909 156.625 57.4153 156.368 57.4153H153.956L154.041 57.2856V60.7214L153.956 60.6026H156.368V60.581ZM166.254 56.4321C166.394 56.4321 166.501 56.4861 166.587 56.5833C166.683 56.6806 166.726 56.7886 166.726 56.9183C166.726 56.9615 166.726 57.0155 166.705 57.0695C166.705 57.1128 166.673 57.1668 166.64 57.21L163.874 61.0888L164.024 60.5053V64.3841C164.024 64.5246 163.981 64.6326 163.885 64.7299C163.799 64.8271 163.692 64.8703 163.563 64.8703C163.424 64.8703 163.306 64.8271 163.209 64.7299C163.123 64.6326 163.081 64.5138 163.081 64.3841V60.6026L163.166 60.9159L160.486 57.264C160.443 57.1992 160.4 57.1452 160.378 57.0804C160.368 57.0155 160.357 56.9615 160.357 56.8967C160.357 56.7562 160.411 56.6482 160.529 56.5617C160.636 56.4645 160.754 56.4213 160.861 56.4213C161.022 56.4213 161.15 56.4969 161.258 56.6482L163.724 60.0516L163.499 60.0192L165.868 56.659C165.976 56.4969 166.104 56.4213 166.265 56.4213L166.254 56.4321Z" fill="white"/>
<path d="M22.0888 15.9692C22.7536 15.9692 23.3219 16.1961 23.7937 16.6499C24.2976 17.0713 24.5443 17.6223 24.5443 18.2921C24.5443 18.6379 24.4692 18.9944 24.3083 19.3726L14.4971 42.4941C14.2612 43.0235 13.9181 43.4233 13.4677 43.6934C13.0495 43.9311 12.6099 44.0499 12.1596 44.0499C11.7307 44.0283 11.3232 43.8878 10.9264 43.6501C10.5297 43.38 10.2295 43.0127 10.015 42.5265L0.203734 19.3186C0.128675 19.1565 0.0751008 18.9944 0.0429327 18.8432C0.0214873 18.6595 0 18.4866 0 18.3246C0 17.5466 0.278822 16.9632 0.836402 16.5635C1.39398 16.1421 1.91937 15.926 2.42334 15.926C3.43128 15.926 4.1604 16.4446 4.61075 17.4818L13.3069 38.0859L11.9129 38.1291L19.8906 17.4818C20.341 16.4662 21.0701 15.9584 22.0781 15.9584L22.0888 15.9692ZM33.6693 41.6189C33.6693 42.3104 33.4227 42.8938 32.9187 43.38C32.4147 43.8338 31.8357 44.0607 31.1709 44.0607C30.431 44.0607 29.8306 43.8338 29.3802 43.38C28.9299 42.9046 28.7047 42.3104 28.7047 41.6189V18.4974C28.7047 17.8059 28.9406 17.2333 29.4231 16.7795C29.8949 16.3041 30.5061 16.0557 31.246 16.0557C31.8786 16.0557 32.4362 16.2933 32.9187 16.7795C33.4227 17.2333 33.6693 17.8059 33.6693 18.4974V41.6189ZM54.9646 39.3824C55.6508 39.3824 56.2192 39.6093 56.6695 40.0631C57.1413 40.4953 57.3879 41.0463 57.3879 41.7486C57.3879 42.4509 57.152 42.9803 56.6695 43.4341C56.2192 43.8662 55.6508 44.0715 54.9646 44.0715H42.0545C41.3682 44.0715 40.7785 43.8446 40.3067 43.3908C39.8563 42.9154 39.6311 42.3212 39.6311 41.6297V18.5082C39.6311 17.8168 39.867 17.2441 40.3495 16.7903C40.8213 16.315 41.4325 16.0664 42.1724 16.0664C42.805 16.0664 43.3626 16.3041 43.8451 16.7903C44.3491 17.2441 44.5957 17.8168 44.5957 18.5082V40.0739L43.7272 39.3932H54.9646V39.3824ZM77.2678 39.3824C77.954 39.3824 78.5224 39.6093 78.9727 40.0631C79.4445 40.4953 79.6911 41.0463 79.6911 41.7486C79.6911 42.4509 79.4553 42.9803 78.9727 43.4341C78.5224 43.8662 77.954 44.0715 77.2678 44.0715H64.3577C63.6714 44.0715 63.0924 43.8446 62.6099 43.3908C62.1595 42.9154 61.9343 42.3212 61.9343 41.6297V18.5082C61.9343 17.8168 62.1702 17.2441 62.6527 16.7903C63.1245 16.315 63.7358 16.0664 64.4756 16.0664C65.1083 16.0664 65.6658 16.3041 66.1484 16.7903C66.6523 17.2441 66.899 17.8168 66.899 18.5082V40.0739L66.0304 39.3932H77.2678V39.3824ZM94.4456 22.333L85.8674 42.6561C85.6851 43.164 85.3956 43.5637 84.9882 43.8554C84.6129 44.1255 84.2054 44.2552 83.755 44.2552C83.0366 44.2552 82.5112 44.0499 82.1681 43.6501C81.825 43.2504 81.6534 42.7534 81.6534 42.1699C81.6534 41.9322 81.6963 41.673 81.7713 41.4136L91.6577 17.4818C91.8722 16.9524 92.1831 16.531 92.612 16.2393C93.0623 15.9476 93.5341 15.8288 94.0381 15.8828C94.5099 15.8828 94.9495 16.034 95.3463 16.3258C95.7644 16.5959 96.0754 16.974 96.2577 17.4818L106.026 40.9274C106.155 41.2732 106.23 41.5973 106.23 41.889C106.23 42.6129 105.994 43.1856 105.511 43.6069C105.061 44.0283 104.557 44.2444 103.999 44.2444C103.528 44.2444 103.088 44.0931 102.691 43.8014C102.316 43.5097 102.027 43.1099 101.812 42.6021L93.2768 22.5599L94.4241 22.3222L94.4456 22.333ZM87.1006 37.7725L89.288 33.1699H100.011L100.761 37.7725H87.1006ZM123.15 16.0557H136.457C137.143 16.0557 137.712 16.2825 138.162 16.7363C138.634 17.1577 138.88 17.7195 138.88 18.4218C138.88 19.1241 138.645 19.6319 138.162 20.0641C137.712 20.4639 137.143 20.6691 136.457 20.6691H125.338L125.692 19.9884V27.7892L125.37 27.4651H134.666C135.353 27.4651 135.921 27.692 136.371 28.1458C136.843 28.5672 137.09 29.129 137.09 29.8313C137.09 30.5336 136.854 31.0414 136.371 31.4736C135.921 31.8733 135.353 32.0786 134.666 32.0786H125.499L125.692 31.7545V39.8362L125.37 39.4796H136.446C137.133 39.4796 137.701 39.7173 138.151 40.2035C138.623 40.6573 138.87 41.1867 138.87 41.8026C138.87 42.4725 138.634 43.0127 138.151 43.4449C137.701 43.877 137.133 44.0823 136.446 44.0823H123.14C122.453 44.0823 121.864 43.8554 121.392 43.4017C120.941 42.9263 120.716 42.332 120.716 41.6405V18.5191C120.716 17.8276 120.941 17.2549 121.392 16.8012C121.864 16.3258 122.453 16.0773 123.14 16.0773L123.15 16.0557ZM145.947 16.0124C146.322 16.0124 146.697 16.1205 147.094 16.3365C147.523 16.5202 147.834 16.7795 148.048 17.0929L157.699 32.057L155.715 31.9814L165.601 17.0929C166.105 16.369 166.749 16.0124 167.553 16.0124C168.186 16.0124 168.754 16.2393 169.258 16.6931C169.762 17.1469 170.008 17.7303 170.008 18.4542V41.6189C170.008 42.3104 169.783 42.8938 169.333 43.38C168.883 43.8338 168.282 44.0607 167.542 44.0607C166.802 44.0607 166.191 43.8338 165.719 43.38C165.269 42.9046 165.044 42.3104 165.044 41.6189V22.776L166.588 23.1325L158.482 35.5792C158.246 35.8709 157.935 36.1303 157.57 36.3356C157.227 36.5516 156.873 36.6381 156.498 36.6165C156.155 36.6381 155.801 36.5516 155.426 36.3356C155.082 36.1195 154.793 35.8709 154.557 35.5792L146.976 23.4999L148.005 21.3822V41.6297C148.005 42.3212 147.791 42.9046 147.373 43.3908C146.955 43.8446 146.397 44.0715 145.7 44.0715C145.003 44.0715 144.499 43.8446 144.07 43.3908C143.652 42.9154 143.438 42.3212 143.438 41.6297V18.465C143.438 17.7951 143.673 17.2225 144.156 16.7471C144.66 16.2717 145.25 16.0232 145.947 16.0232V16.0124Z" fill="white"/>
<path d="M177.31 7.77972C176.978 6.83974 175.948 6.18065 174.833 6.27789C173.3 6.40755 172.367 7.7365 172.796 8.9574L176.956 20.0644C176.999 20.1832 177.192 20.1616 177.214 20.0428L178.275 10.7725C178.297 10.6213 178.275 10.4808 178.222 10.3404L177.31 7.79051V7.77972ZM179.487 17.9035C179.476 18.0331 179.669 18.0871 179.733 17.9683L185.524 9.08705C185.588 8.98981 185.62 8.88176 185.631 8.77371L186.103 3.99817C186.242 2.58279 184.859 1.34028 183.154 1.52395C181.921 1.66441 180.988 2.59359 180.881 3.68484L179.476 17.8927L179.487 17.9035Z" fill="white"/>
<path d="M191.378 13.8297C187.85 13.7108 185.405 15.245 183.797 16.2391C183.732 16.2823 183.646 16.2066 183.689 16.1418C184.665 14.3375 191.646 3.04685 192.621 1.65308C193.672 0.162065 194.766 0 195.205 0C198.948 0.19448 197.854 3.73835 197.586 4.23535C197.382 4.62431 193.801 10.4371 191.881 13.5596C191.774 13.7324 191.581 13.8297 191.378 13.8189V13.8297Z" fill="white"/>
<path d="M193.426 28.3827C193.426 28.3827 199.174 32.9962 194.724 38.6469C192.869 41.0023 189.641 42.1691 186.435 41.6181C179.122 40.3756 177.91 33.4824 177.91 33.4824C176.849 27.0754 180.881 23.0453 180.881 23.0453C187.958 15.2121 199.999 19.6203 199.999 19.6203" stroke="white" stroke-width="5.05039" stroke-linecap="round"/>
</svg>
