<svg width="24" height="25" viewBox="0 0 24 25" fill="none" xmlns="http://www.w3.org/2000/svg">
<path d="M20.9644 12.3761L20.5851 15.1116C20.4965 15.7986 20.2311 16.4484 19.8167 16.9931C19.4024 17.5379 18.8541 17.9576 18.2293 18.2084V19.7258C18.2293 19.9311 18.1505 20.1281 18.0101 20.2732C17.8697 20.4184 17.6792 20.5 17.4807 20.5C17.2821 20.5 17.0917 20.4184 16.9513 20.2732C16.8109 20.1281 16.732 19.9311 16.732 19.7258V18.4355H6.25075V19.7258C6.25075 19.9311 6.17188 20.1281 6.03148 20.2732C5.89108 20.4184 5.70065 20.5 5.50209 20.5C5.30354 20.5 5.11311 20.4184 4.97271 20.2732C4.83231 20.1281 4.75343 19.9311 4.75343 19.7258V18.1671C4.12863 17.9163 3.58041 17.4966 3.16602 16.9519C2.75163 16.4071 2.48626 15.7573 2.39765 15.0703L2.01832 12.3348C1.97724 12.0006 2.00542 11.6612 2.10099 11.3391C2.19656 11.017 2.35732 10.7196 2.5726 10.4667C2.78788 10.2138 3.05274 10.0112 3.34958 9.87235C3.64642 9.73348 3.96845 9.66154 4.29425 9.6613C4.80366 9.66663 5.29689 9.84702 5.69627 10.1741C6.09566 10.5011 6.37851 10.9562 6.50031 11.4677L6.90958 13.171C6.95216 13.3511 7.05212 13.5111 7.19335 13.6254C7.33459 13.7396 7.50889 13.8013 7.68818 13.8006H15.2547C15.434 13.8013 15.6082 13.7396 15.7495 13.6254C15.8907 13.5111 15.9907 13.3511 16.0333 13.171L16.4825 11.4677C16.5735 11.0352 16.7797 10.6377 17.0777 10.3199C17.3757 10.0022 17.7537 9.77694 18.1689 9.66958C18.5842 9.56223 19.0202 9.57706 19.4278 9.71239C19.8353 9.84773 20.1981 10.0982 20.4753 10.4355C20.6871 10.7035 20.8404 11.0157 20.9248 11.3506C21.0092 11.6855 21.0227 12.0353 20.9644 12.3761ZM7.98765 11.0858L8.26715 12.2419H14.7356L15.0151 11.0858C15.2201 10.2362 15.6941 9.48201 16.3616 8.94326C17.0291 8.40451 17.8517 8.11221 18.6985 8.11291C18.8745 8.09719 19.0515 8.09719 19.2276 8.11291C19.1642 7.13164 18.742 6.21211 18.0467 5.54108C17.3514 4.87004 16.4353 4.49782 15.4842 4.50001H7.49852C6.54274 4.50109 5.62355 4.88021 4.9294 5.55965C4.23525 6.23909 3.81872 7.16737 3.7652 8.1542C3.94122 8.13848 4.11823 8.13848 4.29425 8.1542C5.13569 8.15117 5.95422 8.43754 6.62104 8.96825C7.28785 9.49897 7.7651 10.2439 7.97767 11.0858H7.98765Z" fill="#003501"/>
</svg>
