<svg width="203" height="65" viewBox="0 0 203 65" fill="none" xmlns="http://www.w3.org/2000/svg">
<path d="M33.8341 56.4645C33.9092 56.4645 33.9842 56.4861 34.0592 56.5293C34.145 56.5725 34.2094 56.6265 34.263 56.6806L37.4155 61.4886H36.9973L40.1928 56.6806C40.3 56.5293 40.4287 56.4537 40.6002 56.4645C40.7289 56.4645 40.8361 56.5185 40.9326 56.605C41.0291 56.6914 41.072 56.8102 41.072 56.9507V64.3733C41.072 64.5138 41.0291 64.6218 40.9326 64.7191C40.8361 64.8163 40.7182 64.8595 40.5788 64.8595C40.4394 64.8595 40.3214 64.8163 40.2249 64.7191C40.1284 64.6218 40.0855 64.503 40.0855 64.3733V57.8583L40.3858 57.9231L37.5764 62.2341C37.5335 62.2881 37.4691 62.3421 37.394 62.3745C37.3297 62.4177 37.2654 62.4393 37.1903 62.4393C37.1152 62.4393 37.051 62.4177 36.9759 62.3745C36.9008 62.3313 36.8472 62.2881 36.7936 62.2341L34.0164 57.9231L34.263 57.6098V64.3733C34.263 64.5138 34.2201 64.6218 34.1343 64.7191C34.0485 64.8163 33.9306 64.8595 33.8019 64.8595C33.6732 64.8595 33.5553 64.8163 33.4695 64.7191C33.3944 64.6218 33.3516 64.503 33.3516 64.3733V56.9507C33.3516 56.821 33.3944 56.713 33.4802 56.6157C33.5767 56.5077 33.6947 56.4645 33.8341 56.4645ZM47.0017 57.7286L44.2031 64.5894C44.1709 64.6867 44.1173 64.7623 44.0315 64.8163C43.9564 64.8703 43.8707 64.9028 43.7849 64.9028C43.6348 64.9028 43.5275 64.8595 43.4525 64.7839C43.3774 64.7083 43.3453 64.611 43.3453 64.4922C43.3453 64.4382 43.3452 64.3733 43.3667 64.3085L46.4549 56.7454C46.4978 56.6373 46.5514 56.5509 46.6371 56.5077C46.7229 56.4537 46.8194 56.4321 46.9267 56.4321C47.0339 56.4321 47.1197 56.4645 47.2055 56.5185C47.2913 56.5725 47.3556 56.6481 47.3878 56.7454L50.4652 64.2329C50.4867 64.2977 50.4974 64.3625 50.4974 64.4274C50.4974 64.5678 50.4545 64.6867 50.358 64.7731C50.2615 64.8487 50.1543 64.8919 50.0363 64.8919C49.9398 64.8919 49.8541 64.8595 49.779 64.8055C49.7039 64.7515 49.6396 64.6651 49.5967 64.5678L46.7659 57.707H47.0232L47.0017 57.7286ZM44.7928 62.6338L45.2003 61.6938H48.7388L48.9211 62.6338H44.8036H44.7928ZM58.6146 64.9028C58.4752 64.9028 58.3573 64.8379 58.2608 64.7191L55.0975 60.6566L55.8266 59.9111L59.0542 64.0708C59.1293 64.1789 59.1615 64.2869 59.1615 64.3949C59.1615 64.557 59.0971 64.6759 58.9792 64.7623C58.8719 64.8487 58.754 64.8919 58.6254 64.8919L58.6146 64.9028ZM58.5824 56.4645C58.7111 56.4645 58.8184 56.5185 58.8934 56.6157C58.9792 56.7238 59.0221 56.8318 59.0221 56.9399C59.0221 57.0479 58.9792 57.156 58.8827 57.2532L53.6177 62.2665L53.532 61.1536L58.1964 56.6374C58.3144 56.5185 58.443 56.4537 58.5824 56.4537V56.4645ZM53.221 64.8812C53.0709 64.8812 52.953 64.8379 52.8672 64.7407C52.7814 64.6435 52.7385 64.5246 52.7385 64.3949V56.9831C52.7385 56.8426 52.7813 56.7238 52.8779 56.6374C52.9744 56.5401 53.0923 56.4969 53.2317 56.4969C53.3818 56.4969 53.4998 56.5401 53.5856 56.6374C53.6714 56.7238 53.7143 56.8426 53.7143 56.9831V64.3949C53.7143 64.5354 53.6714 64.6435 53.5749 64.7407C53.4891 64.8379 53.3711 64.8812 53.221 64.8812ZM62.1317 56.4753H66.3672C66.5066 56.4753 66.6139 56.5185 66.7104 56.605C66.8069 56.6914 66.8498 56.8102 66.8498 56.9399C66.8498 57.0695 66.8069 57.1884 66.7104 57.2748C66.6139 57.3505 66.4959 57.3937 66.3672 57.3937H62.5284L62.6357 57.1884V60.2244L62.5178 60.0948H65.8311C65.9705 60.0948 66.0777 60.138 66.1742 60.2244C66.2707 60.3109 66.3136 60.4189 66.3136 60.5594C66.3136 60.6998 66.2707 60.8079 66.1742 60.8943C66.0777 60.97 65.9598 61.0132 65.8311 61.0132H62.5606L62.6464 60.9051V64.0168L62.5714 63.9304H66.3672C66.5066 63.9304 66.6139 63.9736 66.7104 64.0708C66.8069 64.1681 66.8498 64.2761 66.8498 64.3949C66.8498 64.5354 66.8069 64.6434 66.7104 64.7299C66.6139 64.8163 66.4959 64.8595 66.3672 64.8595H62.1317C61.9923 64.8595 61.8851 64.8163 61.7885 64.7191C61.7028 64.6218 61.6599 64.503 61.6599 64.3733V56.9507C61.6599 56.8102 61.7028 56.7022 61.7885 56.6157C61.8851 56.5185 62.003 56.4753 62.1317 56.4753ZM76.8864 56.4753C77.326 56.4753 77.7121 56.5833 78.0659 56.7994C78.4198 57.0155 78.6878 57.3072 78.8915 57.6854C79.0953 58.0636 79.2025 58.4849 79.2025 58.9711C79.2025 59.4573 79.0953 59.8679 78.8915 60.2568C78.6878 60.6458 78.4198 60.9483 78.0659 61.1644C77.7121 61.3913 77.326 61.4994 76.8864 61.4994H74.4737L74.5595 61.3589V64.3841C74.5595 64.5246 74.5166 64.6326 74.4308 64.7299C74.3451 64.8271 74.2378 64.8703 74.0984 64.8703C73.959 64.8703 73.8411 64.8271 73.7553 64.7299C73.6802 64.6326 73.6374 64.5138 73.6374 64.3841V56.9615C73.6374 56.821 73.6803 56.713 73.766 56.6266C73.8625 56.5293 73.9805 56.4861 74.1092 56.4861H76.8971L76.8864 56.4753ZM76.8864 60.581C77.1437 60.581 77.3796 60.5053 77.5726 60.3649C77.7656 60.2244 77.9265 60.03 78.0444 59.7815C78.1624 59.533 78.2267 59.2628 78.2267 58.9819C78.2267 58.6794 78.1624 58.4093 78.0444 58.1824C77.9265 57.9555 77.7656 57.7718 77.5726 57.6314C77.3689 57.4909 77.1437 57.4153 76.8864 57.4153H74.4737L74.5595 57.2856V60.7214L74.4737 60.6026H76.8864V60.581ZM82.1835 56.4753H86.419C86.5584 56.4753 86.6656 56.5185 86.7621 56.605C86.8586 56.6914 86.9015 56.8102 86.9015 56.9399C86.9015 57.0695 86.8586 57.1884 86.7621 57.2748C86.6656 57.3505 86.5477 57.3937 86.419 57.3937H82.5802L82.6875 57.1884V60.2244L82.5695 60.0948H85.8829C86.0223 60.0948 86.1295 60.138 86.226 60.2244C86.3225 60.3109 86.3654 60.4189 86.3654 60.5594C86.3654 60.6998 86.3225 60.8079 86.226 60.8943C86.1295 60.97 86.0115 61.0132 85.8829 61.0132H82.6124L82.6981 60.9051V64.0168L82.6231 63.9304H86.419C86.5584 63.9304 86.6656 63.9736 86.7621 64.0708C86.8586 64.1681 86.9015 64.2761 86.9015 64.3949C86.9015 64.5354 86.8586 64.6434 86.7621 64.7299C86.6656 64.8163 86.5477 64.8595 86.419 64.8595H82.1835C82.0441 64.8595 81.9368 64.8163 81.8403 64.7191C81.7545 64.6218 81.7116 64.503 81.7116 64.3733V56.9507C81.7116 56.8102 81.7545 56.7022 81.8403 56.6157C81.9368 56.5185 82.0548 56.4753 82.1835 56.4753ZM96.9703 60.6782C96.9703 61.2941 96.8738 61.8667 96.6701 62.3961C96.4663 62.9147 96.1982 63.3685 95.8336 63.7683C95.4798 64.1572 95.0509 64.4598 94.5576 64.6759C94.0644 64.892 93.5282 65 92.9492 65C92.3702 65 91.8233 64.892 91.3301 64.6759C90.8476 64.4598 90.4293 64.1572 90.0647 63.7683C89.7109 63.3793 89.4321 62.9255 89.2284 62.3961C89.0247 61.8667 88.9281 61.2941 88.9281 60.6782C88.9281 60.0624 89.0247 59.4789 89.2284 58.9603C89.4321 58.4309 89.7002 57.9771 90.0647 57.5882C90.4186 57.1992 90.8476 56.8967 91.3301 56.6806C91.8233 56.4645 92.3594 56.3564 92.9492 56.3564C93.5389 56.3564 94.0644 56.4645 94.5576 56.6806C95.0509 56.8967 95.4798 57.1992 95.8336 57.5882C96.1875 57.9771 96.4663 58.4309 96.6701 58.9603C96.8631 59.4789 96.9703 60.0516 96.9703 60.6782ZM95.9409 60.6782C95.9409 60.0191 95.8122 59.4465 95.5442 58.9387C95.2868 58.4309 94.9436 58.0419 94.4933 57.7502C94.0536 57.4585 93.5282 57.3181 92.9492 57.3181C92.3702 57.3181 91.8448 57.4585 91.3944 57.7502C90.9548 58.0419 90.6009 58.4309 90.3435 58.9387C90.0862 59.4465 89.9575 60.0191 89.9575 60.6782C89.9575 61.3373 90.0862 61.9099 90.3435 62.4177C90.6009 62.9255 90.9441 63.3145 91.3944 63.6062C91.8448 63.8979 92.3702 64.0384 92.9492 64.0384C93.5282 64.0384 94.0536 63.8979 94.4933 63.6062C94.9329 63.3145 95.2868 62.9255 95.5442 62.4177C95.8015 61.9099 95.9409 61.3265 95.9409 60.6782ZM102.761 56.4753C103.2 56.4753 103.586 56.5833 103.94 56.7994C104.294 57.0155 104.562 57.3072 104.766 57.6854C104.97 58.0636 105.077 58.4849 105.077 58.9711C105.077 59.4573 104.97 59.8679 104.766 60.2568C104.573 60.6458 104.294 60.9483 103.94 61.1644C103.586 61.3913 103.2 61.4994 102.761 61.4994H100.348L100.434 61.3589V64.3841C100.434 64.5246 100.391 64.6326 100.305 64.7299C100.219 64.8271 100.101 64.8703 99.9727 64.8703C99.8333 64.8703 99.7154 64.8271 99.6296 64.7299C99.5545 64.6326 99.5116 64.5138 99.5116 64.3841V56.9615C99.5116 56.821 99.5545 56.713 99.6403 56.6266C99.7368 56.5293 99.8547 56.4861 99.9834 56.4861H102.771L102.761 56.4753ZM102.761 60.581C103.018 60.581 103.254 60.5053 103.447 60.3649C103.651 60.2244 103.801 60.03 103.919 59.7815C104.037 59.533 104.101 59.2628 104.101 58.9819C104.101 58.6794 104.037 58.4093 103.919 58.1824C103.801 57.9555 103.64 57.7718 103.447 57.6314C103.254 57.4909 103.018 57.4153 102.761 57.4153H100.348L100.434 57.2856V60.7214L100.348 60.6026H102.761V60.581ZM112.175 63.9304C112.315 63.9304 112.422 63.9736 112.518 64.0708C112.615 64.1573 112.658 64.2653 112.658 64.4058C112.658 64.5462 112.615 64.6543 112.518 64.7407C112.422 64.8271 112.304 64.8703 112.175 64.8703H108.058C107.918 64.8703 107.811 64.8271 107.715 64.7299C107.629 64.6326 107.586 64.5138 107.586 64.3841V56.9615C107.586 56.821 107.629 56.713 107.725 56.6266C107.822 56.5293 107.94 56.4861 108.079 56.4861C108.219 56.4861 108.326 56.5293 108.422 56.6266C108.519 56.713 108.562 56.8318 108.562 56.9615V64.1464L108.326 63.9304H112.175ZM115.467 56.4753H119.703C119.842 56.4753 119.949 56.5185 120.046 56.605C120.142 56.6914 120.185 56.8102 120.185 56.9399C120.185 57.0695 120.142 57.1884 120.046 57.2748C119.949 57.3505 119.831 57.3937 119.703 57.3937H115.864L115.971 57.1884V60.2244L115.853 60.0948H119.167C119.306 60.0948 119.413 60.138 119.51 60.2244C119.606 60.3109 119.649 60.4189 119.649 60.5594C119.649 60.6998 119.606 60.8079 119.51 60.8943C119.413 60.97 119.295 61.0132 119.167 61.0132H115.896L115.982 60.9051V64.0168L115.907 63.9304H119.703C119.842 63.9304 119.949 63.9736 120.046 64.0708C120.142 64.1681 120.185 64.2761 120.185 64.3949C120.185 64.5354 120.142 64.6434 120.046 64.7299C119.949 64.8163 119.831 64.8595 119.703 64.8595H115.467C115.328 64.8595 115.221 64.8163 115.124 64.7191C115.038 64.6218 114.995 64.503 114.995 64.3733V56.9507C114.995 56.8102 115.038 56.7022 115.124 56.6157C115.221 56.5185 115.339 56.4753 115.467 56.4753ZM127.466 56.4753C127.605 56.4753 127.713 56.5185 127.809 56.6157C127.906 56.7022 127.949 56.821 127.949 56.9615V64.3733C127.949 64.5138 127.895 64.6218 127.798 64.7191C127.702 64.8163 127.584 64.8595 127.455 64.8595C127.305 64.8595 127.187 64.8163 127.102 64.7191C127.016 64.6218 126.973 64.503 126.973 64.3733V56.9615C126.973 56.821 127.016 56.7022 127.112 56.6157C127.209 56.5185 127.327 56.4753 127.466 56.4753ZM132.956 56.4753C133.096 56.4753 133.214 56.5185 133.299 56.6157C133.396 56.7022 133.439 56.821 133.439 56.9615V64.3733C133.439 64.5138 133.396 64.6218 133.299 64.7191C133.203 64.8163 133.085 64.8595 132.946 64.8595C132.806 64.8595 132.699 64.8163 132.602 64.7191C132.506 64.6218 132.463 64.503 132.463 64.3733V56.9615C132.463 56.821 132.506 56.7022 132.602 56.6157C132.71 56.5185 132.828 56.4753 132.956 56.4753ZM127.412 60.138H132.967V61.078H127.38L127.412 60.138ZM139.368 57.7286L136.57 64.5894C136.538 64.6867 136.484 64.7623 136.398 64.8163C136.323 64.8703 136.237 64.9028 136.152 64.9028C136.002 64.9028 135.894 64.8595 135.819 64.7839C135.744 64.7083 135.712 64.611 135.712 64.4922C135.712 64.4382 135.712 64.3733 135.733 64.3085L138.822 56.7454C138.865 56.6373 138.918 56.5509 139.004 56.5077C139.09 56.4537 139.186 56.4321 139.293 56.4321C139.401 56.4321 139.486 56.4645 139.572 56.5185C139.658 56.5725 139.722 56.6481 139.755 56.7454L142.832 64.2329C142.853 64.2977 142.864 64.3625 142.864 64.4274C142.864 64.5678 142.821 64.6867 142.725 64.7731C142.628 64.8487 142.521 64.8919 142.403 64.8919C142.307 64.8919 142.221 64.8595 142.146 64.8055C142.071 64.7515 142.006 64.6651 141.963 64.5678L139.133 57.707H139.39L139.368 57.7286ZM137.17 62.6338L137.578 61.6938H141.116L141.299 62.6338H137.181H137.17ZM148.365 56.4753C148.805 56.4753 149.191 56.5833 149.544 56.7994C149.898 57.0155 150.166 57.3072 150.37 57.6854C150.574 58.0636 150.681 58.4849 150.681 58.9711C150.681 59.4573 150.574 59.8679 150.37 60.2568C150.177 60.6458 149.898 60.9483 149.544 61.1644C149.191 61.3913 148.805 61.4994 148.365 61.4994H145.952L146.038 61.3589V64.3841C146.038 64.5246 145.995 64.6326 145.909 64.7299C145.824 64.8271 145.706 64.8703 145.577 64.8703C145.438 64.8703 145.32 64.8271 145.234 64.7299C145.159 64.6326 145.116 64.5138 145.116 64.3841V56.9615C145.116 56.821 145.159 56.713 145.245 56.6266C145.341 56.5293 145.459 56.4861 145.588 56.4861H148.376L148.365 56.4753ZM148.365 60.581C148.622 60.581 148.858 60.5053 149.051 60.3649C149.255 60.2244 149.405 60.03 149.523 59.7815C149.641 59.533 149.705 59.2628 149.705 58.9819C149.705 58.6794 149.641 58.4093 149.523 58.1824C149.405 57.9555 149.244 57.7718 149.051 57.6314C148.858 57.4909 148.622 57.4153 148.365 57.4153H145.952L146.038 57.2856V60.7214L145.952 60.6026H148.365V60.581ZM156.45 56.4753C156.89 56.4753 157.276 56.5833 157.63 56.7994C157.983 57.0155 158.251 57.3072 158.455 57.6854C158.659 58.0636 158.766 58.4849 158.766 58.9711C158.766 59.4573 158.659 59.8679 158.455 60.2568C158.262 60.6458 157.983 60.9483 157.63 61.1644C157.276 61.3913 156.89 61.4994 156.45 61.4994H154.037L154.123 61.3589V64.3841C154.123 64.5246 154.08 64.6326 153.994 64.7299C153.909 64.8271 153.791 64.8703 153.662 64.8703C153.523 64.8703 153.405 64.8271 153.319 64.7299C153.244 64.6326 153.201 64.5138 153.201 64.3841V56.9615C153.201 56.821 153.244 56.713 153.33 56.6266C153.426 56.5293 153.544 56.4861 153.673 56.4861H156.461L156.45 56.4753ZM156.45 60.581C156.707 60.581 156.943 60.5053 157.136 60.3649C157.34 60.2244 157.49 60.03 157.608 59.7815C157.726 59.533 157.79 59.2628 157.79 58.9819C157.79 58.6794 157.726 58.4093 157.608 58.1824C157.49 57.9555 157.329 57.7718 157.136 57.6314C156.943 57.4909 156.707 57.4153 156.45 57.4153H154.037L154.123 57.2856V60.7214L154.037 60.6026H156.45V60.581ZM166.336 56.4321C166.476 56.4321 166.583 56.4861 166.669 56.5833C166.765 56.6806 166.808 56.7886 166.808 56.9183C166.808 56.9615 166.808 57.0155 166.787 57.0695C166.787 57.1128 166.755 57.1668 166.723 57.21L163.956 61.0888L164.106 60.5053V64.3841C164.106 64.5246 164.063 64.6326 163.967 64.7299C163.881 64.8271 163.774 64.8703 163.645 64.8703C163.506 64.8703 163.388 64.8271 163.291 64.7299C163.205 64.6326 163.163 64.5138 163.163 64.3841V60.6026L163.248 60.9159L160.568 57.264C160.525 57.1992 160.482 57.1452 160.46 57.0804C160.45 57.0155 160.439 56.9615 160.439 56.8967C160.439 56.7562 160.493 56.6482 160.61 56.5617C160.718 56.4645 160.836 56.4213 160.943 56.4213C161.104 56.4213 161.232 56.4969 161.34 56.6482L163.806 60.0516L163.581 60.0192L165.95 56.659C166.058 56.4969 166.186 56.4213 166.347 56.4213L166.336 56.4321Z" fill="#553418"/>
<path d="M22.1673 15.9692C22.8321 15.9692 23.4004 16.1961 23.8722 16.6499C24.3761 17.0713 24.6228 17.6223 24.6228 18.2921C24.6228 18.6379 24.5477 18.9944 24.3868 19.3726L14.5755 42.4941C14.3396 43.0235 13.9964 43.4233 13.546 43.6934C13.1278 43.9311 12.6882 44.0499 12.2379 44.0499C11.809 44.0283 11.4015 43.8878 11.0047 43.6502C10.608 43.38 10.3078 43.0127 10.0933 42.5265L0.281862 19.3186C0.206802 19.1565 0.153227 18.9944 0.121058 18.8432C0.0996126 18.6595 0.078125 18.4866 0.078125 18.3246C0.078125 17.5466 0.356951 16.9632 0.91454 16.5635C1.47213 16.1421 1.99753 15.926 2.5015 15.926C3.50945 15.926 4.23858 16.4446 4.68894 17.4818L13.3852 38.0859L11.9912 38.1291L19.969 17.4818C20.4194 16.4662 21.1486 15.9584 22.1565 15.9584L22.1673 15.9692ZM33.7479 41.6189C33.7479 42.3104 33.5013 42.8938 32.9973 43.38C32.4934 43.8338 31.9143 44.0607 31.2495 44.0607C30.5096 44.0607 29.9092 43.8338 29.4588 43.38C29.0084 42.9046 28.7833 42.3104 28.7833 41.6189V18.4974C28.7833 17.806 29.0191 17.2333 29.5017 16.7795C29.9735 16.3041 30.5847 16.0557 31.3246 16.0557C31.9572 16.0557 32.5148 16.2933 32.9973 16.7795C33.5013 17.2333 33.7479 17.806 33.7479 18.4974V41.6189ZM55.0435 39.3824C55.7298 39.3824 56.2981 39.6093 56.7485 40.0631C57.2203 40.4953 57.4669 41.0463 57.4669 41.7486C57.4669 42.4509 57.231 42.9803 56.7485 43.4341C56.2981 43.8663 55.7298 44.0715 55.0435 44.0715H42.1332C41.447 44.0715 40.8572 43.8446 40.3854 43.3909C39.935 42.9155 39.7099 42.3212 39.7099 41.6297V18.5082C39.7099 17.8168 39.9457 17.2441 40.4283 16.7903C40.9001 16.315 41.5113 16.0664 42.2512 16.0664C42.8838 16.0664 43.4414 16.3041 43.9239 16.7903C44.4279 17.2441 44.6745 17.8168 44.6745 18.5082V40.0739L43.806 39.3932H55.0435V39.3824ZM77.3471 39.3824C78.0333 39.3824 78.6017 39.6093 79.052 40.0631C79.5238 40.4953 79.7705 41.0463 79.7705 41.7486C79.7705 42.4509 79.5346 42.9803 79.052 43.4341C78.6017 43.8663 78.0333 44.0715 77.3471 44.0715H64.4368C63.7505 44.0715 63.1715 43.8446 62.6889 43.3909C62.2386 42.9155 62.0134 42.3212 62.0134 41.6297V18.5082C62.0134 17.8168 62.2493 17.2441 62.7318 16.7903C63.2036 16.315 63.8148 16.0664 64.5547 16.0664C65.1874 16.0664 65.7449 16.3041 66.2275 16.7903C66.7314 17.2441 66.9781 17.8168 66.9781 18.5082V40.0739L66.1095 39.3932H77.3471V39.3824ZM94.5251 22.333L85.9468 42.6562C85.7645 43.164 85.475 43.5637 85.0676 43.8554C84.6923 44.1255 84.2848 44.2552 83.8344 44.2552C83.116 44.2552 82.5906 44.0499 82.2474 43.6502C81.9043 43.2504 81.7328 42.7534 81.7328 42.1699C81.7328 41.9323 81.7756 41.673 81.8507 41.4137L91.7372 17.4818C91.9517 16.9524 92.2626 16.531 92.6915 16.2393C93.1419 15.9476 93.6137 15.8288 94.1177 15.8828C94.5895 15.8828 95.0291 16.034 95.4258 16.3258C95.844 16.5959 96.155 16.974 96.3373 17.4818L106.106 40.9274C106.234 41.2732 106.31 41.5973 106.31 41.889C106.31 42.6129 106.074 43.1856 105.591 43.607C105.141 44.0283 104.637 44.2444 104.079 44.2444C103.607 44.2444 103.168 44.0931 102.771 43.8014C102.396 43.5097 102.106 43.1099 101.892 42.6021L93.3563 22.5599L94.5037 22.3222L94.5251 22.333ZM87.18 37.7725L89.3674 33.1699H100.09L100.841 37.7725H87.18ZM123.23 16.0557H136.537C137.224 16.0557 137.792 16.2825 138.242 16.7363C138.714 17.1577 138.961 17.7195 138.961 18.4218C138.961 19.1241 138.725 19.6319 138.242 20.0641C137.792 20.4639 137.224 20.6691 136.537 20.6691H125.418L125.772 19.9885V27.7893L125.45 27.4651H134.747C135.433 27.4651 136.001 27.692 136.451 28.1458C136.923 28.5672 137.17 29.129 137.17 29.8313C137.17 30.5336 136.934 31.0414 136.451 31.4736C136.001 31.8733 135.433 32.0786 134.747 32.0786H125.579L125.772 31.7545V39.8362L125.45 39.4797H136.527C137.213 39.4797 137.781 39.7173 138.232 40.2035C138.703 40.6573 138.95 41.1867 138.95 41.8026C138.95 42.4725 138.714 43.0127 138.232 43.4449C137.781 43.877 137.213 44.0824 136.527 44.0824H123.22C122.533 44.0824 121.943 43.8555 121.472 43.4017C121.021 42.9263 120.796 42.332 120.796 41.6405V18.5191C120.796 17.8276 121.021 17.2549 121.472 16.8012C121.943 16.3258 122.533 16.0773 123.22 16.0773L123.23 16.0557ZM146.027 16.0124C146.402 16.0124 146.778 16.1205 147.174 16.3365C147.603 16.5202 147.914 16.7795 148.129 17.0929L157.779 32.057L155.796 31.9814L165.682 17.0929C166.186 16.369 166.829 16.0124 167.634 16.0124C168.266 16.0124 168.835 16.2393 169.339 16.6931C169.843 17.1469 170.089 17.7303 170.089 18.4542V41.6189C170.089 42.3104 169.864 42.8938 169.414 43.38C168.963 43.8338 168.363 44.0607 167.623 44.0607C166.883 44.0607 166.272 43.8338 165.8 43.38C165.35 42.9046 165.124 42.3104 165.124 41.6189V22.776L166.669 23.1325L158.562 35.5792C158.326 35.871 158.015 36.1303 157.651 36.3356C157.307 36.5517 156.954 36.6381 156.578 36.6165C156.235 36.6381 155.881 36.5517 155.506 36.3356C155.163 36.1195 154.873 35.871 154.637 35.5792L147.056 23.4999L148.086 21.3822V41.6297C148.086 42.3212 147.871 42.9047 147.453 43.3909C147.035 43.8446 146.477 44.0715 145.78 44.0715C145.083 44.0715 144.579 43.8446 144.151 43.3909C143.732 42.9155 143.518 42.3212 143.518 41.6297V18.465C143.518 17.7951 143.754 17.2225 144.236 16.7471C144.74 16.2717 145.33 16.0232 146.027 16.0232V16.0124Z" fill="#26B352"/>
<path d="M177.392 7.77973C177.06 6.83974 176.03 6.18065 174.915 6.27789C173.382 6.40755 172.449 7.7365 172.878 8.95741L177.038 20.0644C177.081 20.1832 177.274 20.1616 177.296 20.0428L178.357 10.7725C178.379 10.6213 178.357 10.4808 178.304 10.3404L177.392 7.79051V7.77973ZM179.569 17.9035C179.558 18.0331 179.751 18.0871 179.816 17.9683L185.606 9.08705C185.67 8.98981 185.702 8.88176 185.713 8.77372L186.185 3.99817C186.324 2.58279 184.941 1.34027 183.236 1.52395C182.003 1.66441 181.07 2.59359 180.963 3.68484L179.558 17.8927L179.569 17.9035Z" fill="#26B352"/>
<path d="M191.462 13.8297C187.934 13.7108 185.489 15.2451 183.881 16.2391C183.816 16.2823 183.73 16.2067 183.773 16.1418C184.749 14.3375 191.73 3.04685 192.705 1.65308C193.756 0.162065 194.85 0 195.29 0C199.032 0.19448 197.938 3.73835 197.67 4.23535C197.466 4.62431 193.885 10.4371 191.966 13.5596C191.858 13.7325 191.665 13.8297 191.462 13.8189V13.8297Z" fill="#26B352"/>
<path d="M193.507 28.3827C193.507 28.3827 199.254 32.9962 194.804 38.6469C192.949 41.0023 189.721 42.1692 186.515 41.6181C179.202 40.3756 177.991 33.4824 177.991 33.4824C176.929 27.0754 180.961 23.0453 180.961 23.0453C188.038 15.2121 200.08 19.6203 200.08 19.6203" stroke="#26B352" stroke-width="5.0736" stroke-linecap="round"/>
</svg>
