<svg width="16" height="17" viewBox="0 0 16 17" fill="none" xmlns="http://www.w3.org/2000/svg">
<path d="M13.4806 10.5C13.7654 10.4932 14.047 10.4368 14.3125 10.3333V11C14.3108 11.6337 14.1198 12.2524 13.7639 12.7764C13.408 13.3004 12.9037 13.7057 12.3159 13.94V15C12.3159 15.1326 12.2633 15.2598 12.1697 15.3536C12.0761 15.4473 11.9491 15.5 11.8167 15.5C11.6844 15.5 11.5574 15.4473 11.4638 15.3536C11.3702 15.2598 11.3176 15.1326 11.3176 15V14.1467C11.2622 14.1503 11.2066 14.1503 11.1512 14.1467H5.82686C5.77146 14.1503 5.71588 14.1503 5.66048 14.1467V15C5.66048 15.1326 5.60789 15.2598 5.51428 15.3536C5.42067 15.4473 5.29371 15.5 5.16132 15.5C5.02894 15.5 4.90197 15.4473 4.80836 15.3536C4.71475 15.2598 4.66217 15.1326 4.66217 15V13.94C4.07433 13.7057 3.57001 13.3004 3.21415 12.7764C2.8583 12.2524 2.66723 11.6337 2.66554 11V10.3333C2.93231 10.43 3.21378 10.4796 3.49747 10.48L13.4806 10.5ZM13.647 6.5V4.33333C13.647 3.8471 13.4541 3.38079 13.1109 3.03697C12.7677 2.69315 12.3021 2.5 11.8167 2.5C11.3313 2.5 10.8658 2.69315 10.5226 3.03697C10.1793 3.38079 9.9865 3.8471 9.9865 4.33333C9.9865 4.46594 10.0391 4.59312 10.1327 4.68689C10.2263 4.78066 10.3533 4.83333 10.4857 4.83333C10.618 4.83333 10.745 4.78066 10.8386 4.68689C10.9322 4.59312 10.9848 4.46594 10.9848 4.33333C10.9848 4.11232 11.0725 3.90036 11.2285 3.74408C11.3845 3.5878 11.5961 3.5 11.8167 3.5C12.0374 3.5 12.249 3.5878 12.405 3.74408C12.561 3.90036 12.6487 4.11232 12.6487 4.33333V6.5H3.49747C3.10031 6.5 2.71943 6.65804 2.4386 6.93934C2.15777 7.22064 2 7.60218 2 8C2 8.39782 2.15777 8.77936 2.4386 9.06066C2.71943 9.34196 3.10031 9.5 3.49747 9.5H13.4806C13.8664 9.50742 14.2401 9.36466 14.5231 9.10176C14.806 8.83886 14.9761 8.4763 14.9977 8.09033C15.0192 7.70436 14.8905 7.32506 14.6386 7.0322C14.3867 6.73933 14.0312 6.55573 13.647 6.52V6.5Z" fill="#003501"/>
</svg>
