<svg width="16" height="17" viewBox="0 0 16 17" fill="none" xmlns="http://www.w3.org/2000/svg">
<path d="M3.34 6.92C2.73196 7.03606 2.15916 7.29165 1.66667 7.66667V3.66667C1.66842 3.35779 1.7919 3.06206 2.01031 2.84364C2.22872 2.62523 2.52445 2.50175 2.83333 2.5H12.1667C12.4755 2.50175 12.7713 2.62523 12.9897 2.84364C13.2081 3.06206 13.3316 3.35779 13.3333 3.66667V7.66667C12.8415 7.28927 12.2686 7.03138 11.66 6.91333C11.6382 6.62032 11.5066 6.34634 11.2915 6.14612C11.0765 5.9459 10.7938 5.8342 10.5 5.83333H9.16667C8.88751 5.83526 8.61829 5.93722 8.4079 6.1207C8.1975 6.30419 8.05987 6.55703 8.02 6.83333H6.98C6.94013 6.55703 6.8025 6.30419 6.5921 6.1207C6.38171 5.93722 6.11249 5.83526 5.83333 5.83333H4.5C4.20511 5.83432 3.92153 5.94695 3.70632 6.14856C3.4911 6.35017 3.36022 6.6258 3.34 6.92ZM1 13C0.999802 13.2199 1.06245 13.4352 1.18057 13.6206C1.29868 13.8061 1.46734 13.9539 1.66667 14.0467V15C1.66667 15.1326 1.71935 15.2598 1.81311 15.3536C1.90688 15.4473 2.03406 15.5 2.16667 15.5C2.29928 15.5 2.42645 15.4473 2.52022 15.3536C2.61399 15.2598 2.66667 15.1326 2.66667 15V14.1667H12.3333V15C12.3333 15.1326 12.386 15.2598 12.4798 15.3536C12.5735 15.4473 12.7007 15.5 12.8333 15.5C12.9659 15.5 13.0931 15.4473 13.1869 15.3536C13.2807 15.2598 13.3333 15.1326 13.3333 15V14.0467C13.5327 13.9539 13.7013 13.8061 13.8194 13.6206C13.9375 13.4352 14.0002 13.2199 14 13V12.1667H1V13ZM10.8333 7.83333H4.16667C3.32681 7.83333 2.52136 8.16696 1.9275 8.76083C1.33363 9.35469 1 10.1601 1 11V11.1667H14V11C14 10.1601 13.6664 9.35469 13.0725 8.76083C12.4786 8.16696 11.6732 7.83333 10.8333 7.83333Z" fill="#003501"/>
</svg>
