<svg width="10" height="10" viewBox="0 0 10 10" fill="none" xmlns="http://www.w3.org/2000/svg">
<path d="M8.70278 1.72156L9.3854 2.40418C9.4313 2.45007 9.43423 2.53015 9.38833 2.57605L3.6852 8.27918C3.63931 8.32507 3.5602 8.32214 3.51431 8.27527L0.617822 5.38074C0.571923 5.33484 0.568994 5.25769 0.615869 5.21082L1.29849 4.5282C1.34438 4.4823 1.42056 4.48523 1.46645 4.53211L3.59438 6.66004L8.53384 1.72058C8.57974 1.67566 8.65688 1.67566 8.70278 1.72156Z" fill="white"/>
<path d="M8.63443 1.79096C8.85122 2.00776 9.069 2.22553 9.28579 2.44233C9.30728 2.46381 9.33462 2.48237 9.31802 2.50678C9.31411 2.51264 9.30825 2.51655 9.30337 2.52143C9.27212 2.55268 9.23989 2.58491 9.20864 2.61616C9.06997 2.75483 8.9313 2.8935 8.7936 3.0312C8.57681 3.24799 8.36001 3.46479 8.14224 3.68256C7.87271 3.95209 7.60415 4.22065 7.33462 4.49018C7.0397 4.7851 6.74478 5.08002 6.44986 5.37495C6.15493 5.66987 5.86099 5.96381 5.56607 6.25874C5.29849 6.52631 5.03091 6.79389 4.76333 7.06147C4.54849 7.27631 4.33462 7.49018 4.11978 7.70502C3.98501 7.83979 3.85025 7.97456 3.71646 8.10834C3.68716 8.13764 3.65786 8.16791 3.62759 8.19721C3.62466 8.20014 3.61978 8.206 3.61587 8.20893C3.59634 8.21967 3.58364 8.206 3.56997 8.19233C3.42837 8.05073 3.28677 7.90913 3.14419 7.76655C2.87661 7.49897 2.60904 7.23139 2.34146 6.96381C2.05044 6.6728 1.75943 6.38178 1.46743 6.08979C1.25454 5.8769 1.04263 5.66498 0.829738 5.45209C0.784816 5.40717 0.737941 5.3642 0.694973 5.31733C0.682277 5.30366 0.673488 5.29389 0.68716 5.27534C0.714504 5.23627 0.759426 5.20307 0.792629 5.16987C0.930324 5.03217 1.06802 4.89448 1.20571 4.75678L1.34927 4.61323C1.36685 4.59565 1.37661 4.58393 1.39907 4.60346C1.45083 4.64741 1.49771 4.70209 1.54556 4.74995C1.65103 4.85541 1.7565 4.96088 1.86196 5.06635C2.14907 5.35346 2.43618 5.64057 2.72329 5.92768C2.95474 6.15913 3.18618 6.39057 3.41665 6.62104C3.45279 6.65717 3.48794 6.69233 3.52407 6.72846C3.56118 6.76557 3.62466 6.76557 3.66177 6.72846L3.79556 6.59467C3.91665 6.47358 4.03775 6.35248 4.15982 6.23041C4.3395 6.05073 4.51821 5.87202 4.6979 5.69233L5.35318 5.03706L6.06997 4.32026C6.31021 4.08002 6.55044 3.83979 6.79165 3.59858C7.01529 3.37495 7.23794 3.15229 7.46157 2.92866C7.64907 2.74116 7.83657 2.55366 8.0231 2.36713C8.15591 2.23432 8.28775 2.10248 8.42056 1.96967C8.47818 1.91206 8.53384 1.84272 8.59732 1.79291C8.61001 1.78608 8.62075 1.77924 8.63443 1.79096C8.72818 1.87397 8.86685 1.73627 8.77212 1.65327C8.67251 1.56538 8.54068 1.57612 8.44985 1.66694C8.42446 1.69233 8.3981 1.7187 8.37271 1.74409C8.26138 1.85541 8.15103 1.96577 8.0397 2.07709C7.86685 2.24995 7.694 2.4228 7.52114 2.59565C7.30435 2.81245 7.08755 3.02924 6.87075 3.24604C6.6315 3.4853 6.39224 3.72456 6.15298 3.96381C5.90982 4.20698 5.66568 4.45112 5.42251 4.69428C5.19302 4.92377 4.96353 5.15327 4.73404 5.38276C4.54068 5.57612 4.34634 5.77045 4.15298 5.96381C4.01333 6.10346 3.87368 6.24311 3.73306 6.38373C3.66665 6.45014 3.59536 6.51362 3.53286 6.58393C3.52993 6.58686 3.527 6.58979 3.52407 6.59272H3.66177C3.52114 6.45209 3.37954 6.31049 3.23892 6.16987C2.94888 5.87983 2.65884 5.58979 2.3688 5.29975C2.12954 5.06049 1.89029 4.82123 1.65103 4.58198C1.61196 4.54291 1.57388 4.5019 1.53384 4.46479C1.43618 4.37495 1.30435 4.38471 1.21255 4.47553C1.16568 4.52241 1.1188 4.56928 1.07193 4.61616C0.930324 4.75776 0.788723 4.89936 0.647121 5.04096C0.612941 5.07514 0.577785 5.10737 0.545558 5.14252C0.461574 5.23334 0.46548 5.3642 0.548488 5.45307C0.668605 5.58198 0.798488 5.70307 0.922512 5.82709C1.18716 6.09174 1.45181 6.35639 1.71646 6.62104L2.61196 7.51655L3.28189 8.18647C3.33169 8.23627 3.38052 8.28608 3.43032 8.33491C3.5231 8.4267 3.65982 8.4394 3.75747 8.34565C3.83853 8.26752 3.91665 8.18647 3.99575 8.10737C4.17251 7.93061 4.34927 7.75385 4.52603 7.57709L5.26821 6.83491L6.13345 5.96967L7.04458 5.05854C7.33462 4.7685 7.62564 4.47748 7.91568 4.18745C8.16372 3.9394 8.41177 3.69135 8.65982 3.44331L9.19986 2.90327C9.28286 2.82026 9.36685 2.73823 9.44888 2.65424C9.47818 2.62397 9.50064 2.58979 9.51138 2.54877C9.53677 2.45112 9.48892 2.37104 9.42349 2.30659C9.29556 2.17866 9.1686 2.0517 9.04068 1.92377C8.95083 1.83393 8.86099 1.74409 8.77114 1.65424C8.68325 1.56342 8.54458 1.70209 8.63443 1.79096Z" fill="white"/>
</svg>
