<svg width="24" height="24" viewBox="0 0 24 24" fill="none" xmlns="http://www.w3.org/2000/svg">
<path d="M17.8505 6.87169L12.7222 11.9999L17.8505 17.1282C18.0498 17.3277 18.0498 17.6509 17.8505 17.8503C17.7508 17.95 17.62 17.9998 17.4893 17.9998C17.3586 17.9998 17.228 17.9499 17.1282 17.8503L12.0001 12.7221L6.87181 17.8503C6.77212 17.95 6.6414 17.9998 6.51068 17.9998C6.37996 17.9998 6.24937 17.9499 6.14955 17.8503C5.95015 17.6508 5.95015 17.3276 6.14955 17.1282L11.2779 11.9999L6.14967 6.87169C5.95028 6.67216 5.95028 6.34894 6.14967 6.14955C6.3492 5.95015 6.67242 5.95015 6.87181 6.14955L12.0001 11.2778L17.1283 6.14955C17.3278 5.95015 17.6511 5.95015 17.8505 6.14955C18.0498 6.34894 18.0498 6.67229 17.8505 6.87169Z" fill="#003501"/>
</svg>
