<svg width="16" height="16" viewBox="0 0 16 16" fill="none" xmlns="http://www.w3.org/2000/svg">
<g clip-path="url(#clip0_1_10001)">
<path d="M8 0C6.41775 0 4.87104 0.469192 3.55544 1.34824C2.23985 2.22729 1.21447 3.47672 0.608967 4.93853C0.00346627 6.40034 -0.15496 8.00887 0.153721 9.56072C0.462403 11.1126 1.22433 12.538 2.34315 13.6569C3.46197 14.7757 4.88743 15.5376 6.43928 15.8463C7.99113 16.155 9.59966 15.9965 11.0615 15.391C12.5233 14.7855 13.7727 13.7602 14.6518 12.4446C15.5308 11.129 16 9.58225 16 8C15.9971 5.87915 15.1534 3.84598 13.6537 2.34632C12.154 0.846646 10.1209 0.0028699 8 0ZM8.67797 11.2542C8.67797 11.434 8.60654 11.6065 8.4794 11.7336C8.35225 11.8608 8.17981 11.9322 8 11.9322C7.8202 11.9322 7.64775 11.8608 7.52061 11.7336C7.39347 11.6065 7.32204 11.434 7.32204 11.2542V7.45763C7.32204 7.27782 7.39347 7.10538 7.52061 6.97823C7.64775 6.85109 7.8202 6.77966 8 6.77966C8.17981 6.77966 8.35225 6.85109 8.4794 6.97823C8.60654 7.10538 8.67797 7.27782 8.67797 7.45763V11.2542ZM8.67797 5.06305C8.67797 5.24286 8.60654 5.4153 8.4794 5.54245C8.35225 5.66959 8.17981 5.74102 8 5.74102C7.8202 5.74102 7.64775 5.66959 7.52061 5.54245C7.39347 5.4153 7.32204 5.24286 7.32204 5.06305V4.74576C7.32204 4.56596 7.39347 4.39351 7.52061 4.26637C7.64775 4.13923 7.8202 4.0678 8 4.0678C8.17981 4.0678 8.35225 4.13923 8.4794 4.26637C8.60654 4.39351 8.67797 4.56596 8.67797 4.74576V5.06305Z" fill="#003501"/>
</g>
<defs>
<clipPath id="clip0_1_10001">
<rect width="16" height="16" fill="white"/>
</clipPath>
</defs>
</svg>
