<svg width="38" height="44" viewBox="0 0 38 44" fill="none" xmlns="http://www.w3.org/2000/svg">
<path d="M33.3657 18.4086C33.3657 27.3752 23.4187 36.7135 20.0785 39.5976C19.7674 39.8316 19.3886 39.9581 18.9993 39.9581C18.6099 39.9581 18.2312 39.8316 17.92 39.5976C14.5798 36.7135 4.63281 27.3752 4.63281 18.4086C4.63281 14.5984 6.14642 10.9441 8.84065 8.24988C11.5349 5.55562 15.189 4.04199 18.9993 4.04199C22.8095 4.04199 26.4637 5.55562 29.1579 8.24988C31.8521 10.9441 33.3657 14.5984 33.3657 18.4086Z" fill="#26B352"/>
<path d="M18.999 2.04199C23.3397 2.04199 27.503 3.7666 30.5723 6.83594C33.6413 9.90516 35.3661 14.0678 35.3662 18.4082C35.3662 23.5657 32.543 28.5841 29.5664 32.4951C26.5435 36.4669 23.1062 39.6258 21.3857 41.1113C21.3517 41.1407 21.3162 41.1692 21.2803 41.1963C20.6226 41.6907 19.8218 41.958 18.999 41.958C18.1762 41.958 17.3754 41.6908 16.7178 41.1963C16.6819 41.1693 16.6473 41.1407 16.6133 41.1113C14.8928 39.6258 11.4556 36.467 8.43262 32.4951C5.45597 28.5841 2.63281 23.5658 2.63281 18.4082C2.63292 14.0677 4.35755 9.90518 7.42676 6.83594C10.496 3.76667 14.6585 2.04206 18.999 2.04199Z" stroke="#003501" stroke-opacity="0.6" stroke-width="4" stroke-linecap="round" stroke-linejoin="round"/>
<circle cx="19" cy="18.5889" r="7.5" fill="#FDFFF2"/>
</svg>
