<svg width="20" height="20" viewBox="0 0 20 20" fill="none" xmlns="http://www.w3.org/2000/svg">
<path d="M5.58641 17.9168C5.20816 17.9168 4.87719 17.8324 4.5935 17.6637C4.30981 17.4949 4.16797 17.2724 4.16797 16.9963V3.00404C4.16797 2.72788 4.30981 2.50541 4.5935 2.33665C4.87719 2.16788 5.20816 2.0835 5.58641 2.0835C5.68097 2.0835 6.01194 2.17555 6.57932 2.35966L16.863 9.03359C17.0994 9.18702 17.2649 9.34044 17.3595 9.49386C17.454 9.64729 17.5013 9.81605 17.5013 10.0002C17.5013 10.1843 17.454 10.353 17.3595 10.5065C17.2649 10.6599 17.0994 10.8133 16.863 10.9667L6.57932 17.6407C6.43747 17.7327 6.28381 17.8018 6.11832 17.8478C5.95284 17.8938 5.77553 17.9168 5.58641 17.9168Z" fill="white"/>
</svg>
