<svg width="24" height="24" viewBox="0 0 24 24" fill="none" xmlns="http://www.w3.org/2000/svg">
<path d="M6.42065 3.55682C5.74547 4.8012 5.36758 6.2497 5.3292 7.74055C5.29082 9.2314 5.59345 10.7059 6.20329 11.9994C4.55897 13.571 3.40791 15.783 2.94292 18.2651C2.80415 18.9957 2.80415 19.7553 2.94292 20.486H2.14594C1.85099 20.4862 1.55992 20.4041 1.29504 20.2461C1.03016 20.088 0.798503 19.8582 0.617824 19.5743C0.437146 19.2903 0.312242 18.9597 0.252686 18.6079C0.193131 18.256 0.200504 17.8922 0.274242 17.5444C0.496335 16.4266 0.917609 15.3821 1.50819 14.4848C2.09877 13.5875 2.84419 12.8595 3.6916 12.3524C3.26879 11.8844 2.93028 11.3147 2.69749 10.6792C2.4647 10.0438 2.34268 9.35641 2.33915 8.66058C2.34486 7.33185 2.77336 6.05758 3.53455 5.10575C4.29573 4.15391 5.33029 3.59868 6.42065 3.55682ZM23.7248 17.5738C23.5066 16.454 23.0868 15.4073 22.4958 14.5093C21.9048 13.6114 21.1573 12.8847 20.3074 12.3818C20.7332 11.9105 21.0735 11.336 21.3064 10.6952C21.5393 10.0544 21.6597 9.36138 21.6599 8.66058C21.6541 7.32938 21.2239 6.05299 20.4601 5.10076C19.6964 4.14853 18.6588 3.59495 17.5663 3.55682C18.2433 4.79982 18.6234 6.2476 18.6639 7.73846C18.7044 9.22932 18.4038 10.7045 17.7957 11.9994C19.4401 13.571 20.5911 15.783 21.0561 18.2651C21.2011 18.9949 21.2011 19.7562 21.0561 20.486H21.8531C22.1488 20.4891 22.4412 20.409 22.7073 20.2519C22.9734 20.0947 23.2062 19.8648 23.3873 19.5801C23.5685 19.2953 23.6932 18.9635 23.7518 18.6103C23.8103 18.2572 23.8011 17.8924 23.7248 17.5444V17.5738ZM19.2448 18.7357C18.8704 16.7614 17.9651 14.9961 16.6727 13.7202C16.0551 14.4807 15.3198 15.0844 14.5093 15.4964C13.6989 15.9084 12.8294 16.1205 11.9512 16.1205C11.073 16.1205 10.2035 15.9084 9.39309 15.4964C8.58265 15.0844 7.84733 14.4807 7.22971 13.7202C5.97319 15.014 5.10291 16.7772 4.75424 18.7357C4.67827 19.1195 4.67578 19.5194 4.74698 19.9045C4.81817 20.2896 4.96113 20.6496 5.16481 20.9567C5.35977 21.2601 5.60907 21.5053 5.89369 21.6736C6.1783 21.8418 6.49071 21.9286 6.80707 21.9274H17.2886C17.6049 21.9286 17.9173 21.8418 18.202 21.6736C18.4866 21.5053 18.7359 21.2601 18.9308 20.9567C19.118 20.6397 19.2436 20.2751 19.298 19.8903C19.3524 19.5055 19.3342 19.1107 19.2448 18.7357ZM11.9995 2.07129C11.0442 2.07129 10.1103 2.41634 9.31601 3.0628C8.52169 3.70927 7.90259 4.62811 7.53701 5.70315C7.17142 6.77818 7.07577 7.96111 7.26214 9.10236C7.44852 10.2436 7.90855 11.2919 8.58406 12.1147C9.25957 12.9375 10.1202 13.4978 11.0572 13.7248C11.9942 13.9519 12.9654 13.8353 13.848 13.39C14.7306 12.9448 15.4849 12.1907 16.0157 11.2232C16.5464 10.2557 16.8297 9.1182 16.8297 7.95459C16.8297 6.39424 16.3208 4.8978 15.415 3.79447C14.5091 2.69113 13.2806 2.07129 11.9995 2.07129Z" fill="white"/>
</svg>
