<svg width="16" height="17" viewBox="0 0 16 17" fill="none" xmlns="http://www.w3.org/2000/svg">
<path d="M4.21278 2.47259C3.75458 3.2873 3.49814 4.23565 3.47209 5.21172C3.44604 6.18779 3.65142 7.15315 4.06528 8C2.94938 9.02894 2.16824 10.4772 1.85268 12.1022C1.75851 12.5806 1.75851 13.0779 1.85268 13.5563H1.31183C1.11166 13.5564 0.914136 13.5027 0.73438 13.3992C0.554625 13.2957 0.397415 13.1453 0.274801 12.9594C0.152187 12.7734 0.0674229 12.557 0.0270066 12.3266C-0.0134097 12.0963 -0.00840577 11.8581 0.041635 11.6304C0.192354 10.8986 0.478244 10.2147 0.879031 9.62723C1.27982 9.03978 1.78569 8.56314 2.36076 8.23111C2.07383 7.92473 1.84411 7.55174 1.68613 7.1357C1.52815 6.71967 1.44534 6.26964 1.44294 5.81407C1.44682 4.94414 1.73762 4.10986 2.25418 3.48669C2.77075 2.86351 3.47283 2.5 4.21278 2.47259ZM15.9559 11.6496C15.8079 10.9165 15.523 10.2312 15.1219 9.64331C14.7208 9.05542 14.2136 8.57964 13.6368 8.25037C13.9258 7.94181 14.1567 7.5657 14.3147 7.14615C14.4728 6.72661 14.5545 6.27289 14.5546 5.81407C14.5507 4.94252 14.2587 4.10686 13.7404 3.48342C13.2221 2.85999 12.518 2.49755 11.7766 2.47259C12.236 3.28639 12.4939 4.23427 12.5214 5.21035C12.5489 6.18643 12.3449 7.15227 11.9323 8C13.0482 9.02894 13.8293 10.4772 14.1449 12.1022C14.2433 12.58 14.2433 13.0785 14.1449 13.5563H14.6857C14.8864 13.5583 15.0848 13.5059 15.2654 13.403C15.446 13.3001 15.604 13.1496 15.7269 12.9632C15.8499 12.7767 15.9345 12.5595 15.9742 12.3283C16.0139 12.0971 16.0077 11.8582 15.9559 11.6304V11.6496ZM12.9157 12.4104C12.6616 11.1178 12.0472 9.96202 11.1702 9.12666C10.751 9.62453 10.252 10.0198 9.70203 10.2895C9.15203 10.5593 8.56198 10.6982 7.966 10.6982C7.37002 10.6982 6.77997 10.5593 6.22997 10.2895C5.67998 10.0198 5.18098 9.62453 4.76184 9.12666C3.90912 9.97369 3.31852 11.1281 3.0819 12.4104C3.03035 12.6616 3.02866 12.9234 3.07697 13.1756C3.12529 13.4277 3.22231 13.6634 3.36053 13.8644C3.49284 14.0631 3.66202 14.2237 3.85517 14.3338C4.04832 14.4439 4.26033 14.5008 4.47502 14.5H11.5881C11.8028 14.5008 12.0148 14.4439 12.2079 14.3338C12.4011 14.2237 12.5703 14.0631 12.7026 13.8644C12.8296 13.6569 12.9148 13.4182 12.9517 13.1663C12.9887 12.9143 12.9763 12.6558 12.9157 12.4104ZM7.99878 1.5C7.35047 1.5 6.71672 1.72591 6.17767 2.14915C5.63862 2.5724 5.21848 3.17398 4.97038 3.87781C4.72228 4.58164 4.65737 5.35612 4.78385 6.10331C4.91032 6.85049 5.22252 7.53683 5.68094 8.07552C6.13937 8.61421 6.72344 8.98106 7.35929 9.12969C7.99514 9.27831 8.65422 9.20203 9.25318 8.91049C9.85215 8.61896 10.3641 8.12526 10.7243 7.49182C11.0844 6.85839 11.2767 6.11367 11.2767 5.35185C11.2767 4.33028 10.9313 3.35054 10.3166 2.62818C9.70189 1.90582 8.86814 1.5 7.99878 1.5Z" fill="#003501"/>
</svg>
