<svg width="16" height="17" viewBox="0 0 16 17" fill="none" xmlns="http://www.w3.org/2000/svg">
<path d="M13 8.66667C13.001 8.91438 12.9385 9.15849 12.8179 9.37719C12.6974 9.59589 12.5226 9.78238 12.3091 9.92C12.2409 10.8893 11.7946 11.7976 11.06 12.4619C10.3253 13.1262 9.35709 13.4972 8.3503 13.5H7.65941C6.65262 13.4972 5.68436 13.1262 4.94975 12.4619C4.21513 11.7976 3.76877 10.8893 3.70061 9.92C3.42238 9.74352 3.21022 9.48549 3.09538 9.18392C2.98055 8.88234 2.96909 8.55316 3.06271 8.24483C3.15632 7.9365 3.35006 7.66532 3.6154 7.47123C3.88073 7.27713 4.20364 7.17037 4.53658 7.16667H11.4455C11.8578 7.16667 12.2532 7.3247 12.5447 7.60601C12.8362 7.88731 13 8.26884 13 8.66667ZM7.64559 14.5C7.11693 14.5003 6.5918 14.417 6.09109 14.2533V14.3333C6.0929 14.6422 6.22087 14.9379 6.44722 15.1564C6.67357 15.3748 6.98004 15.4983 7.30014 15.5H8.68192C9.00203 15.4983 9.3085 15.3748 9.53485 15.1564C9.7612 14.9379 9.88917 14.6422 9.89098 14.3333V14.2533C9.39027 14.417 8.86514 14.5003 8.33648 14.5H7.64559ZM11.4455 6.16667C11.6196 6.16723 11.7933 6.1851 11.9637 6.22V4.33333C11.9637 3.8471 11.7635 3.38079 11.4072 3.03697C11.0509 2.69315 10.5676 2.5 10.0637 2.5H5.91836C5.41447 2.5 4.93121 2.69315 4.5749 3.03697C4.21859 3.38079 4.01842 3.8471 4.01842 4.33333V6.22C4.18878 6.1851 4.36242 6.16723 4.53658 6.16667H11.4455Z" fill="#003501"/>
</svg>
