<svg width="24" height="24" viewBox="0 0 24 24" fill="none" xmlns="http://www.w3.org/2000/svg">
<path d="M19.2495 11.5C19.251 11.8716 19.1604 12.2377 18.9859 12.5658C18.8114 12.8938 18.5584 13.1736 18.2495 13.38C18.1508 14.8339 17.5047 16.1964 16.4414 17.1928C15.3782 18.1893 13.9767 18.7458 12.5195 18.75H11.5195C10.0622 18.7458 8.66076 18.1893 7.59747 17.1928C6.53418 16.1964 5.88812 14.8339 5.78945 13.38C5.38674 13.1153 5.07967 12.7282 4.91345 12.2759C4.74723 11.8235 4.73065 11.3297 4.86615 10.8672C5.00165 10.4047 5.28207 9.99798 5.66612 9.70684C6.05017 9.41569 6.51755 9.25556 6.99945 9.25H16.9995C17.5962 9.25 18.1685 9.48705 18.5904 9.90901C19.0124 10.331 19.2495 10.9033 19.2495 11.5ZM11.4995 20.25C10.7343 20.2505 9.97419 20.1255 9.24946 19.88V20C9.25208 20.4633 9.4373 20.9069 9.76492 21.2345C10.0925 21.5622 10.5361 21.7474 10.9995 21.75H12.9995C13.4628 21.7474 13.9064 21.5622 14.234 21.2345C14.5616 20.9069 14.7468 20.4633 14.7495 20V19.88C14.0247 20.1255 13.2646 20.2505 12.4995 20.25H11.4995ZM16.9995 7.75C17.2515 7.75084 17.5029 7.77765 17.7495 7.83V5C17.7495 4.27065 17.4597 3.57118 16.944 3.05546C16.4283 2.53973 15.7288 2.25 14.9995 2.25H8.99946C8.27011 2.25 7.57064 2.53973 7.05491 3.05546C6.53919 3.57118 6.24945 4.27065 6.24945 5V7.83C6.49604 7.77765 6.74737 7.75084 6.99945 7.75H16.9995Z" fill="white"/>
</svg>
