<svg width="24" height="25" viewBox="0 0 24 25" fill="none" xmlns="http://www.w3.org/2000/svg">
<path d="M20.1425 18.9103C20.4656 18.4108 20.7523 17.8862 21 17.341V20.7051C20.9974 21.1803 20.817 21.6353 20.4977 21.9713C20.1785 22.3073 19.7462 22.4973 19.2948 22.5H5.65277C5.2013 22.4973 4.76905 22.3073 4.4498 21.9713C4.13056 21.6353 3.95008 21.1803 3.94752 20.7051V19.9359H18.3203C18.6811 19.9376 19.0365 19.8447 19.3547 19.6656C19.6728 19.4866 19.9435 19.227 20.1425 18.9103ZM19.2948 3.52564H17.1023V3.26923C17.1023 3.06522 17.0253 2.86956 16.8882 2.7253C16.7512 2.58104 16.5653 2.5 16.3715 2.5C16.1776 2.5 15.9918 2.58104 15.8547 2.7253C15.7176 2.86956 15.6406 3.06522 15.6406 3.26923V3.52564H9.30687V3.26923C9.30687 3.06522 9.22987 2.86956 9.09282 2.7253C8.95576 2.58104 8.76988 2.5 8.57605 2.5C8.38223 2.5 8.19634 2.58104 8.05928 2.7253C7.92223 2.86956 7.84523 3.06522 7.84523 3.26923V3.52564H5.65277C5.2013 3.52833 4.76905 3.7183 4.4498 4.05432C4.13056 4.39034 3.95008 4.84531 3.94752 5.32051V8.65385H21V5.32051C20.9974 4.84531 20.817 4.39034 20.4977 4.05432C20.1785 3.7183 19.7462 3.52833 19.2948 3.52564ZM3.94752 10.8487C3.9481 13.1078 3.31414 15.3166 2.12534 17.1974C2.05111 17.313 2.00814 17.4477 2.00105 17.587C1.99395 17.7264 2.023 17.8651 2.08506 17.9884C2.14713 18.1117 2.23989 18.2149 2.35341 18.2869C2.46693 18.359 2.59693 18.3972 2.72949 18.3974H18.3203C18.4396 18.3972 18.5571 18.3662 18.6624 18.3072C18.7677 18.2482 18.8577 18.163 18.9245 18.059C20.2726 15.933 20.9946 13.4355 21 10.8795V10.1923H3.94752V10.8487Z" fill="#003501"/>
</svg>
