<svg width="25" height="25" viewBox="0 0 25 25" fill="none" xmlns="http://www.w3.org/2000/svg">
<path d="M2.5 7.3718C2.5 6.81395 2.66542 6.26863 2.97534 5.8048C3.28526 5.34097 3.72577 4.97946 4.24115 4.76598C4.75653 4.5525 5.32364 4.49665 5.87077 4.60548C6.41789 4.71431 6.92046 4.98294 7.31492 5.37739C7.70937 5.77185 7.978 6.27442 8.08683 6.82154C8.19566 7.36867 8.1398 7.93578 7.92633 8.45116C7.71285 8.96654 7.35134 9.40704 6.88751 9.71697C6.42368 10.0269 5.87836 10.1923 5.32051 10.1923C4.57247 10.1923 3.85506 9.89515 3.32611 9.3662C2.79716 8.83725 2.5 8.11984 2.5 7.3718ZM21.8333 13.4026C21.6267 13.2305 21.3831 13.1086 21.1216 13.0464C20.86 12.9841 20.5876 12.9831 20.3256 13.0436L19.9359 13.1256V20.0795L20.3256 20.1615C20.4517 20.1761 20.5791 20.1761 20.7051 20.1615C21.1166 20.1655 21.5163 20.0238 21.8333 19.7615C22.0414 19.5934 22.2092 19.3809 22.3245 19.1396C22.4399 18.8982 22.4998 18.6342 22.5 18.3667V14.7974C22.4998 14.53 22.4399 14.2659 22.3245 14.0245C22.2092 13.7832 22.0414 13.5707 21.8333 13.4026ZM13.5256 10.1923C14.2863 10.1923 15.03 9.96674 15.6624 9.54412C16.2949 9.1215 16.7879 8.52081 17.079 7.81801C17.3701 7.11522 17.4463 6.34189 17.2979 5.59581C17.1495 4.84973 16.7832 4.16441 16.2453 3.62651C15.7074 3.08862 15.0221 2.72231 14.276 2.5739C13.5299 2.4255 12.7566 2.50167 12.0538 2.79277C11.351 3.08388 10.7503 3.57685 10.3277 4.20935C9.90506 4.84184 9.67949 5.58546 9.67949 6.34616C9.67949 7.36622 10.0847 8.3445 10.806 9.0658C11.5273 9.78709 12.5056 10.1923 13.5256 10.1923ZM18.3974 12.5V20.7051C18.3947 21.1803 18.2048 21.6353 17.8688 21.9713C17.5327 22.3073 17.0778 22.4973 16.6026 22.5H4.29487C3.81967 22.4973 3.3647 22.3073 3.02868 21.9713C2.69266 21.6353 2.50269 21.1803 2.5 20.7051V12.5C2.50269 12.0248 2.69266 11.5698 3.02868 11.2338C3.3647 10.8978 3.81967 10.7078 4.29487 10.7051H16.6026C17.0778 10.7078 17.5327 10.8978 17.8688 11.2338C18.2048 11.5698 18.3947 12.0248 18.3974 12.5ZM15.3205 15.5769C15.3179 15.3737 15.236 15.1796 15.0923 15.0359C14.9486 14.8922 14.7545 14.8103 14.5513 14.8077H13.5256C13.3216 14.8077 13.126 14.8887 12.9817 15.033C12.8375 15.1773 12.7564 15.3729 12.7564 15.5769C12.7564 15.7809 12.8375 15.9766 12.9817 16.1209C13.126 16.2651 13.3216 16.3462 13.5256 16.3462H14.5513C14.7545 16.3435 14.9486 16.2616 15.0923 16.1179C15.236 15.9742 15.3179 15.7801 15.3205 15.5769Z" fill="#003501"/>
</svg>
