<svg width="21" height="15" viewBox="0 0 21 15" fill="none" xmlns="http://www.w3.org/2000/svg">
<g clip-path="url(#clip0_1_662)">
<path d="M0.5 0H20.5V15H0.5V0Z" fill="#D0103A"/>
<path d="M0.5 0H14.1V15H0.5V0Z" fill="#FEDF00"/>
<path d="M0.5 0H6.9V15H0.5V0Z" fill="#0018A8"/>
<path d="M9.88827 4.26855C10.1289 4.26855 10.2289 4.4748 10.4695 4.4748C10.6164 4.4748 10.7039 4.42793 10.8351 4.35293C10.9258 4.30293 10.982 4.2748 11.0851 4.2748C11.1914 4.2748 11.257 4.30605 11.3133 4.3998C11.3445 4.4498 11.3695 4.55293 11.3539 4.60918C11.3353 4.69846 11.307 4.78543 11.2695 4.86855C11.2476 4.91855 11.2289 4.94668 11.2289 4.9998C11.2289 5.12793 11.4039 5.17168 11.5226 5.1748C11.5476 5.1748 11.7633 5.1748 11.8976 5.04355C11.8258 5.04043 11.7445 4.98105 11.7445 4.90918C11.7445 4.82793 11.8008 4.7748 11.8789 4.7498C11.8945 4.74668 11.9195 4.75918 11.932 4.7498C11.9539 4.74043 11.9445 4.71855 11.9633 4.70605C12.0008 4.6748 12.0258 4.65605 12.0758 4.65605C12.107 4.65605 12.1258 4.65918 12.1539 4.67793C12.1664 4.69043 12.1726 4.70293 12.1851 4.70293C12.2226 4.70293 12.2414 4.67793 12.2789 4.67793C12.304 4.67831 12.3287 4.68474 12.3508 4.69668C12.3695 4.70605 12.3695 4.74355 12.3945 4.74355C12.407 4.74355 12.4695 4.71543 12.5039 4.71543C12.5726 4.71543 12.6101 4.74043 12.6539 4.79355C12.6664 4.80918 12.6726 4.8373 12.6851 4.8373C12.7158 4.8399 12.7454 4.84976 12.7715 4.86606C12.7976 4.88236 12.8194 4.90464 12.8351 4.93105C12.8445 4.94355 12.857 4.9748 12.8695 4.97793C12.8883 4.9873 12.9008 4.98418 12.9226 4.9998C12.9482 5.0159 12.9696 5.03795 12.9848 5.06406C13 5.09018 13.0087 5.1196 13.0101 5.1498C13.0101 5.17168 13.0008 5.1998 12.9945 5.21855C12.9383 5.42168 12.7976 5.4873 12.657 5.66543C12.5945 5.74043 12.5476 5.7998 12.5476 5.89668C12.5476 5.91855 12.5789 5.9623 12.5883 5.98105C12.582 5.9373 12.6039 5.88105 12.6508 5.87793C12.6819 5.87777 12.7119 5.88921 12.735 5.91002C12.7581 5.93082 12.7727 5.95949 12.7758 5.99043C12.7765 6.00962 12.7733 6.02877 12.7664 6.04668C12.8043 6.02297 12.847 6.00802 12.8914 6.00293H12.9508C13.0539 6.00293 13.1695 6.0623 13.2414 6.12168C13.3166 6.18627 13.3762 6.26707 13.4157 6.358C13.4552 6.44892 13.4736 6.54762 13.4695 6.64668C13.4445 6.80918 13.4601 7.10918 13.0383 7.22793C13.1164 7.25918 13.1695 7.32168 13.1695 7.39043C13.1704 7.40916 13.1674 7.42786 13.1609 7.44544C13.1545 7.46303 13.1445 7.47913 13.1317 7.49282C13.1189 7.5065 13.1035 7.51749 13.0864 7.52513C13.0692 7.53277 13.0508 7.53691 13.032 7.5373C13.0117 7.53857 12.9913 7.5353 12.9724 7.52774C12.9535 7.52017 12.9365 7.50849 12.9226 7.49355C12.8351 7.58105 12.8195 7.67168 12.8195 7.79668C12.8195 7.87168 12.832 7.91543 12.8633 7.98418C12.8945 8.05293 12.9195 8.09355 12.9789 8.14355C13.0101 8.09668 13.0445 8.0623 13.1039 8.0623C13.157 8.0623 13.2039 8.08105 13.2258 8.13105C13.232 8.14668 13.2258 8.15918 13.2351 8.1748C13.2445 8.19355 13.2601 8.19668 13.2695 8.21543C13.2851 8.24668 13.2695 8.27168 13.2851 8.2998C13.2945 8.32168 13.3133 8.3248 13.3226 8.34355C13.3351 8.3748 13.3383 8.39355 13.3383 8.42793C13.3383 8.52168 13.2539 8.59043 13.1601 8.59043C13.1289 8.59043 13.1164 8.57793 13.0883 8.58105C13.1414 8.63418 13.182 8.65918 13.2226 8.72168C13.2864 8.81669 13.3192 8.92915 13.3164 9.04355C13.3189 9.16593 13.2887 9.28676 13.2289 9.39355C13.1823 9.50082 13.1065 9.59285 13.0101 9.65918C12.8628 9.76648 12.6909 9.83523 12.5101 9.85918C12.3968 9.88229 12.2819 9.89692 12.1664 9.90293L11.7258 9.92793C11.5008 9.94043 11.3445 9.9748 11.1851 10.1342C11.2601 10.1873 11.3101 10.2436 11.3101 10.3342C11.3101 10.4279 11.2539 10.4998 11.1633 10.5279C11.1414 10.5342 11.1258 10.5279 11.1039 10.5404C11.082 10.5529 11.082 10.5811 11.0601 10.5936C11.025 10.6166 10.9833 10.6275 10.9414 10.6248C10.9044 10.6275 10.8672 10.6218 10.8326 10.6083C10.798 10.5948 10.7668 10.5737 10.7414 10.5467C10.6726 10.6029 10.6476 10.6529 10.5695 10.6998C10.5445 10.7123 10.532 10.7311 10.5039 10.7311C10.457 10.7311 10.4351 10.6998 10.3976 10.6748C10.3466 10.6393 10.3004 10.5972 10.2601 10.5498C10.1883 10.5904 10.1476 10.6248 10.0633 10.6248C10.0194 10.6272 9.97586 10.6163 9.93827 10.5936C9.91952 10.5779 9.91327 10.5561 9.8914 10.5436C9.86952 10.5279 9.85077 10.5342 9.82577 10.5217C9.73202 10.4811 9.66952 10.4123 9.66952 10.3092C9.66952 10.2186 9.72577 10.1623 9.80702 10.1217C9.65077 9.96543 9.49452 9.94043 9.27577 9.92793L8.83827 9.90293C8.70077 9.89355 8.62577 9.88105 8.49452 9.85918C8.3914 9.84355 8.33202 9.8373 8.23827 9.79355C7.91952 9.64355 7.71327 9.44043 7.67577 9.09043C7.66952 9.05918 7.66952 9.04355 7.66952 9.0123C7.66952 8.83105 7.7414 8.71855 7.86952 8.59043C7.83827 8.58105 7.8164 8.59043 7.78202 8.58105C7.7039 8.5498 7.64452 8.49668 7.64452 8.40918C7.64452 8.37793 7.64452 8.35605 7.66015 8.32793C7.67265 8.30918 7.6914 8.30605 7.69765 8.28418C7.7039 8.25293 7.69765 8.23418 7.71015 8.20605C7.71952 8.19043 7.73515 8.1873 7.7414 8.16855C7.77265 8.10918 7.8039 8.0623 7.86952 8.0623C7.92577 8.0623 7.96327 8.09355 7.98827 8.14043C8.04452 8.11543 8.05702 8.0748 8.08827 8.0248C8.12613 7.96319 8.14971 7.89387 8.15728 7.82195C8.16485 7.75003 8.15622 7.67733 8.13202 7.60918C8.11952 7.5623 8.11327 7.53105 8.07577 7.49355C8.04452 7.5248 8.01327 7.5373 7.96952 7.5373C7.8789 7.5373 7.81327 7.45918 7.81327 7.37168C7.81232 7.34101 7.82079 7.31078 7.83756 7.28507C7.85432 7.25937 7.87857 7.23942 7.90702 7.22793C7.85702 7.18418 7.81327 7.18105 7.76015 7.14668C7.6789 7.09668 7.65077 7.04043 7.59765 6.95918C7.56015 6.90918 7.55077 6.87168 7.53515 6.8123C7.50785 6.73412 7.4972 6.65109 7.5039 6.56855C7.52265 6.4123 7.55077 6.31855 7.64765 6.19668C7.7039 6.1248 7.7414 6.08105 7.8289 6.04355C7.90077 6.0123 7.94452 5.99043 8.02265 5.99043L8.08515 5.99355C8.11576 5.99557 8.14559 6.00409 8.17265 6.01855C8.18515 6.0248 8.20702 6.04668 8.20702 6.03105C8.20702 6.01543 8.19765 6.00605 8.19765 5.99043C8.19765 5.92793 8.24452 5.86543 8.31015 5.86543C8.35702 5.86543 8.37577 5.90918 8.40077 5.9498C8.41327 5.9248 8.42265 5.90605 8.42265 5.87793C8.42265 5.77168 8.36327 5.71543 8.29765 5.63105C8.15077 5.4498 7.96952 5.36543 7.96952 5.13105C7.96952 5.0623 8.00077 5.01543 8.06327 4.97793C8.0789 4.96855 8.1039 4.97793 8.11952 4.96855C8.13515 4.95918 8.13202 4.9373 8.1414 4.9248C8.15702 4.90293 8.17265 4.89355 8.1914 4.8748C8.22265 4.84355 8.2539 4.85605 8.28827 4.82793C8.30702 4.81543 8.31327 4.79668 8.32577 4.78418C8.3664 4.73418 8.4039 4.70918 8.46952 4.70918C8.50077 4.70918 8.51952 4.70918 8.54765 4.72168L8.5789 4.7373C8.58827 4.73105 8.6039 4.7123 8.62577 4.70293C8.64638 4.69014 8.67027 4.68363 8.69452 4.68418C8.7289 4.68418 8.75077 4.70293 8.78827 4.70293C8.79765 4.70293 8.80077 4.69043 8.81327 4.68418C8.84452 4.6623 8.86015 4.65293 8.89765 4.65293C8.93515 4.65293 8.9539 4.6623 8.98515 4.68418C9.0164 4.6998 9.0164 4.7248 9.04765 4.74043C9.06327 4.7498 9.0789 4.74668 9.09452 4.75293C9.17577 4.78105 9.23515 4.83418 9.23515 4.91855C9.23515 4.96543 9.22577 4.99668 9.1914 5.02793C9.16327 5.0498 9.13827 5.04668 9.1039 5.05918C9.20331 5.13941 9.32966 5.17855 9.45702 5.16855C9.58827 5.16855 9.74765 5.11543 9.74765 4.98418C9.74765 4.92168 9.7164 4.89043 9.6914 4.83418C9.64892 4.75204 9.62644 4.66103 9.62577 4.56855C9.62577 4.48105 9.63515 4.42793 9.68515 4.35918C9.73515 4.2873 9.79765 4.26855 9.88827 4.26855Z" fill="#C7B37F"/>
<path d="M9.01172 4.96865C9.01709 4.98636 9.02674 5.00246 9.03983 5.01555C9.05291 5.02863 9.06901 5.03828 9.08672 5.04365C9.11172 5.05303 9.17109 5.0499 9.20547 4.9999C9.23672 4.9624 9.23672 4.9124 9.22422 4.8749C9.21385 4.84715 9.19533 4.82319 9.17109 4.80615L9.01172 4.96865Z" stroke="#703D29" stroke-width="0.021875" stroke-linejoin="round"/>
<path d="M13.031 7.37822C12.9935 7.2876 12.8966 7.32822 12.8935 7.37822C12.8778 7.49385 12.9778 7.52822 13.0497 7.50947C13.0663 7.505 13.0819 7.49714 13.0953 7.48638C13.1087 7.47563 13.1198 7.46221 13.1278 7.44697C13.1466 7.41572 13.1528 7.37197 13.1403 7.33135C13.1351 7.31329 13.1267 7.29634 13.1153 7.28135C13.1041 7.26653 13.0904 7.25383 13.0747 7.24385C13.0466 7.2251 13.0153 7.2251 12.9685 7.2251C12.7966 7.2251 12.6435 7.42822 12.5935 7.64385C12.5747 7.7126 12.5528 7.87197 12.5841 8.01885C12.61 8.15193 12.6741 8.27461 12.7685 8.37197C12.8566 8.45493 12.9624 8.51689 13.0778 8.55322C13.1185 8.56497 13.1616 8.56605 13.2028 8.55635C13.3028 8.53447 13.3497 8.4376 13.2966 8.3376C13.256 8.25947 13.131 8.2126 13.0716 8.31885C13.0685 8.32822 13.0591 8.34697 13.0591 8.36572C13.0591 8.39385 13.0716 8.42822 13.0903 8.44072C13.1372 8.46885 13.2091 8.45947 13.206 8.37822" stroke="#703D29" stroke-width="0.021875" stroke-linecap="round"/>
<path d="M12.493 8.56244C12.5464 8.50135 12.6192 8.46051 12.6992 8.44682C12.793 8.43432 12.8742 8.46244 12.9555 8.50932C13.057 8.5558 13.143 8.63071 13.2028 8.72499C13.2627 8.81927 13.294 8.92888 13.293 9.04057C13.293 9.15307 13.2617 9.27494 13.2305 9.33432C13.2055 9.38744 13.1367 9.61557 12.7523 9.77182C12.5305 9.86557 12.1898 9.88432 11.9492 9.89682C11.6242 9.90619 11.3242 9.91869 11.1523 10.1343" stroke="#703D29" stroke-width="0.025"/>
<path d="M12.5736 8.92798C12.5643 8.89673 12.5736 8.86235 12.5986 8.82485C12.6361 8.77485 12.7143 8.75923 12.7861 8.7936C12.8171 8.81029 12.8438 8.8338 12.8643 8.86235L12.8986 8.91235C12.9205 8.94673 12.9299 8.97485 12.9299 8.99048C13.008 9.20923 12.8861 9.4436 12.7268 9.54048C12.6018 9.61548 12.4549 9.64673 12.2768 9.66548C12.1986 9.67798 12.1518 9.67485 12.0736 9.6811H11.7736C11.6987 9.67725 11.6236 9.67725 11.5486 9.6811C11.458 9.69048 11.3924 9.6936 11.3111 9.7061C11.2611 9.71235 11.2049 9.72173 11.1424 9.73735C11.1236 9.73735 11.1049 9.7436 11.0861 9.74985L11.0486 9.75923C10.9361 9.7936 10.8299 9.83423 10.7424 9.89048C10.7174 9.9061 10.6861 9.92173 10.6643 9.9436L10.6236 9.9811C10.5611 10.0436 10.5018 10.1061 10.4861 10.1905V10.2405C10.4861 10.2967 10.5299 10.3749 10.6549 10.3967M10.8268 5.08423C10.8518 5.12798 10.8674 5.1561 10.8518 5.2061C10.833 5.25923 10.7955 5.2936 10.7393 5.2936C10.6143 5.2936 10.5424 5.1436 10.5986 5.04985C10.6986 4.88423 10.8893 4.97798 11.0674 5.05923C11.058 5.0186 11.0424 5.00298 11.0455 4.94985C11.0486 4.8186 11.1455 4.76235 11.1861 4.63735C11.208 4.56548 11.2174 4.50298 11.1643 4.44985C11.1174 4.40923 11.0643 4.40923 11.0049 4.4311C10.8861 4.47798 10.7393 4.61548 10.4861 4.6186C10.2299 4.61548 10.0861 4.47798 9.96426 4.4311C9.90176 4.40923 9.85176 4.40923 9.80489 4.45298C9.75176 4.50298 9.76114 4.56548 9.78301 4.64048C9.82364 4.75923 9.92051 4.8186 9.92364 4.95298C9.92364 5.00298 9.91114 5.01548 9.90176 5.05923C10.0799 4.97798 10.2768 4.87485 10.3705 5.04985C10.4236 5.14985 10.3549 5.29048 10.2299 5.29048C10.1736 5.29048 10.1361 5.25923 10.1174 5.2061C10.1049 5.15923 10.1174 5.1186 10.1424 5.0811" stroke="#703D29" stroke-width="0.021875"/>
<path d="M10.3289 4.99658C10.3546 5.01316 10.3752 5.03653 10.3885 5.06411C10.4017 5.09169 10.4071 5.1224 10.4039 5.15283C10.3977 5.23096 10.3789 5.24971 10.3164 5.29346M10.3914 5.17471C10.3883 5.22158 10.3695 5.25283 10.3195 5.27158" stroke="#703D29" stroke-width="0.021875" stroke-linecap="round"/>
<path d="M9.14609 4.79053L9.16797 4.80615L9.19297 4.83115L9.20859 4.8624L9.21484 4.8874V4.94678L9.20859 4.97178L9.19297 4.99053L9.17422 5.00928L9.14609 5.0249L9.11484 5.03115L9.08359 5.0374L9.05234 5.02178L9.02422 5.00303L9.00859 4.97803L8.99609 4.94678V4.93428L9.14609 4.79053Z" fill="#C7B37F"/>
<path d="M9.09866 4.91271C9.08929 4.85959 9.02991 4.85021 9.00491 4.88146C8.97054 4.92834 8.99554 5.00646 9.06741 5.02834C9.08978 5.03287 9.11297 5.03119 9.13445 5.02347C9.15594 5.01576 9.1749 5.00231 9.18929 4.98459C9.22054 4.94396 9.21741 4.89709 9.20491 4.85959C9.1949 4.83164 9.17631 4.80757 9.15179 4.79084C9.06741 4.72834 8.92991 4.74084 8.88303 4.85334C8.82678 4.99084 8.95178 5.09709 9.07053 5.17521C9.21428 5.27521 9.38303 5.29396 9.50803 5.29396C9.79553 5.29084 10.0143 5.15334 10.1549 5.07521C10.1862 5.05646 10.2205 5.05959 10.2393 5.08146C10.2486 5.09412 10.2529 5.10984 10.2511 5.12549C10.2494 5.14113 10.2418 5.15554 10.2299 5.16584" stroke="#703D29" stroke-width="0.021875" stroke-linecap="round"/>
<path d="M8.24844 8.7876L8.18594 8.80947L8.12344 8.85947L8.09219 8.9001L8.05781 8.9626L8.04219 9.00947L8.02969 9.06572L8.02344 9.10947M8.61719 8.79385L8.61406 8.8501L8.60469 8.8876L8.57344 8.95635L8.53281 9.0126L8.48594 9.0501L8.45156 9.06572L8.40156 9.07822" stroke="#703D29" stroke-width="0.021875"/>
<path d="M10.4891 10.2842C10.4797 10.3373 10.4297 10.3967 10.3234 10.4154L10.3047 10.4217" stroke="#703D29" stroke-width="0.025"/>
<path d="M13.1313 8.63135C13.1878 8.68587 13.2326 8.75147 13.2627 8.82406C13.2928 8.89664 13.3076 8.97465 13.3062 9.05322C13.3062 9.16572 13.275 9.2876 13.2437 9.34697C13.2187 9.4001 13.15 9.62822 12.7656 9.78447C12.5069 9.86678 12.2371 9.90893 11.9656 9.90947C11.6437 9.91885 11.3469 9.93135 11.1719 10.1376" stroke="#703D29" stroke-width="0.028125"/>
<path d="M12.6094 8.84083C12.6344 8.80958 12.7187 8.76583 12.7906 8.80646C12.8194 8.82099 12.8441 8.84247 12.8625 8.86896" stroke="#703D29" stroke-width="0.01875"/>
<path d="M13.0488 8.55615L13.0926 8.57178C13.1334 8.58394 13.1768 8.58394 13.2176 8.57178C13.3051 8.54678 13.3613 8.46553 13.3176 8.35615C13.3042 8.3302 13.2849 8.30772 13.2613 8.29053" stroke="#703D29" stroke-width="0.028125"/>
<path d="M8.00859 6.24375C7.94609 6.27813 7.90547 6.2875 7.85859 6.34062C7.82241 6.40764 7.7951 6.47907 7.77734 6.55312M9.21484 4.9375C9.21484 4.99375 9.17734 5.025 9.12109 5.0375" stroke="#703D29" stroke-width="0.021875" stroke-linecap="round"/>
<path d="M12.9082 6C12.9873 6.00159 13.0652 6.01897 13.1375 6.0511C13.2097 6.08323 13.2748 6.12947 13.329 6.1871C13.3831 6.24474 13.4252 6.31261 13.4528 6.38674C13.4803 6.46086 13.4928 6.53974 13.4895 6.61875C13.4895 7.11875 13.1801 7.19687 13.0582 7.23125" stroke="#703D29" stroke-width="0.01875"/>
<path d="M12.9492 5.99985C13.2023 5.99047 13.4648 6.17797 13.4773 6.64672C13.4867 7.01235 13.2273 7.17797 13.1023 7.20922" stroke="#703D29" stroke-width="0.021875"/>
<path d="M12.8051 7.7626L12.8082 7.7126L12.827 7.63447L12.8488 7.57197L12.877 7.52197L12.9082 7.48135M13.152 7.3751V7.42197L13.1363 7.45322L13.1145 7.4876L13.0895 7.50635L13.052 7.52197H13.0176L12.9926 7.51885M12.5457 5.86885L12.5551 5.81572L12.5801 5.76572L12.6113 5.71885L12.6613 5.6501L12.7051 5.60635L12.7676 5.5376L12.8301 5.47822L12.8645 5.4376L12.9113 5.37822L12.9551 5.31572L12.9801 5.2626L12.9957 5.19385L12.9988 5.10947L12.9926 5.08447M12.6082 9.09072L12.6582 9.07822L12.6957 9.05947L12.7176 9.0376L12.7332 9.0126L12.7426 8.9751V8.94697M7.79883 8.56885H7.8832L7.9332 8.5501M8.08945 7.40947L8.0832 7.45322L8.0707 7.47197L8.0582 7.49072L8.03633 7.50635L8.01445 7.51572L7.9832 7.51885H7.96445M8.27383 7.03447L8.26445 7.1001L8.24883 7.13135L8.22383 7.16885L8.18633 7.19697L8.14883 7.21572L8.07695 7.23135M8.55508 5.99072L8.53945 6.03135L8.52383 6.0626L8.49883 6.09385L8.46758 6.1251L8.43008 6.14072L8.3957 6.1501L8.37695 6.14697M8.38633 5.95322V5.98447" stroke="#703D29" stroke-width="0.01875"/>
<path d="M8.44648 7C8.42749 7.01849 8.40524 7.03333 8.38086 7.04375M13.084 8.44375L13.0996 8.45C13.1434 8.475 13.2309 8.44375 13.2059 8.375" stroke="#703D29" stroke-width="0.01875" stroke-linecap="round"/>
<path d="M12.9309 7.4877C12.9621 7.52832 13.0215 7.54082 13.0684 7.52832C13.085 7.52384 13.1005 7.51598 13.1139 7.50523C13.1274 7.49447 13.1385 7.48106 13.1465 7.46582C13.1652 7.43457 13.1715 7.39082 13.159 7.3502C13.1528 7.33191 13.1433 7.31494 13.1309 7.3002C13.1197 7.28267 13.106 7.26687 13.0902 7.25332L13.0777 7.24707M13.2777 8.30957C13.2794 8.30239 13.2805 8.29507 13.2809 8.2877C13.2811 8.27009 13.2776 8.25264 13.2706 8.23648C13.2636 8.22032 13.2532 8.20583 13.2402 8.19395L13.2152 8.16895M13.2277 8.18457C13.2277 8.12832 13.1809 8.08457 13.1215 8.0752M12.9902 8.1627L12.9496 8.13145C12.864 8.04107 12.816 7.92154 12.8152 7.79707C12.8152 7.66582 12.8652 7.53457 12.9277 7.48457M11.1621 10.1252L11.2184 10.0752L11.2559 10.0439L11.3277 10.0002L11.3965 9.96895L11.4465 9.95332L11.5402 9.93457L11.6527 9.91582M10.7309 10.5221C10.672 10.6074 10.5894 10.6737 10.4934 10.7127C10.3979 10.6726 10.3156 10.6066 10.2559 10.5221" stroke="#703D29" stroke-width="0.01875"/>
<path d="M10.3246 10.3936C10.3125 10.4422 10.289 10.4872 10.2559 10.5248" stroke="#703D29" stroke-width="0.01875" stroke-linecap="round"/>
<path d="M10.3328 10.3281L10.3203 10.3969M10.2484 10.5313L10.2172 10.5625L10.1641 10.5906L10.1016 10.6094M9.92656 5.05313C9.93594 5.02813 9.94219 5.00938 9.94219 4.97188C9.93906 4.84063 9.84219 4.78125 9.80156 4.65938M9.80156 4.65938C9.77969 4.5875 9.77031 4.525 9.82344 4.47188C9.86719 4.42813 9.92344 4.42813 9.97969 4.45313C10.1047 4.5 10.2484 4.63438 10.5016 4.64063C10.2484 4.63438 10.1016 4.5 9.98281 4.45313C9.92031 4.42813 9.86406 4.42188 9.81719 4.46875C9.76406 4.51875 9.77969 4.5875 9.80156 4.65938ZM9.80156 4.65938C9.84219 4.78125 9.93281 4.84063 9.93594 4.97188C9.93594 5.00938 9.92656 5.02813 9.92031 5.05313M10.4984 4.625C10.7484 4.6125 10.9641 4.44375 11.0328 4.42813C11.0953 4.41563 11.1266 4.42188 11.1734 4.4625C11.1297 4.42188 11.0797 4.425 11.0172 4.44688C10.8984 4.49375 10.7547 4.62813 10.4984 4.63438M12.9859 8.16251C12.9258 8.11739 12.877 8.05888 12.8433 7.99162C12.8097 7.92437 12.7922 7.8502 12.7922 7.775C12.7922 7.64688 12.8453 7.5125 12.9047 7.4625M10.7172 10.5125C10.6766 10.575 10.5828 10.6688 10.4797 10.7063C10.3838 10.6653 10.3015 10.5982 10.2422 10.5125" stroke="#703D29" stroke-width="0.01875"/>
<path d="M10.084 5.11544L10.1559 5.07481C10.1871 5.05606 10.2277 5.05919 10.2465 5.08106C10.2652 5.10294 10.2684 5.14356 10.2402 5.16856" stroke="#703D29" stroke-width="0.01875" stroke-linecap="round"/>
<path d="M9.7082 5.29063C9.88008 5.25313 10.0207 5.17813 10.127 5.11875M11.1332 10.25C11.1488 10.2594 11.1582 10.2812 11.1582 10.2812C11.1613 10.2875 11.1676 10.2969 11.1676 10.3062C11.177 10.3531 11.1457 10.3812 11.1051 10.3875C11.052 10.3937 11.0113 10.3625 10.9957 10.325M9.69883 5.28125C9.8707 5.24687 10.0113 5.16875 10.1176 5.10938M13.1676 8.45C13.1363 8.4625 13.1176 8.45938 13.0738 8.44375L13.0176 8.4125C12.9036 8.34754 12.812 8.24945 12.7551 8.13125C12.7312 8.08586 12.7133 8.03753 12.702 7.9875C12.692 7.95402 12.6867 7.91931 12.6863 7.88438C12.6829 7.7134 12.7344 7.54583 12.8332 7.40625C12.8676 7.35625 12.8988 7.32812 12.9645 7.325M8.47383 6.09688C8.50067 6.11806 8.52224 6.14516 8.53688 6.17605C8.55152 6.20695 8.55881 6.24082 8.5582 6.275C8.5582 6.37188 8.47695 6.53125 8.27695 6.5875C8.21061 6.60559 8.13979 6.5966 8.08008 6.5625" stroke="#703D29" stroke-width="0.01875"/>
<path d="M8.50859 6.42529C8.54297 6.45029 8.55859 6.47842 8.55859 6.52842C8.55859 6.55967 8.53672 6.60342 8.49922 6.64404C8.46409 6.68223 8.42164 6.71297 8.3744 6.73444C8.32716 6.75592 8.27609 6.76768 8.22422 6.76904C8.16172 6.76904 8.09922 6.75654 8.03672 6.71592C7.97719 6.67674 7.93474 6.61643 7.91797 6.54717" stroke="#703D29" stroke-width="0.01875"/>
<path d="M8.50625 6.63455C8.54688 6.67205 8.55937 6.71893 8.55937 6.7783C8.55937 6.86268 8.525 6.9283 8.44375 6.99705C8.425 7.0158 8.40625 7.0283 8.38125 7.04393M12.4281 6.3533V6.46268M12.4187 6.32518V6.48143M12.4281 5.98768V6.19393M12.4187 5.94393V6.22205M12.3594 8.78455C12.327 8.85063 12.2825 8.91 12.2281 8.95955C12.176 9.01294 12.1146 9.05637 12.0469 9.08768C11.9817 9.12025 11.9123 9.1434 11.8406 9.15643C11.771 9.17316 11.6997 9.18259 11.6281 9.18455C11.55 9.18455 11.5063 9.18455 11.4281 9.1783C11.3469 9.17205 11.3031 9.15955 11.2188 9.1533C11.15 9.14705 11.1125 9.1408 11.0437 9.14393C10.9266 9.13971 10.8097 9.15883 10.7 9.20018C10.6187 9.23143 10.5219 9.29393 10.5031 9.31893C10.4437 9.26827 10.3761 9.22812 10.3031 9.20018C10.252 9.17924 10.1984 9.16455 10.1438 9.15643C10.0719 9.14393 10.0344 9.14393 9.9625 9.14393C9.89375 9.14393 9.85625 9.14705 9.7875 9.1533C9.70625 9.16268 9.6625 9.17205 9.57812 9.1783C9.5 9.18455 9.45625 9.18768 9.37813 9.18455C9.23351 9.18301 9.09084 9.15107 8.95938 9.0908C8.88306 9.05516 8.81496 9.00409 8.75937 8.9408M10.075 10.6096L10.1313 10.6033M11.0781 10.5283L11.1344 10.5252L11.1875 10.5033L11.225 10.4783L11.2781 10.4158L11.2875 10.3971L11.2969 10.3439V10.3189M12.7656 6.04705C12.7875 5.9658 12.7594 5.8783 12.6781 5.88143M8.55313 7.33455C8.536 7.39531 8.49705 7.44761 8.44375 7.48143M8.55625 6.02205C8.54751 6.04971 8.53295 6.07518 8.51354 6.09674C8.49414 6.1183 8.47034 6.13546 8.44375 6.14705C8.38437 6.17205 8.31875 6.14705 8.28125 6.12205" stroke="#703D29" stroke-width="0.01875"/>
<path d="M8.11719 6.3249C8.16406 6.3499 8.21406 6.3124 8.20469 6.2499C8.20031 6.2318 8.19046 6.2155 8.17648 6.2032C8.1625 6.19089 8.14507 6.1832 8.12656 6.18115" stroke="#703D29" stroke-width="0.01875" stroke-linecap="round"/>
<path d="M8.31831 8.95628C8.32769 8.96565 8.33081 8.97815 8.34331 8.98128C8.36519 8.98753 8.38081 8.99378 8.40269 8.96565C8.42769 8.93128 8.41206 8.87815 8.38706 8.84378C8.36404 8.82007 8.33409 8.80427 8.30152 8.79866C8.26895 8.79304 8.23544 8.7979 8.20581 8.81253C8.18081 8.82815 8.15269 8.84378 8.12456 8.88128L8.09019 8.93128C8.06831 8.96565 8.05894 8.99378 8.05581 9.00628C7.99331 9.19065 8.06831 9.38128 8.18394 9.4969" stroke="#703D29" stroke-width="0.01875"/>
<path d="M11.1297 10.2437L11.1516 10.2687L11.1578 10.2968C11.1672 10.3437 11.1359 10.3718 11.0953 10.378C11.0453 10.3843 11.0078 10.353 10.9922 10.3155" stroke="#703D29" stroke-width="0.01875" stroke-linecap="round"/>
<path d="M12.6684 4.8374C12.7215 4.84533 12.7702 4.8715 12.8061 4.91142C12.842 4.95133 12.8629 5.0025 12.8652 5.05615C12.8652 5.19365 12.8184 5.24365 12.7465 5.34365C12.6684 5.4499 12.4121 5.64365 12.4121 5.86553C12.4121 5.9999 12.4496 6.08428 12.5465 6.12803C12.609 6.15928 12.6809 6.12803 12.7152 6.09678C12.7965 6.02178 12.7621 5.89365 12.6777 5.87803C12.5777 5.85928 12.5559 6.02178 12.6559 6.0124M13.2152 8.16865C13.2102 8.14244 13.1962 8.11879 13.1757 8.1017C13.1552 8.08461 13.1294 8.07514 13.1027 8.0749C13.0721 8.0749 13.0427 8.08708 13.021 8.10877C12.9993 8.13045 12.9871 8.15986 12.9871 8.19053C12.9871 8.22178 12.9996 8.25303 13.0184 8.27178" stroke="#703D29" stroke-width="0.01875"/>
<path d="M12.4951 6.09668C12.4683 6.11786 12.4467 6.14496 12.4321 6.17586C12.4174 6.20676 12.4101 6.24062 12.4107 6.2748C12.4107 6.37168 12.492 6.53105 12.692 6.5873C12.767 6.60918 12.842 6.60605 12.8857 6.57793M8.01074 6.25605C7.95024 6.27534 7.89761 6.31371 7.86075 6.36543C7.7863 6.48344 7.76158 6.62613 7.79199 6.7623C7.80445 6.82473 7.82886 6.88415 7.86387 6.9373C7.87304 6.95079 7.88351 6.96335 7.89512 6.9748L7.93262 7.00605M9.93262 9.88105C10.0857 9.94668 10.1951 9.99668 10.2889 10.1467C10.3143 10.1937 10.3272 10.2464 10.3264 10.2998C10.3264 10.3842 10.2951 10.4779 10.2232 10.5373C10.195 10.5623 10.1616 10.5809 10.1255 10.5917C10.0893 10.6025 10.0512 10.6052 10.0139 10.5998C9.9545 10.5936 9.89825 10.5498 9.88887 10.5186M8.43575 7.00293C8.52012 7.07168 8.55762 7.13418 8.55762 7.2373C8.55951 7.28396 8.54893 7.33027 8.52695 7.37147C8.50498 7.41267 8.47242 7.44726 8.43262 7.47168" stroke="#703D29" stroke-width="0.01875"/>
<path d="M8.35938 7.3877C8.48438 7.54707 8.55625 7.64082 8.55937 7.82832C8.5625 8.00645 8.50625 8.12832 8.40312 8.25645" stroke="#703D29" stroke-width="0.01875" stroke-linecap="round"/>
<path d="M10.8047 5.29043C10.8275 5.27337 10.844 5.24917 10.8516 5.22168C10.8672 5.1748 10.8672 5.13418 10.8453 5.09668C10.8766 5.14043 10.8766 5.1748 10.8672 5.22168C10.8641 5.25293 10.8422 5.26855 10.8172 5.29355M12.4266 7.98418V8.49043L12.4234 8.56855C12.4208 8.58634 12.4176 8.60405 12.4141 8.62168" stroke="#703D29" stroke-width="0.01875"/>
<path d="M12.4172 7.9377V8.55957L12.4016 8.64082M12.4172 7.29707V7.75332M12.4266 7.33457V7.70332M12.4266 6.86582V7.14082M12.4172 6.83145V7.1752M12.4266 6.58145V6.69082M12.4172 6.55957V6.71582M12.3609 8.75332L12.3484 8.7752C12.3174 8.84213 12.2739 8.90257 12.2203 8.95332C12.167 9.00591 12.1045 9.04827 12.0359 9.07832C11.9718 9.11061 11.9034 9.13376 11.8328 9.14707C11.7484 9.16582 11.7016 9.17207 11.6172 9.1752C11.5391 9.1752 11.4953 9.1752 11.4203 9.16895C11.3359 9.1627 11.2922 9.15332 11.2078 9.14395C11.1391 9.1377 11.1016 9.13457 11.0328 9.13457C10.9641 9.13457 10.9234 9.13457 10.8547 9.14707C10.7989 9.15494 10.7444 9.16964 10.6922 9.19082C10.6078 9.2252 10.5141 9.28457 10.4922 9.30957C10.4734 9.28457 10.3766 9.2252 10.2953 9.19082C10.2431 9.16964 10.1886 9.15494 10.1328 9.14707C10.0641 9.13457 10.0234 9.13457 9.95156 9.13457C9.88281 9.13457 9.84531 9.1377 9.77656 9.14395C9.69531 9.15332 9.65156 9.1627 9.56719 9.16895C9.48906 9.1752 9.44531 9.17832 9.37031 9.1752C9.22464 9.17409 9.08086 9.14214 8.94844 9.08145C8.88069 9.05019 8.81925 9.00676 8.76719 8.95332C8.7387 8.92643 8.71256 8.89716 8.68906 8.86582M8.62656 8.76582C8.63169 8.80871 8.62795 8.8522 8.61559 8.89359C8.60322 8.93498 8.5825 8.97339 8.55469 9.00645C8.52969 9.03457 8.47344 9.0877 8.39844 9.0877C8.28281 9.0877 8.24844 9.00957 8.24219 8.9877" stroke="#703D29" stroke-width="0.01875"/>
<path d="M8.48594 8.71582C8.50781 8.7377 8.52656 8.7627 8.54531 8.79395C8.57656 8.8502 8.56406 8.94395 8.54219 8.9877C8.5393 8.99204 8.53617 8.99621 8.53281 9.0002M7.89844 9.5627C7.97031 9.6377 8.07656 9.71895 8.23906 9.78457C8.46094 9.87832 8.80469 9.89707 9.04219 9.90957C9.35469 9.91895 9.64531 9.93145 9.82344 10.1283M10.3641 10.0033C10.4214 10.0474 10.4648 10.107 10.4891 10.1752M10.2609 10.5346C10.2541 10.5423 10.2468 10.5496 10.2391 10.5564C10.2112 10.581 10.1783 10.5993 10.1427 10.6101C10.1072 10.6209 10.0697 10.6239 10.0328 10.6189C9.97031 10.6127 9.91406 10.5689 9.89844 10.5377M9.72969 10.4471L9.73906 10.4596C9.78061 10.5041 9.83766 10.5309 9.89844 10.5346M10.7422 10.5346C10.6812 10.6192 10.5979 10.6852 10.5016 10.7252C10.4061 10.6851 10.3238 10.6191 10.2641 10.5346L10.2547 10.5189M10.7422 10.5314L10.7641 10.5533C10.7923 10.5783 10.8257 10.5969 10.8618 10.6077C10.898 10.6185 10.9361 10.6213 10.9734 10.6158C10.9988 10.6129 11.0231 10.6044 11.0447 10.5908C11.0664 10.5773 11.0847 10.5592 11.0984 10.5377L11.1141 10.5158" stroke="#703D29" stroke-width="0.01875"/>
<path d="M11.093 10.519L11.0711 10.5565L11.0367 10.5878L10.9836 10.6097H10.9336" stroke="#703D29" stroke-width="0.01875"/>
<path d="M11.2176 10.1656C11.2497 10.1892 11.2755 10.2203 11.2926 10.2563C11.302 10.2781 11.3051 10.3031 11.3082 10.3281C11.3094 10.352 11.3059 10.3759 11.2979 10.3984C11.2898 10.421 11.2774 10.4417 11.2613 10.4594C11.2397 10.4827 11.2137 10.5013 11.1847 10.5142C11.1556 10.5271 11.1243 10.534 11.0926 10.5344C11.0884 10.5345 11.0842 10.5345 11.0801 10.5344M11.0863 10.5281C11.0559 10.529 11.0256 10.5233 10.9976 10.5114C10.9696 10.4996 10.9444 10.4818 10.9238 10.4594M12.9145 8.3375C12.8535 8.27977 12.8028 8.21215 12.7645 8.1375C12.7408 8.09309 12.7229 8.04583 12.7113 7.99687C12.7013 7.9634 12.6961 7.92869 12.6957 7.89375C12.6923 7.72324 12.7425 7.55596 12.8395 7.41563C12.8613 7.39063 12.8832 7.35938 12.9051 7.34688M12.8645 4.975C12.9426 4.98125 13.0145 5.06875 13.0145 5.15312C13.0145 5.27187 12.9738 5.325 12.877 5.44375C12.7957 5.54375 12.5457 5.725 12.5551 5.89687C12.5551 5.92812 12.5707 5.95937 12.5895 5.98438M12.4895 6.09375C12.5076 6.11188 12.5287 6.12669 12.552 6.1375C12.5736 6.14606 12.597 6.14966 12.6202 6.14804C12.6435 6.14641 12.666 6.13961 12.6863 6.12813M12.0301 4.78125C12.0604 4.80112 12.0842 4.82934 12.0988 4.8625C12.1551 5.00313 12.0301 5.10938 11.9113 5.1875C11.8331 5.23982 11.7447 5.27497 11.652 5.29063" stroke="#703D29" stroke-width="0.01875"/>
<path d="M11.8922 5.05C11.8736 5.04948 11.8554 5.04503 11.8387 5.03695C11.822 5.02887 11.8072 5.01734 11.7953 5.00313C11.7862 4.99411 11.7788 4.98353 11.7734 4.97188M11.3047 5.125C11.2905 5.1168 11.2778 5.10623 11.2672 5.09375C11.2359 5.0625 11.2203 5.02188 11.2422 4.95625C11.2609 4.89688 11.3578 4.73125 11.3609 4.61562C11.3672 4.44062 11.2984 4.33438 11.1953 4.29688" stroke="#703D29" stroke-width="0.01875"/>
<path d="M11.3527 4.57812L11.3496 4.64062L11.3309 4.70937L11.2996 4.80312L11.2684 4.8625L11.2434 4.92188L11.2309 4.9625L11.2246 4.99375L11.2277 5.02187M12.4152 8.96875L12.434 8.99375C12.4559 9.025 12.534 9.0875 12.6059 9.0875C12.7215 9.0875 12.7496 9.00625 12.7527 8.9875C12.7684 8.89688 12.7371 8.875 12.6902 8.84688C12.6902 8.84688 12.6652 8.83437 12.6309 8.84062" stroke="#703D29" stroke-width="0.01875" stroke-linecap="round"/>
<path d="M7.90508 8.5749C7.86726 8.58543 7.82728 8.58543 7.78945 8.5749C7.69883 8.54678 7.62695 8.4624 7.66445 8.35615M8.0832 7.3624C8.09258 7.37178 8.0957 7.38428 8.0957 7.39365C8.1082 7.5124 8.0082 7.54365 7.93945 7.5249C7.90082 7.51253 7.86768 7.48713 7.8457 7.45303C7.8323 7.43137 7.82477 7.4066 7.82383 7.38115M8.51133 6.64365C8.53008 6.65928 8.54258 6.6749 8.55195 6.69678M8.51758 6.43115C8.5332 6.44365 8.5457 6.45928 8.55195 6.47178" stroke="#703D29" stroke-width="0.01875"/>
<path d="M8.55937 6.57793C8.5471 6.6056 8.53019 6.63096 8.50937 6.65293C8.47424 6.69112 8.4318 6.72186 8.38456 6.74333C8.33732 6.7648 8.28625 6.77657 8.23438 6.77793C8.17188 6.77793 8.10938 6.76543 8.04688 6.7248C7.9848 6.68414 7.94021 6.62171 7.92188 6.5498" stroke="#703D29" stroke-width="0.01875" stroke-linecap="round"/>
<path d="M8.48047 6.10303C8.51463 6.131 8.54055 6.16772 8.55547 6.20928" stroke="#703D29" stroke-width="0.01875"/>
<path d="M8.55508 6.3501C8.52695 6.44385 8.4457 6.55635 8.28633 6.59697C8.21133 6.61572 8.11133 6.59072 8.08008 6.56572" stroke="#703D29" stroke-width="0.01875" stroke-linecap="round"/>
<path d="M8 6.33135C8.00938 6.4126 8.0625 6.4751 8.16875 6.4751C8.31562 6.47822 8.40625 6.26572 8.275 6.11572" stroke="#703D29" stroke-width="0.01875"/>
<path d="M7.66797 7.04678C7.68984 7.0749 7.71484 7.0999 7.74297 7.12178C7.79773 7.16866 7.86155 7.20376 7.93047 7.2249M8.09297 7.24053C8.22422 7.2249 8.29922 7.1249 8.28047 7.0124C8.27109 6.9249 8.19297 6.85615 8.13672 6.85303" stroke="#703D29" stroke-width="0.01875" stroke-linecap="round"/>
<path d="M8.30469 5.87793C8.36406 5.87793 8.39844 5.92793 8.39531 5.97168" stroke="#703D29" stroke-width="0.01875"/>
<path d="M8.29297 5.09375C8.32221 5.1714 8.37741 5.23655 8.44922 5.27812M12.9555 6.24687C13.0086 6.31875 12.9742 6.46562 12.8305 6.46562C12.8023 6.46593 12.7745 6.45888 12.7498 6.44518C12.7252 6.43149 12.7045 6.41161 12.6898 6.3875" stroke="#703D29" stroke-width="0.01875" stroke-linecap="round"/>
<path d="M12.4277 5.28418V5.78105" stroke="#703D29" stroke-width="0.01875"/>
<path d="M8.11798 6.32198C8.16173 6.35323 8.2211 6.30011 8.1961 6.24073C8.18048 6.20323 8.12735 6.15948 8.04923 6.21261C7.96173 6.27198 7.98673 6.45636 8.14923 6.45948C8.2961 6.45948 8.38673 6.24698 8.25548 6.09698C8.13048 5.95323 7.90235 5.98448 7.75548 6.10323C7.64233 6.19707 7.56326 6.32556 7.53048 6.46886C7.51067 6.56367 7.51067 6.66154 7.53048 6.75636C7.54619 6.83983 7.57803 6.91944 7.62423 6.99073L7.66485 7.04385C7.68985 7.06885 7.6961 7.08135 7.72735 7.10635C7.81705 7.18481 7.93326 7.22615 8.05235 7.22198C8.1961 7.21573 8.28048 7.11573 8.26485 6.99386C8.25235 6.87511 8.1336 6.81573 8.05548 6.87198C8.00235 6.90948 7.9836 7.02511 8.07735 7.05323C8.12735 7.06886 8.17423 7.00011 8.13985 6.95948M12.1867 4.71573C12.2711 4.67198 12.3367 4.67823 12.3836 4.74698C12.4286 4.81274 12.4465 4.89334 12.4336 4.97198C12.4215 5.04411 12.3824 5.10892 12.3242 5.15323" stroke="#703D29" stroke-width="0.01875" stroke-linecap="round"/>
<path d="M12.3906 4.75021C12.4875 4.68771 12.5937 4.71583 12.65 4.80021C12.6906 4.86271 12.7031 4.91271 12.7 4.99083C12.697 5.0499 12.6791 5.10725 12.648 5.15752C12.6168 5.2078 12.5734 5.24936 12.5219 5.27833" stroke="#703D29" stroke-width="0.01875" stroke-linecap="round"/>
<path d="M12.8435 4.9751C12.9247 4.98135 12.9872 5.05322 12.9872 5.13447C12.9872 5.25322 12.956 5.30635 12.8622 5.4251C12.7779 5.52822 12.531 5.70635 12.5372 5.88135C12.5372 5.94697 12.5935 6.00635 12.6404 6.0126" stroke="#703D29" stroke-width="0.01875"/>
<path d="M12.8561 6.32173C12.8092 6.35298 12.753 6.30298 12.778 6.24673C12.7936 6.20923 12.8467 6.15923 12.9249 6.21236C13.0092 6.27173 12.9874 6.45611 12.8217 6.45923C12.6749 6.45923 12.5717 6.25298 12.7155 6.09673C12.8405 5.95298 13.0811 5.98111 13.2311 6.09986C13.2936 6.14986 13.4217 6.28736 13.4499 6.47486C13.4811 6.69361 13.478 6.96236 13.2499 7.13111C13.1561 7.19673 13.0311 7.22798 12.9186 7.22486C12.7749 7.21861 12.6905 7.11548 12.7061 6.99361C12.7217 6.87486 12.8311 6.82486 12.9155 6.87173C13.003 6.91861 12.9874 7.04048 12.8936 7.05298C12.8405 7.05923 12.7967 6.99986 12.8311 6.95923" stroke="#703D29" stroke-width="0.01875" stroke-linecap="round"/>
<path d="M12.7773 6.24717C12.8023 6.13779 12.893 6.12842 12.9711 6.12842C13.1742 6.13154 13.318 6.37842 13.3211 6.61279C13.3211 6.90967 13.1961 7.08779 12.9773 7.09717C12.918 7.09717 12.8211 7.07217 12.8211 7.00342" stroke="#703D29" stroke-width="0.01875"/>
<path d="M12.9047 6.19678C13.1203 6.24678 13.1953 6.44053 13.1953 6.62803C13.1953 6.78115 13.1797 6.99053 12.8828 7.0624" stroke="#703D29" stroke-width="0.01875" stroke-linecap="square"/>
<path d="M13.2617 8.29058C13.2651 8.26944 13.263 8.24775 13.2554 8.22771C13.2478 8.20766 13.2351 8.18997 13.2185 8.17641C13.2019 8.16286 13.182 8.15392 13.1609 8.15049C13.1397 8.14707 13.118 8.14928 13.098 8.15691C13.078 8.16454 13.0603 8.17731 13.0468 8.19394C13.0333 8.21057 13.0244 8.23047 13.021 8.25163C13.0177 8.2728 13.0199 8.29447 13.0276 8.31448C13.0353 8.33448 13.0481 8.35211 13.0648 8.36558" stroke="#703D29" stroke-width="0.01875"/>
<path d="M12.825 8.10645C12.8687 8.16895 12.9187 8.23457 13.0219 8.29395M12.9812 8.62207C12.8812 8.55332 12.6844 8.46582 12.5125 8.55332C12.4812 8.56524 12.4527 8.58365 12.429 8.60735C12.4053 8.63105 12.3869 8.6595 12.375 8.69082C12.3585 8.74102 12.355 8.79459 12.3648 8.84651C12.3747 8.89843 12.3975 8.947 12.4312 8.9877C12.4594 9.01895 12.5156 9.06895 12.5875 9.07207C12.7062 9.07207 12.7344 8.99082 12.7375 8.97207C12.75 8.88457 12.7 8.8502 12.675 8.84395C12.6531 8.83457 12.5875 8.8377 12.575 8.88457C12.5687 8.9002 12.5687 8.9252 12.5812 8.94707" stroke="#703D29" stroke-width="0.01875" stroke-linecap="round"/>
<path d="M11.1406 10.2628C11.1719 10.3315 11.1344 10.3628 11.0906 10.369C11.0219 10.3784 10.9875 10.3253 10.9844 10.2753C10.9831 10.2567 10.9856 10.238 10.9918 10.2205C10.9979 10.2029 11.0075 10.1868 11.0201 10.173C11.0327 10.1593 11.0479 10.1483 11.0648 10.1406C11.0818 10.1329 11.1001 10.1288 11.1187 10.1284C11.1906 10.1284 11.2469 10.1753 11.275 10.2378C11.2844 10.2596 11.2906 10.2846 11.2906 10.3128C11.2931 10.3595 11.2775 10.4054 11.2469 10.4409C11.2256 10.4647 11.1996 10.484 11.1706 10.4974C11.1416 10.5108 11.1101 10.5182 11.0781 10.519C10.9469 10.5221 10.8438 10.4003 10.8438 10.2753C10.8438 10.0346 11.2 9.90025 11.3438 9.869C11.527 9.82397 11.7145 9.79883 11.9031 9.794C12.0125 9.79088 12.0969 9.794 12.2188 9.77838C12.3281 9.769 12.3875 9.76275 12.5 9.73775C12.6466 9.70694 12.7824 9.63795 12.8938 9.53775C12.9844 9.45338 13.0344 9.39713 13.0781 9.2815C13.1025 9.21035 13.1115 9.13483 13.1045 9.05995C13.0975 8.98507 13.0746 8.91253 13.0375 8.84713C13.0031 8.78992 12.9564 8.74114 12.9007 8.70436C12.845 8.66759 12.7817 8.64376 12.7156 8.63463C12.6 8.619 12.4969 8.669 12.4344 8.78463C12.4031 8.84088 12.4156 8.93463 12.4375 8.97838C12.4529 9.00514 12.4746 9.0277 12.5007 9.04405C12.5269 9.06041 12.5567 9.07005 12.5875 9.07213C12.7062 9.07213 12.7344 8.99088 12.7375 8.97213C12.75 8.88463 12.7 8.85025 12.675 8.84088C12.6531 8.83463 12.5875 8.83775 12.575 8.88463C12.5687 8.90025 12.5688 8.92525 12.5813 8.94713" stroke="#703D29" stroke-width="0.01875" stroke-linecap="round"/>
<path d="M11.0364 9.88135C10.8864 9.94697 10.7739 9.99697 10.6801 10.147C10.6546 10.1939 10.6417 10.2467 10.6426 10.3001C10.6426 10.3845 10.677 10.4782 10.7457 10.5376C10.774 10.5626 10.8074 10.5812 10.8435 10.592C10.8797 10.6028 10.9178 10.6055 10.9551 10.6001C11.0176 10.5938 11.0708 10.5501 11.0801 10.5188" stroke="#703D29" stroke-width="0.01875" stroke-linecap="round"/>
<path d="M12.5342 7.00293C12.4623 7.02793 12.4123 7.13418 12.4123 7.2373C12.4104 7.28396 12.421 7.33027 12.443 7.37147C12.465 7.41267 12.4975 7.44726 12.5373 7.47168" stroke="#703D29" stroke-width="0.01875"/>
<path d="M12.6121 7.3877C12.4871 7.54707 12.4152 7.64082 12.4121 7.82832C12.4121 8.00645 12.4652 8.12832 12.5715 8.25645" stroke="#703D29" stroke-width="0.01875" stroke-linecap="round"/>
<path d="M11.9336 4.75008L11.943 4.73445C11.9961 4.65945 12.0898 4.63758 12.1586 4.68758C12.2398 4.75008 12.2617 4.85633 12.2398 4.96883C12.2242 5.03758 12.1773 5.09695 12.1148 5.1407" stroke="#703D29" stroke-width="0.01875"/>
<path d="M8.78267 4.71266C8.70142 4.67516 8.63579 4.68141 8.58579 4.74391C8.56149 4.77546 8.54441 4.81197 8.53577 4.85085C8.52713 4.88973 8.52714 4.93003 8.53579 4.96891C8.55454 5.05328 8.57954 5.08766 8.64517 5.15016" stroke="#703D29" stroke-width="0.01875" stroke-linecap="round"/>
<path d="M8.58025 4.75019C8.5602 4.73569 8.53738 4.72545 8.51322 4.7201C8.48906 4.71475 8.46405 4.71441 8.43975 4.7191C8.41545 4.72378 8.39237 4.73339 8.37192 4.74734C8.35148 4.76129 8.33411 4.77927 8.32088 4.80019C8.28202 4.85574 8.26429 4.92334 8.27088 4.99081C8.27713 5.12206 8.35838 5.22831 8.45213 5.27831" stroke="#703D29" stroke-width="0.01875"/>
<path d="M8.30273 4.8374C8.25187 4.84341 8.20489 4.86759 8.17044 4.90549C8.13599 4.94339 8.11639 4.99245 8.11523 5.04365C8.11523 5.18428 8.14648 5.24053 8.22461 5.34365C8.30273 5.4499 8.55898 5.64365 8.55898 5.86553C8.55898 5.9999 8.52148 6.08428 8.42461 6.12803C8.36211 6.15928 8.29023 6.12803 8.25586 6.09678C8.17461 6.02178 8.20898 5.89365 8.29336 5.87803C8.39648 5.85928 8.41523 6.02178 8.31523 6.0124" stroke="#703D29" stroke-width="0.01875"/>
<path d="M8.125 4.9751C8.04688 4.98135 7.96875 5.04697 7.96875 5.13135C7.96875 5.2501 8.01563 5.30635 8.1125 5.4251C8.19375 5.52822 8.42813 5.70635 8.42188 5.87822C8.42188 5.94072 8.375 6.02197 8.33125 6.0126" stroke="#703D29" stroke-width="0.01875"/>
<path d="M7.93705 7.37822C7.97767 7.2876 8.07455 7.32822 8.0808 7.37822C8.0933 7.49385 7.9933 7.52822 7.92142 7.50947C7.9048 7.505 7.88928 7.49714 7.87583 7.48638C7.86239 7.47563 7.85131 7.46221 7.8433 7.44697C7.83362 7.4295 7.82753 7.41028 7.82538 7.39042C7.82324 7.37057 7.82508 7.35048 7.8308 7.33135C7.83694 7.31306 7.84648 7.29609 7.85892 7.28135C7.86919 7.2668 7.88188 7.25412 7.89642 7.24385C7.92767 7.2251 7.9558 7.2251 8.00267 7.2251C8.17455 7.2251 8.32767 7.42822 8.37767 7.64385C8.39642 7.7126 8.4183 7.87197 8.38705 8.01885C8.36197 8.15158 8.29902 8.27422 8.2058 8.37197C8.11668 8.45525 8.00983 8.51722 7.8933 8.55322C7.85379 8.56579 7.81152 8.56688 7.77142 8.55635C7.68392 8.52822 7.62767 8.44697 7.67142 8.3376C7.70892 8.25635 7.84017 8.2126 7.89955 8.31885C7.9058 8.32822 7.91205 8.34697 7.91205 8.36572C7.91205 8.39385 7.89955 8.42822 7.8808 8.44072C7.83705 8.46885 7.76517 8.45947 7.7683 8.37822" stroke="#703D29" stroke-width="0.01875" stroke-linecap="round"/>
<path d="M7.806 8.4502C7.83725 8.4627 7.856 8.45957 7.89663 8.44395L7.95288 8.4127C8.03413 8.36582 8.12788 8.29395 8.21538 8.12832C8.23904 8.08391 8.25689 8.03665 8.2685 7.9877C8.27788 7.95645 8.28413 7.91895 8.28725 7.88457C8.28975 7.71324 8.23717 7.54564 8.13725 7.40645C8.10288 7.35645 8.07475 7.32832 8.006 7.3252M7.70913 8.29395C7.70515 8.2728 7.70685 8.25097 7.71404 8.23069C7.72124 8.21041 7.73367 8.19239 7.75009 8.17847C7.7665 8.16456 7.78631 8.15523 7.80749 8.15145C7.82868 8.14767 7.85049 8.14957 7.8707 8.15695C7.89092 8.16433 7.90882 8.17693 7.92258 8.19347C7.93635 8.21001 7.94549 8.2299 7.94908 8.25112C7.95266 8.27234 7.95057 8.29413 7.943 8.31428C7.93544 8.33442 7.92267 8.35221 7.906 8.36582" stroke="#703D29" stroke-width="0.01875"/>
<path d="M7.75586 8.16896C7.76101 8.14222 7.77543 8.11816 7.79658 8.10101C7.81773 8.08386 7.84426 8.07472 7.87148 8.07521C7.90161 8.07603 7.93022 8.08857 7.95123 8.11017C7.97224 8.13176 7.984 8.16071 7.98398 8.19084C7.98423 8.2209 7.97306 8.24994 7.95273 8.27209" stroke="#703D29" stroke-width="0.01875"/>
<path d="M7.98047 8.16582C8.04063 8.1207 8.08945 8.0622 8.12308 7.99494C8.15671 7.92768 8.17422 7.85352 8.17422 7.77832C8.17422 7.6502 8.12422 7.51582 8.06172 7.46582" stroke="#703D29" stroke-width="0.01875"/>
<path d="M8.14609 8.10645C8.09842 8.18543 8.03044 8.25018 7.94922 8.29395" stroke="#703D29" stroke-width="0.01875" stroke-linecap="round"/>
<path d="M8.4547 8.55323C8.42345 8.48448 8.3672 8.45323 8.27345 8.44385C8.1797 8.43448 8.10157 8.45948 8.0172 8.50323C7.91588 8.55003 7.83017 8.62501 7.77032 8.71922C7.71047 8.81343 7.67901 8.92287 7.6797 9.03448C7.68093 9.13657 7.70217 9.23743 7.7422 9.33135C7.77032 9.38135 7.83595 9.6126 8.22032 9.76885C8.48032 9.84989 8.75111 9.89098 9.02345 9.89073C9.34845 9.90323 9.64845 9.91573 9.82345 10.1282" stroke="#703D29" stroke-width="0.01875"/>
<path d="M7.99023 8.62208C8.09336 8.55333 8.28711 8.46583 8.46211 8.55333C8.49247 8.56625 8.51998 8.58505 8.54304 8.60865C8.56611 8.63225 8.58427 8.66018 8.59648 8.69083C8.61297 8.74104 8.61646 8.7946 8.60663 8.84652C8.59679 8.89844 8.57395 8.94702 8.54023 8.98771C8.51211 9.01896 8.45586 9.06896 8.38398 9.07208C8.26523 9.07208 8.23711 8.99083 8.23398 8.97208C8.22148 8.88458 8.27148 8.85021 8.29648 8.84083C8.31836 8.83458 8.38398 8.83771 8.39648 8.88458C8.40273 8.90021 8.40273 8.92521 8.39023 8.94708" stroke="#703D29" stroke-width="0.01875" stroke-linecap="round"/>
<path d="M8.39581 8.9283C8.40519 8.89705 8.40206 8.85955 8.37081 8.82517C8.34706 8.80052 8.316 8.78416 8.28223 8.77854C8.24846 8.77291 8.21378 8.7783 8.18331 8.79392C8.16144 8.80955 8.13331 8.82517 8.10831 8.86267C8.09581 8.87517 8.07706 8.89705 8.07081 8.91267C8.04894 8.94705 8.03956 8.97517 8.03956 8.9908C7.96144 9.20955 8.08644 9.4408 8.24269 9.5408C8.38019 9.6283 8.51769 9.6533 8.69269 9.6658C8.77081 9.67517 8.81769 9.67517 8.89581 9.68142H9.19581C9.27076 9.67757 9.34586 9.67757 9.42081 9.68142C9.51456 9.6908 9.58019 9.69392 9.65831 9.70642C9.70831 9.71267 9.76769 9.72205 9.82706 9.73767C9.84581 9.73767 9.86456 9.74392 9.88331 9.75017L9.92081 9.75955C10.0333 9.79392 10.1396 9.83455 10.2271 9.8908C10.2521 9.90642 10.2833 9.92205 10.3052 9.94392L10.3458 9.98142C10.4083 10.0439 10.4708 10.1064 10.4833 10.1908V10.2408C10.4833 10.297 10.4396 10.3752 10.3177 10.397" stroke="#703D29" stroke-width="0.01875"/>
<path d="M9.83038 10.2628C9.79913 10.3315 9.83663 10.3628 9.88038 10.369C9.94913 10.3784 9.98351 10.3253 9.98976 10.2753C9.99104 10.2564 9.98844 10.2375 9.98211 10.2197C9.97578 10.202 9.96585 10.1857 9.95295 10.1719C9.94005 10.1581 9.92446 10.1472 9.90713 10.1397C9.88981 10.1322 9.87113 10.1283 9.85225 10.1284C9.81832 10.1291 9.78537 10.1399 9.75757 10.1594C9.72976 10.1789 9.70834 10.2061 9.696 10.2378C9.68636 10.2616 9.68107 10.287 9.68038 10.3128C9.67787 10.3595 9.69354 10.4054 9.72413 10.4409C9.74544 10.4647 9.7714 10.484 9.80043 10.4974C9.82945 10.5108 9.86091 10.5182 9.89288 10.519C10.0241 10.5221 10.1273 10.4003 10.1273 10.2753C10.1273 10.0346 9.77101 9.90025 9.62726 9.869C9.44403 9.82397 9.25649 9.79883 9.06788 9.794C8.95851 9.79088 8.87413 9.794 8.75226 9.77838C8.64288 9.769 8.58351 9.76275 8.47101 9.73775C8.32554 9.70643 8.19084 9.63746 8.08038 9.53775C7.97634 9.46073 7.904 9.34836 7.87696 9.22177C7.84991 9.09518 7.87002 8.96307 7.9335 8.85025C7.96754 8.79246 8.01414 8.74307 8.06986 8.70574C8.12558 8.66842 8.18899 8.64411 8.25538 8.63463C8.37413 8.619 8.47413 8.669 8.53663 8.78463C8.56788 8.84088 8.55538 8.93463 8.53351 8.97838C8.51815 9.00514 8.49642 9.0277 8.47026 9.04405C8.44409 9.06041 8.41429 9.07005 8.3835 9.07213C8.26475 9.07213 8.23663 8.99088 8.2335 8.97213C8.221 8.88463 8.271 8.85025 8.296 8.84088C8.31788 8.83463 8.3835 8.83775 8.396 8.88463C8.40225 8.90025 8.40225 8.92525 8.38975 8.94713" stroke="#703D29" stroke-width="0.01875"/>
<path d="M9.03868 4.75008L9.02618 4.73445C8.97306 4.65945 8.87931 4.63758 8.81056 4.68758C8.72931 4.75008 8.70743 4.85633 8.73243 4.96883C8.75002 5.04026 8.79489 5.10197 8.85743 5.1407" stroke="#703D29" stroke-width="0.01875" stroke-linecap="round"/>
<path d="M11.9617 4.98756C11.8367 5.12506 11.7086 5.16881 11.5211 5.17506C11.4586 5.17506 11.3492 5.15631 11.2836 5.10944C11.243 5.07819 11.1961 5.02819 11.2242 4.93756C11.243 4.87819 11.3398 4.71256 11.343 4.59694C11.3523 4.42194 11.2836 4.32506 11.1773 4.28756C10.9836 4.21881 10.7711 4.41256 10.6461 4.45631C10.5805 4.47819 10.5461 4.48131 10.4867 4.48131C10.4242 4.48131 10.393 4.47819 10.3242 4.45631C10.1992 4.41256 9.98984 4.21881 9.79297 4.28756C9.68672 4.32506 9.62109 4.42194 9.62734 4.60006C9.63047 4.71256 9.72734 4.88131 9.74609 4.93756C9.77734 5.02819 9.73047 5.07819 9.68672 5.10944C9.62422 5.15631 9.50859 5.17506 9.45234 5.17194C9.26484 5.16881 9.13672 5.12506 9.01172 4.98756" stroke="#703D29" stroke-width="0.01875"/>
<path d="M9.78906 9.8252C9.81406 9.83457 9.79531 9.81895 9.95469 9.8877C10.1002 9.93822 10.2246 10.0362 10.3078 10.1658C10.3444 10.236 10.3544 10.317 10.3359 10.3939" stroke="#703D29" stroke-width="0.01875" stroke-linecap="round"/>
<path d="M9.80273 10.4998C9.83373 10.5161 9.8678 10.5257 9.90273 10.5279C10.034 10.5311 10.1371 10.4092 10.1371 10.2842C10.1371 10.1967 10.0902 10.1217 10.0246 10.0654" stroke="#703D29" stroke-width="0.01875"/>
<path d="M9.83089 10.2627C9.79964 10.3346 9.84339 10.3721 9.88714 10.3783C9.95589 10.3846 9.99339 10.3346 9.99964 10.2846C10.0015 10.2585 9.9961 10.2323 9.98395 10.2092C9.97181 10.186 9.95343 10.1666 9.93089 10.1533" stroke="#703D29" stroke-width="0.01875" stroke-linecap="round"/>
<path d="M12.6891 4.8374C12.7891 4.8374 12.8766 4.9499 12.8766 5.0624C12.8766 5.19678 12.8078 5.27803 12.7547 5.3374C12.7141 5.3874 12.6703 5.43115 12.6172 5.48428" stroke="#703D29" stroke-width="0.01875"/>
<path d="M12.5719 4.73115C12.6059 4.74984 12.6357 4.77538 12.6594 4.80615C12.7 4.86865 12.7125 4.92178 12.7094 4.9999C12.7031 5.13115 12.6094 5.22178 12.5219 5.28115M12.375 4.73115L12.3938 4.75303C12.4531 4.82178 12.4563 4.92178 12.4438 4.97803C12.4367 5.01285 12.4226 5.04583 12.4021 5.07488C12.3817 5.10393 12.3554 5.12842 12.325 5.14678M12.1687 4.69678C12.25 4.75928 12.275 4.86553 12.2469 4.97803C12.2281 5.05615 12.1781 5.10303 12.1156 5.14053M12.4625 6.4249C12.4719 6.45615 12.4906 6.46553 12.5094 6.4874C12.563 6.54054 12.6299 6.57831 12.7031 6.59678C12.7781 6.61865 12.8469 6.60303 12.9 6.56865M7.80625 8.25615C7.84375 8.25615 7.88438 8.28428 7.90938 8.32803C7.9125 8.33428 7.92188 8.35303 7.92188 8.3749C7.92188 8.40303 7.90938 8.43115 7.89062 8.44365C7.84375 8.4749 7.76562 8.45928 7.76562 8.38115" stroke="#703D29" stroke-width="0.01875" stroke-linecap="round"/>
<path d="M8.04609 7.22803C8.20234 7.25928 8.34922 7.44365 8.39609 7.64365C8.41484 7.71553 8.43672 7.87178 8.40547 8.01865C8.3792 8.1532 8.314 8.27707 8.21797 8.3749C8.19784 8.39654 8.17588 8.4164 8.15234 8.43428L8.12109 8.45615M7.87109 8.07803C7.93359 8.07803 7.98984 8.1374 7.98984 8.20303C7.99009 8.23309 7.97892 8.26213 7.95859 8.28428" stroke="#703D29" stroke-width="0.01875"/>
<path d="M7.83008 8.14697C7.8957 8.14697 7.9582 8.20947 7.9582 8.27822C7.95823 8.2961 7.95433 8.31377 7.94677 8.32997C7.93921 8.34617 7.92818 8.36051 7.91445 8.37197" stroke="#703D29" stroke-width="0.01875"/>
<path d="M8.43711 7.48438C8.49552 7.55383 8.53627 7.63639 8.55586 7.725M8.55586 7.99062C8.54546 8.03407 8.52971 8.07606 8.50898 8.11563C8.47995 8.17052 8.44192 8.22016 8.39648 8.2625" stroke="#703D29" stroke-width="0.01875" stroke-linecap="round"/>
<path d="M8.44531 7.00928C8.50156 7.05615 8.53906 7.10303 8.55469 7.15928" stroke="#703D29" stroke-width="0.01875"/>
<path d="M8.55781 6.85957C8.53715 6.91681 8.50022 6.96677 8.45156 7.00332M8.16406 6.46582L8.23281 6.44707L8.27344 6.41582L8.29844 6.38145L8.32031 6.3252L8.32969 6.27832" stroke="#703D29" stroke-width="0.01875" stroke-linecap="round"/>
<path d="M8.03046 6.22803C8.00859 6.23428 7.98046 6.24053 7.95234 6.25303C7.90836 6.27425 7.87066 6.30656 7.84296 6.34678C7.76884 6.46492 7.74415 6.60746 7.77421 6.74365C7.78667 6.80607 7.81107 6.8655 7.84609 6.91865L7.87734 6.9624C7.92109 7.00303 7.95859 7.0249 8.02109 7.01553" stroke="#703D29" stroke-width="0.01875"/>
<path d="M8.40625 5.93115C8.39687 5.97178 8.375 6.02178 8.3125 6.01553" stroke="#703D29" stroke-width="0.01875" stroke-linecap="round"/>
<path d="M8.17648 6.20299C8.11398 6.14361 7.98898 6.12799 7.86085 6.20924L7.81085 6.24986C7.7943 6.2647 7.77961 6.28149 7.7671 6.29986C7.73396 6.34763 7.70864 6.40037 7.6921 6.45611C7.67023 6.54986 7.67023 6.63111 7.67335 6.65299C7.67335 6.68424 7.6796 6.71236 7.68273 6.73736C7.70148 6.82486 7.72648 6.88736 7.7546 6.93111C7.78273 6.97799 7.84835 7.08736 7.99523 7.09986C8.05148 7.10299 8.14523 7.07799 8.15148 7.00611" stroke="#703D29" stroke-width="0.01875"/>
<path d="M11.8685 4.90646C11.8778 4.85646 11.9403 4.84709 11.9622 4.87521C11.9997 4.92521 11.9747 5.00646 11.8997 5.02834C11.8778 5.03227 11.8553 5.03029 11.8344 5.0226C11.8135 5.01491 11.7951 5.00179 11.781 4.98459C11.7497 4.94396 11.7528 4.89709 11.7653 4.85959C11.7716 4.83459 11.7935 4.81271 11.8185 4.79084C11.9028 4.72834 12.0403 4.74084 12.0872 4.85334C12.1435 4.99084 12.0185 5.09709 11.8997 5.17521C11.756 5.27521 11.5872 5.29396 11.4622 5.29084C11.1747 5.29084 10.9591 5.15334 10.8153 5.07209C10.7841 5.05646 10.7497 5.05959 10.731 5.08146C10.7216 5.09412 10.7174 5.10984 10.7191 5.12549C10.7209 5.14113 10.7284 5.15554 10.7403 5.16584" stroke="#703D29" stroke-width="0.01875" stroke-linecap="round"/>
<path d="M11.9238 4.85938C11.9551 4.85938 11.9613 4.87188 11.9707 4.88438C12.0082 4.93125 11.9801 5.0125 11.9082 5.0375M12.4645 6.64687C12.3551 6.76562 12.4582 6.96875 12.5395 7.01562C12.5676 7.0375 12.5801 7.025 12.602 7.0375" stroke="#703D29" stroke-width="0.01875" stroke-linecap="round"/>
<path d="M12.4711 6.41865C12.4367 6.44365 12.4242 6.47178 12.4211 6.52178C12.4194 6.5445 12.4224 6.56733 12.4299 6.58884C12.4375 6.61035 12.4493 6.63007 12.4648 6.64678C12.5442 6.71981 12.6477 6.76099 12.7555 6.7624C12.818 6.7624 12.8805 6.7499 12.943 6.70928C13.0025 6.6701 13.0449 6.60979 13.0617 6.54053M12.4117 8.47178L12.4055 8.5499C12.399 8.62618 12.3778 8.70048 12.343 8.76865C12.3106 8.83473 12.2661 8.8941 12.2117 8.94365C12.1584 8.99624 12.0959 9.03861 12.0273 9.06865C11.9633 9.10203 11.895 9.12622 11.8242 9.14053C11.6885 9.1676 11.5494 9.17392 11.4117 9.15928C11.3273 9.15303 11.2836 9.14365 11.1992 9.13428C11.1305 9.13115 11.093 9.1249 11.0242 9.1249C10.9079 9.12209 10.7921 9.14227 10.6836 9.18428C10.5992 9.21553 10.5055 9.27803 10.4836 9.30303C10.4648 9.2749 10.368 9.21553 10.2867 9.18428C10.2347 9.16202 10.1801 9.14628 10.1242 9.1374C10.0555 9.1249 10.0148 9.1249 9.94297 9.1249C9.87422 9.1249 9.83672 9.13115 9.76797 9.1374C9.68672 9.14365 9.64297 9.15615 9.55859 9.15928C9.48047 9.16553 9.43672 9.16865 9.36172 9.16553C9.28812 9.16502 9.21478 9.15664 9.14297 9.14053C9.07238 9.12721 9.00401 9.10407 8.93984 9.07178C8.87213 9.04046 8.8107 8.99704 8.75859 8.94365C8.7039 8.89318 8.65935 8.83272 8.62734 8.76553C8.59299 8.69828 8.57178 8.6251 8.56484 8.5499C8.55859 8.51865 8.55859 8.47178 8.55859 8.47178V5.29053H12.4086V8.47178H12.4117Z" stroke="#703D29" stroke-width="0.01875"/>
<path d="M8.25 8.9251C8.25 8.90438 8.25823 8.88451 8.27288 8.86985C8.28753 8.8552 8.3074 8.84697 8.32812 8.84697C8.34885 8.84697 8.36872 8.8552 8.38337 8.86985C8.39802 8.88451 8.40625 8.90438 8.40625 8.9251C8.40625 8.94582 8.39802 8.96569 8.38337 8.98034C8.36872 8.99499 8.34885 9.00322 8.32812 9.00322C8.3074 9.00322 8.28753 8.99499 8.27288 8.98034C8.25823 8.96569 8.25 8.94582 8.25 8.9251ZM7.76562 8.3751C7.76562 8.33447 7.79063 8.30322 7.82188 8.30322C7.85313 8.30322 7.875 8.33447 7.875 8.3751C7.875 8.4126 7.85 8.44385 7.82188 8.44385C7.79063 8.44385 7.76562 8.4126 7.76562 8.3751Z" fill="#C7B37F" stroke="#C7B37F" stroke-width="0.009375"/>
<path d="M8.04102 6.9878C8.04102 6.95655 8.06602 6.93155 8.09414 6.93155C8.12539 6.93155 8.14727 6.95655 8.14727 6.9878C8.14727 7.01905 8.12539 7.04405 8.09414 7.04405C8.06289 7.04405 8.04102 7.01905 8.04102 6.9878ZM9.00039 4.9378C9.00039 4.90655 9.01602 4.8753 9.04414 4.8753C9.07227 4.87217 9.09727 4.89405 9.10039 4.9253C9.10039 4.95655 9.08477 4.9878 9.05664 4.9878C9.02852 4.99092 9.00664 4.96905 9.00039 4.9378Z" fill="#C7B37F"/>
<path d="M7.97773 7.3125C7.96523 7.31563 7.95898 7.31875 7.95273 7.32812C7.94336 7.3375 7.94023 7.34062 7.93398 7.35625L7.92773 7.39375M8.07461 8.22812L8.10586 8.19687L8.12461 8.16562L8.14023 8.13437L8.16211 8.09375M8.12148 8.53125L8.07461 8.55313L8.04023 8.57187C8.02633 8.57961 8.01278 8.58795 7.99961 8.59688L7.96211 8.62813M8.43086 7.44375L8.40586 7.41875L8.37461 7.39375L8.34648 7.36875" stroke="#C7B37F" stroke-width="0.01875" stroke-linecap="round"/>
<path d="M8.44375 7.03125L8.40625 7.04688C8.39119 7.05234 8.37538 7.0555 8.35938 7.05625" stroke="#C7B37F" stroke-width="0.01875"/>
<path d="M7.91797 6.5126C7.92422 6.53135 7.92422 6.54385 7.93359 6.55947C7.93984 6.58135 7.94922 6.59385 7.96172 6.6126C7.98201 6.64655 8.00981 6.67541 8.04297 6.69697L8.08984 6.72197M8.05859 6.54072L8.09922 6.55947C8.12882 6.57218 8.16075 6.57857 8.19297 6.57822L8.24922 6.5751M8.47422 5.30322L8.41172 5.26572C8.38359 5.2501 8.37109 5.2376 8.34922 5.21885C8.33654 5.20639 8.32504 5.19279 8.31484 5.17822L8.28984 5.1376M8.52422 4.99385L8.54297 5.04697C8.55418 5.06997 8.56895 5.09106 8.58672 5.10947C8.61797 5.14072 8.63984 5.1501 8.67422 5.17822M8.71797 4.99072C8.72734 5.0126 8.72734 5.02197 8.73984 5.04072C8.74609 5.05635 8.75234 5.06572 8.76484 5.07822L8.80547 5.11885C8.82734 5.1376 8.84297 5.14072 8.86797 5.15322" stroke="#C7B37F" stroke-width="0.01875" stroke-linecap="round"/>
<path d="M10.9145 4.7374C10.9145 4.68428 10.8614 4.68115 10.8395 4.68115C10.7833 4.68115 10.7676 4.71553 10.6958 4.75303C10.6338 4.79436 10.5609 4.81613 10.4864 4.81553C10.412 4.81594 10.3391 4.79418 10.277 4.75303C10.2051 4.71553 10.1926 4.68115 10.1333 4.68115C10.1238 4.68155 10.1146 4.68381 10.106 4.6878C10.0974 4.69179 10.0897 4.69743 10.0833 4.70439C10.077 4.71136 10.072 4.71952 10.0688 4.7284C10.0656 4.73728 10.0641 4.74671 10.0645 4.75615V4.78428L10.0739 4.79053C10.0739 4.76553 10.077 4.75303 10.0895 4.7374C10.0956 4.72997 10.1033 4.7239 10.1119 4.71959C10.1205 4.71528 10.1299 4.71284 10.1395 4.7124C10.1958 4.7124 10.2176 4.7499 10.2895 4.7874C10.3833 4.8374 10.4208 4.84678 10.4989 4.8499C10.5744 4.85094 10.6485 4.82916 10.7114 4.7874C10.7833 4.7499 10.8051 4.70928 10.8614 4.70928C10.8801 4.70928 10.8926 4.72178 10.902 4.74053V4.76865L10.9083 4.77178C10.9083 4.7624 10.9145 4.75928 10.9145 4.74053V4.7374Z" fill="#703D29" stroke="#703D29" stroke-width="0.00625"/>
<path d="M8.76172 9.18764C8.77734 9.17202 8.78984 9.17827 8.79297 9.16889C8.79297 9.16264 8.79297 9.16264 8.78359 9.15952L8.75547 9.15327L8.73047 9.14077C8.72734 9.14077 8.71797 9.13452 8.71484 9.14077C8.71172 9.15327 8.74609 9.15327 8.73359 9.18452C8.7278 9.19853 8.71931 9.21128 8.70859 9.22202L8.62734 9.31577L8.62109 9.31889V9.18452L8.62422 9.12827C8.63047 9.11577 8.64922 9.12827 8.65234 9.11577C8.65234 9.11264 8.65234 9.10952 8.64297 9.10639C8.63672 9.10639 8.62734 9.10639 8.60859 9.09702L8.57734 9.08139C8.57109 9.08139 8.56172 9.07514 8.55859 9.08139L8.56172 9.09077C8.57422 9.09702 8.57734 9.10327 8.57734 9.12202V9.35327C8.57734 9.36889 8.58047 9.37202 8.58359 9.37514C8.58672 9.37514 8.58984 9.37514 8.59609 9.36577L8.76172 9.18764Z" fill="#703D29"/>
<path d="M8.85859 9.22532C8.86797 9.19094 8.88984 9.21281 8.88984 9.20031C8.89297 9.19406 8.88984 9.19407 8.88359 9.19094L8.84297 9.17844C8.83047 9.17844 8.81797 9.16906 8.80547 9.16594C8.80547 9.16594 8.79609 9.16281 8.79297 9.16594C8.78984 9.18156 8.82734 9.18156 8.81797 9.21281L8.76484 9.38469C8.75547 9.41594 8.73359 9.40344 8.73047 9.41594V9.41906L8.76797 9.43156L8.81797 9.44719H8.82734C8.83359 9.43469 8.78984 9.43782 8.80547 9.39407L8.85859 9.22532ZM8.97422 9.25657C8.98047 9.23782 8.98984 9.24094 9.00234 9.24406C9.03359 9.25344 9.04609 9.28469 9.03359 9.32219C9.02734 9.34094 9.02109 9.35969 8.97109 9.34719C8.96172 9.34407 8.94922 9.34094 8.95234 9.33157L8.97422 9.25969V9.25657ZM8.88672 9.41282C8.87109 9.45657 8.84922 9.43781 8.84609 9.45031C8.84609 9.45656 8.85234 9.45657 8.85547 9.45969L8.90547 9.47219L8.93047 9.48156H8.94297C8.94609 9.46594 8.91172 9.47219 8.92109 9.43469L8.93984 9.37219C8.94297 9.35969 8.94297 9.35657 8.95859 9.36282C8.97734 9.36594 8.98047 9.37219 8.98359 9.38781L8.99297 9.45031C8.99922 9.47844 9.00234 9.50344 9.02422 9.51281C9.03984 9.51281 9.06172 9.51282 9.06797 9.50032L9.06172 9.49406H9.05234C9.05234 9.49406 9.04297 9.49407 9.04297 9.48469L9.02109 9.37219C9.02109 9.36594 9.03359 9.36594 9.04609 9.36282C9.05388 9.35864 9.06069 9.35286 9.06607 9.34585C9.07146 9.33885 9.0753 9.33079 9.07734 9.32219C9.08047 9.30656 9.08984 9.25344 9.02109 9.23156L8.95547 9.21594L8.91797 9.20344H8.90859C8.90547 9.21907 8.94297 9.21594 8.93047 9.25657L8.88359 9.41282H8.88672ZM9.14922 9.49094C9.13672 9.53469 9.10547 9.50657 9.10234 9.52219C9.10234 9.52844 9.10547 9.53157 9.11172 9.53157L9.15859 9.54094L9.20234 9.55344C9.21172 9.55344 9.21797 9.55969 9.22109 9.55032C9.22109 9.54094 9.18047 9.54094 9.18984 9.49406L9.23047 9.33157C9.23047 9.31282 9.23672 9.31282 9.24922 9.31594L9.28047 9.32219C9.31484 9.33156 9.29609 9.36906 9.31172 9.37219C9.31797 9.37219 9.31797 9.35969 9.31797 9.35344L9.32109 9.32219V9.30969L9.21797 9.28782L9.11797 9.26281C9.11484 9.26281 9.11172 9.26282 9.11172 9.26907L9.09609 9.31594C9.09297 9.31907 9.08984 9.32844 9.09609 9.32844C9.11172 9.33157 9.11172 9.28156 9.14922 9.29094L9.17734 9.29719C9.18984 9.30032 9.19297 9.30344 9.18984 9.32219L9.14922 9.49094ZM9.54609 9.38781C9.55859 9.36906 9.57109 9.37219 9.57422 9.36594C9.57422 9.35969 9.56797 9.35969 9.56172 9.35656H9.53359L9.50547 9.34719C9.50234 9.34719 9.49297 9.34407 9.49297 9.35032C9.48984 9.36282 9.52422 9.35657 9.51797 9.39094C9.51797 9.39719 9.51484 9.40969 9.49922 9.43156L9.43672 9.53469L9.42734 9.54094V9.53469L9.40547 9.40969C9.40128 9.39125 9.40023 9.37223 9.40234 9.35344C9.40234 9.33781 9.42422 9.34719 9.42422 9.33781C9.42422 9.33156 9.42422 9.33157 9.41172 9.32844L9.37734 9.32531C9.36484 9.32531 9.35547 9.31907 9.34609 9.31594C9.33984 9.31594 9.33047 9.31282 9.32734 9.31907L9.33047 9.32531C9.34609 9.33156 9.34922 9.33781 9.35234 9.35344L9.39297 9.58157C9.39609 9.59719 9.39922 9.60344 9.40234 9.60344C9.40547 9.60344 9.40859 9.60344 9.41484 9.59407L9.54609 9.38781ZM9.56484 9.60032C9.56484 9.60969 9.56484 9.60969 9.57109 9.61594C9.58984 9.62219 9.60234 9.63469 9.62422 9.63781C9.66797 9.64406 9.70547 9.61594 9.71172 9.56907C9.72109 9.52219 9.70234 9.50344 9.66797 9.47844C9.62734 9.45031 9.61172 9.44406 9.61484 9.41594C9.61797 9.39406 9.63672 9.38469 9.65859 9.38469C9.71484 9.39406 9.70859 9.46594 9.71484 9.46594C9.72422 9.46594 9.72422 9.46282 9.72422 9.45344L9.73047 9.40344V9.39094H9.71172C9.69922 9.39094 9.68984 9.37531 9.66172 9.36906C9.62422 9.36281 9.58984 9.39094 9.58359 9.43156C9.57734 9.46906 9.59609 9.48782 9.62109 9.50657C9.67109 9.54094 9.68984 9.55032 9.68359 9.58157C9.68047 9.61282 9.65547 9.62531 9.63047 9.62219C9.59297 9.61594 9.58047 9.57844 9.57422 9.54094C9.57422 9.53469 9.57422 9.53157 9.56797 9.53157C9.56172 9.53157 9.56172 9.54094 9.56172 9.54719V9.60032H9.56484ZM10.0586 9.45969C10.068 9.43782 10.0836 9.44094 10.0836 9.43156C10.0836 9.42531 10.0805 9.42844 10.0711 9.42532H10.043L10.0148 9.42219C10.0117 9.42219 10.0023 9.42219 10.0023 9.42844C10.0023 9.44094 10.0336 9.42844 10.0336 9.46281C10.0336 9.46906 10.0305 9.48157 10.018 9.50657L9.96172 9.61594L9.95859 9.62532L9.95547 9.61594L9.92109 9.49094C9.91546 9.47484 9.9123 9.45798 9.91172 9.44094C9.91172 9.42532 9.93359 9.43157 9.93359 9.42219C9.93359 9.41594 9.93359 9.41594 9.92109 9.41594H9.88359L9.85234 9.40969C9.84609 9.40969 9.83672 9.40657 9.83359 9.41282L9.83984 9.41906C9.85234 9.42531 9.85859 9.42844 9.86172 9.44407L9.92734 9.66594L9.93984 9.68782C9.94297 9.68782 9.94609 9.68782 9.94922 9.67532L10.0586 9.45657V9.45969Z" fill="#703D29"/>
<path d="M10.1117 9.64082C10.1117 9.67832 10.0805 9.67207 10.0805 9.6877C10.0805 9.69395 10.0836 9.69082 10.0898 9.69082H10.1586L10.1711 9.6877C10.1711 9.66895 10.1273 9.69395 10.1273 9.6252V9.49395L10.1305 9.49082L10.1367 9.49395L10.2961 9.69082L10.3055 9.69395L10.3117 9.68457V9.4752C10.3117 9.43457 10.343 9.44395 10.343 9.43457C10.343 9.43457 10.343 9.42832 10.3336 9.42832H10.2617C10.2555 9.42832 10.2555 9.43145 10.2555 9.43457C10.2555 9.44707 10.2961 9.44082 10.2961 9.4752V9.6002L10.293 9.6127L10.2805 9.60332L10.1492 9.4377C10.143 9.42832 10.1461 9.42832 10.1367 9.42832H10.0805L10.0742 9.43145C10.0742 9.4502 10.1117 9.4252 10.1117 9.49707V9.64082ZM10.4367 9.46895C10.4367 9.43457 10.4617 9.44707 10.4617 9.43457C10.4617 9.43145 10.4617 9.42832 10.4492 9.42832H10.368C10.368 9.42832 10.3586 9.42832 10.3586 9.43457C10.3586 9.44707 10.393 9.43457 10.393 9.47207V9.6502C10.393 9.68457 10.368 9.6752 10.368 9.6877C10.368 9.6877 10.368 9.69395 10.3742 9.69395H10.4617C10.468 9.69395 10.4711 9.69395 10.4711 9.6877C10.4711 9.6752 10.4336 9.69395 10.4336 9.64707L10.4367 9.46895ZM10.5773 9.64082C10.5773 9.6877 10.5398 9.67207 10.5398 9.68457C10.5398 9.69082 10.5461 9.69082 10.5523 9.69082H10.6461C10.6555 9.69082 10.6617 9.69082 10.6617 9.68145C10.6617 9.67207 10.618 9.68145 10.618 9.6377V9.46895C10.618 9.4502 10.618 9.4502 10.6336 9.4502H10.6648C10.7023 9.44707 10.6898 9.4877 10.7055 9.4877C10.7117 9.4877 10.7086 9.4752 10.7086 9.46895L10.7055 9.4377C10.7055 9.43145 10.7055 9.4252 10.6992 9.4252L10.5961 9.42832H10.493L10.4867 9.4377L10.4836 9.4877L10.4867 9.5002C10.5023 9.5002 10.493 9.4502 10.5305 9.4502H10.5586C10.5711 9.4502 10.5742 9.4502 10.5773 9.46895V9.64395V9.64082ZM10.7742 9.57207H10.7617L10.7648 9.55645L10.7867 9.4877V9.48145L10.793 9.48457L10.8242 9.5502L10.8305 9.5627C10.8305 9.56895 10.8242 9.56895 10.818 9.56895H10.7742V9.57207ZM10.8305 9.5877C10.8398 9.5877 10.8398 9.5877 10.8555 9.61895L10.8617 9.64395C10.8617 9.66582 10.8398 9.6627 10.8398 9.6752C10.8398 9.67832 10.8461 9.67832 10.8523 9.6752H10.8898L10.9305 9.67207C10.9398 9.67207 10.943 9.67207 10.943 9.66582C10.943 9.65332 10.9242 9.66582 10.9117 9.64395L10.8055 9.4252L10.7961 9.4127C10.7898 9.4127 10.7898 9.41895 10.7867 9.4252L10.718 9.65645C10.7117 9.67832 10.693 9.67832 10.6961 9.6877H10.768C10.7742 9.68457 10.7836 9.6877 10.7836 9.67832C10.7836 9.66895 10.7461 9.67832 10.743 9.6502L10.7492 9.61895C10.7555 9.59395 10.7617 9.59395 10.768 9.59395L10.8336 9.5877H10.8305ZM11.0898 9.43145C11.0867 9.40645 11.0898 9.40645 11.1273 9.4002C11.1898 9.39395 11.1711 9.44082 11.1898 9.4377C11.1961 9.4377 11.1898 9.4252 11.1898 9.41895L11.1867 9.38457C11.1867 9.38145 11.1836 9.37832 11.1773 9.37832C11.1461 9.37832 11.1242 9.38457 11.1023 9.3877L11.0148 9.4002C11.0086 9.4002 11.0055 9.4002 11.0055 9.40645C11.0086 9.42207 11.0461 9.40645 11.0492 9.4377L11.0711 9.60957C11.0773 9.65645 11.0492 9.64082 11.0523 9.65645C11.0523 9.65645 11.0523 9.65957 11.0586 9.65645L11.1023 9.65332L11.1398 9.6502C11.1492 9.6502 11.1555 9.6502 11.1555 9.64082C11.1555 9.63145 11.118 9.64395 11.1117 9.60332L11.1055 9.5502C11.1023 9.52832 11.1023 9.52207 11.1148 9.51895H11.1398C11.1742 9.5127 11.1711 9.55332 11.1805 9.5502C11.1898 9.5502 11.1867 9.5377 11.1836 9.53457L11.1742 9.46895C11.1742 9.45957 11.168 9.45957 11.168 9.45957C11.1586 9.45957 11.1648 9.49395 11.1367 9.49707L11.1148 9.5002C11.0992 9.50332 11.0992 9.5002 11.0961 9.48457L11.0898 9.43145ZM11.2148 9.51895C11.2273 9.59082 11.2805 9.63457 11.3461 9.62207C11.4523 9.6002 11.4555 9.50957 11.4461 9.45645C11.4305 9.37832 11.3742 9.34082 11.3086 9.35332C11.2305 9.36895 11.1992 9.4377 11.2148 9.51895ZM11.2492 9.4877C11.2398 9.4377 11.2492 9.38145 11.3023 9.37207C11.3461 9.3627 11.3961 9.39707 11.4086 9.47832C11.418 9.54082 11.4086 9.59082 11.3523 9.60332C11.293 9.61582 11.2586 9.54082 11.2492 9.49082V9.4877ZM11.5086 9.35957C11.5055 9.3377 11.5148 9.33457 11.5273 9.33145C11.5586 9.3252 11.5836 9.34707 11.593 9.38145C11.5992 9.40332 11.6023 9.4252 11.5523 9.4377C11.543 9.4377 11.5305 9.44082 11.5273 9.43145L11.5117 9.35957H11.5086ZM11.5086 9.5377C11.5211 9.58145 11.493 9.57832 11.493 9.5877C11.4961 9.59707 11.5023 9.59395 11.5055 9.59082C11.5242 9.59082 11.5367 9.58145 11.5555 9.57832L11.5867 9.57207C11.593 9.57207 11.593 9.56895 11.593 9.56582C11.593 9.55332 11.5617 9.5752 11.5523 9.53457L11.5367 9.47207C11.5367 9.45957 11.5305 9.45957 11.5492 9.45645C11.5648 9.4502 11.5711 9.45332 11.5836 9.46582L11.6242 9.51582C11.6398 9.53457 11.6555 9.55645 11.6805 9.5502C11.6961 9.54707 11.7117 9.53457 11.7117 9.52207L11.7055 9.51895L11.6961 9.52207C11.6961 9.52207 11.6867 9.5252 11.6836 9.52207L11.6086 9.43145L11.6242 9.4127C11.6305 9.4002 11.6367 9.38457 11.6305 9.3627C11.6273 9.34707 11.6086 9.29707 11.5367 9.3127L11.4711 9.33145L11.4336 9.3377C11.4273 9.3377 11.4242 9.34082 11.4273 9.34395C11.4273 9.35957 11.4617 9.3377 11.4711 9.3752L11.5086 9.5377ZM11.7805 9.4752C11.7898 9.51895 11.7492 9.5127 11.7523 9.5252C11.7523 9.53457 11.7617 9.53145 11.768 9.53145L11.8117 9.51582L11.8586 9.50645C11.868 9.50645 11.8742 9.50645 11.8711 9.49395C11.8711 9.48457 11.8305 9.50645 11.818 9.4627L11.7773 9.29707C11.7711 9.28145 11.7773 9.27832 11.7867 9.2752L11.818 9.26895C11.8523 9.25645 11.8523 9.3002 11.8648 9.29707C11.8742 9.29707 11.8648 9.28145 11.8648 9.2752L11.8523 9.24395C11.8523 9.24395 11.8523 9.23457 11.8461 9.2377L11.7461 9.26582L11.6461 9.2877V9.29707L11.6492 9.34707C11.6492 9.35332 11.6492 9.35957 11.6586 9.35957C11.6742 9.35645 11.6492 9.30957 11.6898 9.3002L11.7148 9.29395C11.7273 9.29082 11.7336 9.29395 11.7367 9.30957L11.7805 9.4752ZM11.9523 9.24707C11.943 9.21582 11.9711 9.21895 11.9648 9.20645H11.9555L11.9117 9.21895L11.8742 9.22832C11.8742 9.22832 11.8648 9.22832 11.8648 9.23457C11.868 9.24707 11.9023 9.22832 11.9117 9.25957L11.9617 9.43457C11.968 9.46582 11.943 9.46582 11.9461 9.4752C11.9461 9.47832 11.9461 9.48145 11.9523 9.47832L11.9867 9.46895L12.0367 9.45645C12.0461 9.45645 12.0461 9.45332 12.0461 9.44707C12.043 9.4377 12.0117 9.4627 11.9992 9.41895L11.9523 9.24707ZM12.0242 9.33145C12.0461 9.40332 12.1055 9.4377 12.1711 9.41582C12.2711 9.38145 12.2648 9.2877 12.2461 9.2377C12.2211 9.1627 12.1586 9.13457 12.0961 9.15332C12.0211 9.18145 11.9961 9.25332 12.0242 9.33145ZM12.0555 9.3002C12.0367 9.24707 12.0367 9.19082 12.0898 9.1752C12.1305 9.15957 12.1836 9.1877 12.2117 9.26582C12.2305 9.32207 12.2273 9.37832 12.1742 9.39707C12.118 9.41582 12.0742 9.3502 12.0555 9.29707V9.3002ZM12.293 9.12832C12.2867 9.10645 12.293 9.10332 12.3055 9.09707C12.3367 9.0877 12.368 9.10645 12.3805 9.14082C12.3867 9.15957 12.393 9.18145 12.3461 9.2002C12.3367 9.2002 12.3242 9.20645 12.3211 9.2002L12.293 9.12832ZM12.318 9.30332C12.3367 9.34707 12.3055 9.34707 12.3117 9.35645C12.3117 9.36582 12.318 9.35957 12.3242 9.35957L12.3711 9.3377L12.3992 9.33145C12.4055 9.32832 12.4055 9.3252 12.4055 9.32207C12.3992 9.30957 12.3742 9.33457 12.3617 9.29707L12.3367 9.2377C12.3305 9.2252 12.3305 9.22207 12.3461 9.21582C12.3617 9.20957 12.368 9.2127 12.3805 9.2252L12.4305 9.26895C12.4461 9.28457 12.4648 9.30332 12.493 9.29395C12.5023 9.2877 12.5211 9.27207 12.5148 9.2627L12.5086 9.25957L12.5023 9.26582H12.4867L12.3992 9.1877L12.4117 9.16582C12.4152 9.15794 12.4169 9.14943 12.4169 9.14082C12.4169 9.13222 12.4152 9.12371 12.4117 9.11582C12.4086 9.09707 12.3805 9.05332 12.3148 9.07832L12.2523 9.10645L12.2148 9.11895L12.2086 9.1252C12.2148 9.1377 12.243 9.1127 12.2586 9.1502L12.3211 9.30645L12.318 9.30332Z" fill="#703D29"/>
<path d="M8.75391 5.48584H10.3959V7.12584H8.75391V5.48584Z" fill="#D52B1E"/>
<path d="M9.52477 6.77579C9.52477 6.77579 9.52477 6.83579 9.50877 6.88179C9.48877 6.93579 9.48877 6.93579 9.47077 6.96179C9.45135 6.99351 9.42546 7.02077 9.39477 7.04179C9.35477 7.06579 9.31477 7.07779 9.27477 7.07379C9.16677 7.06579 9.11477 6.94579 9.09077 6.84979C9.06477 6.74779 8.99077 6.68979 8.94077 6.72979C8.91277 6.74979 8.91277 6.78579 8.93477 6.82179C8.95631 6.84777 8.98473 6.86718 9.01677 6.87779L8.95877 6.95179C8.95877 6.95179 8.83277 6.93579 8.80877 6.80379C8.79877 6.75379 8.82277 6.66179 8.90677 6.63379C9.01277 6.59779 9.07877 6.67379 9.11277 6.73779C9.15677 6.82579 9.17677 6.98579 9.30077 6.96179C9.36877 6.94779 9.40077 6.84979 9.40077 6.80379L9.44877 6.75179L9.52277 6.77579H9.52477Z" fill="white"/>
<path d="M9.62562 6.77579C9.62562 6.77579 9.62562 6.83579 9.64162 6.88179C9.66162 6.93579 9.66162 6.93579 9.67962 6.96179C9.69904 6.99351 9.72493 7.02077 9.75562 7.04179C9.79562 7.06579 9.83562 7.07779 9.87562 7.07379C9.98362 7.06579 10.0356 6.94579 10.0596 6.84979C10.0856 6.74779 10.1596 6.68979 10.2096 6.72979C10.2376 6.74979 10.2376 6.78579 10.2156 6.82179C10.1941 6.84777 10.1657 6.86718 10.1336 6.87779L10.1916 6.95179C10.1916 6.95179 10.3176 6.93579 10.3416 6.80379C10.3516 6.75379 10.3276 6.66179 10.2436 6.63379C10.1376 6.59779 10.0716 6.67379 10.0376 6.73779C9.99362 6.82579 9.97362 6.98579 9.84962 6.96179C9.78162 6.94779 9.74962 6.84979 9.74962 6.80379L9.70162 6.75179L9.62762 6.77579H9.62562Z" fill="white"/>
<path d="M9.72142 6.07968L9.93742 5.84568C9.93742 5.84568 9.96942 5.81968 9.96942 5.77768L9.92542 5.78568L9.91542 5.76169L9.91342 5.73968L9.97342 5.72568V5.69968L9.97942 5.67369L9.91542 5.67768L9.92142 5.64968L9.93142 5.62968L9.96942 5.62169H10.0074C10.0434 5.55369 10.1914 5.49369 10.2954 5.60169C10.3714 5.68169 10.3554 5.82568 10.2554 5.86568C10.2331 5.87562 10.2083 5.87882 10.1841 5.87492C10.16 5.87101 10.1375 5.86016 10.1194 5.84369L10.1594 5.76369C10.2134 5.79769 10.2594 5.75768 10.2554 5.71568C10.2514 5.66168 10.2154 5.62968 10.1694 5.62568C10.1234 5.62168 10.0894 5.64568 10.0694 5.68568C10.0574 5.71168 10.0634 5.72968 10.0594 5.75768C10.0554 5.78768 10.0594 5.80369 10.0494 5.83369C10.0397 5.86131 10.0232 5.88605 10.0014 5.90568L9.78142 6.14568L8.92142 7.07369L8.85742 7.01369L9.72142 6.07968Z" fill="#FEDF00"/>
<path d="M9.08989 6.16004C9.08989 6.16004 9.14389 6.42804 9.32789 6.83004C9.42189 6.79604 9.47589 6.77404 9.57589 6.77404C9.67389 6.77404 9.72789 6.79404 9.82189 6.83004C9.92429 6.61558 10.0041 6.39103 10.0599 6.16004L9.57589 5.54004L9.08789 6.16004H9.08989Z" fill="white"/>
<path d="M9.62141 5.74805L9.95741 6.18205C9.95741 6.18205 9.91341 6.39205 9.77741 6.70805C9.72341 6.69605 9.67741 6.68605 9.62141 6.68205V5.74805ZM9.52741 5.74805L9.19141 6.18205C9.19141 6.18205 9.23541 6.39205 9.37141 6.70805C9.42541 6.69605 9.47141 6.68605 9.52741 6.68205V5.74805Z" fill="#FEDF00"/>
<path d="M10.5723 5.48438H12.216V7.125H10.5723V5.48438Z" fill="#FEDF00"/>
<path d="M10.8027 5.48438H11.0465V7.125H10.8027V5.48438ZM11.2715 5.48438H11.5152V7.125H11.2715V5.48438ZM11.7402 5.48438H11.9871V7.125H11.7402V5.48438Z" fill="#D52B1E"/>
<path d="M8.76016 8.54648C8.76328 8.57773 8.77578 8.62773 8.80391 8.68086C8.83516 8.72773 8.82266 8.72461 8.88828 8.79961C8.92476 8.83639 8.96698 8.867 9.01328 8.89023C9.16096 8.95382 9.32156 8.98166 9.48203 8.97148C9.56641 8.96836 9.63203 8.95898 9.68828 8.94961C9.80221 8.93447 9.91714 8.9282 10.032 8.93086C10.0789 8.93086 10.1258 8.94023 10.1789 8.94961C10.2883 8.97148 10.3977 9.01211 10.3977 9.01211V7.30273H8.75391V8.46836L8.76016 8.54336V8.54648Z" fill="#FEDF00"/>
<path d="M8.95117 8.84668L9.0293 8.89355L9.13555 8.93105V7.2998H8.95117V8.84668ZM9.86367 8.92168V7.2998H9.68242V8.9498L9.86367 8.92793V8.92168ZM10.2293 7.2998H10.048V8.92793C10.1074 8.93418 10.1668 8.94668 10.2293 8.95918V7.30293V7.2998ZM9.49805 7.2998V8.96855C9.49805 8.96855 9.3793 8.9748 9.3168 8.96855V7.2998H9.49805Z" fill="#D52B1E" stroke="#D52B1E" stroke-width="0.009375"/>
<path d="M12.2103 8.5478C12.2031 8.59396 12.1882 8.63859 12.1663 8.6798C12.1363 8.7258 12.1463 8.7258 12.0803 8.7998C12.0087 8.87034 11.9185 8.91892 11.8203 8.9398C11.7121 8.96833 11.5999 8.97914 11.4883 8.9718C11.4023 8.9678 11.3383 8.9578 11.2823 8.9518C11.2063 8.9398 11.1483 8.9338 11.0623 8.9318C11.021 8.92977 10.9796 8.92977 10.9383 8.9318C10.8135 8.94592 10.6907 8.9741 10.5723 9.0158V7.2998H12.2163V8.4698L12.2103 8.5458V8.5478Z" fill="#FEDF00"/>
<path d="M10.992 7.43955L10.98 7.44355L10.964 7.45955C10.956 7.46755 10.95 7.46955 10.94 7.47555L10.928 7.48555C10.922 7.49155 10.928 7.49755 10.922 7.50555C10.92 7.51355 10.916 7.51755 10.91 7.52555C10.902 7.53355 10.896 7.53555 10.89 7.54555L10.866 7.56555L10.86 7.56755H10.848C10.84 7.57155 10.838 7.57955 10.832 7.58355L10.838 7.59555L10.854 7.62355C10.858 7.62955 10.858 7.63755 10.864 7.63955C10.874 7.64355 10.882 7.64355 10.89 7.64155C10.906 7.64555 10.916 7.64555 10.93 7.65155L10.96 7.66755C10.97 7.67355 10.976 7.67555 10.986 7.67755H11.022V7.68355L11.062 7.70355C11.061 7.70612 11.0604 7.70881 11.06 7.71155C11.058 7.71755 11.056 7.72555 11.058 7.72755C11.07 7.76555 11.082 7.78755 11.088 7.79155C11.1 7.79555 11.104 7.80955 11.11 7.82155L11.104 7.82755C11.092 7.83955 11.08 7.84755 11.07 7.86355C11.056 7.88755 11.046 7.88755 11.064 7.91955L11.094 7.96755C11.102 7.98155 11.106 7.99155 11.11 8.00755C11.114 8.02155 11.116 8.03155 11.116 8.04755L11.136 8.05355L11.15 8.04155L11.162 8.01755V7.99755C11.158 7.99555 11.156 7.98955 11.158 7.98355C11.158 7.97555 11.168 7.97755 11.172 7.97155C11.178 7.96155 11.164 7.95555 11.158 7.94955C11.146 7.93555 11.13 7.93155 11.126 7.91155C11.126 7.90755 11.126 7.90355 11.134 7.89755L11.174 7.86155C11.178 7.86355 11.186 7.86555 11.194 7.86355L11.22 7.87155C11.232 7.87555 11.238 7.87155 11.244 7.87155H11.252L11.254 7.88355C11.256 7.90355 11.252 7.94355 11.258 7.95355L11.264 7.96555L11.268 7.97755V8.01755L11.264 8.05155C11.264 8.05955 11.26 8.06555 11.254 8.07155C11.25 8.07955 11.242 8.07955 11.234 8.08555V8.10555L11.256 8.11555L11.282 8.12155L11.296 8.11555L11.298 8.10355L11.308 8.09355C11.316 8.08955 11.324 8.09355 11.326 8.09155C11.33 8.08555 11.326 8.08355 11.326 8.07555C11.326 8.06355 11.322 8.05555 11.32 8.04355C11.3171 8.02503 11.3165 8.00623 11.318 7.98755C11.318 7.97555 11.318 7.96755 11.322 7.95755C11.324 7.93755 11.33 7.92955 11.334 7.91355C11.34 7.89355 11.34 7.88155 11.342 7.86355C11.4095 7.8737 11.4783 7.86962 11.544 7.85155C11.56 7.86555 11.578 7.87555 11.598 7.88355V7.90355C11.598 7.90955 11.598 7.91155 11.602 7.91755L11.608 7.92355C11.614 7.92355 11.618 7.92355 11.622 7.91955C11.626 7.91555 11.626 7.91155 11.626 7.90555V7.89155H11.662V7.91355C11.664 7.91955 11.668 7.92155 11.672 7.92155C11.6739 7.92244 11.676 7.9229 11.678 7.9229C11.6801 7.9229 11.6822 7.92244 11.684 7.92155C11.69 7.91755 11.688 7.90955 11.69 7.90155V7.88755L11.71 7.87955C11.7106 7.88554 11.7106 7.89156 11.71 7.89755L11.704 7.91555C11.7 7.92755 11.694 7.93155 11.688 7.94355C11.68 7.95555 11.678 7.96355 11.668 7.97355L11.656 7.98755L11.644 8.00555L11.626 8.02555C11.612 8.03755 11.602 8.02955 11.586 8.04355L11.58 8.06355L11.608 8.07555L11.634 8.07955L11.642 8.07555C11.642 8.06955 11.642 8.06355 11.648 8.05955C11.652 8.05355 11.656 8.05355 11.662 8.05155C11.67 8.05155 11.678 8.05155 11.682 8.04755C11.69 8.04155 11.69 8.02755 11.696 8.01755C11.7108 7.98788 11.7311 7.96139 11.756 7.93955L11.79 7.91155C11.794 7.90355 11.8 7.90155 11.8 7.89155L11.796 7.87955L11.792 7.85955C11.822 7.87355 11.812 7.87355 11.816 7.88755C11.822 7.89955 11.816 7.90755 11.818 7.92155C11.82 7.93755 11.828 7.94355 11.828 7.95955C11.83 7.97755 11.826 7.98755 11.822 8.00555C11.82 8.02155 11.82 8.03155 11.812 8.04555C11.8073 8.05721 11.7997 8.06752 11.79 8.07555L11.778 8.08555L11.776 8.10555L11.798 8.11355L11.83 8.12155L11.838 8.11555C11.842 8.10155 11.838 8.08155 11.846 8.08155C11.854 8.07955 11.86 8.08155 11.862 8.07555V8.06155L11.876 7.97155L11.884 7.93355L11.892 7.89955C11.906 7.85955 11.888 7.85355 11.872 7.82755C11.862 7.81355 11.858 7.80755 11.858 7.79755V7.73955C11.8574 7.72089 11.8574 7.70221 11.858 7.68355L11.866 7.67955C11.89 7.66555 11.9 7.66155 11.914 7.62955C11.9183 7.62013 11.9203 7.60987 11.92 7.59955V7.57955L11.912 7.55955C11.9089 7.55362 11.9048 7.54822 11.9 7.54355C11.886 7.52355 11.866 7.52155 11.846 7.51355C11.816 7.50355 11.796 7.50555 11.766 7.50355C11.73 7.49955 11.712 7.49955 11.678 7.50355C11.638 7.50355 11.616 7.51155 11.576 7.51755L11.478 7.52555C11.432 7.52555 11.39 7.51555 11.362 7.51755C11.314 7.52155 11.312 7.53355 11.238 7.53955C11.2127 7.5416 11.1874 7.54293 11.162 7.54355L11.118 7.52955C11.136 7.52355 11.14 7.51955 11.148 7.50955C11.154 7.50155 11.152 7.49555 11.16 7.48755L11.174 7.46755C11.1687 7.46355 11.1626 7.46082 11.156 7.45955H11.136C11.1277 7.45986 11.1195 7.4619 11.112 7.46555L11.096 7.47755L11.052 7.45355C11.0333 7.44401 11.0129 7.43791 10.992 7.43555V7.43955Z" fill="#D52B1E"/>
<path d="M11.8746 7.68948L11.8586 7.69548C11.8406 7.70348 11.8266 7.70348 11.8066 7.70548C11.7546 7.70948 11.7206 7.68348 11.6666 7.68748C11.6386 7.68948 11.6266 7.71148 11.5966 7.71948C11.5854 7.72185 11.574 7.72319 11.5626 7.72348L11.5726 7.70348C11.5726 7.70348 11.5486 7.70948 11.5326 7.70948C11.5218 7.7093 11.5111 7.70796 11.5006 7.70548L11.5206 7.68548L11.4946 7.68148C11.4873 7.67786 11.4805 7.67314 11.4746 7.66748C11.486 7.66595 11.4974 7.66395 11.5086 7.66148C11.5386 7.65348 11.5486 7.63748 11.5866 7.63348C11.6086 7.63348 11.6466 7.63348 11.7386 7.64948C11.7986 7.65948 11.8266 7.65348 11.8486 7.64348C11.8646 7.63748 11.8686 7.62348 11.8706 7.60748C11.8726 7.59148 11.8626 7.57948 11.8546 7.57148C11.8526 7.57148 11.8446 7.56548 11.8326 7.56348" stroke="#FEDF00" stroke-width="0.02" stroke-linecap="round"/>
<path d="M10.9952 7.51172C10.9852 7.51172 10.9772 7.51172 10.9692 7.51772C10.9592 7.52372 10.9572 7.53172 10.9492 7.53972C10.9592 7.54172 10.9652 7.54772 10.9732 7.54572C10.9812 7.54572 10.9832 7.54172 10.9892 7.53572C10.9952 7.52772 10.9972 7.52172 10.9972 7.51172H10.9952Z" fill="#FCD900" stroke="#FEDF00" stroke-width="0.01"/>
<path d="M11.2188 7.77591C11.224 7.79182 11.2307 7.80722 11.2388 7.82191C11.2428 7.83791 11.2388 7.84591 11.2428 7.86191V7.89391M11.3788 7.75391L11.3728 7.77991L11.3528 7.84991V7.86391M11.1328 7.78391C11.1508 7.78791 11.1448 7.84991 11.1708 7.86391" stroke="#FEDF00" stroke-width="0.02" stroke-linecap="round"/>
<path d="M11.7012 7.89552L11.7092 7.88952C11.7294 7.88123 11.7478 7.86899 11.7632 7.85352" stroke="#FEDF00" stroke-width="0.02"/>
<path d="M11.5469 7.8597C11.6169 7.8417 11.6649 7.8077 11.6989 7.8017M11.6189 7.7717H11.6349C11.6649 7.7657 11.6689 7.7837 11.6889 7.7957C11.7269 7.8157 11.7309 7.8417 11.7749 7.8637L11.7829 7.8657L11.7989 7.8737" stroke="#FEDF00" stroke-width="0.02" stroke-linecap="round"/>
<path d="M10.8535 7.58994H10.8675L10.8835 7.58594C10.8895 7.58594 10.8935 7.58594 10.8975 7.58994C10.9015 7.58994 10.9015 7.59194 10.9035 7.59594C10.9035 7.59994 10.9075 7.60194 10.9055 7.60594C10.9055 7.60994 10.8995 7.61394 10.8935 7.61394C10.8895 7.61394 10.8855 7.61394 10.8835 7.60794C10.883 7.60668 10.8827 7.60531 10.8827 7.60394C10.8827 7.60256 10.883 7.6012 10.8835 7.59994C10.8807 7.60134 10.8776 7.60208 10.8745 7.60208C10.8714 7.60208 10.8683 7.60134 10.8655 7.59994C10.8629 7.59916 10.8606 7.59788 10.8585 7.59616C10.8564 7.59444 10.8547 7.59232 10.8535 7.58994Z" fill="#FCD900" stroke="#FEDF00" stroke-width="0.01"/>
<path d="M11.0023 7.78361L10.9623 7.76561C10.9703 7.76161 10.9763 7.76161 10.9823 7.75561C10.9883 7.74761 10.9883 7.73961 10.9923 7.72961C10.9963 7.71961 10.9963 7.70961 11.0063 7.70161C11.0123 7.69761 11.0223 7.69761 11.0283 7.69961C11.0363 7.69961 11.0443 7.70761 11.0463 7.71361C11.0463 7.72561 11.0423 7.73361 11.0403 7.74361C11.0403 7.75561 11.0343 7.76161 11.0363 7.77161C11.0363 7.77961 11.0403 7.78361 11.0443 7.79161L11.0043 7.78361H11.0023ZM10.9823 7.80361C10.982 7.80128 10.9823 7.79889 10.9833 7.79675C10.9843 7.79461 10.9859 7.79281 10.9879 7.79158C10.9899 7.79034 10.9923 7.78973 10.9946 7.78981C10.997 7.78989 10.9993 7.79066 11.0012 7.79204C11.0031 7.79341 11.0046 7.79531 11.0054 7.79752C11.0063 7.79972 11.0064 7.80212 11.0059 7.80443C11.0054 7.80673 11.0042 7.80883 11.0025 7.81046C11.0008 7.81209 10.9987 7.81319 10.9963 7.81361C10.9946 7.8139 10.9928 7.81381 10.9911 7.81334C10.9894 7.81287 10.9879 7.81203 10.9865 7.81089C10.9852 7.80974 10.9841 7.80832 10.9834 7.80672C10.9827 7.80511 10.9823 7.80337 10.9823 7.80161V7.80361ZM10.9483 7.47161H10.9443C10.9363 7.46361 10.9363 7.45561 10.9323 7.44761C10.9291 7.43997 10.9271 7.43187 10.9263 7.42361V7.38361C10.9263 7.37761 10.9263 7.37161 10.9223 7.36561C10.9223 7.36161 10.9143 7.35961 10.9163 7.35761C10.9163 7.35561 10.9223 7.35761 10.9243 7.35761C10.9323 7.35761 10.9363 7.35961 10.9443 7.36561C10.9503 7.37161 10.9543 7.37761 10.9563 7.38561L10.9643 7.41561L10.9703 7.43161L10.9803 7.44361L10.9663 7.45961L10.9483 7.47161ZM11.0203 7.68361L11.0643 7.70361C11.0945 7.68548 11.1187 7.65911 11.1343 7.62761C11.1523 7.59161 11.1543 7.57361 11.1623 7.53961L11.1263 7.52961H11.1183C11.1083 7.56561 11.1043 7.58361 11.0863 7.61361C11.0703 7.63961 11.0523 7.65961 11.0343 7.67361L11.0203 7.68361ZM11.1203 8.04761L11.1363 8.02161L11.1643 7.99961H11.1723C11.1721 8.0187 11.1687 8.03762 11.1623 8.05561L11.1543 8.07561L11.1443 8.08561C11.1343 8.06961 11.1183 8.05961 11.1183 8.04561L11.1203 8.04761ZM11.7803 8.08361L11.8083 8.09561L11.8383 8.11361V8.12361L11.8083 8.12761C11.7997 8.12828 11.791 8.12828 11.7823 8.12761H11.7623L11.7503 8.11961C11.7603 8.10561 11.7663 8.08761 11.7783 8.08361H11.7803ZM11.5843 8.04361L11.6123 8.05361L11.6423 8.07361C11.6423 8.07561 11.6443 8.07961 11.6423 8.08161C11.6247 8.08633 11.6065 8.08835 11.5883 8.08761L11.5683 8.08561L11.5543 8.07961C11.5663 8.06561 11.5723 8.04561 11.5843 8.04361ZM11.2363 8.08561L11.2663 8.09561L11.2963 8.11561V8.12561C11.278 8.12986 11.2591 8.13121 11.2403 8.12961H11.2203L11.2083 8.12161C11.2183 8.10761 11.2243 8.08961 11.2363 8.08561ZM11.0563 7.48961C11.0443 7.48361 11.0363 7.46961 11.0443 7.45761C11.0463 7.45361 11.0523 7.45361 11.0563 7.44961C11.0603 7.44361 11.0583 7.43961 11.0563 7.43361L11.0543 7.41361L11.0503 7.39361C11.0503 7.38161 11.0503 7.37361 11.0583 7.36161C11.0623 7.35561 11.0723 7.34961 11.0743 7.34961C11.0783 7.35161 11.0743 7.35961 11.0743 7.36561C11.0743 7.37561 11.0763 7.37961 11.0803 7.38961L11.0943 7.41561C11.0983 7.42761 11.1023 7.43161 11.1023 7.44361C11.1023 7.45361 11.1023 7.45761 11.0983 7.46761C11.0958 7.47387 11.0916 7.47938 11.0863 7.48361C11.0817 7.48745 11.0762 7.49018 11.0703 7.49161C11.0664 7.49272 11.0623 7.49272 11.0583 7.49161L11.0563 7.48961Z" fill="#0065BD"/>
<path d="M10.992 8.17197L10.98 8.17597L10.964 8.19197C10.956 8.19997 10.95 8.20197 10.94 8.20797L10.928 8.21797C10.922 8.22397 10.928 8.22997 10.922 8.23797C10.92 8.24597 10.916 8.24997 10.91 8.25797C10.902 8.26597 10.896 8.26797 10.89 8.27797L10.866 8.29797L10.86 8.29997H10.848C10.84 8.30397 10.838 8.31197 10.832 8.31597L10.838 8.32797L10.854 8.35597C10.858 8.36197 10.858 8.36997 10.864 8.37197C10.874 8.37597 10.882 8.37597 10.89 8.37397C10.906 8.37797 10.916 8.37797 10.93 8.38397L10.96 8.39997C10.97 8.40597 10.976 8.40797 10.986 8.40997H11.022V8.41597L11.062 8.43597C11.061 8.43854 11.0604 8.44123 11.06 8.44397C11.058 8.44997 11.056 8.45797 11.058 8.45997C11.07 8.49797 11.082 8.51997 11.088 8.52397C11.1 8.52797 11.104 8.54197 11.11 8.55397L11.104 8.55997C11.092 8.57197 11.08 8.57997 11.07 8.59597C11.056 8.61997 11.046 8.61997 11.064 8.65197L11.094 8.69997C11.102 8.71397 11.106 8.72397 11.11 8.73997C11.114 8.75397 11.116 8.76397 11.116 8.77997L11.136 8.78597L11.15 8.77397L11.162 8.74997V8.72997C11.158 8.72797 11.156 8.72197 11.158 8.71597C11.158 8.70797 11.168 8.70997 11.172 8.70397C11.178 8.69397 11.164 8.68797 11.158 8.68197C11.146 8.66797 11.13 8.66397 11.126 8.64397C11.126 8.63997 11.126 8.63597 11.134 8.62997L11.174 8.59397C11.178 8.59597 11.186 8.59797 11.194 8.59597L11.22 8.60397C11.232 8.60797 11.238 8.60397 11.244 8.60397H11.252L11.254 8.61597C11.256 8.63597 11.252 8.67597 11.258 8.68597L11.264 8.69797L11.268 8.70997V8.74997L11.264 8.78397C11.264 8.79197 11.26 8.79797 11.254 8.80397C11.25 8.81197 11.242 8.81197 11.234 8.81797V8.83797L11.256 8.84797L11.282 8.85397L11.296 8.84797L11.298 8.83597L11.308 8.82597C11.316 8.82197 11.324 8.82597 11.326 8.82397C11.33 8.81797 11.326 8.81597 11.326 8.80797C11.326 8.79597 11.322 8.78797 11.32 8.77597C11.3171 8.75745 11.3165 8.73865 11.318 8.71997C11.318 8.70797 11.318 8.69997 11.322 8.68997C11.324 8.66997 11.33 8.66197 11.334 8.64597C11.34 8.62597 11.34 8.61397 11.342 8.59597C11.4095 8.60613 11.4783 8.60204 11.544 8.58397C11.56 8.59797 11.578 8.60797 11.598 8.61597V8.63597C11.598 8.64197 11.598 8.64397 11.602 8.64997L11.608 8.65597C11.614 8.65597 11.618 8.65597 11.622 8.65197C11.626 8.64797 11.626 8.64397 11.626 8.63797V8.62397H11.662V8.64597C11.664 8.65197 11.668 8.65397 11.672 8.65397C11.6739 8.65486 11.676 8.65532 11.678 8.65532C11.6801 8.65532 11.6822 8.65486 11.684 8.65397C11.69 8.64997 11.688 8.64197 11.69 8.63397V8.61997L11.71 8.61197C11.7106 8.61796 11.7106 8.62398 11.71 8.62997L11.704 8.64797C11.7 8.65997 11.694 8.66397 11.688 8.67597C11.68 8.68797 11.678 8.69597 11.668 8.70597L11.656 8.71997L11.644 8.73797L11.626 8.75797C11.612 8.76997 11.602 8.76197 11.586 8.77597L11.58 8.79597L11.608 8.80797L11.634 8.81197L11.642 8.80797C11.642 8.80197 11.642 8.79597 11.648 8.79197C11.652 8.78597 11.656 8.78597 11.662 8.78397C11.67 8.78397 11.678 8.78397 11.682 8.77997C11.69 8.77397 11.69 8.75997 11.696 8.74997C11.7108 8.72031 11.7311 8.69381 11.756 8.67197L11.79 8.64397C11.794 8.63597 11.8 8.63397 11.8 8.62397L11.796 8.61197L11.792 8.59197C11.822 8.60597 11.812 8.60597 11.816 8.61997C11.822 8.63197 11.816 8.63997 11.818 8.65397C11.82 8.66997 11.828 8.67597 11.828 8.69197C11.83 8.70997 11.826 8.71997 11.822 8.73797C11.82 8.75397 11.82 8.76397 11.812 8.77797C11.8073 8.78964 11.7997 8.79995 11.79 8.80797L11.778 8.81797L11.776 8.83797L11.798 8.84597L11.83 8.85397L11.838 8.84797C11.842 8.83397 11.838 8.81397 11.846 8.81397C11.854 8.81197 11.86 8.81397 11.862 8.80797V8.79397L11.876 8.70397L11.884 8.66597L11.892 8.63197C11.906 8.59197 11.888 8.58597 11.872 8.55997C11.862 8.54597 11.858 8.53997 11.858 8.52997V8.47197C11.8574 8.45331 11.8574 8.43463 11.858 8.41597L11.866 8.41197C11.89 8.39797 11.9 8.39397 11.914 8.36197C11.9183 8.35255 11.9203 8.34229 11.92 8.33197V8.31197L11.912 8.29197C11.9089 8.28604 11.9048 8.28064 11.9 8.27597C11.886 8.25597 11.866 8.25397 11.846 8.24597C11.816 8.23597 11.796 8.23797 11.766 8.23597C11.73 8.23197 11.712 8.23197 11.678 8.23597C11.638 8.23597 11.616 8.24397 11.576 8.24997L11.478 8.25797C11.432 8.25797 11.39 8.24797 11.362 8.24997C11.314 8.25397 11.312 8.26597 11.238 8.27197C11.2127 8.27402 11.1874 8.27536 11.162 8.27597L11.118 8.26197C11.136 8.25597 11.14 8.25197 11.148 8.24197C11.154 8.23397 11.152 8.22797 11.16 8.21997L11.174 8.19997C11.1687 8.19598 11.1626 8.19324 11.156 8.19197H11.136C11.1277 8.19228 11.1195 8.19432 11.112 8.19797L11.096 8.20997L11.052 8.18597C11.0333 8.17643 11.0129 8.17033 10.992 8.16797V8.17197Z" fill="#D52B1E"/>
<path d="M11.8746 8.4219L11.8586 8.4279C11.8406 8.4359 11.8266 8.4359 11.8066 8.4379C11.7546 8.4419 11.7206 8.4159 11.6666 8.4199C11.6386 8.4219 11.6266 8.4439 11.5966 8.4519C11.5854 8.45427 11.574 8.45561 11.5626 8.4559L11.5726 8.4359C11.5726 8.4359 11.5486 8.4419 11.5326 8.4419C11.5218 8.44172 11.5111 8.44038 11.5006 8.4379L11.5206 8.4179L11.4946 8.4139C11.4873 8.41028 11.4805 8.40556 11.4746 8.3999C11.486 8.39838 11.4974 8.39637 11.5086 8.3939C11.5386 8.3859 11.5486 8.3699 11.5866 8.3659C11.6086 8.3659 11.6466 8.3659 11.7386 8.3819C11.7986 8.3919 11.8266 8.3859 11.8486 8.3759C11.8646 8.3699 11.8686 8.3559 11.8706 8.3399C11.8726 8.3239 11.8626 8.3119 11.8546 8.3039C11.8526 8.3039 11.8446 8.2979 11.8326 8.2959" stroke="#FEDF00" stroke-width="0.02" stroke-linecap="round"/>
<path d="M10.9952 8.24414C10.9852 8.24414 10.9772 8.24414 10.9692 8.25014C10.9592 8.25614 10.9572 8.26414 10.9492 8.27214C10.9592 8.27414 10.9652 8.28014 10.9732 8.27814C10.9812 8.27814 10.9832 8.27414 10.9892 8.26814C10.9952 8.26014 10.9972 8.25414 10.9972 8.24414H10.9952Z" fill="#FCD900" stroke="#FEDF00" stroke-width="0.01"/>
<path d="M11.2188 8.50833C11.224 8.52424 11.2307 8.53964 11.2388 8.55433C11.2428 8.57033 11.2388 8.57833 11.2428 8.59433V8.62633M11.3788 8.48633L11.3728 8.51233L11.3528 8.58233V8.59633M11.1328 8.51633C11.1508 8.52033 11.1448 8.58233 11.1708 8.59633" stroke="#FEDF00" stroke-width="0.02" stroke-linecap="round"/>
<path d="M11.7012 8.62794L11.7092 8.62194C11.7294 8.61365 11.7478 8.60141 11.7632 8.58594" stroke="#FEDF00" stroke-width="0.02"/>
<path d="M11.5469 8.59212C11.6169 8.57412 11.6649 8.54012 11.6989 8.53412M11.6189 8.50412H11.6349C11.6649 8.49812 11.6689 8.51612 11.6889 8.52812C11.7269 8.54812 11.7309 8.57412 11.7749 8.59612L11.7829 8.59812L11.7989 8.60612" stroke="#FEDF00" stroke-width="0.02" stroke-linecap="round"/>
<path d="M10.8535 8.32236H10.8675L10.8835 8.31836C10.8895 8.31836 10.8935 8.31836 10.8975 8.32236C10.9015 8.32236 10.9015 8.32436 10.9035 8.32836C10.9035 8.33236 10.9075 8.33436 10.9055 8.33836C10.9055 8.34236 10.8995 8.34636 10.8935 8.34636C10.8895 8.34636 10.8855 8.34636 10.8835 8.34036C10.883 8.3391 10.8827 8.33774 10.8827 8.33636C10.8827 8.33498 10.883 8.33362 10.8835 8.33236C10.8807 8.33377 10.8776 8.3345 10.8745 8.3345C10.8714 8.3345 10.8683 8.33377 10.8655 8.33236C10.8629 8.33158 10.8606 8.3303 10.8585 8.32858C10.8564 8.32686 10.8547 8.32475 10.8535 8.32236Z" fill="#FCD900" stroke="#FEDF00" stroke-width="0.01"/>
<path d="M11.0023 8.51603L10.9623 8.49803C10.9703 8.49403 10.9763 8.49403 10.9823 8.48803C10.9883 8.48003 10.9883 8.47203 10.9923 8.46203C10.9963 8.45203 10.9963 8.44203 11.0063 8.43403C11.0123 8.43003 11.0223 8.43003 11.0283 8.43203C11.0363 8.43203 11.0443 8.44003 11.0463 8.44603C11.0463 8.45803 11.0423 8.46603 11.0403 8.47603C11.0403 8.48803 11.0343 8.49403 11.0363 8.50403C11.0363 8.51203 11.0403 8.51603 11.0443 8.52403L11.0043 8.51603H11.0023ZM10.9823 8.53603C10.982 8.5337 10.9823 8.53131 10.9833 8.52917C10.9843 8.52703 10.9859 8.52523 10.9879 8.524C10.9899 8.52276 10.9923 8.52215 10.9946 8.52223C10.997 8.52231 10.9993 8.52309 11.0012 8.52446C11.0031 8.52583 11.0046 8.52774 11.0054 8.52994C11.0063 8.53214 11.0064 8.53455 11.0059 8.53685C11.0054 8.53915 11.0042 8.54125 11.0025 8.54288C11.0008 8.54452 10.9987 8.54561 10.9963 8.54603C10.9946 8.54632 10.9928 8.54623 10.9911 8.54576C10.9894 8.54529 10.9879 8.54446 10.9865 8.54331C10.9852 8.54217 10.9841 8.54074 10.9834 8.53914C10.9827 8.53753 10.9823 8.53579 10.9823 8.53403V8.53603ZM10.9483 8.20403H10.9443C10.9363 8.19603 10.9363 8.18803 10.9323 8.18003C10.9291 8.17239 10.9271 8.16429 10.9263 8.15603V8.11603C10.9263 8.11003 10.9263 8.10403 10.9223 8.09803C10.9223 8.09403 10.9143 8.09203 10.9163 8.09003C10.9163 8.08803 10.9223 8.09003 10.9243 8.09003C10.9323 8.09003 10.9363 8.09203 10.9443 8.09803C10.9503 8.10403 10.9543 8.11003 10.9563 8.11803L10.9643 8.14803L10.9703 8.16403L10.9803 8.17603L10.9663 8.19203L10.9483 8.20403ZM11.0203 8.41603L11.0643 8.43603C11.0945 8.4179 11.1187 8.39153 11.1343 8.36003C11.1523 8.32403 11.1543 8.30603 11.1623 8.27203L11.1263 8.26203H11.1183C11.1083 8.29803 11.1043 8.31603 11.0863 8.34603C11.0703 8.37203 11.0523 8.39203 11.0343 8.40603L11.0203 8.41603ZM11.1203 8.78003L11.1363 8.75403L11.1643 8.73203H11.1723C11.1721 8.75112 11.1687 8.77004 11.1623 8.78803L11.1543 8.80803L11.1443 8.81803C11.1343 8.80203 11.1183 8.79203 11.1183 8.77803L11.1203 8.78003ZM11.7803 8.81603L11.8083 8.82803L11.8383 8.84603V8.85603L11.8083 8.86003C11.7997 8.8607 11.791 8.8607 11.7823 8.86003H11.7623L11.7503 8.85203C11.7603 8.83803 11.7663 8.82003 11.7783 8.81603H11.7803ZM11.5843 8.77603L11.6123 8.78603L11.6423 8.80603C11.6423 8.80803 11.6443 8.81203 11.6423 8.81403C11.6247 8.81875 11.6065 8.82077 11.5883 8.82003L11.5683 8.81803L11.5543 8.81203C11.5663 8.79803 11.5723 8.77803 11.5843 8.77603ZM11.2363 8.81803L11.2663 8.82803L11.2963 8.84803V8.85803C11.278 8.86229 11.2591 8.86364 11.2403 8.86203H11.2203L11.2083 8.85403C11.2183 8.84003 11.2243 8.82203 11.2363 8.81803ZM11.0563 8.22203C11.0443 8.21603 11.0363 8.20203 11.0443 8.19003C11.0463 8.18603 11.0523 8.18603 11.0563 8.18203C11.0603 8.17603 11.0583 8.17203 11.0563 8.16603L11.0543 8.14603L11.0503 8.12603C11.0503 8.11403 11.0503 8.10603 11.0583 8.09403C11.0623 8.08803 11.0723 8.08203 11.0743 8.08203C11.0783 8.08403 11.0743 8.09203 11.0743 8.09803C11.0743 8.10803 11.0763 8.11203 11.0803 8.12203L11.0943 8.14803C11.0983 8.16003 11.1023 8.16403 11.1023 8.17603C11.1023 8.18603 11.1023 8.19003 11.0983 8.20003C11.0958 8.20629 11.0916 8.2118 11.0863 8.21603C11.0817 8.21987 11.0762 8.22261 11.0703 8.22403C11.0664 8.22514 11.0623 8.22514 11.0583 8.22403L11.0563 8.22203Z" fill="#0065BD"/>
<path d="M8.75391 5.48438H10.3977V7.125H8.75391V5.48438ZM10.5727 5.48438H12.2164V7.125H10.5727V5.48438ZM8.76016 8.54688C8.76328 8.57812 8.77578 8.62812 8.80391 8.68125C8.83516 8.72812 8.82266 8.725 8.88828 8.8C8.92476 8.83678 8.96698 8.86739 9.01328 8.89062C9.16096 8.95421 9.32156 8.98205 9.48203 8.97188C9.56641 8.96875 9.63203 8.95937 9.68828 8.95C9.80221 8.93486 9.91714 8.92859 10.032 8.93125C10.0789 8.93125 10.1258 8.94062 10.1789 8.95C10.2883 8.97187 10.3977 9.0125 10.3977 9.0125V7.30312H8.75391V8.46875L8.76016 8.54375V8.54688ZM12.2102 8.54688C12.2035 8.59388 12.1887 8.63936 12.1664 8.68125C12.1352 8.72812 12.1477 8.725 12.082 8.8C12.0455 8.83674 12.0033 8.86734 11.957 8.89062C11.9164 8.9125 11.8852 8.92188 11.8195 8.94063C11.7116 8.96912 11.5997 8.97968 11.4883 8.97188C11.4039 8.96875 11.3383 8.95625 11.2852 8.95C11.2105 8.93994 11.1354 8.93368 11.0602 8.93125C11.0196 8.92929 10.9789 8.92929 10.9383 8.93125C10.8914 8.93125 10.8445 8.94062 10.7914 8.95C10.682 8.97187 10.5727 9.0125 10.5727 9.0125V7.3H12.2195V8.47188L12.2133 8.54688H12.2102Z" stroke="#703D29" stroke-width="0.015625"/>
</g>
<defs>
<clipPath id="clip0_1_662">
<rect width="20" height="15" fill="white" transform="translate(0.5)"/>
</clipPath>
</defs>
</svg>
