<svg width="881" height="736" viewBox="0 0 881 736" fill="none" xmlns="http://www.w3.org/2000/svg">
<path d="M718.729 96.7573L723.532 99.0142L725.59 98.0467H735.882L741.028 100.627L741.371 103.53L745.488 104.82L744.115 108.045L741.028 111.916L738.627 120.624L739.999 125.461L741.371 127.074L747.203 125.461L751.32 127.397H754.751L761.612 129.654L767.787 137.395L769.16 139.975L771.218 151.263L773.963 159.649L780.138 167.712L780.824 171.905L785.284 176.743L789.058 182.871L791.802 183.515L795.919 181.259L801.065 175.775L805.868 174.163L810.671 167.712L819.248 162.874L826.795 168.035L832.627 170.938L834.686 165.132L834 161.907L835.715 158.681L841.204 156.424H843.949L847.722 159.004L852.525 159.972L857.672 159.326L860.073 161.262V166.745L856.985 171.582L853.212 175.13L851.153 179.968L845.664 179.645L838.803 182.871L838.117 189.966L839.146 194.482L842.577 197.707L843.262 202.545L840.861 206.415L836.058 208.35L837.43 214.156L836.744 218.993L837.774 226.089H842.919L845.664 229.314L844.978 247.698L846.35 254.148L848.752 257.052L848.065 261.244L847.38 272.855L849.438 275.435L855.613 278.338L856.642 284.144V289.626L860.416 293.175H863.847V298.335L867.62 301.882L868.307 305.431H865.562V308.978L869.336 316.074L868.992 324.459L864.19 325.749L860.759 329.62L857.672 334.458L854.241 334.135L854.927 339.618L850.124 354.131V356.066L853.898 360.904L851.839 366.71L848.409 366.387L848.752 369.936L852.868 368.645L857.672 369.29L859.044 367.355L863.504 366.71L869.679 370.257L872.081 373.806L878.598 378.321L881 383.804L879.285 387.997L872.766 386.384L870.022 387.674L872.081 392.835L871.737 397.027L868.307 397.672L863.504 397.027L858.015 401.219L859.73 403.477L854.241 407.348L852.525 414.443V417.991H848.409V422.829L853.555 426.377L854.584 434.118L853.212 439.6L840.861 461.21L840.175 467.338L838.459 468.305L837.774 481.851L839.146 484.754L840.175 492.817L836.058 494.752L832.971 499.59L835.715 506.04L832.627 507.008L829.883 505.718L826.452 512.491L824.394 518.942L827.481 520.554L828.511 526.359L832.627 528.294L836.058 531.52L839.489 530.229L841.89 526.682L839.146 517.974L846.007 517.007L847.38 518.296L843.606 521.521L845.321 526.359L847.722 527.327L848.065 535.068L847.036 538.615L844.292 540.55L843.949 543.453L844.292 549.259L849.781 556.355L850.467 559.902V570.868L847.38 571.513L846.693 577.963L850.81 582.156L851.839 588.929L850.124 592.477L846.35 590.864L847.722 596.67H845.321L838.459 601.508L834.686 602.797L831.942 600.54L826.109 601.508L821.306 600.217L819.934 598.605H816.503L809.299 596.992L805.868 593.767H802.438L796.948 597.638H792.145L783.225 594.412L776.364 589.252L768.817 586.994L766.758 584.736L763.671 583.124L758.524 584.414L748.233 581.189L746.174 578.608L742.743 579.254L735.196 578.931L730.736 575.061L729.707 573.126L724.904 567.642L719.758 565.707V562.482L717.356 561.192L712.897 555.387L696.772 547.969L695.4 556.032L689.225 568.933V574.738L687.852 581.833L689.225 585.059V591.51L686.48 595.057L683.736 602.153L679.962 604.733L676.531 605.701L674.473 612.151L675.502 615.699L678.933 617.634L681.334 622.149L680.648 624.407V631.18L677.561 636.663L681.334 640.21L679.962 642.145L673.101 642.791L670.699 649.887L670.013 656.336H675.159L677.217 659.239L675.845 665.69L674.13 667.625L663.151 672.463L656.976 679.558L653.545 677.946L649.429 681.493L645.312 684.074L641.881 691.491L642.91 696.007H630.56L622.327 690.202H618.896L615.465 684.397L605.173 683.751L604.143 690.847L600.027 697.298L600.37 699.877L597.968 700.845L594.538 706.005L586.99 710.198L587.676 711.811L577.041 716.004L568.807 714.713L564.004 714.069L561.946 710.843L558.172 712.134L555.428 708.586L554.056 703.748L547.88 700.2V695.04L545.479 694.072L541.362 696.975L533.815 695.684L528.668 698.265L526.953 703.426L527.639 707.941L521.464 711.166L516.661 705.038L513.23 704.07V709.554L510.486 710.843L502.595 717.294L502.938 721.809L498.479 724.39L494.705 726.325L492.646 724.067H489.216L487.843 720.519L485.099 718.906H480.639L478.237 724.067L473.091 723.744V729.872L474.121 734.065L465.201 736L464.515 733.42L466.916 730.518L465.887 727.937L461.77 725.357L456.624 718.262L454.566 713.101L451.821 713.746V717.617L448.733 719.552L444.274 718.584L433.982 712.134L432.266 708.908L426.434 707.296L425.405 708.263L418.544 707.296L412.712 708.263L403.106 716.971L397.273 716.004L395.215 721.487L393.499 723.422L390.069 722.132L387.667 725.68L382.178 726.969L378.748 729.872L374.631 720.197L373.258 712.456L369.828 716.326L368.799 713.746L372.572 706.005L372.229 703.426L374.631 700.845L376.346 693.428H372.572L373.945 688.589V685.364L371.2 681.493L368.799 673.753L368.455 666.335L367.083 664.4L362.623 660.529L358.85 659.562L356.791 661.497L353.017 669.56H349.587L349.244 666.657L344.441 662.464L344.098 657.304L338.609 653.112L335.864 647.951L332.433 645.049L330.718 641.501L324.543 642.468L319.397 640.21L315.28 639.565L311.849 641.178L304.988 645.694L307.389 651.499L305.674 657.95L304.645 664.4L302.586 668.271L294.696 668.593L290.922 666.657L285.776 667.625L283.375 662.143V654.724L284.404 650.208L284.061 646.661L285.09 642.145L282.688 640.856L266.221 639.243L258.674 636.986L249.754 630.535L245.98 628.923L238.089 627.955L229.856 628.923L227.454 629.89L218.877 627.632L213.388 627.955L211.673 625.374H207.9L205.155 623.439L203.439 619.569L202.753 637.953L201.724 640.856L198.294 641.823H189.717L181.483 638.921L181.826 634.082L177.366 633.115L173.936 636.663L164.673 626.019L162.271 619.569L161.242 606.99L162.958 603.443L161.242 591.51L157.811 567.32L159.527 560.869L163.987 561.514L168.103 559.257L173.593 553.129L175.651 553.774L177.709 550.227L180.797 550.871L183.884 558.934L189.374 556.355L190.06 551.194L194.176 547.001V543.453L190.746 539.583L186.972 538.292L183.199 537.648L180.797 540.228V544.743L173.593 543.453L170.162 540.228L170.848 535.39L174.965 532.487L176.68 528.94L178.396 517.974L169.133 522.812L162.614 524.424L158.84 523.779L151.979 520.877L142.373 517.328L139.629 514.749L138.942 508.298L142.373 503.46L145.461 494.43L144.089 484.754L141.344 474.11V461.21L143.745 458.63L155.753 450.889L161.928 444.439L165.359 443.148L172.22 437.665L174.622 432.183L177.366 427.022L179.425 417.346L175.994 420.571L174.965 427.99L171.191 436.053L168.446 439.278L159.184 440.567L155.067 447.986L151.636 449.921L145.461 451.534L144.432 454.437L141.001 459.274L138.6 465.724V475.401L136.541 480.561L137.913 482.496L135.855 487.334L133.11 489.914L121.446 496.365L120.417 489.914L122.475 485.076V483.141L114.241 481.851L110.468 485.399L108.409 485.076V489.914L111.154 494.43L104.293 497.977L98.4605 495.397L95.7159 496.042L93.3142 489.592L88.8547 487.979L91.5993 501.202V504.428L93.6576 507.653V511.523L89.1975 515.072L84.7375 514.103L83.3654 509.588L80.2779 513.135L77.1904 503.137V494.43L75.8179 490.882L71.0149 482.819L65.8691 482.173L63.4674 484.431L53.1752 495.074L44.9419 498.945L39.1098 508.298L35.6789 507.976L29.5034 511.2L26.073 511.846L20.2409 510.233L20.9267 504.751L19.2118 497.332L19.8975 490.882L22.2993 484.431L25.7302 467.66L30.5331 465.08L31.2189 457.984L29.1605 452.502L30.1897 447.986L28.1314 442.181L26.073 438.955L29.1605 432.504V427.345L33.2772 418.959L36.7081 417.024L35.336 411.219L32.5914 409.605L36.0218 405.412L39.7956 404.445L46.6568 400.252H52.8323L61.4091 401.542L64.1537 403.156L67.9274 408.961L71.3578 412.508L67.584 393.156L71.3578 386.706L73.0733 387.997L79.2488 387.674L83.7083 391.221L85.7672 388.319L77.8762 385.416L76.5042 381.223L73.7596 377.999V373.806L77.5333 367.355L82.6791 354.454L88.5113 347.358V340.908L83.7083 333.49L80.9637 328.007L80.2779 320.911L82.6791 319.944L79.2488 314.138L80.2779 311.558L85.7672 316.396L92.285 315.106H99.1468L104.293 317.364L109.096 327.039L112.869 329.62L114.928 336.07V338.651L120.417 342.521L124.191 340.263L126.249 336.715V333.49L129.68 331.877V328.974L127.278 325.427L124.534 318.009L123.504 308.655L126.935 306.075L127.964 302.85H131.738L132.767 299.624L130.366 295.754L132.767 293.819V290.272L136.198 287.368L135.169 286.079L127.621 282.854L125.22 283.498L121.103 276.403L116.3 273.178L112.869 272.533L108.753 269.953L107.38 264.147L108.066 257.374L104.636 238.668V233.83L96.7451 227.379L93.3142 219.316L89.8838 215.123L85.4238 211.898L79.2488 207.383L69.9858 202.222L72.7304 195.127V171.905L76.847 172.55L76.1608 181.259L74.7887 186.741L76.5042 188.676L76.1608 191.901L79.2488 195.772L80.6208 199.32L79.5917 205.77L84.3946 210.608H86.4529L89.1975 213.188L92.9713 212.221L89.1975 204.802L86.7963 204.157L82.3363 194.482L79.5917 188.031L80.9637 180.936L79.5917 179.001L83.7083 176.743L83.0226 172.228L78.5625 169.97L75.1316 164.809L74.1024 161.584L79.5917 159.004L81.65 154.488L84.0517 156.102L89.1975 153.521L92.9713 153.199L98.4605 139.008L102.921 136.427L104.979 131.267L108.409 128.042L114.241 124.817L110.811 123.849L109.096 114.173L106.008 107.723L113.556 97.402L120.417 100.305L121.789 101.272L126.249 97.7249L127.278 94.4994L130.023 94.1766L132.424 89.3389L135.855 90.9511L139.972 96.7573H143.06L144.089 92.8862L151.979 83.2108L154.037 79.0179L155.753 73.5355V67.0846L153.695 63.8592L154.724 60.6337H165.702L172.563 58.3768L182.855 57.4093L190.746 53.2163L196.578 51.9259L210.301 49.0233L212.702 46.7654L217.848 49.9908L221.279 51.6031L226.768 50.6356L236.374 54.1838L241.863 61.6013L246.666 70.3101L252.841 68.6968H256.272L259.36 71.9223L261.761 69.6644L263.134 64.8267L266.907 59.6662L272.053 51.2812L278.228 47.4111L282.002 42.5724L284.061 37.7348L290.922 30.3163L297.44 32.8971L300.185 30.962L305.674 34.8322L308.762 38.0576H313.221L325.229 33.22L327.974 26.1244L332.09 24.834L342.725 26.769L344.784 26.1244L348.214 20.9639L350.616 22.8989L357.82 25.8015H364.682L370.514 29.6717L374.631 33.8646L379.09 35.155L382.864 30.962L389.04 29.9945L393.843 24.1893L401.39 22.2532L406.193 24.5112L410.31 24.834L411.682 23.2218L413.397 18.0613L417.171 8.38495L419.573 6.12701L433.295 4.51483L439.471 0L452.164 2.90259H456.281L458.339 5.15948H463.143L479.61 12.9008L484.069 16.4481H486.128L491.617 19.6735L491.274 25.8015L487.843 32.8971H485.099L480.296 30.962L479.266 32.5743L480.639 36.7673L473.091 35.7997L470.347 38.3795L467.602 43.8628L468.975 49.9908L466.573 53.2163V59.0215L467.946 60.6337L472.749 61.9241V59.3444L477.208 56.1189L479.266 51.2812L483.727 54.5057V63.2145L487.843 66.7618L492.646 79.3407V85.1459L495.048 88.0485V90.3064L499.164 91.5968L501.566 95.1441V102.24L502.595 106.755V113.851L504.997 120.947L508.085 119.979L511.858 122.236L515.632 125.784L514.946 129.654L512.201 131.589L514.946 136.427L518.72 139.33L517.347 143.523L523.523 146.104L526.953 149.328V161.262L533.815 162.552L537.245 166.1V168.68L533.128 175.775L533.815 182.226L538.618 187.708L537.589 192.224L538.961 201.578L541.362 204.157L543.763 204.802L547.194 210.286L553.369 215.446L560.231 218.026L563.662 217.058V219.639L553.369 223.831L552.34 228.024L547.537 230.605L549.596 233.83H553.026L555.085 236.087L558.859 231.249L563.319 227.702H570.866L573.61 224.154L577.384 222.542L585.618 204.802L590.078 205.125L592.823 200.61L601.742 203.835L601.399 205.125L606.545 205.77L611.005 211.576L615.465 208.673L619.239 202.545H623.356L628.502 198.029L632.618 197.385L636.049 194.804L636.735 192.547L642.567 192.224L645.655 190.611L649.772 183.838L655.261 181.259L656.976 178.356V172.228L656.29 168.68L660.75 162.23L663.495 161.262L666.925 158.037L675.845 150.618L679.962 148.039L681.334 140.62L683.049 138.362L688.539 132.557L693.684 131.267L697.458 127.719L699.86 123.526L696.772 121.914V119.011L699.174 113.205L702.947 112.238L706.035 109.658L707.407 104.175L717.356 98.3695L718.729 96.7573ZM132.767 65.1495L136.198 66.4399L139.972 65.7943L140.658 74.8249L139.629 78.0504L142.716 82.5662L143.745 91.9186L141.687 96.1116L137.57 87.4038L134.139 86.7581L129.337 89.9836H125.906L126.935 84.1783L130.023 82.888L131.052 79.0179L124.877 77.7275L123.847 80.9529L119.044 83.5337L117.672 86.7581L124.191 89.9836L120.417 92.2415L121.103 95.7898L120.76 99.6599L116.986 97.402L113.556 97.0792L111.84 97.7249L108.066 101.595L105.322 99.9818V96.7573L112.183 93.5319L113.899 91.5968L118.701 80.6311L131.738 66.4399L132.767 65.1495ZM171.877 659.885L175.308 669.56L171.877 669.883L170.162 660.852L171.877 659.885ZM159.527 633.115L158.154 629.567L157.468 625.052L159.184 620.214L160.556 629.89L159.527 633.115ZM127.621 292.852L124.877 291.239L121.789 285.111L123.162 282.531L129.337 285.111V289.949L127.621 292.852ZM64.1537 486.366L69.9858 490.559L71.0149 496.042L66.8983 498.3L64.4966 496.042L63.4674 489.592L64.1537 486.366ZM69.6429 302.527L77.1904 297.689L75.8179 307.366L76.847 308.333V313.816L73.0733 314.783V320.266L70.6721 322.202L66.212 319.944L63.4674 317.041L62.4382 313.171L65.1828 305.753L69.6429 302.527ZM55.2336 150.941L56.949 152.876L63.4674 154.167L66.5549 157.069L55.577 154.167L55.2336 150.941ZM79.2488 106.433L84.3946 102.884L90.2267 103.853L84.3946 113.851L85.4238 121.914L88.8547 127.719L92.285 129.654L98.4605 128.364L97.7743 134.169L93.3142 145.136L89.5404 148.039L85.7672 153.199L81.3071 149.974L81.9934 145.781L80.2779 142.232L76.5042 144.168L72.7304 147.393L70.6721 141.588L67.584 143.523H64.84L66.212 147.393L61.0662 148.683L60.3799 142.555L62.0953 139.008L58.6644 135.46L63.8103 132.234L68.2703 125.784L67.584 121.914L64.1537 120.624L60.3799 122.236V126.752L57.6353 129.977L53.8615 132.557L60.037 140.297L57.9782 142.232L49.4014 139.008L47.6865 141.911L44.9419 130.945L46.314 126.752L49.0586 130.945L54.5478 130.622L57.9782 124.817L55.9198 114.496L56.949 110.626L59.0073 108.691L62.4382 107.723L64.84 109.98L68.6137 115.463L70.3287 116.108L77.1904 113.205L79.2488 106.433ZM44.2556 536.68L50.774 532.81L52.8323 535.068L47.3431 540.228L44.2556 536.68ZM36.3652 523.456L36.7081 518.942L40.139 515.716L44.9419 517.974L44.2556 527.005L41.511 531.842L37.3944 527.972L36.3652 523.456ZM14.0654 534.422L17.8392 535.068L20.2409 532.487L20.9267 528.617L23.6713 527.649V533.133L22.2993 536.357L24.0147 539.583L20.5838 540.55L3.43037 533.133L0 529.907H5.8321L7.54703 533.133L11.6642 535.39L14.0654 534.422ZM62.0953 512.491L60.037 507.653H64.1537L66.8983 509.588L67.584 514.103L65.1828 515.716L62.0953 512.491Z" fill="#CFF0D0"/>
</svg>
