<svg width="21" height="15" viewBox="0 0 21 15" fill="none" xmlns="http://www.w3.org/2000/svg">
<g clip-path="url(#clip0_1_524)">
<path fill-rule="evenodd" clip-rule="evenodd" d="M0.5 0H20.5V15H0.5V0Z" fill="black"/>
<path fill-rule="evenodd" clip-rule="evenodd" d="M14 0H20.6656V15H14V0Z" fill="#009900"/>
<path fill-rule="evenodd" clip-rule="evenodd" d="M7.16602 0H13.8348V15H7.16602V0Z" fill="#BF0000"/>
<path fill-rule="evenodd" clip-rule="evenodd" d="M11.1493 8.35742H11.4251C11.4251 8.46377 11.4916 8.57676 11.5747 8.6399H11.043C11.1261 8.56679 11.1493 8.47374 11.1493 8.35742Z" fill="white" stroke="#BD6B00" stroke-width="0.0166166"/>
<path fill-rule="evenodd" clip-rule="evenodd" d="M9.39453 6.78521L9.5474 6.95138L11.4417 6.95802L11.5946 6.79186L11.1094 6.78189L10.8767 6.61572H10.1124L9.89303 6.78521H9.39453Z" fill="white"/>
<path fill-rule="evenodd" clip-rule="evenodd" d="M10.1697 6.59271H10.8244C10.9108 6.54618 10.9407 6.39664 10.9407 6.31355C10.9407 6.06763 10.7646 5.94799 10.5918 5.94134C10.5652 5.94134 10.5353 5.9214 10.5286 5.89814C10.512 5.84497 10.5153 5.80841 10.4954 5.81173C10.4821 5.81173 10.4854 5.84497 10.4721 5.89149C10.4621 5.91808 10.4356 5.94134 10.4056 5.94467C10.193 5.95464 10.0534 6.11083 10.0567 6.31355C10.06 6.44649 10.0766 6.52625 10.1697 6.59271Z" fill="white" stroke="#BD6B00" stroke-width="0.0166166"/>
<path fill-rule="evenodd" clip-rule="evenodd" d="M9.09512 8.92245H11.8967L11.6474 8.71973H9.34105L9.0918 8.92245H9.09512Z" fill="white"/>
<path fill-rule="evenodd" clip-rule="evenodd" d="M10.3827 8.15475L10.4326 8.30762H10.5489L10.4558 8.15475H10.3827ZM10.3163 8.30762L10.3495 8.46049H10.4824L10.4326 8.30762H10.3163ZM10.5489 8.30762L10.6419 8.46049H10.838L10.6851 8.30762H10.5489ZM9.40234 8.65325C9.50537 8.55687 9.57183 8.47711 9.57183 8.36079H9.8244C9.8244 8.42726 9.84767 8.46382 9.88422 8.46049H10.1401V8.31094H9.95401V7.49009C9.94737 7.19763 10.3063 7.03147 10.4525 7.03147H9.57848V7.00488H11.4163V7.03147H10.5356C10.7981 7.03147 11.0507 7.28072 11.054 7.49009V7.72272H11.0208L11.0175 7.49341C11.0175 7.2641 10.7283 7.05141 10.4957 7.05806C10.2963 7.06138 9.98392 7.25413 9.98725 7.49009V7.5632L10.4625 7.56652L10.4592 7.64961L10.5323 7.69613L10.6818 7.74266V7.86894L10.7882 7.89885V8.02182L10.9145 8.07831V8.2046L10.9975 8.25445L10.9942 8.38406L11.1039 8.46049H10.8447L11.0075 8.64328H10.7649L10.6453 8.46049H10.4891L10.5589 8.63995H10.3927L10.3495 8.46049H10.1434V8.65325H9.40567H9.40234ZM10.1401 8.15475V8.30762H10.3163L10.283 8.15475H10.1368H10.1401Z" fill="white"/>
<path d="M10.4326 8.30762L10.3827 8.15475H10.4558L10.5489 8.30762M10.4326 8.30762H10.5489M10.4326 8.30762L10.4824 8.46049H10.3495M10.4326 8.30762H10.3163M10.5489 8.30762L10.6419 8.46049H10.838L10.6851 8.30762H10.5489ZM10.3163 8.30762L10.3495 8.46049M10.3163 8.30762H10.1401V8.15475H10.1368H10.283L10.3163 8.30762ZM10.3495 8.46049L10.3927 8.63995H10.5589L10.4891 8.46049H10.6453L10.7649 8.64328H11.0075L10.8447 8.46049H11.1039L10.9942 8.38406L10.9975 8.25445L10.9145 8.2046V8.07831L10.7882 8.02182V7.89885L10.6818 7.86894V7.74266L10.5323 7.69613L10.4592 7.64961L10.4625 7.56652L9.98725 7.5632V7.49009C9.98392 7.25413 10.2963 7.06138 10.4957 7.05806C10.7283 7.05141 11.0175 7.2641 11.0175 7.49341L11.0208 7.72272H11.054V7.49009C11.0507 7.28072 10.7981 7.03147 10.5356 7.03147H11.4163V7.00488H9.57848V7.03147H10.4525C10.3063 7.03147 9.94737 7.19763 9.95401 7.49009V8.31094H10.1401V8.46049H9.88422C9.84767 8.46382 9.8244 8.42726 9.8244 8.36079H9.57183C9.57183 8.47711 9.50537 8.55687 9.40234 8.65325H9.40567H10.1434V8.46049H10.3495Z" stroke="#BD6B00" stroke-width="0.0166166"/>
<path fill-rule="evenodd" clip-rule="evenodd" d="M10.1484 7.88867H10.2581V8.14124H10.1484V7.88867Z" stroke="#BD6B00" stroke-width="0.0166166"/>
<path fill-rule="evenodd" clip-rule="evenodd" d="M9.99414 8.15776H10.1005V7.97165C10.1005 7.89189 10.1736 7.80881 10.2068 7.80549C10.2467 7.80549 10.3032 7.88192 10.3065 7.965V8.15776H10.4195V7.6792H9.99414V8.15776ZM10.8449 8.26743H10.9778V8.37377H10.8449V8.26743ZM10.7651 8.09129H10.8981V8.19431H10.7651V8.09129ZM10.6355 7.91183H10.7685V8.01485H10.6355V7.91183ZM10.5259 7.76228H10.6588V7.8653H10.5259V7.76228Z" stroke="#BD6B00" stroke-width="0.0166166"/>
<path fill-rule="evenodd" clip-rule="evenodd" d="M10.4355 8.15785L10.5751 8.1645L10.8177 8.37719V8.2509L10.7346 8.19108V8.09138L10.615 8.02492V7.91525L10.4987 7.87537V7.73247L10.4422 7.68262L10.4389 8.16117L10.4355 8.15785Z" stroke="#BD6B00" stroke-width="0.0166166"/>
<path fill-rule="evenodd" clip-rule="evenodd" d="M11.0137 7.84229H11.0469V8.07824H11.0137V7.84229Z" fill="white" stroke="#BD6B00" stroke-width="0.0166166"/>
<path fill-rule="evenodd" clip-rule="evenodd" d="M9.08332 7.0513C9.04344 6.98483 8.99359 7.14435 8.8241 7.26067C8.74767 7.31384 8.69117 7.45674 8.69117 7.5498C8.69117 7.61626 8.69782 7.67941 8.69117 7.74255C8.68785 7.77911 8.64464 7.86883 8.67455 7.8921C8.74767 7.94527 8.84404 8.07156 8.88725 8.11476C8.92713 8.14799 8.96036 7.93862 8.98695 7.84889C9.02018 7.7492 9.00689 7.62623 9.09329 7.5365C9.15311 7.47004 9.30598 7.41022 9.29269 7.38363L9.08332 7.0513Z" fill="white" stroke="#BD6B00" stroke-width="0.0166166"/>
<path fill-rule="evenodd" clip-rule="evenodd" d="M9.07241 7.56337C9.05921 7.53201 9.04127 7.50287 9.01923 7.47696C8.99804 7.45069 8.97062 7.43013 8.93947 7.41714C8.90886 7.40806 8.88129 7.39083 8.85971 7.36729C8.847 7.35304 8.83788 7.33594 8.83313 7.31744C8.82934 7.29545 8.82934 7.27297 8.83313 7.25098L8.82316 7.26095C8.74672 7.31412 8.69022 7.45702 8.69022 7.55007C8.6892 7.57554 8.6892 7.60104 8.69022 7.62651C8.69687 7.64313 8.70019 7.65974 8.71016 7.66971L8.74672 7.6963L8.83645 7.71956C8.87005 7.73467 8.89964 7.75743 8.92286 7.78603C8.94704 7.81165 8.96721 7.84078 8.98268 7.87244L8.98932 7.84585C9.01591 7.75612 9.01259 7.64977 9.07573 7.56337H9.07241Z" fill="#BF0000" stroke="#BD6B00" stroke-width="0.0166166"/>
<path d="M8.83314 7.24756C8.81653 7.35723 8.87967 7.39711 8.93949 7.41705C8.99931 7.44031 9.04916 7.50345 9.07242 7.56327M8.68359 7.61312C8.71018 7.71282 8.77665 7.69953 8.83647 7.71947C8.89629 7.74273 8.95943 7.81917 8.98601 7.87899" stroke="#BD6B00" stroke-width="0.0166166"/>
<path fill-rule="evenodd" clip-rule="evenodd" d="M9.02539 6.98478L9.05862 6.96484L9.64685 7.95851L9.61362 7.97845L9.02539 6.98146V6.98478Z" fill="white" stroke="#BD6B00" stroke-width="0.0166166"/>
<path fill-rule="evenodd" clip-rule="evenodd" d="M9.08996 6.94528C9.08996 6.96291 9.08296 6.97981 9.0705 6.99228C9.05803 7.00474 9.04113 7.01175 9.0235 7.01175C9.00587 7.01175 8.98896 7.00474 8.9765 6.99228C8.96403 6.97981 8.95703 6.96291 8.95703 6.94528C8.95703 6.92765 8.96403 6.91075 8.9765 6.89828C8.98896 6.88582 9.00587 6.87881 9.0235 6.87881C9.04113 6.87881 9.05803 6.88582 9.0705 6.89828C9.08296 6.91075 9.08996 6.92765 9.08996 6.94528ZM9.59511 6.14769H9.83439V6.20086H9.59511V6.14769ZM9.59511 6.25071H9.83439V6.70933H9.59511V6.25071ZM9.58181 6.08454H9.84768C9.85433 5.99481 9.7646 5.89844 9.71475 5.89844C9.66157 5.90176 9.57849 5.99814 9.58181 6.08454Z" fill="white" stroke="#BD6B00" stroke-width="0.0166166"/>
<path fill-rule="evenodd" clip-rule="evenodd" d="M10.2561 6.03092C10.2062 6.05086 10.1663 6.10736 10.1431 6.17382C10.1198 6.24029 10.1098 6.31673 10.1231 6.37655C10.1231 6.39981 10.1331 6.4131 10.1398 6.4264C10.1464 6.43637 10.1531 6.44301 10.1597 6.44301C10.1697 6.44301 10.1796 6.44301 10.183 6.43304L10.1896 6.40646C10.1863 6.33999 10.1863 6.28017 10.1996 6.227C10.2144 6.16795 10.2497 6.1161 10.2993 6.08077C10.3092 6.07413 10.3126 6.06416 10.3159 6.05751C10.3158 6.04874 10.3122 6.04038 10.3059 6.03425C10.2926 6.02428 10.2727 6.02095 10.2561 6.03092ZM10.2627 6.04422C10.276 6.03757 10.2893 6.04422 10.296 6.04754L10.2993 6.05419C10.2993 6.05751 10.2993 6.06083 10.2893 6.06748C10.2382 6.10492 10.2018 6.15897 10.1863 6.22035C10.1725 6.28138 10.1691 6.3443 10.1763 6.40646C10.1763 6.41365 10.174 6.42064 10.1697 6.4264C10.1697 6.4264 10.1697 6.42972 10.163 6.4264C10.163 6.4264 10.1564 6.4264 10.1497 6.41643C10.1432 6.40394 10.1387 6.39047 10.1364 6.37655C10.1265 6.31673 10.1364 6.24361 10.1597 6.17715C10.183 6.11733 10.2195 6.06416 10.2594 6.04422H10.2627Z" fill="#BD6B00"/>
<path fill-rule="evenodd" clip-rule="evenodd" d="M10.3426 6.09428C10.2928 6.11754 10.2595 6.17071 10.2429 6.23386C10.2253 6.2977 10.2219 6.36463 10.2329 6.42993C10.2396 6.47314 10.2662 6.4964 10.2861 6.4964C10.2961 6.49972 10.306 6.4964 10.3127 6.48643C10.3193 6.47646 10.3227 6.46649 10.3193 6.4532C10.306 6.40002 10.3027 6.3402 10.3094 6.28371C10.3193 6.22721 10.3426 6.17736 10.3825 6.14745C10.3925 6.13748 10.3991 6.13083 10.3991 6.12086C10.3994 6.11726 10.399 6.11364 10.3978 6.11021C10.3967 6.10678 10.3949 6.10362 10.3925 6.10092C10.3792 6.09095 10.3592 6.08763 10.3426 6.09428ZM10.3493 6.11089C10.3625 6.10425 10.3758 6.10757 10.3825 6.11089L10.3858 6.12086L10.3758 6.13416C10.3535 6.15204 10.335 6.17417 10.3213 6.19927C10.3076 6.22438 10.299 6.25194 10.2961 6.28038C10.2861 6.3402 10.2928 6.40335 10.3027 6.4532C10.306 6.46649 10.3027 6.47314 10.3027 6.47978L10.2861 6.48311C10.2761 6.48311 10.2529 6.46649 10.2462 6.42661C10.2363 6.37011 10.2396 6.297 10.2562 6.23718C10.2728 6.17736 10.306 6.12751 10.3493 6.11089Z" fill="#BD6B00"/>
<path fill-rule="evenodd" clip-rule="evenodd" d="M9.58165 7.08105H9.84752V7.44662H9.58165V7.08105ZM9.59827 7.65931H9.85416V7.73907H9.59827V7.65931ZM9.59162 7.79557H9.85749V8.0847H9.59162V7.79557ZM9.57168 8.14451H9.86081V8.30736H9.57168V8.14451ZM9.60824 7.59285H9.84087L9.8874 7.51309H9.56836L9.60824 7.59285ZM9.92063 7.30704L9.92395 7.10764H10.0835C10.0149 7.16103 9.95924 7.22918 9.92063 7.30704Z" fill="white" stroke="#BD6B00" stroke-width="0.0166166"/>
<path fill-rule="evenodd" clip-rule="evenodd" d="M9.625 7.39053C9.625 7.43373 9.67485 7.41712 9.67485 7.39385V7.20775C9.67485 7.17451 9.75461 7.18116 9.75461 7.20442V7.40382C9.75461 7.43706 9.81111 7.43373 9.80778 7.40382V7.17119C9.80778 7.09808 9.625 7.1014 9.625 7.16787V7.39053ZM9.625 7.83253H9.81443V8.06516H9.625V7.83253Z" stroke="#BD6B00" stroke-width="0.0166166"/>
<path fill-rule="evenodd" clip-rule="evenodd" d="M9.7438 7.93201H9.81026V7.96525H9.7438V7.93201ZM9.62748 7.93201H9.69395V7.96525H9.62748V7.93201ZM9.69395 7.83231H9.7438V7.93201H9.69395V7.83231ZM9.69395 7.96525H9.7438V8.06827H9.69395V7.96525ZM8.64046 5.47276C8.65375 5.65554 8.59393 5.75857 8.49755 5.74195C8.47097 5.64225 8.53079 5.57246 8.64046 5.47276ZM8.42444 5.88153C8.33804 5.83833 8.40118 5.49935 8.43441 5.35645C8.45767 5.53923 8.50088 5.79845 8.42444 5.88153Z" fill="white"/>
<path d="M9.7438 7.93201H9.81026V7.96525H9.7438M9.7438 7.93201V7.96525M9.7438 7.93201V7.83231H9.69395V7.93201M9.7438 7.93201H9.69395M9.7438 7.96525H9.69395M9.7438 7.96525V8.06827H9.69395V7.96525M9.69395 7.93201H9.62748V7.96525H9.69395M9.69395 7.93201V7.96525M8.64046 5.47276C8.65375 5.65554 8.59393 5.75857 8.49755 5.74195C8.47097 5.64225 8.53079 5.57246 8.64046 5.47276ZM8.42444 5.88153C8.33804 5.83833 8.40118 5.49935 8.43441 5.35645C8.45767 5.53923 8.50088 5.79845 8.42444 5.88153Z" stroke="#BD6B00" stroke-width="0.0166166"/>
<path fill-rule="evenodd" clip-rule="evenodd" d="M8.45372 5.89837C8.59994 5.94822 8.71958 5.79203 8.75614 5.60925C8.6365 5.77541 8.44042 5.77541 8.45704 5.89837H8.45372ZM8.34405 6.06786C8.23106 6.03795 8.29752 5.67904 8.32079 5.53613C8.34405 5.68568 8.42381 6.01801 8.34405 6.06786ZM8.38393 6.05789C8.39058 5.93493 8.51354 5.96816 8.59994 5.9017C8.58333 5.96816 8.53348 6.07451 8.38393 6.05789ZM8.24435 6.22406C8.13136 6.19083 8.19782 5.80532 8.19118 5.6458C8.22441 5.78538 8.33076 6.1875 8.24435 6.22406ZM8.29752 6.20744C8.39057 6.23735 8.51354 6.17421 8.52351 6.06454C8.44042 6.12104 8.31414 6.07783 8.29752 6.20744Z" fill="white" stroke="#BD6B00" stroke-width="0.0166166"/>
<path fill-rule="evenodd" clip-rule="evenodd" d="M8.15784 6.39334C8.0515 6.40331 8.09802 6.0743 8.09802 5.76855C8.1379 6.05436 8.24757 6.3169 8.15784 6.39334Z" fill="white" stroke="#BD6B00" stroke-width="0.0166166"/>
<path fill-rule="evenodd" clip-rule="evenodd" d="M8.19922 6.37987C8.27233 6.4131 8.40194 6.3566 8.4385 6.23364C8.30556 6.29014 8.21916 6.23364 8.19922 6.37987ZM9.04999 5.64209C9.03005 5.80493 8.96358 5.89798 8.8672 5.88137C8.84062 5.78167 8.92038 5.7152 9.04999 5.64209ZM8.79077 6.05418C8.95361 6.07744 9.01011 5.95448 9.1231 5.79164C8.9669 5.90463 8.78412 5.92457 8.79077 6.0575V6.05418Z" fill="white" stroke="#BD6B00" stroke-width="0.0166166"/>
<path fill-rule="evenodd" clip-rule="evenodd" d="M8.73968 6.03772C8.65328 5.93138 8.73968 5.79512 8.80615 5.68213C8.79285 5.85162 8.84935 5.94799 8.73968 6.03772ZM8.70645 6.21386C8.69316 6.10751 8.87261 6.08425 8.95237 6.02775C8.92246 6.08757 8.88591 6.25042 8.70312 6.21386H8.70645Z" fill="white" stroke="#BD6B00" stroke-width="0.0166166"/>
<path fill-rule="evenodd" clip-rule="evenodd" d="M8.66709 6.21407C8.54413 6.20078 8.59398 5.99141 8.68371 5.87842C8.64715 6.03794 8.75017 6.14761 8.66709 6.21407Z" fill="white" stroke="#BD6B00" stroke-width="0.0166166"/>
<path fill-rule="evenodd" clip-rule="evenodd" d="M8.57466 6.39015C8.43508 6.32369 8.52481 6.15087 8.57466 6.04785C8.55472 6.18411 8.66771 6.28713 8.57466 6.38683V6.39015Z" fill="white" stroke="#BD6B00" stroke-width="0.0166166"/>
<path fill-rule="evenodd" clip-rule="evenodd" d="M8.60072 6.37008C8.67383 6.46978 8.81673 6.34349 8.84664 6.19727C8.72368 6.30029 8.63063 6.28367 8.60072 6.3734V6.37008ZM8.28168 7.04471C8.26839 6.90181 8.37473 6.64591 8.2983 6.50633C8.28833 6.48639 8.32156 6.43654 8.34482 6.46645C8.37806 6.5163 8.41129 6.65588 8.42791 6.60271C8.4412 6.54621 8.44452 6.44984 8.49437 6.4299C8.52761 6.41993 8.57081 6.40996 8.55752 6.46313C8.54422 6.50966 8.51764 6.57612 8.54755 6.57945C8.56416 6.57945 8.61401 6.51298 8.65721 6.47975C8.69045 6.45316 8.74362 6.49969 8.69045 6.53957C8.53093 6.6725 8.37473 6.73564 8.28168 7.04471ZM7.99255 9.18825C7.97261 9.18825 7.94935 9.17828 7.97261 9.20819C8.16204 9.44082 8.21521 9.50728 8.49105 9.47405C8.76688 9.43749 8.83335 9.36106 9.02943 9.25139C9.08619 9.22152 9.14831 9.20321 9.2122 9.1975C9.27609 9.1918 9.34048 9.19882 9.40164 9.21816C9.45481 9.23477 9.48804 9.23477 9.44816 9.19489C9.40828 9.15834 9.36508 9.10516 9.31523 9.06861C9.19125 8.98568 9.04016 8.95356 8.89317 8.97888C8.69377 9.01211 8.52428 9.14172 8.32156 9.19157C8.21299 9.2135 8.10112 9.2135 7.99255 9.19157V9.18825ZM9.58109 9.60366C9.61433 9.61031 9.63759 9.67677 9.65753 9.63357C9.68412 9.55713 9.66418 9.50064 9.63094 9.50396C9.59106 9.51393 9.52792 9.60366 9.58109 9.60366Z" fill="white" stroke="#BD6B00" stroke-width="0.0166166"/>
<path fill-rule="evenodd" clip-rule="evenodd" d="M7.86356 6.93517C7.82368 6.88864 7.83365 6.87535 7.8968 6.87202C7.94332 6.87202 8.03637 6.90526 8.07293 6.87535C8.10616 6.85208 8.08955 6.75238 8.10616 6.70918C8.11281 6.67927 8.12943 6.64272 8.17263 6.70254C8.29227 6.89529 8.4385 7.12792 8.50496 7.3539C8.5382 7.48019 8.50496 7.67959 8.39197 7.81252C8.39197 7.69953 8.35209 7.62309 8.30224 7.52672C8.23577 7.40375 7.99982 7.06145 7.86356 6.93184V6.93517Z" fill="white"/>
<path fill-rule="evenodd" clip-rule="evenodd" d="M8.35891 7.94522C8.49184 7.94522 8.51511 7.76909 8.51511 7.71924C8.44864 7.73253 8.33565 7.8422 8.35891 7.94522ZM9.50546 9.67002C9.59851 9.68996 9.59518 9.46398 9.49881 9.3676C9.54201 9.51383 9.43234 9.64676 9.50213 9.6667L9.50546 9.67002ZM9.46557 9.6667C9.47222 9.77305 9.19971 9.65341 9.13324 9.567C9.29276 9.63679 9.45893 9.58029 9.46557 9.6667ZM9.34926 9.51383C9.35923 9.61685 9.11663 9.5238 9.04019 9.44404C9.20303 9.49721 9.33929 9.42742 9.34926 9.5105V9.51383ZM9.39246 9.52712C9.48884 9.55038 9.47222 9.31443 9.37917 9.23467C9.4257 9.39086 9.31935 9.50386 9.39246 9.52712ZM9.29276 9.38422C9.38914 9.40748 9.33264 9.20476 9.26285 9.125C9.27615 9.27122 9.22962 9.37425 9.29609 9.38422H9.29276ZM9.24291 9.38422C9.25288 9.49056 9.06345 9.4108 8.99034 9.30778C9.14986 9.35763 9.23294 9.29781 9.24291 9.38422ZM9.19306 9.30113C9.25288 9.25793 9.18974 9.14162 9.0701 9.14826C9.08339 9.21805 9.12327 9.34434 9.19306 9.30113ZM9.65833 9.78966C9.66165 9.89601 9.39246 9.84283 9.30606 9.72984C9.47887 9.76308 9.64836 9.70326 9.655 9.78966H9.65833ZM8.58157 9.59691C8.59154 9.70326 8.29577 9.58362 8.22266 9.48392C8.37885 9.53709 8.5716 9.5105 8.58157 9.59691ZM8.76103 9.64011C8.82418 9.59691 8.69789 9.48392 8.59487 9.45733C8.60816 9.52712 8.69457 9.68332 8.76103 9.64344V9.64011ZM8.78097 9.71655C8.78762 9.81293 8.46526 9.75975 8.38218 9.67002C8.65801 9.71987 8.771 9.63347 8.78097 9.71655Z" fill="white" stroke="#BD6B00" stroke-width="0.0166166"/>
<path fill-rule="evenodd" clip-rule="evenodd" d="M8.93238 9.77969C8.96561 9.86942 8.65654 9.84616 8.54688 9.79631C8.72301 9.79631 8.90579 9.71655 8.93238 9.77969Z" fill="white" stroke="#BD6B00" stroke-width="0.0166166"/>
<path fill-rule="evenodd" clip-rule="evenodd" d="M9.07574 9.84613C9.10898 9.92589 8.82317 9.92589 8.68359 9.87936C8.8697 9.87936 9.04251 9.76637 9.07574 9.84613ZM9.28511 9.88933C9.33829 9.98571 9.03254 9.99235 8.93617 9.94583C9.10898 9.92256 9.24191 9.81289 9.28511 9.88933ZM8.92952 9.72649C8.83314 9.78631 8.83979 9.60685 8.76335 9.48389C8.88299 9.59356 8.99598 9.66999 8.92952 9.72649Z" fill="white" stroke="#BD6B00" stroke-width="0.0166166"/>
<path fill-rule="evenodd" clip-rule="evenodd" d="M9.10253 9.79296C9.02277 9.86275 8.95631 9.61683 8.88319 9.47725C9.00283 9.61018 9.17564 9.73314 9.10253 9.78964V9.79296ZM9.32852 9.85943C9.26205 9.93919 9.06265 9.6268 8.98954 9.46063C9.09921 9.59024 9.38169 9.79296 9.32852 9.85943ZM9.13576 10.0987C9.10253 10.2183 8.59739 9.98572 8.53757 9.86275C8.83002 10.0156 9.14241 9.98239 9.13576 10.0954V10.0987ZM7.51731 7.6461C7.50402 7.62949 7.47079 7.6461 7.47743 7.68266C7.4874 7.73251 7.56051 7.98841 7.6868 8.07481C7.77653 8.14128 8.25176 8.2443 8.46446 8.29083C8.58409 8.31409 8.68047 8.37391 8.76023 8.46696C8.73292 8.35668 8.69964 8.24795 8.66053 8.14128C8.62065 8.04158 8.51431 7.93523 8.40131 7.93191C8.19859 7.92194 7.93273 7.90532 7.73665 7.82224C7.64784 7.78479 7.57087 7.72391 7.51399 7.6461H7.51731Z" fill="white" stroke="#BD6B00" stroke-width="0.0166166"/>
<path fill-rule="evenodd" clip-rule="evenodd" d="M8.69132 8.65983C8.75779 8.70635 8.82758 8.53687 8.74782 8.37402C8.74449 8.53022 8.62153 8.58339 8.69132 8.65983Z" fill="white" stroke="#BD6B00" stroke-width="0.0166166"/>
<path fill-rule="evenodd" clip-rule="evenodd" d="M8.75335 8.81586C8.84308 8.84245 8.86966 8.68293 8.81317 8.55664C8.82314 8.6929 8.67026 8.77598 8.75335 8.81586Z" fill="white" stroke="#BD6B00" stroke-width="0.0166166"/>
<path fill-rule="evenodd" clip-rule="evenodd" d="M8.82371 8.94201C8.91011 8.98521 8.94002 8.82237 8.8802 8.70605C8.88685 8.8556 8.75724 8.90213 8.82371 8.93869V8.94201Z" fill="white" stroke="#BD6B00" stroke-width="0.0166166"/>
<path fill-rule="evenodd" clip-rule="evenodd" d="M8.78735 8.95252C8.75412 9.05222 8.55472 8.86279 8.52148 8.75977C8.64445 8.88273 8.81061 8.86611 8.78735 8.94919V8.95252Z" fill="white" stroke="#BD6B00" stroke-width="0.0166166"/>
<path fill-rule="evenodd" clip-rule="evenodd" d="M8.69719 8.79596C8.65731 8.89566 8.40806 8.6298 8.35156 8.50684C8.47453 8.6298 8.72377 8.72285 8.69719 8.79264V8.79596Z" fill="white" stroke="#BD6B00" stroke-width="0.0166166"/>
<path fill-rule="evenodd" clip-rule="evenodd" d="M8.64664 8.64015C8.60676 8.75647 8.33757 8.4474 8.25781 8.33773C8.39074 8.45737 8.67655 8.55707 8.64664 8.64015ZM8.63667 8.52716C8.73637 8.50722 8.63335 8.42746 8.51371 8.29785C8.51038 8.43411 8.53032 8.53048 8.63667 8.52716Z" fill="white" stroke="#BD6B00" stroke-width="0.0166166"/>
<path fill-rule="evenodd" clip-rule="evenodd" d="M8.47434 8.44731C8.51755 8.4041 8.43779 8.38416 8.33809 8.27117C8.32147 8.34761 8.43114 8.48719 8.47767 8.44731H8.47434ZM8.93961 8.95245C8.99278 8.98568 9.02601 8.87601 8.96287 8.77964C8.94625 8.88598 8.89308 8.91257 8.93961 8.95245ZM7.80303 8.27782C7.69337 8.34428 7.51723 8.07842 7.4707 7.96875C7.56708 8.09504 7.82297 8.20803 7.80303 8.27782Z" fill="white" stroke="#BD6B00" stroke-width="0.0166166"/>
<path fill-rule="evenodd" clip-rule="evenodd" d="M7.90049 8.43056C7.83734 8.49703 7.64459 8.31424 7.57812 8.22119C7.67782 8.31092 7.92707 8.32089 7.90049 8.43056Z" fill="white" stroke="#BD6B00" stroke-width="0.0166166"/>
<path fill-rule="evenodd" clip-rule="evenodd" d="M8.00228 8.57002C7.98234 8.66307 7.70318 8.4537 7.63672 8.354C7.75636 8.47032 8.02222 8.46035 8.00228 8.57002Z" fill="white" stroke="#BD6B00" stroke-width="0.0166166"/>
<path fill-rule="evenodd" clip-rule="evenodd" d="M7.95987 8.67314C7.91666 8.75622 7.68736 8.54685 7.63086 8.44051C7.77376 8.56015 7.99642 8.59005 7.96319 8.67314H7.95987ZM7.84355 8.26437C7.91334 8.18793 7.88343 8.15138 7.83026 8.03174C7.80367 8.1547 7.76047 8.20455 7.84355 8.26437ZM7.93993 8.40727C8.07286 8.41392 7.93993 8.2544 7.90669 8.11814C7.91999 8.27102 7.87346 8.39398 7.93993 8.40727Z" fill="white" stroke="#BD6B00" stroke-width="0.0166166"/>
<path fill-rule="evenodd" clip-rule="evenodd" d="M8.02181 8.53328C8.11154 8.51334 8.08828 8.38373 8.01517 8.22754C8.03178 8.39703 7.93873 8.4934 8.02181 8.53328ZM7.98858 8.78918C7.95535 8.88888 7.69613 8.65625 7.65625 8.56319C7.78918 8.67619 8.01184 8.71274 7.98858 8.78918Z" fill="white" stroke="#BD6B00" stroke-width="0.0166166"/>
<path fill-rule="evenodd" clip-rule="evenodd" d="M8.14606 8.94883C8.1095 9.04853 7.83699 8.84248 7.75391 8.72949C7.91675 8.86242 8.166 8.84913 8.14606 8.94883Z" fill="white" stroke="#BD6B00" stroke-width="0.0166166"/>
<path fill-rule="evenodd" clip-rule="evenodd" d="M8.30467 9.11186C8.26147 9.25477 7.97566 9.02546 7.89258 8.91246C8.07204 9.05204 8.32461 9.01216 8.30467 9.11186ZM8.0388 8.7463C8.11524 8.78286 8.14515 8.56684 8.10195 8.41064C8.10195 8.57681 7.94575 8.7031 8.03548 8.74298L8.0388 8.7463Z" fill="white" stroke="#BD6B00" stroke-width="0.0166166"/>
<path fill-rule="evenodd" clip-rule="evenodd" d="M8.16917 8.91894C8.26222 8.94553 8.23564 8.70957 8.15255 8.55338C8.14258 8.70957 8.07612 8.85247 8.16917 8.91894ZM8.33534 9.08178C8.43504 9.08511 8.36857 8.87906 8.28216 8.76275C8.29546 8.91229 8.24893 9.06184 8.33534 9.08178ZM8.15255 9.16819C8.11932 9.22136 8.04621 9.12499 7.91992 9.05187C8.03291 9.08511 8.16585 9.11834 8.15255 9.16819ZM8.09273 7.4168C8.19243 7.34369 8.116 7.21076 8.09273 7.08447C8.0595 7.20411 7.97974 7.36363 8.09273 7.4168ZM8.09273 7.59294C7.94318 7.57632 7.96645 7.39022 7.9598 7.27058C8.00633 7.43342 8.12597 7.46001 8.09273 7.59626V7.59294ZM8.11267 7.56968C8.23564 7.56303 8.22899 7.42345 8.23564 7.28387C8.17249 7.41348 8.1027 7.43342 8.11267 7.56968Z" fill="white" stroke="#BD6B00" stroke-width="0.0166166"/>
<path fill-rule="evenodd" clip-rule="evenodd" d="M8.10952 7.7426C8.00983 7.75257 7.9633 7.6562 7.94336 7.50997C8.03309 7.64623 8.11285 7.60302 8.10952 7.7426ZM8.14276 7.73263C8.26572 7.74925 8.24246 7.60635 8.24246 7.5C8.20258 7.5997 8.10288 7.63293 8.14276 7.73263Z" fill="white" stroke="#BD6B00" stroke-width="0.0166166"/>
<path fill-rule="evenodd" clip-rule="evenodd" d="M7.94922 7.67285C7.95919 7.7659 8.01901 7.92542 8.11538 7.88887C8.15194 7.77587 8.02898 7.75261 7.94922 7.67285Z" fill="white" stroke="#BD6B00" stroke-width="0.0166166"/>
<path fill-rule="evenodd" clip-rule="evenodd" d="M8.14271 7.89874C8.10283 7.81898 8.24241 7.77578 8.269 7.66943C8.28561 7.8223 8.27232 7.922 8.14271 7.90206V7.89874ZM7.74724 6.92833C7.82367 6.84857 7.7572 6.71564 7.73394 6.58936C7.70071 6.70899 7.65086 6.86851 7.74724 6.92833ZM7.74724 7.08121C7.6143 7.09782 7.58107 6.82531 7.56445 6.70567C7.61098 6.86851 7.76385 6.9383 7.74724 7.08453V7.08121ZM7.77382 7.08121C7.86687 7.03136 7.84693 6.92501 7.87352 6.84857C7.8137 6.94495 7.75388 6.95824 7.77382 7.08121Z" fill="white" stroke="#BD6B00" stroke-width="0.0166166"/>
<path fill-rule="evenodd" clip-rule="evenodd" d="M7.74356 7.26072C7.60731 7.27069 7.52422 6.96827 7.51758 6.84863C7.56078 7.01148 7.7635 7.09788 7.74689 7.26072H7.74356ZM7.77347 7.25408C7.90641 7.22417 7.88979 7.13776 7.86985 7.00151C7.82665 7.14108 7.75353 7.11117 7.77347 7.25408Z" fill="white" stroke="#BD6B00" stroke-width="0.0166166"/>
<path fill-rule="evenodd" clip-rule="evenodd" d="M7.74243 7.43356C7.58956 7.46015 7.59953 7.21422 7.47656 7.03809C7.58291 7.17102 7.77566 7.33718 7.74243 7.43356ZM7.77566 7.42359C7.8953 7.43024 7.90859 7.2541 7.90195 7.18099C7.87204 7.2541 7.73578 7.32057 7.77898 7.42691L7.77566 7.42359Z" fill="white" stroke="#BD6B00" stroke-width="0.0166166"/>
<path fill-rule="evenodd" clip-rule="evenodd" d="M7.50391 7.24414C7.5604 7.43357 7.64349 7.623 7.74318 7.60971C7.79303 7.50004 7.64681 7.48674 7.50391 7.24414Z" fill="white" stroke="#BD6B00" stroke-width="0.0166166"/>
<path fill-rule="evenodd" clip-rule="evenodd" d="M7.77892 7.57989C7.73904 7.49681 7.87862 7.45693 7.90521 7.35059C7.92183 7.50346 7.90853 7.60316 7.77892 7.57989ZM7.54297 7.46026C7.62605 7.62974 7.66261 7.82582 7.7756 7.79591C7.8188 7.66298 7.64931 7.63639 7.54297 7.46026Z" fill="white" stroke="#BD6B00" stroke-width="0.0166166"/>
<path fill-rule="evenodd" clip-rule="evenodd" d="M7.80001 7.76601C7.75016 7.67295 7.88974 7.64305 7.92629 7.52008C7.94291 7.6796 7.92629 7.79592 7.80001 7.76268V7.76601ZM8.03929 6.61946C8.11905 6.6394 8.20545 6.54968 8.17554 6.41342C8.08249 6.43336 8.04261 6.51977 8.03929 6.61946ZM7.77674 6.54968C7.78339 6.58955 7.83324 6.59288 7.81662 6.53638C7.80422 6.49974 7.80422 6.46003 7.81662 6.42339C7.83264 6.37369 7.83264 6.32022 7.81662 6.27052C7.80333 6.23728 7.7568 6.25722 7.77674 6.28381C7.79668 6.31372 7.80001 6.37686 7.78339 6.40677C7.76345 6.44998 7.7701 6.50647 7.77674 6.54968ZM8.53778 7.08141C8.50455 7.12461 8.44141 7.0947 8.49126 7.03156C8.53114 6.98171 8.59096 6.9385 8.59096 6.88533C8.5976 6.81886 8.63416 6.71916 8.67072 6.68261C8.70727 6.64605 8.75048 6.6959 8.7106 6.72249C8.66739 6.74907 8.63748 6.86871 8.64081 6.91524C8.63748 6.98171 8.57434 7.03156 8.53778 7.08141ZM8.43808 7.00497C8.40485 7.0515 8.35832 7.02159 8.38491 6.94847C8.40817 6.89862 8.4115 6.83216 8.43808 6.7956C8.47796 6.7391 8.53778 6.69258 8.57434 6.65602C8.61422 6.62279 8.64081 6.65602 8.60757 6.68925C8.56684 6.72994 8.53011 6.77446 8.4979 6.82219C8.45138 6.8953 8.47132 6.95512 8.43808 7.00497ZM7.91632 6.76569C7.913 6.83216 7.96617 6.84545 7.96285 6.7524C7.96285 6.6527 7.88974 6.55965 7.92962 6.4101C7.9562 6.33698 7.9562 6.20073 7.94291 6.13094C7.92962 6.05783 7.87644 6.10435 7.89971 6.16085C7.91965 6.22731 7.89638 6.34695 7.87977 6.4101C7.82992 6.58955 7.91965 6.67596 7.913 6.76569H7.91632ZM8.05923 6.40013C8.05258 6.46327 7.99941 6.46659 8.01602 6.38351C8.02932 6.31704 8.02932 6.26387 8.01602 6.20737C7.99608 6.13758 8.00273 6.01795 8.01602 5.9681C8.03264 5.91492 8.08249 5.94483 8.06255 5.98471C8.03935 6.04753 8.03587 6.11594 8.05258 6.18079C8.07252 6.24725 8.0692 6.34031 8.05923 6.40345V6.40013ZM7.54079 7.63308C7.56738 7.66298 7.60726 7.64305 7.57402 7.59984C7.54079 7.56661 7.55076 7.55996 7.53082 7.52008C7.51088 7.47356 7.5142 7.45029 7.49094 7.42038C7.46768 7.38715 7.43777 7.42038 7.45771 7.44365C7.48429 7.47688 7.47765 7.49682 7.49094 7.52673C7.52417 7.57658 7.5142 7.60317 7.54079 7.63308ZM8.21875 8.45061C8.25937 8.47306 8.29391 8.50507 8.31939 8.54386C8.34486 8.58266 8.36051 8.62707 8.36497 8.67327C8.36845 8.75603 8.39121 8.83683 8.43144 8.90923C8.36497 8.89261 8.33174 8.78626 8.32177 8.68324C8.3118 8.5769 8.2553 8.53369 8.22207 8.45061H8.21875ZM8.38823 8.64669C8.44473 8.74971 8.52117 8.78959 8.52781 8.86602C8.53446 8.95575 8.54111 8.95908 8.56437 9.04548C8.4979 9.02887 8.48129 9.02222 8.46467 8.88929C8.4547 8.79623 8.37826 8.73309 8.38823 8.64669Z" fill="white" stroke="#BD6B00" stroke-width="0.0166166"/>
<path fill-rule="evenodd" clip-rule="evenodd" d="M10.1365 9.60378C10.1698 9.6636 10.203 9.75333 10.2695 9.73671C10.2695 9.69351 10.1997 9.66028 10.1365 9.60378ZM10.2362 9.62372C10.3592 9.67689 10.4689 9.6636 10.4855 9.74336C10.3658 9.75665 10.3193 9.71013 10.2329 9.62372H10.2362ZM9.70117 9.20166C9.78375 9.26586 9.84229 9.356 9.86734 9.45756C9.89413 9.54942 9.93445 9.63679 9.98698 9.71677C9.90055 9.6587 9.838 9.57137 9.81084 9.47085C9.78758 9.37115 9.75767 9.29471 9.70117 9.20498V9.20166ZM9.80419 9.20166C9.89725 9.27477 9.98365 9.36118 10.0102 9.4642C10.0368 9.56058 10.0534 9.63369 10.1166 9.73007C10.0169 9.66692 9.98033 9.57387 9.95042 9.47085C9.92716 9.37115 9.86734 9.29804 9.80419 9.20498V9.20166ZM10.1099 9.44426C10.1086 9.43595 10.1102 9.42745 10.1145 9.42019C10.1187 9.41292 10.1253 9.40734 10.1332 9.40438C10.1616 9.39435 10.1905 9.38548 10.2196 9.3778C10.2528 9.36783 10.2728 9.39109 10.2728 9.40771V9.47417C10.2728 9.49743 10.2661 9.50076 10.2495 9.50408C10.2263 9.5074 10.193 9.51073 10.1698 9.52734C10.1498 9.54064 10.1299 9.53067 10.1199 9.51073L10.1099 9.44426ZM10.4622 9.44426C10.4622 9.42432 10.4556 9.40771 10.4423 9.40438C10.417 9.39394 10.3898 9.38939 10.3625 9.39109C10.3293 9.39109 10.326 9.39774 10.326 9.41103V9.48082C10.326 9.50741 10.326 9.50741 10.3392 9.51405C10.3625 9.51405 10.3991 9.51405 10.4223 9.53399C10.4389 9.54396 10.4556 9.53399 10.4589 9.51405L10.4622 9.44426Z" fill="white"/>
<path fill-rule="evenodd" clip-rule="evenodd" d="M11.9206 7.0513C11.9605 6.98483 12.0103 7.14435 12.1798 7.26067C12.2562 7.31384 12.3127 7.45674 12.3127 7.5498C12.3127 7.61626 12.3061 7.67941 12.3127 7.74255C12.3161 7.77911 12.3593 7.86883 12.3294 7.8921C12.2562 7.94527 12.1599 8.07156 12.1167 8.11476C12.0768 8.14799 12.0435 7.93862 12.017 7.84889C11.9837 7.7492 11.997 7.62623 11.9106 7.5365C11.8508 7.47004 11.6979 7.41022 11.7112 7.38363L11.9206 7.0513Z" fill="white" stroke="#BD6B00" stroke-width="0.0166166"/>
<path fill-rule="evenodd" clip-rule="evenodd" d="M11.9315 7.56337C11.9447 7.53201 11.9626 7.50287 11.9847 7.47696C12.0059 7.45069 12.0333 7.43013 12.0644 7.41714C12.095 7.40806 12.1226 7.39083 12.1442 7.36729C12.1569 7.35304 12.166 7.33594 12.1708 7.31744C12.1746 7.29545 12.1746 7.27297 12.1708 7.25098L12.1807 7.26095C12.2572 7.31412 12.3137 7.45702 12.3137 7.55007C12.3147 7.57554 12.3147 7.60104 12.3137 7.62651C12.307 7.64313 12.3037 7.65974 12.2937 7.66971L12.2572 7.6963L12.1675 7.71956C12.1339 7.73467 12.1043 7.75743 12.081 7.78603C12.0569 7.81165 12.0367 7.84078 12.0212 7.87244L12.0146 7.84585C11.988 7.75612 11.9913 7.64977 11.9282 7.56337H11.9315Z" fill="#BF0000" stroke="#BD6B00" stroke-width="0.0166166"/>
<path d="M12.1708 7.24756C12.1874 7.35723 12.1242 7.39711 12.0644 7.41705C12.0046 7.44031 11.9547 7.50345 11.9315 7.56327M12.3203 7.61312C12.2937 7.71282 12.2273 7.69953 12.1674 7.71947C12.1076 7.74273 12.0445 7.81917 12.0179 7.87899" stroke="#BD6B00" stroke-width="0.0166166"/>
<path fill-rule="evenodd" clip-rule="evenodd" d="M11.9785 6.98478L11.9453 6.96484L11.3571 7.95851L11.3903 7.97845L11.9785 6.98146V6.98478Z" fill="white" stroke="#BD6B00" stroke-width="0.0166166"/>
<path fill-rule="evenodd" clip-rule="evenodd" d="M11.9139 6.94528C11.9139 6.96291 11.9209 6.97981 11.9334 6.99228C11.9459 7.00474 11.9628 7.01175 11.9804 7.01175C11.998 7.01175 12.0149 7.00474 12.0274 6.99228C12.0399 6.97981 12.0469 6.96291 12.0469 6.94528C12.0469 6.92765 12.0399 6.91075 12.0274 6.89828C12.0149 6.88582 11.998 6.87881 11.9804 6.87881C11.9628 6.87881 11.9459 6.88582 11.9334 6.89828C11.9209 6.91075 11.9139 6.92765 11.9139 6.94528ZM11.4088 6.14769H11.1695V6.20086H11.4088V6.14769ZM11.4088 6.25071H11.1695V6.70933H11.4088V6.25071ZM11.4221 6.08454H11.1562C11.1496 5.99481 11.2393 5.89844 11.2892 5.89844C11.3423 5.90176 11.4254 5.99814 11.4221 6.08454Z" fill="white" stroke="#BD6B00" stroke-width="0.0166166"/>
<path fill-rule="evenodd" clip-rule="evenodd" d="M10.7478 6.03092C10.7977 6.05086 10.8376 6.10736 10.8608 6.17382C10.8841 6.24029 10.8941 6.31673 10.8808 6.37655C10.8808 6.39981 10.8708 6.4131 10.8641 6.4264C10.8575 6.43637 10.8509 6.44301 10.8442 6.44301C10.8342 6.44301 10.8243 6.44301 10.8209 6.43304L10.8143 6.40646C10.8176 6.33999 10.8176 6.28017 10.8043 6.227C10.7895 6.16795 10.7542 6.1161 10.7046 6.08077C10.6947 6.07413 10.6913 6.06416 10.688 6.05751C10.6881 6.04874 10.6917 6.04038 10.698 6.03425C10.7113 6.02428 10.7312 6.02095 10.7478 6.03092ZM10.7412 6.04422C10.7279 6.03757 10.7146 6.04422 10.708 6.04754L10.7046 6.05419C10.7046 6.05751 10.7046 6.06083 10.7146 6.06748C10.7657 6.10492 10.8021 6.15897 10.8176 6.22035C10.8314 6.28138 10.8348 6.3443 10.8276 6.40646C10.8276 6.41365 10.8299 6.42064 10.8342 6.4264C10.8342 6.4264 10.8342 6.42972 10.8409 6.4264C10.8409 6.4264 10.8475 6.4264 10.8542 6.41643C10.8608 6.40394 10.8652 6.39047 10.8675 6.37655C10.8774 6.31673 10.8675 6.24361 10.8442 6.17715C10.8209 6.11733 10.7844 6.06416 10.7445 6.04422H10.7412Z" fill="#BD6B00"/>
<path fill-rule="evenodd" clip-rule="evenodd" d="M10.6613 6.09428C10.7112 6.11754 10.7444 6.17071 10.761 6.23386C10.7787 6.2977 10.7821 6.36463 10.771 6.42993C10.7643 6.47314 10.7377 6.4964 10.7178 6.4964C10.7078 6.49972 10.6979 6.4964 10.6912 6.48643C10.6846 6.47646 10.6812 6.46649 10.6846 6.4532C10.6979 6.40002 10.7012 6.3402 10.6945 6.28371C10.6846 6.22721 10.6613 6.17736 10.6214 6.14745C10.6115 6.13748 10.6048 6.13083 10.6048 6.12086C10.6045 6.11726 10.6049 6.11364 10.6061 6.11021C10.6072 6.10678 10.609 6.10362 10.6115 6.10092C10.6247 6.09095 10.6447 6.08763 10.6613 6.09428ZM10.6547 6.11089C10.6414 6.10425 10.6281 6.10757 10.6214 6.11089L10.6181 6.12086L10.6281 6.13416C10.6504 6.15204 10.6689 6.17417 10.6826 6.19927C10.6963 6.22438 10.7049 6.25194 10.7078 6.28038C10.7178 6.3402 10.7112 6.40335 10.7012 6.4532C10.6979 6.46649 10.7012 6.47314 10.7012 6.47978L10.7178 6.48311C10.7278 6.48311 10.751 6.46649 10.7577 6.42661C10.7676 6.37011 10.7643 6.297 10.7477 6.23718C10.7311 6.17736 10.6979 6.12751 10.6547 6.11089Z" fill="#BD6B00"/>
<path fill-rule="evenodd" clip-rule="evenodd" d="M11.4223 7.08105H11.1564V7.44662H11.4223V7.08105ZM11.4056 7.65931H11.1497V7.73907H11.4056V7.65931ZM11.4123 7.79557H11.1464V8.0847H11.4123V7.79557ZM11.4322 8.14451H11.1431V8.30736H11.4322V8.14451ZM11.3957 7.59285H11.163L11.1165 7.51309H11.4355L11.3957 7.59285ZM11.0833 7.30704L11.08 7.10764H10.9204C10.989 7.16103 11.0447 7.22918 11.0833 7.30704Z" fill="white" stroke="#BD6B00" stroke-width="0.0166166"/>
<path fill-rule="evenodd" clip-rule="evenodd" d="M11.3789 7.39053C11.3789 7.43373 11.3291 7.41712 11.3291 7.39385V7.20775C11.3291 7.17451 11.2493 7.18116 11.2493 7.20442V7.40382C11.2493 7.43706 11.1928 7.43373 11.1961 7.40382V7.17119C11.1961 7.09808 11.3789 7.1014 11.3789 7.16787V7.39053ZM11.3789 7.83253H11.1895V8.06516H11.3789V7.83253Z" stroke="#BD6B00" stroke-width="0.0166166"/>
<path fill-rule="evenodd" clip-rule="evenodd" d="M11.2601 7.93201H11.1936V7.96525H11.2601V7.93201ZM11.3764 7.93201H11.31V7.96525H11.3764V7.93201ZM11.31 7.83231H11.2601V7.93201H11.31V7.83231ZM11.31 7.96525H11.2601V8.06827H11.31V7.96525ZM12.3634 5.47276C12.3502 5.65554 12.41 5.75857 12.5064 5.74195C12.5329 5.64225 12.4731 5.57246 12.3634 5.47276ZM12.5795 5.88153C12.6659 5.83833 12.6027 5.49935 12.5695 5.35645C12.5462 5.53923 12.503 5.79845 12.5795 5.88153Z" fill="white"/>
<path d="M11.2601 7.93201H11.1936V7.96525H11.2601M11.2601 7.93201V7.96525M11.2601 7.93201V7.83231H11.31V7.93201M11.2601 7.93201H11.31M11.2601 7.96525H11.31M11.2601 7.96525V8.06827H11.31V7.96525M11.31 7.93201H11.3764V7.96525H11.31M11.31 7.93201V7.96525M12.3634 5.47276C12.3502 5.65554 12.41 5.75857 12.5064 5.74195C12.5329 5.64225 12.4731 5.57246 12.3634 5.47276ZM12.5795 5.88153C12.6659 5.83833 12.6027 5.49935 12.5695 5.35645C12.5462 5.53923 12.503 5.79845 12.5795 5.88153Z" stroke="#BD6B00" stroke-width="0.0166166"/>
<path fill-rule="evenodd" clip-rule="evenodd" d="M12.5502 5.89837C12.404 5.94822 12.2843 5.79203 12.2478 5.60925C12.3674 5.77541 12.5635 5.77541 12.5469 5.89837H12.5502ZM12.6599 6.06786C12.7728 6.03795 12.7064 5.67904 12.6831 5.53613C12.6599 5.68568 12.5801 6.01801 12.6599 6.06786ZM12.62 6.05789C12.6133 5.93493 12.4904 5.96816 12.404 5.9017C12.4206 5.96816 12.4704 6.07451 12.62 6.05789ZM12.7596 6.22406C12.8725 6.19083 12.8061 5.80532 12.8127 5.6458C12.7795 5.78538 12.6732 6.1875 12.7596 6.22406ZM12.7064 6.20744C12.6133 6.23735 12.4904 6.17421 12.4804 6.06454C12.5635 6.12104 12.6898 6.07783 12.7064 6.20744Z" fill="white" stroke="#BD6B00" stroke-width="0.0166166"/>
<path fill-rule="evenodd" clip-rule="evenodd" d="M12.8461 6.39334C12.9524 6.40331 12.9059 6.0743 12.9059 5.76855C12.866 6.05436 12.7563 6.3169 12.8461 6.39334Z" fill="white" stroke="#BD6B00" stroke-width="0.0166166"/>
<path fill-rule="evenodd" clip-rule="evenodd" d="M12.8047 6.37987C12.7316 6.4131 12.602 6.3566 12.5654 6.23364C12.6983 6.29014 12.7847 6.23364 12.8047 6.37987ZM11.9539 5.64209C11.9739 5.80493 12.0403 5.89798 12.1367 5.88137C12.1633 5.78167 12.0835 5.7152 11.9539 5.64209ZM12.2131 6.05418C12.0503 6.07744 11.9938 5.95448 11.8808 5.79164C12.037 5.90463 12.2198 5.92457 12.2131 6.0575V6.05418Z" fill="white" stroke="#BD6B00" stroke-width="0.0166166"/>
<path fill-rule="evenodd" clip-rule="evenodd" d="M12.2642 6.03772C12.3506 5.93138 12.2642 5.79512 12.1978 5.68213C12.2111 5.85162 12.1546 5.94799 12.2642 6.03772ZM12.2975 6.21386C12.3108 6.10751 12.1313 6.08425 12.0515 6.02775C12.0814 6.08757 12.118 6.25042 12.3008 6.21386H12.2975Z" fill="white" stroke="#BD6B00" stroke-width="0.0166166"/>
<path fill-rule="evenodd" clip-rule="evenodd" d="M12.3368 6.21407C12.4598 6.20078 12.4099 5.99141 12.3202 5.87842C12.3568 6.03794 12.2537 6.14761 12.3368 6.21407Z" fill="white" stroke="#BD6B00" stroke-width="0.0166166"/>
<path fill-rule="evenodd" clip-rule="evenodd" d="M12.4292 6.39015C12.5688 6.32369 12.4791 6.15087 12.4292 6.04785C12.4492 6.18411 12.3362 6.28713 12.4292 6.38683V6.39015Z" fill="white" stroke="#BD6B00" stroke-width="0.0166166"/>
<path fill-rule="evenodd" clip-rule="evenodd" d="M12.4032 6.37008C12.3301 6.46978 12.1872 6.34349 12.1573 6.19727C12.2802 6.30029 12.3733 6.28367 12.4032 6.3734V6.37008ZM12.7222 7.04471C12.7355 6.90181 12.6292 6.64591 12.7056 6.50633C12.7156 6.48639 12.6823 6.43654 12.6591 6.46645C12.6258 6.5163 12.5926 6.65588 12.576 6.60271C12.5627 6.54621 12.5594 6.44984 12.5095 6.4299C12.4763 6.41993 12.4331 6.40996 12.4464 6.46313C12.4597 6.50966 12.4863 6.57612 12.4564 6.57945C12.4397 6.57945 12.3899 6.51298 12.3467 6.47975C12.3135 6.45316 12.2603 6.49969 12.3135 6.53957C12.473 6.6725 12.6292 6.73564 12.7222 7.04471ZM13.0114 9.18825C13.0313 9.18825 13.0546 9.17828 13.0313 9.20819C12.8419 9.44082 12.7887 9.50728 12.5129 9.47405C12.237 9.43749 12.1706 9.36106 11.9745 9.25139C11.9177 9.22152 11.8556 9.20321 11.7917 9.1975C11.7278 9.1918 11.6634 9.19882 11.6023 9.21816C11.5491 9.23477 11.5159 9.23477 11.5557 9.19489C11.5956 9.15834 11.6388 9.10516 11.6887 9.06861C11.8127 8.98568 11.9637 8.95356 12.1107 8.97888C12.3101 9.01211 12.4796 9.14172 12.6823 9.19157C12.7909 9.2135 12.9028 9.2135 13.0114 9.19157V9.18825ZM11.4228 9.60366C11.3896 9.61031 11.3663 9.67677 11.3464 9.63357C11.3198 9.55713 11.3397 9.50064 11.373 9.50396C11.4128 9.51393 11.476 9.60366 11.4228 9.60366Z" fill="white" stroke="#BD6B00" stroke-width="0.0166166"/>
<path fill-rule="evenodd" clip-rule="evenodd" d="M13.1403 6.93517C13.1802 6.88864 13.1703 6.87535 13.1071 6.87202C13.0606 6.87202 12.9675 6.90526 12.931 6.87535C12.8977 6.85208 12.9144 6.75238 12.8977 6.70918C12.8911 6.67927 12.8745 6.64272 12.8313 6.70254C12.7116 6.89529 12.5654 7.12792 12.4989 7.3539C12.4657 7.48019 12.4989 7.67959 12.6119 7.81252C12.6119 7.69953 12.6518 7.62309 12.7017 7.52672C12.7681 7.40375 13.0041 7.06145 13.1403 6.93184V6.93517Z" fill="white"/>
<path fill-rule="evenodd" clip-rule="evenodd" d="M12.645 7.94522C12.5121 7.94522 12.4888 7.76909 12.4888 7.71924C12.5553 7.73253 12.6683 7.8422 12.645 7.94522ZM11.4985 9.67002C11.4054 9.68996 11.4087 9.46398 11.5051 9.3676C11.4619 9.51383 11.5716 9.64676 11.5018 9.6667L11.4985 9.67002ZM11.5383 9.6667C11.5317 9.77305 11.8042 9.65341 11.8707 9.567C11.7111 9.63679 11.545 9.58029 11.5383 9.6667ZM11.6546 9.51383C11.6447 9.61685 11.8873 9.5238 11.9637 9.44404C11.8009 9.49721 11.6646 9.42742 11.6546 9.5105V9.51383ZM11.6114 9.52712C11.5151 9.55038 11.5317 9.31443 11.6247 9.23467C11.5782 9.39086 11.6846 9.50386 11.6114 9.52712ZM11.7111 9.38422C11.6148 9.40748 11.6713 9.20476 11.7411 9.125C11.7278 9.27122 11.7743 9.37425 11.7078 9.38422H11.7111ZM11.761 9.38422C11.751 9.49056 11.9405 9.4108 12.0136 9.30778C11.854 9.35763 11.771 9.29781 11.761 9.38422ZM11.8108 9.30113C11.751 9.25793 11.8142 9.14162 11.9338 9.14826C11.9205 9.21805 11.8806 9.34434 11.8108 9.30113ZM11.3456 9.78966C11.3423 9.89601 11.6114 9.84283 11.6978 9.72984C11.525 9.76308 11.3555 9.70326 11.3489 9.78966H11.3456ZM12.4223 9.59691C12.4124 9.70326 12.7081 9.58362 12.7812 9.48392C12.6251 9.53709 12.4323 9.5105 12.4223 9.59691ZM12.2429 9.64011C12.1797 9.59691 12.306 9.48392 12.409 9.45733C12.3957 9.52712 12.3093 9.68332 12.2429 9.64344V9.64011ZM12.2229 9.71655C12.2163 9.81293 12.5386 9.75975 12.6217 9.67002C12.3459 9.71987 12.2329 9.63347 12.2229 9.71655Z" fill="white" stroke="#BD6B00" stroke-width="0.0166166"/>
<path fill-rule="evenodd" clip-rule="evenodd" d="M12.0715 9.77969C12.0383 9.86942 12.3474 9.84616 12.457 9.79631C12.2809 9.79631 12.0981 9.71655 12.0715 9.77969Z" fill="white" stroke="#BD6B00" stroke-width="0.0166166"/>
<path fill-rule="evenodd" clip-rule="evenodd" d="M11.9282 9.84613C11.8949 9.92589 12.1807 9.92589 12.3203 9.87936C12.1342 9.87936 11.9614 9.76637 11.9282 9.84613ZM11.7188 9.88933C11.6656 9.98571 11.9714 9.99235 12.0677 9.94583C11.8949 9.92256 11.762 9.81289 11.7188 9.88933ZM12.0744 9.72649C12.1708 9.78631 12.1641 9.60685 12.2406 9.48389C12.1209 9.59356 12.0079 9.66999 12.0744 9.72649Z" fill="white" stroke="#BD6B00" stroke-width="0.0166166"/>
<path fill-rule="evenodd" clip-rule="evenodd" d="M11.9014 9.79296C11.9811 9.86275 12.0476 9.61683 12.1207 9.47725C12.0011 9.61018 11.8283 9.73314 11.9014 9.78964V9.79296ZM11.6754 9.85943C11.7419 9.93919 11.9413 9.6268 12.0144 9.46063C11.9047 9.59024 11.6222 9.79296 11.6754 9.85943ZM11.8681 10.0987C11.9014 10.2183 12.4065 9.98572 12.4663 9.86275C12.1739 10.0156 11.8615 9.98239 11.8681 10.0954V10.0987ZM13.4866 7.6461C13.4999 7.62949 13.5331 7.6461 13.5265 7.68266C13.5165 7.73251 13.4434 7.98841 13.3171 8.07481C13.2274 8.14128 12.7521 8.2443 12.5395 8.29083C12.4198 8.31409 12.3234 8.37391 12.2437 8.46696C12.271 8.35668 12.3043 8.24795 12.3434 8.14128C12.3833 8.04158 12.4896 7.93523 12.6026 7.93191C12.8053 7.92194 13.0712 7.90532 13.2673 7.82224C13.3561 7.78479 13.433 7.72391 13.4899 7.6461H13.4866Z" fill="white" stroke="#BD6B00" stroke-width="0.0166166"/>
<path fill-rule="evenodd" clip-rule="evenodd" d="M12.3126 8.65983C12.2461 8.70635 12.1763 8.53687 12.2561 8.37402C12.2594 8.53022 12.3824 8.58339 12.3126 8.65983Z" fill="white" stroke="#BD6B00" stroke-width="0.0166166"/>
<path fill-rule="evenodd" clip-rule="evenodd" d="M12.2506 8.81586C12.1608 8.84245 12.1342 8.68293 12.1907 8.55664C12.1808 8.6929 12.3336 8.77598 12.2506 8.81586Z" fill="white" stroke="#BD6B00" stroke-width="0.0166166"/>
<path fill-rule="evenodd" clip-rule="evenodd" d="M12.1802 8.94201C12.0938 8.98521 12.0639 8.82237 12.1237 8.70605C12.1171 8.8556 12.2467 8.90213 12.1802 8.93869V8.94201Z" fill="white" stroke="#BD6B00" stroke-width="0.0166166"/>
<path fill-rule="evenodd" clip-rule="evenodd" d="M12.2166 8.95252C12.2498 9.05222 12.4492 8.86279 12.4824 8.75977C12.3595 8.88273 12.1933 8.86611 12.2166 8.94919V8.95252Z" fill="white" stroke="#BD6B00" stroke-width="0.0166166"/>
<path fill-rule="evenodd" clip-rule="evenodd" d="M12.3067 8.79596C12.3466 8.89566 12.5958 8.6298 12.6523 8.50684C12.5294 8.6298 12.2801 8.72285 12.3067 8.79264V8.79596Z" fill="white" stroke="#BD6B00" stroke-width="0.0166166"/>
<path fill-rule="evenodd" clip-rule="evenodd" d="M12.3573 8.64015C12.3971 8.75647 12.6663 8.4474 12.7461 8.33773C12.6132 8.45737 12.3274 8.55707 12.3573 8.64015ZM12.3672 8.52716C12.2675 8.50722 12.3706 8.42746 12.4902 8.29785C12.4935 8.43411 12.4736 8.53048 12.3672 8.52716Z" fill="white" stroke="#BD6B00" stroke-width="0.0166166"/>
<path fill-rule="evenodd" clip-rule="evenodd" d="M12.5296 8.44731C12.4864 8.4041 12.5661 8.38416 12.6658 8.27117C12.6824 8.34761 12.5728 8.48719 12.5262 8.44731H12.5296ZM12.0643 8.95245C12.0111 8.98568 11.9779 8.87601 12.041 8.77964C12.0577 8.88598 12.1108 8.91257 12.0643 8.95245ZM13.2009 8.27782C13.3105 8.34428 13.4867 8.07842 13.5332 7.96875C13.4368 8.09504 13.1809 8.20803 13.2009 8.27782Z" fill="white" stroke="#BD6B00" stroke-width="0.0166166"/>
<path fill-rule="evenodd" clip-rule="evenodd" d="M13.1034 8.43056C13.1666 8.49703 13.3593 8.31424 13.4258 8.22119C13.3261 8.31092 13.0768 8.32089 13.1034 8.43056Z" fill="white" stroke="#BD6B00" stroke-width="0.0166166"/>
<path fill-rule="evenodd" clip-rule="evenodd" d="M13.0016 8.57002C13.0216 8.66307 13.3007 8.4537 13.3672 8.354C13.2475 8.47032 12.9817 8.46035 13.0016 8.57002Z" fill="white" stroke="#BD6B00" stroke-width="0.0166166"/>
<path fill-rule="evenodd" clip-rule="evenodd" d="M13.044 8.67314C13.0872 8.75622 13.3166 8.54685 13.373 8.44051C13.2301 8.56015 13.0075 8.59005 13.0407 8.67314H13.044ZM13.1604 8.26437C13.0906 8.18793 13.1205 8.15138 13.1736 8.03174C13.2002 8.1547 13.2434 8.20455 13.1604 8.26437ZM13.064 8.40727C12.931 8.41392 13.064 8.2544 13.0972 8.11814C13.0839 8.27102 13.1304 8.39398 13.064 8.40727Z" fill="white" stroke="#BD6B00" stroke-width="0.0166166"/>
<path fill-rule="evenodd" clip-rule="evenodd" d="M12.9821 8.53328C12.8924 8.51334 12.9156 8.38373 12.9887 8.22754C12.9721 8.39703 13.0652 8.4934 12.9821 8.53328ZM13.0153 8.78918C13.0486 8.88888 13.3078 8.65625 13.3477 8.56319C13.2147 8.67619 12.9921 8.71274 13.0153 8.78918Z" fill="white" stroke="#BD6B00" stroke-width="0.0166166"/>
<path fill-rule="evenodd" clip-rule="evenodd" d="M12.8578 8.94883C12.8944 9.04853 13.1669 8.84248 13.25 8.72949C13.0872 8.86242 12.8379 8.84913 12.8578 8.94883Z" fill="white" stroke="#BD6B00" stroke-width="0.0166166"/>
<path fill-rule="evenodd" clip-rule="evenodd" d="M12.6992 9.11186C12.7424 9.25477 13.0282 9.02546 13.1113 8.91246C12.9319 9.05204 12.6793 9.01216 12.6992 9.11186ZM12.9651 8.7463C12.8887 8.78286 12.8588 8.56684 12.902 8.41064C12.902 8.57681 13.0582 8.7031 12.9684 8.74298L12.9651 8.7463Z" fill="white" stroke="#BD6B00" stroke-width="0.0166166"/>
<path fill-rule="evenodd" clip-rule="evenodd" d="M12.8347 8.91894C12.7417 8.94553 12.7683 8.70957 12.8514 8.55338C12.8613 8.70957 12.9278 8.85247 12.8347 8.91894ZM12.6686 9.08178C12.5689 9.08511 12.6353 8.87906 12.7217 8.76275C12.7085 8.91229 12.755 9.06184 12.6686 9.08178ZM12.8514 9.16819C12.8846 9.22136 12.9577 9.12499 13.084 9.05187C12.971 9.08511 12.8381 9.11834 12.8514 9.16819ZM12.9112 7.4168C12.8115 7.34369 12.8879 7.21076 12.9112 7.08447C12.9444 7.20411 13.0242 7.36363 12.9112 7.4168ZM12.9112 7.59294C13.0607 7.57632 13.0375 7.39022 13.0441 7.27058C12.9976 7.43342 12.8779 7.46001 12.9112 7.59626V7.59294ZM12.8912 7.56968C12.7683 7.56303 12.7749 7.42345 12.7683 7.28387C12.8314 7.41348 12.9012 7.43342 12.8912 7.56968Z" fill="white" stroke="#BD6B00" stroke-width="0.0166166"/>
<path fill-rule="evenodd" clip-rule="evenodd" d="M12.8944 7.7426C12.9941 7.75257 13.0406 7.6562 13.0605 7.50997C12.9708 7.64623 12.8911 7.60302 12.8944 7.7426ZM12.8611 7.73263C12.7382 7.74925 12.7614 7.60635 12.7614 7.5C12.8013 7.5997 12.901 7.63293 12.8611 7.73263Z" fill="white" stroke="#BD6B00" stroke-width="0.0166166"/>
<path fill-rule="evenodd" clip-rule="evenodd" d="M13.0547 7.67285C13.0447 7.7659 12.9849 7.92542 12.8885 7.88887C12.852 7.77587 12.9749 7.75261 13.0547 7.67285Z" fill="white" stroke="#BD6B00" stroke-width="0.0166166"/>
<path fill-rule="evenodd" clip-rule="evenodd" d="M12.8612 7.89874C12.9011 7.81898 12.7615 7.77578 12.7349 7.66943C12.7183 7.8223 12.7316 7.922 12.8612 7.90206V7.89874ZM13.2567 6.92833C13.1802 6.84857 13.2467 6.71564 13.27 6.58936C13.3032 6.70899 13.353 6.86851 13.2567 6.92833ZM13.2567 7.08121C13.3896 7.09782 13.4228 6.82531 13.4395 6.70567C13.3929 6.86851 13.2401 6.9383 13.2567 7.08453V7.08121ZM13.2301 7.08121C13.137 7.03136 13.157 6.92501 13.1304 6.84857C13.1902 6.94495 13.25 6.95824 13.2301 7.08121Z" fill="white" stroke="#BD6B00" stroke-width="0.0166166"/>
<path fill-rule="evenodd" clip-rule="evenodd" d="M13.2603 7.26072C13.3966 7.27069 13.4797 6.96827 13.4863 6.84863C13.4431 7.01148 13.2404 7.09788 13.257 7.26072H13.2603ZM13.2304 7.25408C13.0975 7.22417 13.1141 7.13776 13.1341 7.00151C13.1773 7.14108 13.2504 7.11117 13.2304 7.25408Z" fill="white" stroke="#BD6B00" stroke-width="0.0166166"/>
<path fill-rule="evenodd" clip-rule="evenodd" d="M13.2615 7.43356C13.4144 7.46015 13.4044 7.21422 13.5273 7.03809C13.421 7.17102 13.2282 7.33718 13.2615 7.43356ZM13.2282 7.42359C13.1086 7.43024 13.0953 7.2541 13.102 7.18099C13.1319 7.2541 13.2681 7.32057 13.2249 7.42691L13.2282 7.42359Z" fill="white" stroke="#BD6B00" stroke-width="0.0166166"/>
<path fill-rule="evenodd" clip-rule="evenodd" d="M13.5 7.24414C13.4435 7.43357 13.3604 7.623 13.2607 7.60971C13.2109 7.50004 13.3571 7.48674 13.5 7.24414Z" fill="white" stroke="#BD6B00" stroke-width="0.0166166"/>
<path fill-rule="evenodd" clip-rule="evenodd" d="M13.223 7.57989C13.2629 7.49681 13.1233 7.45693 13.0967 7.35059C13.0801 7.50346 13.0934 7.60316 13.223 7.57989ZM13.459 7.46026C13.3759 7.62974 13.3393 7.82582 13.2264 7.79591C13.1831 7.66298 13.3526 7.63639 13.459 7.46026Z" fill="white" stroke="#BD6B00" stroke-width="0.0166166"/>
<path fill-rule="evenodd" clip-rule="evenodd" d="M13.2039 7.76601C13.2537 7.67295 13.1142 7.64305 13.0776 7.52008C13.061 7.6796 13.0776 7.79592 13.2039 7.76268V7.76601ZM12.9646 6.61946C12.8849 6.6394 12.7985 6.54968 12.8284 6.41342C12.9214 6.43336 12.9613 6.51977 12.9646 6.61946ZM13.2272 6.54968C13.2205 6.58955 13.1707 6.59288 13.1873 6.53638C13.1997 6.49974 13.1997 6.46003 13.1873 6.42339C13.1713 6.37369 13.1713 6.32022 13.1873 6.27052C13.2006 6.23728 13.2471 6.25722 13.2272 6.28381C13.2072 6.31372 13.2039 6.37686 13.2205 6.40677C13.2405 6.44998 13.2338 6.50647 13.2272 6.54968ZM12.4661 7.08141C12.4994 7.12461 12.5625 7.0947 12.5126 7.03156C12.4728 6.98171 12.4129 6.9385 12.4129 6.88533C12.4063 6.81886 12.3697 6.71916 12.3332 6.68261C12.2966 6.64605 12.2534 6.6959 12.2933 6.72249C12.3365 6.74907 12.3664 6.86871 12.3631 6.91524C12.3664 6.98171 12.4296 7.03156 12.4661 7.08141ZM12.5658 7.00497C12.5991 7.0515 12.6456 7.02159 12.619 6.94847C12.5957 6.89862 12.5924 6.83216 12.5658 6.7956C12.5259 6.7391 12.4661 6.69258 12.4296 6.65602C12.3897 6.62279 12.3631 6.65602 12.3963 6.68925C12.4371 6.72994 12.4738 6.77446 12.506 6.82219C12.5525 6.8953 12.5326 6.95512 12.5658 7.00497ZM13.0876 6.76569C13.0909 6.83216 13.0377 6.84545 13.0411 6.7524C13.0411 6.6527 13.1142 6.55965 13.0743 6.4101C13.0477 6.33698 13.0477 6.20073 13.061 6.13094C13.0743 6.05783 13.1275 6.10435 13.1042 6.16085C13.0843 6.22731 13.1075 6.34695 13.1241 6.4101C13.174 6.58955 13.0843 6.67596 13.0909 6.76569H13.0876ZM12.9447 6.40013C12.9513 6.46327 13.0045 6.46659 12.9879 6.38351C12.9746 6.31704 12.9746 6.26387 12.9879 6.20737C13.0078 6.13758 13.0012 6.01795 12.9879 5.9681C12.9713 5.91492 12.9214 5.94483 12.9414 5.98471C12.9646 6.04753 12.968 6.11594 12.9513 6.18079C12.9314 6.24725 12.9347 6.34031 12.9447 6.40345V6.40013ZM13.4631 7.63308C13.4365 7.66298 13.3967 7.64305 13.4299 7.59984C13.4631 7.56661 13.4531 7.55996 13.4731 7.52008C13.493 7.47356 13.4897 7.45029 13.513 7.42038C13.5362 7.38715 13.5661 7.42038 13.5462 7.44365C13.5196 7.47688 13.5263 7.49682 13.513 7.52673C13.4797 7.57658 13.4897 7.60317 13.4631 7.63308ZM12.7852 8.45061C12.7445 8.47306 12.71 8.50507 12.6845 8.54386C12.659 8.58266 12.6434 8.62707 12.6389 8.67327C12.6355 8.75603 12.6127 8.83683 12.5725 8.90923C12.6389 8.89261 12.6722 8.78626 12.6821 8.68324C12.6921 8.5769 12.7486 8.53369 12.7818 8.45061H12.7852ZM12.6157 8.64669C12.5592 8.74971 12.4827 8.78959 12.4761 8.86602C12.4694 8.95575 12.4628 8.95908 12.4395 9.04548C12.506 9.02887 12.5226 9.02222 12.5392 8.88929C12.5492 8.79623 12.6256 8.73309 12.6157 8.64669Z" fill="white" stroke="#BD6B00" stroke-width="0.0166166"/>
<path fill-rule="evenodd" clip-rule="evenodd" d="M10.8674 9.60378C10.8341 9.6636 10.8009 9.75333 10.7344 9.73671C10.7344 9.69351 10.8042 9.66028 10.8674 9.60378ZM10.7677 9.62372C10.6447 9.67689 10.535 9.6636 10.5184 9.74336C10.6381 9.75665 10.6846 9.71013 10.771 9.62372H10.7677ZM11.3027 9.20166C11.2202 9.26586 11.1616 9.356 11.1366 9.45756C11.1098 9.54942 11.0695 9.63679 11.0169 9.71677C11.1034 9.6587 11.1659 9.57137 11.1931 9.47085C11.2163 9.37115 11.2462 9.29471 11.3027 9.20498V9.20166ZM11.1997 9.20166C11.1067 9.27477 11.0203 9.36118 10.9937 9.4642C10.9671 9.56058 10.9505 9.63369 10.8873 9.73007C10.987 9.66692 11.0236 9.57387 11.0535 9.47085C11.0767 9.37115 11.1366 9.29804 11.1997 9.20498V9.20166ZM10.894 9.44426C10.8953 9.43595 10.8937 9.42745 10.8894 9.42019C10.8852 9.41292 10.8786 9.40734 10.8707 9.40438C10.8423 9.39435 10.8134 9.38548 10.7843 9.3778C10.7511 9.36783 10.7311 9.39109 10.7311 9.40771V9.47417C10.7311 9.49743 10.7378 9.50076 10.7544 9.50408C10.7777 9.5074 10.8109 9.51073 10.8341 9.52734C10.8541 9.54064 10.874 9.53067 10.884 9.51073L10.894 9.44426ZM10.5417 9.44426C10.5417 9.42432 10.5483 9.40771 10.5616 9.40438C10.5869 9.39394 10.6141 9.38939 10.6414 9.39109C10.6746 9.39109 10.678 9.39774 10.678 9.41103V9.48082C10.678 9.50741 10.678 9.50741 10.6647 9.51405C10.6414 9.51405 10.6048 9.51405 10.5816 9.53399C10.565 9.54396 10.5483 9.53399 10.545 9.51405L10.5417 9.44426Z" fill="white"/>
<path fill-rule="evenodd" clip-rule="evenodd" d="M11.4487 10.3781C11.4487 10.418 11.4554 10.4512 11.4819 10.4811C11.3299 10.4352 11.1662 10.4482 11.0233 10.5177C10.9635 10.5442 10.8904 10.4844 10.9602 10.4279C11.0599 10.3515 11.2825 10.3947 11.4487 10.3781ZM9.5378 10.3781C9.54069 10.4119 9.53616 10.4459 9.52451 10.4778C9.67073 10.4213 9.82693 10.4711 9.97648 10.531C10.0762 10.5742 10.0861 10.4977 10.0695 10.4745C10.0511 10.4467 10.0266 10.4235 9.99775 10.4068C9.96892 10.3901 9.93662 10.3802 9.90336 10.3781H9.5378ZM9.66409 9.65692C9.62088 9.64031 9.57436 9.65692 9.53115 9.70345C9.38825 9.84303 9.21876 9.97928 9.08251 10.089C9.03266 10.1322 8.98281 10.2119 9.1955 10.2884C9.20547 10.295 9.36166 10.3548 9.46136 10.3548C9.50457 10.3548 9.50457 10.4146 9.4946 10.4313C9.47798 10.4645 9.49127 10.4778 9.45804 10.5077C9.42148 10.5409 9.45804 10.5775 9.49127 10.5509C9.61091 10.4445 9.81031 10.5143 9.99974 10.5742C10.0463 10.5874 10.126 10.5841 10.126 10.521C10.126 10.4545 10.1759 10.408 10.2058 10.4047C10.2855 10.418 10.671 10.4213 10.7874 10.408C10.8538 10.398 10.8605 10.5044 10.897 10.5409C10.9236 10.5708 11.02 10.5775 11.0898 10.5476C11.2227 10.4878 11.4221 10.4878 11.5052 10.5476C11.5384 10.5708 11.5683 10.5476 11.5484 10.5243C11.5218 10.4911 11.5251 10.4711 11.5118 10.4445C11.4786 10.3781 11.5052 10.3648 11.5384 10.3615C11.904 10.3116 12.0236 10.1887 11.9106 10.0856C11.7644 9.95934 11.6049 9.82973 11.4653 9.68019C11.4254 9.64031 11.3989 9.62369 11.3224 9.65692C11.0578 9.77692 10.7721 9.84355 10.4816 9.853C10.2003 9.83483 9.92393 9.76968 9.66409 9.66025V9.65692Z" fill="white"/>
<path fill-rule="evenodd" clip-rule="evenodd" d="M11.3851 9.67676L11.3319 9.69005C11.0328 9.7964 10.7603 9.86951 10.4779 9.86951C10.202 9.86951 9.91289 9.78975 9.65035 9.6834C9.6342 9.67783 9.61665 9.67783 9.6005 9.6834C9.58388 9.68673 9.56726 9.6967 9.55729 9.70667C9.43447 9.82951 9.30345 9.94387 9.16514 10.049C9.14188 10.0656 9.1452 10.1088 9.18176 10.1221C9.45759 10.2218 9.72678 10.4046 10.4978 10.3979C11.2788 10.3913 11.5546 10.2118 11.8005 10.1287C11.8171 10.1221 11.8338 10.1121 11.8437 10.0955C11.8461 10.0915 11.8476 10.0871 11.8482 10.0826C11.8488 10.078 11.8484 10.0733 11.8471 10.0689C11.8428 10.0585 11.8359 10.0494 11.8271 10.0423C11.6842 9.92601 11.5347 9.83295 11.435 9.6967C11.425 9.68008 11.4051 9.67676 11.3851 9.68008V9.67676ZM11.3851 9.69337C11.4017 9.69337 11.4183 9.69337 11.4217 9.70334C11.5214 9.84625 11.6776 9.93598 11.8171 10.0523L11.8304 10.0756C11.8314 10.0777 11.8318 10.0799 11.8318 10.0822C11.8318 10.0845 11.8314 10.0868 11.8304 10.0888C11.8271 10.0988 11.8105 10.1088 11.7972 10.1121C11.5446 10.1985 11.2754 10.378 10.5011 10.3846C9.73011 10.3913 9.46424 10.2085 9.18841 10.1088C9.16182 10.0955 9.16514 10.0689 9.17511 10.0623C9.31469 9.95592 9.44762 9.83628 9.56726 9.71664C9.57756 9.707 9.59014 9.70013 9.60382 9.6967H9.6437C9.90635 9.81081 10.1883 9.87397 10.4745 9.8828C10.7637 9.8828 11.0395 9.80969 11.3386 9.70667C11.3546 9.70032 11.3714 9.69586 11.3884 9.69337H11.3851Z" fill="#BD6B00"/>
<path fill-rule="evenodd" clip-rule="evenodd" d="M9.49551 4.66179C9.49551 4.61526 9.56198 4.61194 9.55533 4.67508C9.54536 4.75152 9.70488 4.95091 9.71817 5.07388C9.72814 5.15696 9.66832 5.22675 9.61183 5.27328C9.57924 5.29635 9.54097 5.3101 9.50115 5.31303C9.46132 5.31595 9.42145 5.30796 9.38584 5.28989C9.35593 5.26331 9.32935 5.18022 9.35261 5.14699C9.35925 5.13702 9.39581 5.26995 9.47557 5.26995C9.58524 5.26995 9.67497 5.18687 9.67497 5.11376C9.68162 4.98747 9.49883 4.78807 9.49551 4.66179ZM9.81123 4.97418C9.83117 4.96088 9.85775 5.01738 9.83781 5.03067C9.8212 5.04064 9.78796 4.98747 9.81123 4.97085V4.97418ZM9.86108 4.85786C9.85111 4.86451 9.83449 4.85786 9.83781 4.85121C9.86975 4.80684 9.91048 4.76951 9.95745 4.74155C9.97074 4.7349 9.99068 4.75484 9.98404 4.76481C9.95013 4.80422 9.90821 4.83594 9.86108 4.85786ZM10.2798 4.52553C10.2898 4.50559 10.3496 4.48233 10.3662 4.46903C10.3795 4.45242 10.3862 4.48233 10.3795 4.4923C10.3695 4.51556 10.3164 4.54879 10.2931 4.55212C10.2831 4.55212 10.2732 4.53882 10.2798 4.52885V4.52553ZM10.4227 4.5355C10.4402 4.49131 10.4688 4.45238 10.5058 4.42251C10.5224 4.41254 10.549 4.42251 10.5424 4.4358C10.5198 4.47976 10.4867 4.51744 10.446 4.54547C10.436 4.55544 10.4194 4.54547 10.4227 4.5355ZM10.2998 4.62523C10.2898 4.63188 10.2964 4.64849 10.3031 4.65182C10.323 4.65846 10.3529 4.65846 10.3695 4.65182C10.3895 4.63852 10.3795 4.55544 10.3529 4.59864C10.333 4.62523 10.3197 4.61858 10.2998 4.62523ZM10.0572 4.81133C10.0139 4.7781 10.0704 4.73158 10.1136 4.76481C10.2034 4.83127 9.98071 5.09049 9.86108 5.21013C9.83781 5.2334 9.81787 5.1769 9.84778 5.14699C9.93431 5.0745 10.0094 4.98935 10.0704 4.89442C10.0837 4.8778 10.0937 4.84124 10.0572 4.81133ZM10.5656 4.592C10.5689 4.55876 10.5124 4.592 10.5124 4.54879C10.5124 4.52553 10.5756 4.50891 10.6022 4.5355C10.6454 4.58203 10.6121 4.65846 10.5357 4.66511C10.4759 4.66511 10.3695 4.75484 10.3862 4.77146C10.4028 4.79472 10.5656 4.80801 10.662 4.79472C10.7218 4.78475 10.7085 4.83792 10.6487 4.84457C10.5889 4.85121 10.5424 4.84457 10.4892 4.86451C10.4227 4.88112 10.3961 4.96421 10.3596 4.99744C10.3529 5.00409 10.333 4.97085 10.3396 4.95756C10.3662 4.91768 10.4061 4.85786 10.4526 4.83792C10.4792 4.82795 10.3729 4.82463 10.3396 4.81466C10.313 4.80801 10.3197 4.77146 10.3297 4.75152C10.343 4.72493 10.4427 4.62191 10.4859 4.62523C10.5224 4.62523 10.5623 4.61526 10.5656 4.592ZM10.7318 4.59864C10.7517 4.58203 10.765 4.55544 10.7816 4.53882C10.7916 4.52885 10.8115 4.53882 10.8082 4.56541C10.8049 4.58867 10.775 4.60529 10.7584 4.62191C10.7418 4.63188 10.7251 4.60861 10.7351 4.59864H10.7318ZM10.9478 4.52221C10.9777 4.52221 10.981 4.57538 10.9544 4.58203C10.9345 4.58867 10.9212 4.52553 10.9478 4.52221ZM10.878 4.68837C10.878 4.73822 10.9013 4.7349 10.9445 4.73158C10.9877 4.73158 11.0242 4.73158 11.0242 4.6917C11.0242 4.64849 11.001 4.60861 10.991 4.63852C10.9877 4.66511 10.981 4.71164 10.9644 4.6917C10.9511 4.67508 10.9578 4.67176 10.9312 4.69834C10.9146 4.71496 10.9146 4.6917 10.9046 4.6784C10.8979 4.66843 10.878 4.68505 10.878 4.6917V4.68837ZM10.5723 4.92765C10.5623 4.99079 10.5723 5.0772 10.6022 5.0772C10.6421 5.0772 10.7218 4.94427 10.7617 4.87115C10.785 4.83127 10.8215 4.82463 10.8049 4.86783C10.7816 4.93097 10.785 5.06723 10.8049 5.10711C10.8182 5.12705 10.9046 5.08717 10.9179 5.05726C10.9445 5.00076 10.9212 4.89774 10.9312 4.8346C10.9345 4.79472 10.9744 4.78475 10.9711 4.82463C10.9658 4.9076 10.9647 4.99079 10.9677 5.07388C10.9677 5.10711 11.0641 5.15364 11.0774 5.05394C11.0841 4.99412 11.1173 4.93097 11.0774 4.86451C11.0508 4.8213 11.114 4.82463 11.1472 4.88445C11.1705 4.92433 11.1273 4.99079 11.1306 5.04064C11.1306 5.1204 11.0708 5.16693 11.0276 5.16693C10.9877 5.16693 10.9611 5.11708 10.9279 5.11708C10.8946 5.11708 10.8547 5.17358 10.8282 5.17025C10.7085 5.16361 10.7717 4.99412 10.7351 4.99079C10.6952 4.99079 10.652 5.15696 10.6022 5.15364C10.5556 5.14699 10.5025 5.01406 10.5257 4.96088C10.5424 4.90771 10.5756 4.89442 10.5723 4.92765ZM11.1339 4.66179C11.0774 4.62855 11.1339 4.53882 11.1638 4.56873C11.217 4.6352 11.2702 4.78475 11.31 4.79804C11.3333 4.80469 11.33 4.68505 11.3466 4.63188C11.3599 4.58867 11.4064 4.60197 11.3998 4.65514C11.3964 4.67176 11.3333 4.86783 11.3399 4.87448C11.3842 4.95742 11.4209 5.04417 11.4496 5.1337C11.4596 5.17358 11.4131 5.14699 11.4064 5.14034C11.3765 5.09382 11.3267 4.92433 11.3267 4.9343L11.2702 5.19019C11.2635 5.22343 11.2137 5.21678 11.227 5.15696C11.2369 5.11043 11.3034 4.88112 11.3001 4.87115C11.262 4.78921 11.2051 4.71746 11.1339 4.66179Z" fill="white"/>
<path fill-rule="evenodd" clip-rule="evenodd" d="M11.2319 5.21345C11.2186 5.21345 11.1921 5.24668 11.2718 5.2633C11.3748 5.28324 11.4912 5.24668 11.5244 5.14366C11.5676 5.02069 11.5909 4.90438 11.6141 4.86118C11.6407 4.81133 11.6739 4.81465 11.6473 4.74154C11.6307 4.68504 11.5975 4.70166 11.5909 4.73157C11.5742 4.808 11.5044 5.0639 11.4812 5.1071C11.4413 5.19351 11.3582 5.22674 11.2319 5.21345Z" fill="white"/>
<path fill-rule="evenodd" clip-rule="evenodd" d="M11.4464 4.80772C11.4331 4.78446 11.4065 4.80772 11.4132 4.83099C11.4147 4.84037 11.4196 4.84888 11.427 4.85498C11.4343 4.86107 11.4435 4.86435 11.453 4.86422C11.4763 4.86422 11.5262 4.86754 11.5262 4.83099C11.5262 4.8044 11.5029 4.78114 11.4896 4.81105C11.473 4.83763 11.4564 4.83431 11.4464 4.81105V4.80772ZM11.4697 4.70802C11.463 4.71467 11.4697 4.74458 11.4796 4.74126C11.5178 4.74153 11.5555 4.7324 11.5893 4.71467C11.5959 4.70802 11.5926 4.69141 11.5826 4.69141C11.5494 4.69141 11.4962 4.69141 11.4697 4.70802ZM11.7621 4.78446C11.7887 4.74458 11.8552 4.74126 11.8286 4.79775C11.7603 4.93479 11.6905 5.07105 11.6192 5.20652C11.5926 5.25305 11.5727 5.22978 11.5926 5.19323C11.6159 5.1467 11.7555 4.79443 11.7621 4.78446Z" fill="white"/>
<path fill-rule="evenodd" clip-rule="evenodd" d="M11.5048 5.27338C11.4982 5.2468 11.455 5.20692 11.4616 5.28003C11.4683 5.40631 11.6444 5.36644 11.6943 5.32323C11.7441 5.28003 11.7042 5.46613 11.7674 5.48607C11.8006 5.49604 11.8671 5.44952 11.9003 5.40631C11.99 5.29 12.0499 5.12051 12.1329 5.00752C12.1662 4.96099 12.1163 4.92776 12.0997 4.96431C12.0199 5.0906 11.9269 5.34982 11.8239 5.41628C11.7408 5.46946 11.7674 5.34982 11.7641 5.30994C11.7607 5.28335 11.7275 5.24347 11.6843 5.28003C11.6495 5.30786 11.6058 5.32204 11.5613 5.31991C11.5381 5.31991 11.5148 5.31991 11.5048 5.27338Z" fill="white"/>
<path fill-rule="evenodd" clip-rule="evenodd" d="M11.8178 5.0408C11.8178 5.03083 11.7812 5.02751 11.7845 5.06407C11.7845 5.09065 11.8178 5.0973 11.8211 5.0973C11.8709 5.05742 11.8111 5.07736 11.8178 5.03748V5.0408ZM11.7413 5.18703C11.7314 5.18703 11.7214 5.22026 11.748 5.22359L11.8776 5.21694C11.8909 5.21694 11.8975 5.18703 11.8643 5.19035C11.8244 5.19035 11.7746 5.18038 11.7413 5.19035V5.18703ZM9.68088 4.63536C9.69749 4.63536 9.73405 4.68189 9.73073 4.6985C9.73073 4.70515 9.69085 4.6985 9.68088 4.68853C9.67091 4.67856 9.67423 4.63536 9.68088 4.63536ZM9.50474 4.98098C9.47151 5.00092 9.51139 5.03748 9.53798 5.02086C9.63103 4.95772 9.77061 4.89458 9.80384 4.77162C9.81381 4.73174 9.85037 4.66859 9.88692 4.6553C9.92016 4.63868 9.97333 4.71844 10.0066 4.6553C10.0265 4.62207 10.0963 4.67856 10.1129 4.64201C10.1328 4.5988 10.1229 4.57554 10.1229 4.52901C10.1229 4.50243 10.0996 4.49578 10.083 4.53898C10.0764 4.55892 10.083 4.57886 10.0797 4.59216C10.073 4.5988 10.0597 4.60545 10.0464 4.5988C10.0398 4.59216 10.0464 4.57554 10.0265 4.56557C10.0199 4.56557 10.0066 4.56225 9.99992 4.57222C9.97665 4.61542 9.96668 4.6553 9.93013 4.60545C9.90022 4.57222 9.8836 4.50243 9.86366 4.59548C9.85701 4.62871 9.80716 4.67524 9.77725 4.67524C9.7407 4.67524 9.75067 4.57554 9.67091 4.59216C9.62771 4.60213 9.63103 4.68189 9.63768 4.70847C9.64765 4.75168 9.77061 4.72177 9.76064 4.74835C9.7407 4.83808 9.61441 4.92781 9.50474 4.98098ZM8.75035 5.41966C8.74703 5.43628 8.76697 5.47616 8.78691 5.47948C8.80685 5.47948 8.82014 5.43628 8.81349 5.41966C8.80685 5.40969 8.75367 5.40969 8.75035 5.41966ZM8.86002 5.5825C8.84673 5.56921 8.80685 5.60577 8.84008 5.63235C8.8567 5.64897 8.92316 5.66891 8.93978 5.639C8.96637 5.59912 8.91652 5.45622 8.93978 5.4396C8.9564 5.42298 9.03283 5.53265 9.07271 5.5393C9.16244 5.55259 9.13918 5.38643 9.23888 5.39972C9.30202 5.40637 9.30867 5.32661 9.2987 5.27344C9.29205 5.22359 9.21229 5.1538 9.17574 5.12056C9.12921 5.08068 9.10595 5.1538 9.13585 5.17374C9.17573 5.20697 9.24552 5.27011 9.25549 5.30999C9.25882 5.32993 9.20897 5.36981 9.18903 5.35984C9.1425 5.33326 9.10262 5.22691 9.06274 5.20365C9.04945 5.197 9.01622 5.21362 9.02951 5.24685C9.04945 5.28341 9.12921 5.33658 9.13253 5.37646C9.13585 5.40969 9.0993 5.4828 9.07271 5.4828C9.0428 5.4828 8.97301 5.39307 8.94975 5.34987C8.93646 5.33326 8.8999 5.33326 8.89325 5.36316C8.89109 5.42455 8.89668 5.48596 8.90987 5.54595C8.91652 5.59912 8.87996 5.60244 8.86002 5.5825ZM8.72709 5.2967C8.71379 5.30999 8.75367 5.33658 8.76032 5.32993C8.77361 5.31664 8.83011 5.2535 8.82014 5.23023C8.81017 5.21029 8.73373 5.16377 8.72044 5.18703C8.69718 5.22359 8.79355 5.24353 8.77694 5.2535C8.75835 5.26546 8.74157 5.28 8.72709 5.2967ZM8.86334 5.01754C8.86334 5.01754 8.88993 5.10062 8.90987 5.06407C8.92316 5.0408 8.86334 5.01754 8.86334 5.01754ZM8.90322 5.15047C8.89658 5.15047 8.86999 5.17374 8.88661 5.18371C8.91319 5.197 8.98298 5.21029 8.96637 5.16044C8.9564 5.13053 9.07271 5.16044 9.0428 5.08068C9.03078 5.05609 9.0109 5.03621 8.98631 5.02419C8.97301 5.02419 8.93646 5.0408 8.95972 5.0541C8.97634 5.06074 9.02619 5.09065 9.00957 5.11059C8.98631 5.13053 8.97301 5.10062 8.94643 5.10727C8.93313 5.10727 8.9431 5.14715 8.93313 5.15712C8.93313 5.16377 8.90987 5.14383 8.90322 5.14715V5.15047ZM9.08601 4.83476C9.0655 4.8517 9.05143 4.87516 9.04613 4.90122C9.04613 4.90787 9.0561 4.92116 9.06274 4.91784C9.08323 4.90231 9.0974 4.87987 9.10262 4.8547C9.10262 4.84473 9.09598 4.82811 9.08601 4.83476ZM9.17906 4.82479C9.15247 4.79156 9.21229 4.73838 9.23555 4.80817C9.25217 4.85137 9.41834 5.07071 9.45157 5.14383C9.47816 5.19368 9.45157 5.21362 9.42166 5.17706C9.33858 5.07071 9.26879 4.93778 9.17906 4.82479ZM9.35187 4.82811C9.38178 4.79488 9.4416 4.72841 9.42498 4.69518C9.41169 4.66195 9.37513 4.66195 9.36849 4.67192C9.33525 4.71512 9.39507 4.70515 9.3851 4.71844C9.36849 4.75168 9.35187 4.77162 9.3419 4.80485C9.33858 4.81482 9.34522 4.83476 9.35187 4.82811ZM11.9374 4.93446C11.9141 4.91784 11.9573 4.83476 11.9873 4.86799C12.0637 4.95772 12.1002 5.2535 12.1235 5.47616C12.1235 5.47616 12.0903 5.50607 12.0903 5.49942C12.0903 5.3831 12.0404 5.02086 11.9374 4.93446ZM10.1727 4.64865C10.1461 4.58883 10.2093 4.56889 10.2193 4.60877C10.2625 4.80153 10.3688 4.94775 10.4519 5.07736C10.4752 5.11724 10.4519 5.14383 10.3954 5.10395C10.3555 5.07736 10.3123 4.97434 10.2957 4.97101C10.2558 4.96437 10.1694 5.13718 9.99327 5.08733C9.94674 5.07404 9.95007 4.93778 9.94674 4.87796C9.94674 4.84805 9.97998 4.84473 9.97998 4.87796C9.97998 4.93446 9.97998 5.05077 10.0498 5.05742C10.1096 5.05742 10.2359 4.97766 10.2625 4.91119C10.289 4.84473 10.1993 4.71512 10.1727 4.64533V4.64865Z" fill="white"/>
<path fill-rule="evenodd" clip-rule="evenodd" d="M11.9835 5.4528C11.9968 5.41293 12.1863 5.09389 12.2129 5.0241C12.2262 4.99086 12.2793 5.08392 12.2262 5.13377C12.1796 5.17365 12.0434 5.39963 12.0168 5.47939C12.0035 5.51262 11.9703 5.49601 11.9835 5.4528Z" fill="white"/>
<path fill-rule="evenodd" clip-rule="evenodd" d="M12.307 5.15013C12.3402 5.0172 12.4266 5.17007 12.3502 5.24319C12.2372 5.35618 12.2006 5.57219 12.0178 5.60543C11.9713 5.6154 11.8849 5.58216 11.8583 5.56222C11.8483 5.55558 11.865 5.50905 11.8949 5.53231C11.9381 5.56555 12.0311 5.57552 12.081 5.53564C12.1896 5.42977 12.2676 5.2966 12.307 5.15013ZM10.4127 5.57219C10.4027 5.58216 10.3794 5.58216 10.3761 5.59546C10.3661 5.64198 10.3761 5.66857 10.3661 5.7151C10.3562 5.76162 10.3229 5.76162 10.3263 5.72507C10.3263 5.67854 10.3695 5.60875 10.3396 5.60543C10.3196 5.6021 10.3063 5.57552 10.3263 5.56222C10.3628 5.53896 10.3828 5.54228 10.406 5.54893C10.416 5.55225 10.4193 5.56555 10.4127 5.57219Z" fill="white"/>
<path fill-rule="evenodd" clip-rule="evenodd" d="M10.3857 5.50617C10.3392 5.55269 10.2927 5.56931 10.2494 5.62248C10.2295 5.64242 10.2328 5.67233 10.2195 5.70224C10.2096 5.73215 10.173 5.73548 10.163 5.73215C10.1464 5.71886 10.1498 5.66569 10.1298 5.69227C10.1099 5.72218 10.0999 5.75874 10.0733 5.75874C10.0501 5.75874 10.0068 5.70889 10.0301 5.70889C10.1065 5.69892 10.1032 5.64242 10.1298 5.63578C10.163 5.63245 10.163 5.68563 10.1863 5.67566C10.1996 5.66901 10.2096 5.60587 10.2262 5.58925C10.276 5.53608 10.3159 5.50949 10.3691 5.46961C10.3924 5.44967 10.4123 5.48623 10.3857 5.50949V5.50617ZM10.5618 5.67233C10.522 5.67898 10.5286 5.72883 10.5419 5.73215C10.5585 5.74212 10.5884 5.74545 10.5984 5.68895C10.605 5.66569 10.6084 5.80526 10.6582 5.75209C10.6915 5.71886 10.7612 5.75874 10.7912 5.71886C10.8144 5.68895 10.8244 5.66901 10.8044 5.62913C10.7978 5.61916 10.7712 5.62248 10.7712 5.65239C10.7712 5.67898 10.7546 5.70889 10.728 5.70557C10.7147 5.70224 10.7347 5.64242 10.7214 5.62581C10.7183 5.62276 10.7141 5.62106 10.7097 5.62106C10.7054 5.62106 10.7012 5.62276 10.6981 5.62581C10.6881 5.6391 10.7081 5.69892 10.6782 5.70557C10.6383 5.71221 10.6582 5.66569 10.6449 5.65904C10.5884 5.63245 10.5851 5.66569 10.5618 5.66901V5.67233ZM10.8609 5.57263C10.8908 5.56599 10.8809 5.56599 10.9274 5.52943C10.944 5.51614 10.9473 5.55602 10.944 5.57263C10.944 5.5959 10.9108 5.57928 10.9008 5.60254C10.8875 5.63245 10.8942 5.70224 10.8875 5.72883C10.8875 5.74212 10.8609 5.74212 10.8609 5.72883C10.8543 5.6956 10.8643 5.66236 10.8609 5.61916C10.8609 5.60587 10.8443 5.5826 10.8609 5.57596V5.57263ZM10.6948 5.48955C10.6881 5.51946 10.6881 5.54272 10.6881 5.56599C10.6881 5.5826 10.7214 5.57263 10.7214 5.56931C10.7214 5.54272 10.728 5.50284 10.7214 5.49287C10.7147 5.48955 10.6981 5.4829 10.6948 5.48955Z" fill="white"/>
<path fill-rule="evenodd" clip-rule="evenodd" d="M10.4852 5.18018L10.4387 5.36628L10.3722 5.24V5.3696L10.226 5.19679L10.2758 5.3829L10.1429 5.26991L10.216 5.39619L9.98339 5.24664L10.1296 5.41945L9.94351 5.3264L10.0764 5.43939L9.77734 5.3264L10.0665 5.4693C10.1978 5.40951 10.3409 5.37999 10.4852 5.3829C10.6481 5.3829 10.7943 5.41613 10.9006 5.4693L11.1931 5.3264L10.894 5.43939L11.0269 5.3264L10.8441 5.41945L10.987 5.24664L10.7544 5.39619L10.8275 5.26991L10.6946 5.37957L10.7444 5.19679L10.6015 5.3696V5.24L10.5351 5.36628L10.4852 5.18018Z" fill="white"/>
<path d="M10.2281 9.21865L10.2188 9.2999H10.2063L10.2031 9.24365C10.1994 9.22655 10.1942 9.20982 10.1875 9.19365C10.1836 9.17964 10.1784 9.16604 10.1719 9.15303L10.1406 9.10928L10.1656 9.04053C10.1865 9.06184 10.2025 9.08743 10.2125 9.11553C10.2235 9.14771 10.2287 9.18154 10.2281 9.21553M10.4469 9.08428C10.4469 9.10615 10.4406 9.12178 10.4312 9.13115C10.425 9.14053 10.4125 9.1499 10.3906 9.15303L10.4031 9.1999C10.4063 9.22062 10.4063 9.24169 10.4031 9.2624C10.4025 9.27597 10.4014 9.28952 10.4 9.30303H10.3875C10.3875 9.28942 10.3865 9.27584 10.3844 9.2624C10.3833 9.25181 10.3812 9.24135 10.3781 9.23115L10.3656 9.1999C10.3594 9.1848 10.3521 9.17017 10.3438 9.15615L10.3125 9.10303L10.3313 9.04053L10.3625 9.07178C10.3719 9.07803 10.3813 9.08115 10.3938 9.08115C10.4188 9.08115 10.4312 9.06865 10.4312 9.04053H10.4438V9.08428M10.6438 9.23428L10.6281 9.2999C10.6156 9.2999 10.6094 9.29053 10.6031 9.27803L10.5906 9.2374C10.5884 9.21979 10.5873 9.20204 10.5875 9.18428C10.5774 9.18769 10.5669 9.18979 10.5562 9.19053C10.5417 9.19124 10.5273 9.18681 10.5156 9.17803C10.5109 9.17431 10.507 9.16957 10.5043 9.16417C10.5016 9.15876 10.5001 9.15282 10.5 9.14678C10.5 9.11865 10.5094 9.09365 10.5219 9.0749C10.5375 9.05303 10.5531 9.04365 10.5688 9.04053C10.5844 9.04053 10.5938 9.04365 10.6 9.05303C10.6053 9.06152 10.6086 9.07116 10.6094 9.08115V9.14365C10.6094 9.17178 10.6125 9.19053 10.6187 9.20303C10.6187 9.2124 10.6281 9.22178 10.6438 9.23428ZM10.5813 9.1249C10.5813 9.10615 10.5719 9.0999 10.5562 9.0999C10.5498 9.09897 10.5433 9.10006 10.5375 9.10303C10.5313 9.10615 10.5312 9.10928 10.5312 9.1124C10.5312 9.12178 10.5406 9.12803 10.5625 9.12803L10.5813 9.1249ZM10.8531 9.21865L10.8438 9.2999C10.8281 9.2874 10.8125 9.26865 10.8 9.2374C10.7829 9.19592 10.7693 9.15306 10.7594 9.10928C10.7438 9.16755 10.725 9.22493 10.7031 9.28115C10.6962 9.28992 10.6877 9.29734 10.6781 9.30303V9.2249C10.6969 9.20303 10.7063 9.19053 10.7094 9.17803C10.7199 9.16142 10.7283 9.14358 10.7344 9.1249L10.75 9.04053H10.7625L10.7906 9.1249C10.7969 9.14365 10.8063 9.1624 10.8188 9.1749L10.85 9.21865" fill="white"/>
<path d="M11.4621 9.98125C11.4746 9.99375 11.4809 10.0063 11.484 10.0188L11.4965 10.0688L11.4715 10.0719C11.4629 10.0551 11.4524 10.0394 11.4402 10.025C11.4293 10.012 11.4179 9.9995 11.4059 9.9875C11.3885 9.97144 11.3708 9.95581 11.3527 9.94063C11.3326 9.92213 11.3117 9.90441 11.2902 9.8875C11.2777 9.88125 11.2715 9.875 11.2715 9.87187C11.2665 9.86436 11.2633 9.85581 11.2621 9.84688C11.2588 9.83038 11.2567 9.81367 11.2559 9.79688L11.3402 9.86563C11.3671 9.88755 11.3932 9.91049 11.4184 9.93437L11.4621 9.98125ZM11.1652 9.8L11.159 9.8625H11.0621L11.0715 9.8H11.1652ZM11.4277 10.0781L11.1902 10.15L11.1496 10.0875L11.3527 10.025L11.3309 10C11.3228 9.99198 11.3132 9.98561 11.3027 9.98125C11.3028 9.98703 11.3018 9.99276 11.2996 9.99813C11.2975 10.0035 11.2943 10.0084 11.2902 10.0125C11.2819 10.0217 11.271 10.0282 11.259 10.0312C11.2406 10.0363 11.2211 10.0363 11.2027 10.0312C11.1869 10.0294 11.1724 10.0216 11.1621 10.0094C11.1482 9.98911 11.1406 9.96519 11.1402 9.94063C11.1402 9.90938 11.1496 9.89062 11.1684 9.88437C11.1902 9.87812 11.2246 9.88437 11.2621 9.90625C11.2989 9.92337 11.3311 9.94909 11.3559 9.98125L11.4277 10.0781ZM11.2465 9.95312C11.2385 9.94907 11.2301 9.94593 11.2215 9.94375C11.2154 9.94201 11.2089 9.94201 11.2027 9.94375C11.1996 9.9441 11.1966 9.94512 11.1939 9.94673C11.1912 9.94835 11.1889 9.95053 11.1871 9.95312C11.1851 9.95583 11.184 9.95912 11.184 9.9625C11.184 9.96588 11.1851 9.96917 11.1871 9.97188L11.2027 9.97812H11.2215L11.234 9.96875L11.2465 9.95312ZM10.9965 9.90312L10.9809 9.96562L10.8809 9.95625L10.8965 9.89375L10.9934 9.90312M11.2277 10.1438L11.1746 10.1562C11.157 10.1591 11.1391 10.1591 11.1215 10.1562C11.1051 10.1555 11.0891 10.1513 11.0746 10.1438C11.0652 10.1594 11.0496 10.175 11.0277 10.1812C11.0118 10.1894 10.9951 10.1957 10.9777 10.2L10.9402 10.2094L10.909 10.1469L10.9434 10.1375C10.9572 10.1344 10.9708 10.1302 10.984 10.125L11.0121 10.1094L10.9809 10.0938H10.959C10.9569 10.0932 10.9548 10.0932 10.9527 10.0938C10.9497 10.0962 10.9476 10.0994 10.9465 10.1031H10.9309C10.9152 10.0781 10.9121 10.0562 10.9215 10.0406C10.9309 10.025 10.9496 10.0156 10.984 10.0094C11.0104 10.0021 11.038 9.99995 11.0652 10.0031C11.0902 10.0063 11.1059 10.0156 11.1121 10.0312C11.1184 10.0375 11.1184 10.0469 11.1184 10.0531L11.1059 10.0906H11.1215C11.1277 10.0916 11.134 10.0916 11.1402 10.0906L11.1934 10.0813L11.2246 10.1438M10.9746 10.2L10.9246 10.2094C10.9009 10.2142 10.8763 10.2097 10.8559 10.1969C10.8307 10.1755 10.8123 10.1473 10.8027 10.1156L10.7777 10.0469C10.7731 10.034 10.7643 10.023 10.7527 10.0156C10.744 10.0094 10.7345 10.0041 10.7246 10L10.7434 9.93437C10.7621 9.94375 10.7746 9.95312 10.7871 9.96562L10.8184 10.0188L10.834 10.0656L10.8684 10.1344C10.8777 10.1437 10.8902 10.1469 10.8996 10.1438L10.9527 10.1375L10.9746 10.2ZM10.7559 9.96562L10.7246 10.025L10.6309 10.0031L10.6621 9.94375L10.7559 9.96562ZM10.8121 10.2281L10.5777 10.25L10.5652 10.1875L10.759 10.1656C10.7546 10.156 10.7482 10.1475 10.7402 10.1406C10.7303 10.1337 10.7198 10.1274 10.709 10.1219L10.7246 10.0594C10.7465 10.0719 10.7621 10.0875 10.7746 10.1C10.784 10.1156 10.7934 10.1375 10.7996 10.1656L10.8121 10.2281ZM10.6246 10.2594C10.6016 10.2588 10.5786 10.2567 10.5559 10.2531C10.5377 10.2494 10.52 10.2442 10.5027 10.2375C10.4898 10.2433 10.4761 10.2475 10.4621 10.25C10.4444 10.2515 10.4267 10.2515 10.409 10.25H10.3465C10.3334 10.2501 10.3205 10.2468 10.309 10.2406C10.2996 10.2344 10.2934 10.225 10.284 10.2094C10.2709 10.2231 10.2549 10.2338 10.2371 10.2406L10.184 10.2437H10.1309L10.1371 10.1781H10.1902C10.2152 10.1781 10.2371 10.1781 10.2559 10.1656C10.2674 10.1613 10.2775 10.1537 10.2847 10.1437C10.2919 10.1336 10.296 10.1217 10.2965 10.1094L10.3184 10.1125C10.317 10.126 10.316 10.1396 10.3152 10.1531C10.3152 10.1625 10.3152 10.1688 10.3246 10.175C10.334 10.1813 10.3434 10.1844 10.3559 10.1844H10.4027C10.434 10.1844 10.4527 10.1844 10.4652 10.1781C10.484 10.1719 10.4934 10.1625 10.4965 10.1438L10.4996 10.1313C10.4996 10.1313 10.509 10.1312 10.5152 10.125L10.5309 10.1187V10.1313C10.5309 10.1344 10.5309 10.1375 10.5309 10.1406L10.5215 10.175C10.5418 10.1819 10.5628 10.1872 10.584 10.1906C10.5871 10.1844 10.584 10.1781 10.5809 10.1687L10.5715 10.15C10.5715 10.1466 10.5726 10.1433 10.5746 10.1406L10.584 10.1344L10.6152 10.1062L10.6309 10.1375V10.1687L10.6246 10.2594ZM10.2715 9.9875L10.209 10.0281L10.1684 10L10.1246 10.0312L10.0652 10L10.1215 9.95938L10.1684 9.98438L10.2152 9.95312L10.2715 9.98438M10.1777 10.2406L9.94961 10.2031L9.97461 10.1406L10.1684 10.1719C10.1684 10.1594 10.1684 10.15 10.1621 10.1406C10.1577 10.1318 10.1524 10.1235 10.1465 10.1156L10.1965 10.0625C10.209 10.0813 10.2152 10.0938 10.2184 10.1125C10.2184 10.1281 10.2121 10.15 10.2027 10.1781L10.1777 10.2406ZM9.98711 10.2094L9.93711 10.2C9.90898 10.1937 9.89336 10.1813 9.89023 10.1625C9.88398 10.1438 9.89336 10.1156 9.91523 10.075L9.95273 10.0125C9.96211 9.99687 9.96523 9.98438 9.96211 9.975C9.96028 9.96722 9.95711 9.95982 9.95273 9.95312L10.0215 9.90312C10.0309 9.91875 10.0309 9.93437 10.0309 9.94687C10.0309 9.9625 10.0215 9.98125 10.009 10.0031L9.98398 10.0469C9.96996 10.0676 9.96039 10.091 9.95586 10.1156C9.95586 10.1281 9.96211 10.1344 9.97148 10.1375L10.0215 10.15L9.98711 10.2125M9.86836 9.9625L9.79023 9.99687L9.73398 9.94375L9.81523 9.9125L9.86836 9.96562M9.83711 10.1719C9.82284 10.189 9.80597 10.2038 9.78711 10.2156C9.77097 10.2256 9.75284 10.232 9.73398 10.2344L9.65898 10.2312C9.62918 10.2268 9.59987 10.2195 9.57148 10.2094C9.53124 10.1981 9.49462 10.1766 9.46523 10.1469C9.44648 10.1219 9.44648 10.1 9.46523 10.0781C9.48282 10.0578 9.504 10.0408 9.52773 10.0281C9.55273 10.0125 9.59023 9.99687 9.64648 9.97812L9.65898 9.99375L9.57148 10.0312C9.55586 10.0406 9.54023 10.05 9.53086 10.0625C9.51836 10.075 9.52148 10.0938 9.53711 10.1125C9.59351 10.1562 9.66263 10.1804 9.73398 10.1812C9.77148 10.1812 9.79648 10.1719 9.80586 10.1594C9.81523 10.15 9.81836 10.1406 9.82148 10.1281L9.82773 10.0781L9.90586 10.0312C9.90629 10.0469 9.90525 10.0626 9.90273 10.0781C9.89606 10.0969 9.88539 10.1139 9.87148 10.1281L9.83398 10.1719" fill="#BF0000"/>
</g>
<defs>
<clipPath id="clip0_1_524">
<rect width="20" height="15" fill="white" transform="translate(0.5)"/>
</clipPath>
</defs>
</svg>
