<svg width="21" height="15" viewBox="0 0 21 15" fill="none" xmlns="http://www.w3.org/2000/svg">
<g clip-path="url(#clip0_1_648)">
<path d="M0.5 0H20.5V15H0.5V0Z" fill="#FF0000"/>
<path d="M9.00039 2.91553C8.85664 2.91553 8.61602 2.9624 8.61914 3.07178C8.21289 3.00615 8.17227 3.17178 8.19727 3.32178C8.23477 3.2624 8.28164 3.22803 8.31914 3.2249C8.37227 3.21553 8.42852 3.23428 8.48789 3.26865C8.5439 3.30378 8.59443 3.34695 8.63789 3.39678C8.49414 3.43115 8.38164 3.40928 8.26914 3.39053C8.20557 3.37698 8.14513 3.35153 8.09102 3.31553C8.04414 3.28428 8.02852 3.25303 7.95664 3.18115C7.87227 3.09365 7.78164 3.11865 7.80977 3.25303C7.87539 3.37803 7.98477 3.43428 8.12227 3.45928C8.18789 3.46865 8.28789 3.49053 8.40039 3.49053C8.51289 3.49053 8.63789 3.4749 8.70664 3.49053C8.66602 3.51553 8.61914 3.5624 8.52539 3.57803C8.43164 3.59678 8.29102 3.52178 8.20352 3.50303C8.21289 3.5749 8.30664 3.64365 8.48789 3.68115C8.78789 3.74365 9.03477 3.79365 9.20039 3.88428C9.33137 3.95731 9.44702 4.05492 9.54102 4.17178C9.68789 4.34365 9.69727 4.47803 9.70352 4.50928C9.73477 4.78428 9.63789 4.94053 9.45664 4.99053C9.36914 5.0124 9.20664 4.96865 9.15039 4.8999C9.08789 4.83115 9.03477 4.7124 9.05039 4.5249C9.06602 4.45615 9.14727 4.26553 9.07852 4.22803C8.75267 4.04896 8.4155 3.89134 8.06914 3.75615C7.99102 3.7249 7.92852 3.83115 7.90352 3.8749C7.67277 3.84274 7.45208 3.75958 7.25748 3.63147C7.06289 3.50336 6.89927 3.33352 6.77852 3.13428C6.64727 2.89678 6.42539 3.13428 6.46289 3.3624C6.52227 3.6124 6.71289 3.79365 6.94414 3.9249C7.17852 4.05303 7.47539 4.18115 7.77227 4.1749C7.93477 4.20615 7.93164 4.4124 7.74102 4.45303C7.36289 4.45303 7.05977 4.44678 6.77539 4.17178C6.55977 3.9749 6.44102 4.20928 6.50039 4.34053C6.60664 4.7499 7.19102 4.86553 7.78164 4.73428C8.01289 4.69678 7.87539 4.94053 7.81289 4.94365C7.56289 5.12178 7.12227 5.29365 6.73164 4.94365C6.55352 4.80615 6.43164 4.91865 6.50039 5.11553C6.67227 5.63115 7.33477 5.52178 7.78789 5.27178C7.90352 5.20615 8.00977 5.35615 7.86914 5.47178C7.30352 5.86553 7.02227 5.87178 6.76602 5.72178C6.44727 5.59365 6.42227 5.94678 6.60977 6.06553C6.81914 6.19053 7.35352 6.09678 7.74727 5.84678C7.91602 5.72178 7.92227 5.91865 7.81602 5.99678C7.35039 6.3999 7.16602 6.50615 6.68164 6.44053C6.44102 6.42178 6.44414 6.71865 6.63164 6.83428C6.89102 6.99365 7.39727 6.73115 7.78789 6.40303C7.95352 6.31553 7.98164 6.45928 7.90039 6.63115C7.7274 6.87593 7.49223 7.07011 7.21914 7.19365C7.00039 7.27803 6.79414 7.26553 6.64727 7.21553C6.46602 7.15303 6.44414 7.34053 6.54414 7.50928C6.60352 7.6124 6.85039 7.64365 7.11914 7.5499C7.38789 7.45615 7.67539 7.23115 7.87227 6.97178C8.04414 6.81865 8.02539 7.02178 7.94414 7.16553C7.55039 7.79053 7.18789 8.02178 6.70977 7.98428C6.50039 7.94678 6.45039 8.10928 6.58477 8.26553C6.82227 8.45928 7.11602 8.45303 7.37852 8.25928C7.60664 8.04053 8.04727 7.55928 8.27852 7.30303C8.44102 7.1749 8.49414 7.30303 8.44414 7.56553C8.40039 7.71553 8.29414 7.87803 7.99727 7.99053C7.79414 8.10615 7.94727 8.26553 8.09727 8.27178C8.18164 8.27178 8.35039 8.17178 8.48164 8.02803C8.65039 7.83428 8.66289 7.70615 8.75664 7.40615C8.84414 7.2624 9.00352 7.33115 9.00352 7.48115C8.92539 7.78115 8.86289 7.83428 8.70664 7.95615C8.55977 8.09678 8.80977 8.14365 8.89414 8.08428C9.13789 7.92178 9.22539 7.70928 9.30664 7.51553C9.36914 7.37803 9.53789 7.44365 9.45664 7.67178C9.26914 8.21553 8.95664 8.42803 8.41602 8.54053C8.36289 8.5499 8.32852 8.58115 8.34727 8.64365L8.56602 8.8624C8.23164 8.9624 7.95977 9.01865 7.62227 9.1124L7.15977 8.80615C7.11914 8.70615 7.09727 8.5499 6.85352 8.65928C6.69102 8.58428 6.61289 8.6124 6.52227 8.69053C6.65352 8.69053 6.70977 8.72803 6.76289 8.7874C6.83164 8.96553 6.98789 8.98428 7.14727 8.93428C7.25039 9.01865 7.30352 9.0874 7.40977 9.1749L6.88789 9.15928C6.70039 8.9624 6.55664 8.97178 6.42539 9.12803C6.32227 9.14365 6.28164 9.14365 6.21289 9.26553C6.31914 9.22178 6.38789 9.20928 6.43477 9.25615C6.63164 9.37178 6.75977 9.34678 6.85664 9.25615L7.40352 9.29053C7.33477 9.35303 7.24102 9.38428 7.16914 9.44053C6.88789 9.35928 6.73789 9.47178 6.68789 9.6999C6.64839 9.79135 6.6354 9.89205 6.65039 9.99053C6.67539 9.89678 6.72227 9.81865 6.80352 9.77178C7.05352 9.83428 7.14727 9.73115 7.16289 9.58115C7.28789 9.48115 7.46914 9.45928 7.59102 9.35928C7.73477 9.40303 7.80352 9.43115 7.94727 9.47803C7.99727 9.63428 8.11289 9.69365 8.30039 9.65303C8.51914 9.65928 8.48164 9.75303 8.50039 9.8249C8.56289 9.72178 8.55977 9.61865 8.42227 9.5249C8.37227 9.39053 8.25977 9.32803 8.11602 9.40615C7.97852 9.36865 7.94414 9.3124 7.80664 9.27178C8.15039 9.1624 8.39414 9.1374 8.73789 9.02803L8.97852 9.24053C9.02539 9.26865 9.06914 9.2749 9.09727 9.24053C9.31289 8.92803 9.40977 8.65615 9.60664 8.4499C9.68477 8.3624 9.78164 8.2499 9.88789 8.22178C9.94102 8.20615 10.0066 8.21553 10.0504 8.2624C10.091 8.30615 10.1254 8.39053 10.1129 8.51865C10.091 8.69678 10.0473 8.75615 9.99727 8.8624C9.94414 8.97178 9.88477 9.0374 9.81914 9.12178C9.69414 9.2874 9.52539 9.38428 9.42539 9.4499C9.22539 9.57803 9.14414 9.52178 8.98789 9.5124C8.78789 9.53428 8.73789 9.63115 8.90039 9.76553C9.05039 9.84678 9.18789 9.85615 9.30039 9.83428C9.39414 9.81553 9.50664 9.69365 9.58789 9.62803C9.67539 9.5249 9.82539 9.64678 9.72227 9.76865C9.53789 9.9874 9.35664 10.1312 9.12852 10.128C8.88789 10.1593 8.93477 10.2937 9.09102 10.3593C9.37852 10.4749 9.63477 10.2562 9.76602 10.1093C9.86602 9.9999 9.93789 9.99678 9.92227 10.1687C9.81914 10.478 9.68477 10.5968 9.45977 10.6124C9.27852 10.5937 9.27539 10.7374 9.40977 10.8312C9.70977 11.0374 9.92852 10.6812 10.0316 10.4687C10.1035 10.2749 10.216 10.3655 10.2285 10.5249C10.2285 10.7405 10.1348 10.9124 9.87539 11.1312C10.0723 11.4468 10.3035 11.7687 10.5004 12.0843L11.1004 5.39678L10.5004 4.34365C10.4379 4.2874 10.2254 4.0374 10.1723 3.9999C10.1504 3.98115 10.141 3.96865 10.1691 3.95615C10.1973 3.94365 10.2629 3.93115 10.3098 3.9249C10.1848 3.79678 10.0723 3.75615 9.83164 3.6874C9.89102 3.6624 9.94727 3.6749 10.1223 3.66865C10.0149 3.52437 9.86851 3.41378 9.70039 3.3499C9.83164 3.25615 9.85664 3.2499 9.98789 3.14053C9.78087 3.12453 9.57639 3.08469 9.37852 3.02178C9.26034 2.96562 9.13358 2.9297 9.00352 2.91553H9.00039ZM9.02539 3.17803C9.14414 3.17803 9.21602 3.21865 9.21602 3.26865C9.21602 3.31865 9.14414 3.35928 9.02539 3.35928C8.90664 3.35928 8.83164 3.3124 8.83164 3.26553C8.83164 3.21553 8.90664 3.17803 9.02539 3.17803Z" fill="black"/>
<path d="M11.9996 2.91553C12.1434 2.91553 12.384 2.9624 12.3809 3.07178C12.7871 3.00615 12.8277 3.17178 12.8027 3.32178C12.7652 3.2624 12.7184 3.22803 12.6809 3.2249C12.6277 3.21553 12.5715 3.23428 12.5121 3.26865C12.4561 3.30378 12.4056 3.34695 12.3621 3.39678C12.5059 3.43115 12.6184 3.40928 12.7309 3.39053C12.7944 3.37698 12.8549 3.35153 12.909 3.31553C12.9559 3.28428 12.9715 3.25303 13.0434 3.18115C13.1277 3.09365 13.2184 3.11865 13.1902 3.25303C13.1246 3.37803 13.0152 3.43428 12.8777 3.45928C12.8121 3.46865 12.7121 3.49053 12.5996 3.49053C12.4871 3.49053 12.3621 3.4749 12.2934 3.49053C12.334 3.51553 12.3809 3.5624 12.4746 3.57803C12.5684 3.59678 12.709 3.52178 12.7965 3.50303C12.7871 3.5749 12.6934 3.64365 12.5121 3.68115C12.2121 3.74365 11.9652 3.79365 11.7996 3.88428C11.6686 3.95731 11.553 4.05492 11.459 4.17178C11.3121 4.34365 11.3027 4.47803 11.2965 4.50928C11.2652 4.78428 11.3621 4.94053 11.5434 4.99053C11.6309 5.0124 11.7934 4.96865 11.8496 4.8999C11.9121 4.83115 11.9652 4.7124 11.9496 4.5249C11.934 4.45615 11.8527 4.26553 11.9215 4.22803C12.2473 4.04896 12.5845 3.89134 12.9309 3.75615C13.009 3.7249 13.0715 3.83115 13.0965 3.8749C13.3272 3.84274 13.5479 3.75958 13.7425 3.63147C13.9371 3.50336 14.1007 3.33352 14.2215 3.13428C14.3527 2.89678 14.5746 3.13428 14.5371 3.3624C14.4777 3.6124 14.2871 3.79365 14.0559 3.9249C13.8215 4.05303 13.5246 4.18115 13.2277 4.1749C13.0652 4.20615 13.0684 4.4124 13.259 4.45303C13.6371 4.45303 13.9402 4.44678 14.2246 4.17178C14.4402 3.9749 14.559 4.20928 14.4996 4.34053C14.3934 4.7499 13.809 4.86553 13.2184 4.73428C12.9871 4.69678 13.1246 4.94053 13.1871 4.94365C13.4371 5.12178 13.8777 5.29365 14.2684 4.94365C14.4465 4.80615 14.5684 4.91865 14.4996 5.11553C14.3277 5.63115 13.6652 5.52178 13.2121 5.27178C13.0965 5.20615 12.9902 5.35615 13.1309 5.47178C13.6965 5.86553 13.9777 5.87178 14.234 5.72178C14.5527 5.59365 14.5777 5.94678 14.3902 6.06553C14.1809 6.19053 13.6465 6.09678 13.2527 5.84678C13.084 5.72178 13.0777 5.91865 13.184 5.99678C13.6496 6.3999 13.834 6.50615 14.3184 6.44053C14.559 6.42178 14.5559 6.71865 14.3684 6.83428C14.109 6.99365 13.6027 6.73115 13.2121 6.40303C13.0465 6.31553 13.0184 6.45928 13.0996 6.63115C13.2726 6.87593 13.5078 7.07011 13.7809 7.19365C13.9996 7.27803 14.2059 7.26553 14.3527 7.21553C14.534 7.15303 14.5559 7.34053 14.4559 7.50928C14.3965 7.6124 14.1496 7.64365 13.8809 7.5499C13.6121 7.45615 13.3246 7.23115 13.1277 6.97178C12.9559 6.81865 12.9746 7.02178 13.0559 7.16553C13.4496 7.79053 13.8121 8.02178 14.2902 7.98428C14.4996 7.94678 14.5496 8.10928 14.4152 8.26553C14.1777 8.45928 13.884 8.45303 13.6215 8.25928C13.3934 8.04053 12.9527 7.55928 12.7215 7.30303C12.559 7.1749 12.5059 7.30303 12.5559 7.56553C12.5996 7.71553 12.7059 7.87803 13.0027 7.99053C13.2059 8.10615 13.0527 8.26553 12.9027 8.27178C12.8184 8.27178 12.6496 8.17178 12.5184 8.02803C12.3496 7.83428 12.3371 7.70615 12.2434 7.40615C12.1559 7.2624 11.9965 7.33115 11.9965 7.48115C12.0746 7.78115 12.1371 7.83428 12.2934 7.95615C12.4402 8.09678 12.1902 8.14365 12.1059 8.08428C11.8621 7.92178 11.7746 7.70928 11.6934 7.51553C11.6309 7.37803 11.4621 7.44365 11.5434 7.67178C11.7309 8.21553 12.0434 8.42803 12.584 8.54053C12.6371 8.5499 12.6715 8.58115 12.6527 8.64365L12.434 8.8624C12.7684 8.9624 13.0402 9.01865 13.3777 9.1124L13.8402 8.80615C13.8809 8.70615 13.9027 8.5499 14.1465 8.65928C14.309 8.58428 14.3871 8.6124 14.4777 8.69053C14.3465 8.69053 14.2902 8.72803 14.2371 8.7874C14.1684 8.96553 14.0121 8.98428 13.8527 8.93428C13.7496 9.01865 13.6965 9.0874 13.5902 9.1749L14.1121 9.15928C14.2996 8.9624 14.4434 8.97178 14.5746 9.12803C14.6777 9.14365 14.7184 9.14365 14.7871 9.26553C14.6809 9.22178 14.6121 9.20928 14.5652 9.25615C14.3684 9.37178 14.2402 9.34678 14.1434 9.25615L13.5965 9.29053C13.6652 9.35303 13.759 9.38428 13.8309 9.44053C14.1121 9.35928 14.2621 9.47178 14.3121 9.6999C14.3516 9.79135 14.3646 9.89205 14.3496 9.99053C14.3246 9.89678 14.2777 9.81865 14.1965 9.77178C13.9465 9.83428 13.8527 9.73115 13.8371 9.58115C13.7121 9.48115 13.5309 9.45928 13.409 9.35928C13.2652 9.40303 13.1965 9.43115 13.0527 9.47803C13.0027 9.63428 12.8871 9.69365 12.6996 9.65303C12.4809 9.65928 12.5184 9.75303 12.4996 9.8249C12.4371 9.72178 12.4402 9.61865 12.5777 9.5249C12.6277 9.39053 12.7402 9.32803 12.884 9.40615C13.0215 9.36865 13.0559 9.3124 13.1934 9.27178C12.8496 9.1624 12.6059 9.1374 12.2621 9.02803L12.0215 9.24053C11.9746 9.26865 11.9309 9.2749 11.9027 9.24053C11.6871 8.92803 11.5902 8.65615 11.3934 8.4499C11.3152 8.3624 11.2184 8.2499 11.1121 8.22178C11.059 8.20615 10.9934 8.21553 10.9496 8.2624C10.909 8.30615 10.8746 8.39053 10.8871 8.51865C10.909 8.69678 10.9527 8.75615 11.0027 8.8624C11.0559 8.97178 11.1152 9.0374 11.1809 9.12178C11.3059 9.2874 11.4746 9.38428 11.5746 9.4499C11.7746 9.57803 11.8559 9.52178 12.0121 9.5124C12.2121 9.53428 12.2621 9.63115 12.0996 9.76553C11.9496 9.84678 11.8121 9.85615 11.6996 9.83428C11.6059 9.81553 11.4934 9.69365 11.4121 9.62803C11.3246 9.5249 11.1746 9.64678 11.2777 9.76865C11.4621 9.9874 11.6434 10.1312 11.8715 10.128C12.1121 10.1593 12.0652 10.2937 11.909 10.3593C11.6215 10.4749 11.3652 10.2562 11.234 10.1093C11.134 9.9999 11.0621 9.99678 11.0777 10.1687C11.1809 10.478 11.3152 10.5968 11.5402 10.6124C11.7215 10.5937 11.7246 10.7374 11.5902 10.8312C11.2902 11.0374 11.0715 10.6812 10.9684 10.4687C10.8965 10.2749 10.784 10.3655 10.7715 10.5249C10.7715 10.7405 10.8652 10.9124 11.1246 11.1312C10.9277 11.4468 10.6965 11.7687 10.4996 12.0843L9.89961 5.39678L10.4996 4.34365C10.5621 4.2874 10.7746 4.0374 10.8277 3.9999C10.8496 3.98115 10.859 3.96865 10.8309 3.95615C10.8027 3.94365 10.7371 3.93115 10.6902 3.9249C10.8152 3.79678 10.9277 3.75615 11.1684 3.6874C11.109 3.6624 11.0527 3.6749 10.8777 3.66865C10.9851 3.52437 11.1315 3.41378 11.2996 3.3499C11.1684 3.25615 11.1434 3.2499 11.0121 3.14053C11.2191 3.12453 11.4236 3.08469 11.6215 3.02178C11.7397 2.96562 11.8664 2.9297 11.9965 2.91553H11.9996ZM11.9746 3.17803C11.8559 3.17803 11.784 3.21865 11.784 3.26865C11.784 3.31865 11.8559 3.35928 11.9746 3.35928C12.0934 3.35928 12.1684 3.3124 12.1684 3.26553C12.1684 3.21553 12.0934 3.17803 11.9746 3.17803Z" fill="black"/>
</g>
<defs>
<clipPath id="clip0_1_648">
<rect width="20" height="15" fill="white" transform="translate(0.5)"/>
</clipPath>
</defs>
</svg>
