<svg width="21" height="15" viewBox="0 0 21 15" fill="none" xmlns="http://www.w3.org/2000/svg">
<g clip-path="url(#clip0_1_655)">
<path d="M10.5 0H20.5V15H10.5V0Z" fill="white"/>
<path d="M0.5 0H10.5V15H0.5V0Z" fill="#006233"/>
<path d="M13.7495 5.625C13.3368 4.91009 12.6997 4.35136 11.937 4.03545C11.1744 3.71955 10.3288 3.66412 9.53138 3.87778C8.73401 4.09144 8.02941 4.56223 7.52688 5.21715C7.02434 5.87206 6.75195 6.6745 6.75195 7.5C6.75195 8.3255 7.02434 9.12794 7.52688 9.78286C8.02941 10.4378 8.73401 10.9086 9.53138 11.1222C10.3288 11.3359 11.1744 11.2805 11.937 10.9645C12.6997 10.6486 13.3368 10.0899 13.7495 9.375C13.3611 9.8602 12.8315 10.2128 12.234 10.384C11.6365 10.5552 11.0006 10.5365 10.4141 10.3307C9.82763 10.1248 9.31958 9.74191 8.96015 9.23483C8.60073 8.72775 8.40767 8.12155 8.40767 7.5C8.40767 6.87845 8.60073 6.27225 8.96015 5.76517C9.31958 5.25809 9.82763 4.87516 10.4141 4.66931C11.0006 4.46346 11.6365 4.44485 12.234 4.61605C12.8315 4.78725 13.3611 5.13981 13.7495 5.625ZM13.8745 7.5L10.4995 6.4L12.5995 9.275V5.725L10.4995 8.6L13.8745 7.5Z" fill="#D21034"/>
</g>
<defs>
<clipPath id="clip0_1_655">
<rect width="20" height="15" fill="white" transform="translate(0.5)"/>
</clipPath>
</defs>
</svg>
