<svg width="24" height="24" viewBox="0 0 24 24" fill="none" xmlns="http://www.w3.org/2000/svg">
<path d="M19.5 14.25C19.928 14.2398 20.351 14.1552 20.75 14V15C20.7475 15.9506 20.4604 16.8787 19.9257 17.6647C19.391 18.4506 18.6332 19.0585 17.75 19.41V21C17.75 21.1989 17.671 21.3897 17.5303 21.5303C17.3897 21.671 17.1989 21.75 17 21.75C16.8011 21.75 16.6103 21.671 16.4697 21.5303C16.329 21.3897 16.25 21.1989 16.25 21V19.72C16.1668 19.7255 16.0832 19.7255 16 19.72H8C7.91676 19.7255 7.83324 19.7255 7.75 19.72V21C7.75 21.1989 7.67098 21.3897 7.53033 21.5303C7.38968 21.671 7.19891 21.75 7 21.75C6.80109 21.75 6.61032 21.671 6.46967 21.5303C6.32902 21.3897 6.25 21.1989 6.25 21V19.41C5.36676 19.0585 4.60899 18.4506 4.07431 17.6647C3.53963 16.8787 3.25253 15.9506 3.25 15V14C3.65083 14.145 4.07375 14.2194 4.5 14.22L19.5 14.25ZM19.75 8.25V5C19.75 4.27065 19.4603 3.57118 18.9445 3.05546C18.4288 2.53973 17.7293 2.25 17 2.25C16.2707 2.25 15.5712 2.53973 15.0555 3.05546C14.5397 3.57118 14.25 4.27065 14.25 5C14.25 5.19891 14.329 5.38968 14.4697 5.53033C14.6103 5.67098 14.8011 5.75 15 5.75C15.1989 5.75 15.3897 5.67098 15.5303 5.53033C15.671 5.38968 15.75 5.19891 15.75 5C15.75 4.66848 15.8817 4.35054 16.1161 4.11612C16.3505 3.8817 16.6685 3.75 17 3.75C17.3315 3.75 17.6495 3.8817 17.8839 4.11612C18.1183 4.35054 18.25 4.66848 18.25 5V8.25H4.5C3.90326 8.25 3.33097 8.48705 2.90901 8.90901C2.48705 9.33097 2.25 9.90326 2.25 10.5C2.25 11.0967 2.48705 11.669 2.90901 12.091C3.33097 12.5129 3.90326 12.75 4.5 12.75H19.5C20.0798 12.7611 20.6412 12.547 21.0663 12.1526C21.4915 11.7583 21.7471 11.2145 21.7795 10.6355C21.8119 10.0565 21.6185 9.48759 21.24 9.04829C20.8615 8.609 20.3274 8.33359 19.75 8.28V8.25Z" fill="white"/>
</svg>
