<svg width="24" height="24" viewBox="0 0 24 24" fill="none" xmlns="http://www.w3.org/2000/svg">
<path d="M5.76 8.88C4.84794 9.05409 3.98873 9.43748 3.25 10V4C3.25263 3.53668 3.43784 3.09309 3.76546 2.76546C4.09309 2.43784 4.53668 2.25263 5 2.25H19C19.4633 2.25263 19.9069 2.43784 20.2345 2.76546C20.5622 3.09309 20.7474 3.53668 20.75 4V10C20.0122 9.43391 19.1529 9.04706 18.24 8.87C18.2073 8.43048 18.0099 8.0195 17.6873 7.71918C17.3647 7.41885 16.9407 7.2513 16.5 7.25H14.5C14.0813 7.25288 13.6774 7.40582 13.3618 7.68105C13.0463 7.95628 12.8398 8.33555 12.78 8.75H11.22C11.1602 8.33555 10.9537 7.95628 10.6382 7.68105C10.3226 7.40582 9.91874 7.25288 9.5 7.25H7.5C7.05766 7.25149 6.63229 7.42043 6.30947 7.72284C5.98665 8.02525 5.79033 8.4387 5.76 8.88ZM2.25 18C2.2497 18.3298 2.34368 18.6528 2.52085 18.931C2.69802 19.2091 2.95101 19.4308 3.25 19.57V21C3.25 21.1989 3.32902 21.3897 3.46967 21.5303C3.61032 21.671 3.80109 21.75 4 21.75C4.19891 21.75 4.38968 21.671 4.53033 21.5303C4.67098 21.3897 4.75 21.1989 4.75 21V19.75H19.25V21C19.25 21.1989 19.329 21.3897 19.4697 21.5303C19.6103 21.671 19.8011 21.75 20 21.75C20.1989 21.75 20.3897 21.671 20.5303 21.5303C20.671 21.3897 20.75 21.1989 20.75 21V19.57C21.049 19.4308 21.302 19.2091 21.4792 18.931C21.6563 18.6528 21.7503 18.3298 21.75 18V16.75H2.25V18ZM17 10.25H7C5.74022 10.25 4.53204 10.7504 3.64124 11.6412C2.75045 12.532 2.25 13.7402 2.25 15V15.25H21.75V15C21.75 13.7402 21.2496 12.532 20.3588 11.6412C19.468 10.7504 18.2598 10.25 17 10.25Z" fill="white"/>
</svg>
