<svg width="21" height="22" viewBox="0 0 21 22" fill="none" xmlns="http://www.w3.org/2000/svg">
<path d="M17.6904 10.3452V15.8214C17.6904 16.9508 16.7662 17.8749 15.6369 17.8749H6.05356C4.92418 17.8749 4 16.9508 4 15.8214V10.3452H17.6904Z" fill="#003501"/>
<path d="M17.6904 7.60712V8.97616H4V7.60712C4 6.47774 4.92418 5.55356 6.05356 5.55356H7.4226V4.18452C7.4226 3.80816 7.7306 3.5 8.10712 3.5C8.48365 3.5 8.79164 3.80816 8.79164 4.18452V5.55356H12.8988V4.18452C12.8988 3.80816 13.2068 3.5 13.5833 3.5C13.9598 3.5 14.2678 3.80816 14.2678 4.18452V5.55356H15.6369C16.7662 5.55356 17.6904 6.47771 17.6904 7.60712Z" fill="#003501"/>
</svg>
