<svg width="21" height="21" viewBox="0 0 21 21" fill="none" xmlns="http://www.w3.org/2000/svg">
<g clip-path="url(#clip0_1_7989)">
<path d="M10.5053 4C12.56 4 14.3803 4.69531 16.0521 5.84375C16.9154 6.4375 17.7084 7.12891 18.4232 7.89453C19.1732 8.70312 19.8646 9.5625 20.4545 10.4961C20.517 10.5938 20.517 10.6641 20.4545 10.7617C19.9232 11.582 19.3295 12.3633 18.6771 13.0938C17.685 14.207 16.5639 15.1641 15.2787 15.9219C14.1537 16.5859 12.9428 17.0352 11.642 17.1914C9.7162 17.418 7.88417 17.082 6.16542 16.168C4.42714 15.25 2.99355 13.9688 1.77089 12.4492C1.3373 11.9102 0.958391 11.3281 0.548235 10.7695C0.474016 10.668 0.493547 10.5898 0.552141 10.4883C1.05995 9.66797 1.6537 8.91797 2.29433 8.19922C3.41933 6.94141 4.69277 5.875 6.19277 5.08203C7.17714 4.55859 8.24745 4.21484 9.35292 4.06641C9.73573 4.01953 10.1225 4.01953 10.5053 4ZM15.3646 10.6289C15.3412 7.87891 13.1615 5.76563 10.4935 5.76953C7.82167 5.75781 5.64589 7.91016 5.63417 10.582V10.6367C5.63808 13.3398 7.79042 15.5 10.5014 15.4961C13.2045 15.4922 15.3451 13.3398 15.3646 10.6289Z" fill="#003501"/>
<path d="M10.5 13.668C8.82813 13.668 7.46094 12.3008 7.46094 10.6289C7.46094 8.95703 8.83203 7.59375 10.5039 7.59375C12.1758 7.59375 13.5352 8.96875 13.5313 10.6406C13.5313 12.3008 12.1602 13.668 10.5 13.668Z" fill="#003501"/>
</g>
<defs>
<clipPath id="clip0_1_7989">
<rect width="20" height="20" fill="white" transform="translate(0.5 0.5)"/>
</clipPath>
</defs>
</svg>
