<svg width="16" height="16" viewBox="0 0 16 16" fill="none" xmlns="http://www.w3.org/2000/svg">
<path d="M7.99826 0C4.84298 0 2.28516 2.55783 2.28516 5.7131C2.28516 10.4664 7.37553 15.6139 7.59263 15.831C7.81483 16.055 8.17654 16.0565 8.40057 15.8343L8.40389 15.831C8.62098 15.6139 13.7114 10.4664 13.7114 5.7131C13.7114 2.55783 11.1535 0 7.99826 0ZM7.99826 7.99834C6.73616 7.99834 5.71302 6.9752 5.71302 5.7131C5.71302 4.451 6.73616 3.42786 7.99826 3.42786C9.26035 3.42786 10.2835 4.451 10.2835 5.7131C10.2835 6.9752 9.26039 7.99834 7.99826 7.99834Z" fill="#003501"/>
</svg>
