<svg width="24" height="24" viewBox="0 0 24 24" fill="none" xmlns="http://www.w3.org/2000/svg">
<g clip-path="url(#clip0_1_5758)">
<path d="M11.9913 1.41211C7.53683 1.41211 3.92578 5.02316 3.92578 9.47766C3.92578 16.1882 11.1122 23.4553 11.4187 23.7618C11.7324 24.078 12.243 24.0801 12.5593 23.7664L12.564 23.7618C12.8705 23.4553 20.0569 16.1882 20.0569 9.47766C20.0569 5.02316 16.4458 1.41211 11.9913 1.41211ZM11.9913 12.7039C10.2096 12.7039 8.76511 11.2594 8.76511 9.47766C8.76511 7.69588 10.2096 6.25144 11.9913 6.25144C13.7731 6.25144 15.2176 7.69588 15.2176 9.47766C15.2176 11.2594 13.7732 12.7039 11.9913 12.7039Z" fill="white"/>
</g>
<defs>
<clipPath id="clip0_1_5758">
<rect width="24" height="24" fill="white"/>
</clipPath>
</defs>
</svg>
