<svg width="24" height="24" viewBox="0 0 24 24" fill="none" xmlns="http://www.w3.org/2000/svg">
<path d="M4.75 3.75V16.25H5C5.19891 16.25 5.38968 16.329 5.53033 16.4697C5.67098 16.6103 5.75 16.8011 5.75 17C5.75 17.1989 5.67098 17.3897 5.53033 17.5303C5.38968 17.671 5.19891 17.75 5 17.75H3C2.80109 17.75 2.61032 17.671 2.46967 17.5303C2.32902 17.3897 2.25 17.1989 2.25 17C2.25 16.8011 2.32902 16.6103 2.46967 16.4697C2.61032 16.329 2.80109 16.25 3 16.25H3.25V3.75H3C2.80109 3.75 2.61032 3.67098 2.46967 3.53033C2.32902 3.38968 2.25 3.19891 2.25 3C2.25 2.80109 2.32902 2.61032 2.46967 2.46967C2.61032 2.32902 2.80109 2.25 3 2.25H5C5.19891 2.25 5.38968 2.32902 5.53033 2.46967C5.67098 2.61032 5.75 2.80109 5.75 3C5.75 3.19891 5.67098 3.38968 5.53033 3.53033C5.38968 3.67098 5.19891 3.75 5 3.75H4.75ZM21 18.25C20.8019 18.2526 20.6126 18.3324 20.4725 18.4725C20.3324 18.6126 20.2526 18.8019 20.25 19V19.25H7.75V19C7.75 18.8011 7.67098 18.6103 7.53033 18.4697C7.38968 18.329 7.19891 18.25 7 18.25C6.80109 18.25 6.61032 18.329 6.46967 18.4697C6.32902 18.6103 6.25 18.8011 6.25 19V21C6.25 21.1989 6.32902 21.3897 6.46967 21.5303C6.61032 21.671 6.80109 21.75 7 21.75C7.19891 21.75 7.38968 21.671 7.53033 21.5303C7.67098 21.3897 7.75 21.1989 7.75 21V20.75H20.25V21C20.25 21.1989 20.329 21.3897 20.4697 21.5303C20.6103 21.671 20.8011 21.75 21 21.75C21.1989 21.75 21.3897 21.671 21.5303 21.5303C21.671 21.3897 21.75 21.1989 21.75 21V19C21.7474 18.8019 21.6676 18.6126 21.5275 18.4725C21.3874 18.3324 21.1981 18.2526 21 18.25ZM19 8.25H21.75V4C21.7474 3.53668 21.5622 3.09309 21.2345 2.76546C20.9069 2.43784 20.4633 2.25263 20 2.25H12.75V8.25H15C15.1989 8.25 15.3897 8.32902 15.5303 8.46967C15.671 8.61032 15.75 8.80109 15.75 9C15.75 9.19891 15.671 9.38968 15.5303 9.53033C15.3897 9.67098 15.1989 9.75 15 9.75H12.75V10C12.75 10.1989 12.671 10.3897 12.5303 10.5303C12.3897 10.671 12.1989 10.75 12 10.75C11.8011 10.75 11.6103 10.671 11.4697 10.5303C11.329 10.3897 11.25 10.1989 11.25 10V2.25H9C8.53668 2.25263 8.09309 2.43784 7.76546 2.76546C7.43784 3.09309 7.25262 3.53668 7.25 4V15C7.25262 15.4633 7.43784 15.9069 7.76546 16.2345C8.09309 16.5622 8.53668 16.7474 9 16.75H11.25V14C11.25 13.8011 11.329 13.6103 11.4697 13.4697C11.6103 13.329 11.8011 13.25 12 13.25C12.1989 13.25 12.3897 13.329 12.5303 13.4697C12.671 13.6103 12.75 13.8011 12.75 14V16.75H20C20.4633 16.7474 20.9069 16.5622 21.2345 16.2345C21.5622 15.9069 21.7474 15.4633 21.75 15V9.75H19C18.8011 9.75 18.6103 9.67098 18.4697 9.53033C18.329 9.38968 18.25 9.19891 18.25 9C18.25 8.80109 18.329 8.61032 18.4697 8.46967C18.6103 8.32902 18.8011 8.25 19 8.25Z" fill="white"/>
</svg>
