<svg width="16" height="17" viewBox="0 0 16 17" fill="none" xmlns="http://www.w3.org/2000/svg">
<path d="M3.66667 3.5V11.8333H3.83333C3.96594 11.8333 4.09312 11.886 4.18689 11.9798C4.28066 12.0735 4.33333 12.2007 4.33333 12.3333C4.33333 12.4659 4.28066 12.5931 4.18689 12.6869C4.09312 12.7807 3.96594 12.8333 3.83333 12.8333H2.5C2.36739 12.8333 2.24021 12.7807 2.14645 12.6869C2.05268 12.5931 2 12.4659 2 12.3333C2 12.2007 2.05268 12.0735 2.14645 11.9798C2.24021 11.886 2.36739 11.8333 2.5 11.8333H2.66667V3.5H2.5C2.36739 3.5 2.24021 3.44732 2.14645 3.35355C2.05268 3.25979 2 3.13261 2 3C2 2.86739 2.05268 2.74021 2.14645 2.64645C2.24021 2.55268 2.36739 2.5 2.5 2.5H3.83333C3.96594 2.5 4.09312 2.55268 4.18689 2.64645C4.28066 2.74021 4.33333 2.86739 4.33333 3C4.33333 3.13261 4.28066 3.25979 4.18689 3.35355C4.09312 3.44732 3.96594 3.5 3.83333 3.5H3.66667ZM14.5 13.1667C14.3679 13.1684 14.2418 13.2216 14.1484 13.315C14.055 13.4084 14.0017 13.5346 14 13.6667V13.8333H5.66667V13.6667C5.66667 13.5341 5.61399 13.4069 5.52022 13.3131C5.42645 13.2193 5.29927 13.1667 5.16667 13.1667C5.03406 13.1667 4.90688 13.2193 4.81311 13.3131C4.71935 13.4069 4.66667 13.5341 4.66667 13.6667V15C4.66667 15.1326 4.71935 15.2598 4.81311 15.3536C4.90688 15.4473 5.03406 15.5 5.16667 15.5C5.29927 15.5 5.42645 15.4473 5.52022 15.3536C5.61399 15.2598 5.66667 15.1326 5.66667 15V14.8333H14V15C14 15.1326 14.0527 15.2598 14.1464 15.3536C14.2402 15.4473 14.3674 15.5 14.5 15.5C14.6326 15.5 14.7598 15.4473 14.8536 15.3536C14.9473 15.2598 15 15.1326 15 15V13.6667C14.9983 13.5346 14.945 13.4084 14.8516 13.315C14.7582 13.2216 14.6321 13.1684 14.5 13.1667ZM13.1667 6.5H15V3.66667C14.9983 3.35779 14.8748 3.06206 14.6564 2.84364C14.4379 2.62523 14.1422 2.50175 13.8333 2.5H9V6.5H10.5C10.6326 6.5 10.7598 6.55268 10.8536 6.64645C10.9473 6.74022 11 6.86739 11 7C11 7.13261 10.9473 7.25979 10.8536 7.35355C10.7598 7.44732 10.6326 7.5 10.5 7.5H9V7.66667C9 7.79927 8.94732 7.92645 8.85355 8.02022C8.75979 8.11399 8.63261 8.16667 8.5 8.16667C8.36739 8.16667 8.24022 8.11399 8.14645 8.02022C8.05268 7.92645 8 7.79927 8 7.66667V2.5H6.5C6.19112 2.50175 5.89539 2.62523 5.67698 2.84364C5.45856 3.06206 5.33508 3.35779 5.33333 3.66667V11C5.33508 11.3089 5.45856 11.6046 5.67698 11.823C5.89539 12.0414 6.19112 12.1649 6.5 12.1667H8V10.3333C8 10.2007 8.05268 10.0735 8.14645 9.97978C8.24022 9.88601 8.36739 9.83333 8.5 9.83333C8.63261 9.83333 8.75979 9.88601 8.85355 9.97978C8.94732 10.0735 9 10.2007 9 10.3333V12.1667H13.8333C14.1422 12.1649 14.4379 12.0414 14.6564 11.823C14.8748 11.6046 14.9983 11.3089 15 11V7.5H13.1667C13.0341 7.5 12.9069 7.44732 12.8131 7.35355C12.7193 7.25979 12.6667 7.13261 12.6667 7C12.6667 6.86739 12.7193 6.74022 12.8131 6.64645C12.9069 6.55268 13.0341 6.5 13.1667 6.5Z" fill="#003501"/>
</svg>
